<svg width="110" height="170" viewBox="0 0 110 170" fill="none" xmlns="http://www.w3.org/2000/svg">
  <path d="M109.542 0.041626H0.458328L10.0833 109.125L55 121.958L99.9167 109.125L109.542 0.041626Z" fill="#0277BD" />
  <path d="M55 9.66663V112.006L90.9333 101.746L98.9542 9.66663H55Z" fill="#039BE5" />
  <path d="M84.2022 25.7083H55V38.5416H70.7144L69.7647 51.3749H55V64.2083H69.1102L68.1606 78.6458L55 83.131V96.6189L80.3394 88.2708L82.5981 51.3749L84.2022 25.7083Z" fill="white" />
  <path d="M55.0001 25.7083V38.5416H26.4523L25.4866 25.7083H55.0001ZM40.2353 51.3749L40.8898 64.2083H55.0001V51.3749H40.2353ZM41.5283 70.6249H28.6949L29.6574 88.2708L55.0001 96.6189V83.131L41.8395 78.6458L41.5283 70.6249Z" fill="#EEEEEE" />
  <path d="M27.34 145.024C28.084 145.408 28.456 146.02 28.456 146.86C28.456 147.364 28.276 147.856 27.916 148.336C27.532 148.84 27.04 149.092 26.44 149.092C26.032 149.092 25.624 148.984 25.216 148.768C24.04 148.216 22.768 147.94 21.4 147.94C19.72 147.94 18.256 148.3 17.008 149.02C15.76 149.716 14.8 150.712 14.128 152.008C13.456 153.28 13.12 154.744 13.12 156.4C13.12 159.232 13.876 161.38 15.388 162.844C16.924 164.308 18.928 165.04 21.4 165.04C22.864 165.04 24.136 164.764 25.216 164.212C25.648 164.02 26.032 163.924 26.368 163.924C26.992 163.924 27.52 164.188 27.952 164.716C28.312 165.172 28.492 165.664 28.492 166.192C28.492 166.576 28.396 166.924 28.204 167.236C28.012 167.548 27.736 167.788 27.376 167.956C25.504 168.892 23.512 169.36 21.4 169.36C19.048 169.36 16.888 168.868 14.92 167.884C12.952 166.876 11.38 165.4 10.204 163.456C9.028 161.512 8.44 159.16 8.44 156.4C8.44 153.952 8.992 151.756 10.096 149.812C11.224 147.868 12.772 146.356 14.74 145.276C16.708 144.172 18.928 143.62 21.4 143.62C23.536 143.62 25.516 144.088 27.34 145.024ZM40.3703 169.36C38.6423 169.36 37.1063 169.144 35.7623 168.712C34.4183 168.28 33.1583 167.548 31.9823 166.516C31.3343 165.94 31.0103 165.304 31.0103 164.608C31.0103 164.056 31.2143 163.576 31.6223 163.168C32.0303 162.736 32.5223 162.52 33.0983 162.52C33.5543 162.52 33.9623 162.664 34.3223 162.952C35.2823 163.744 36.2183 164.32 37.1303 164.68C38.0423 165.04 39.1223 165.22 40.3703 165.22C41.7143 165.22 42.8663 164.92 43.8263 164.32C44.8103 163.72 45.3023 162.976 45.3023 162.088C45.3023 161.008 44.8223 160.168 43.8623 159.568C42.9023 158.944 41.3783 158.476 39.2903 158.164C34.0343 157.396 31.4063 154.948 31.4063 150.82C31.4063 149.308 31.8023 148 32.5943 146.896C33.3863 145.768 34.4663 144.916 35.8343 144.34C37.2023 143.74 38.7263 143.44 40.4063 143.44C41.9183 143.44 43.3343 143.668 44.6543 144.124C45.9983 144.58 47.1143 145.18 48.0023 145.924C48.6983 146.476 49.0463 147.112 49.0463 147.832C49.0463 148.384 48.8423 148.876 48.4343 149.308C48.0263 149.716 47.5463 149.92 46.9943 149.92C46.6343 149.92 46.3103 149.812 46.0223 149.596C45.3983 149.092 44.5223 148.636 43.3943 148.228C42.2903 147.796 41.2943 147.58 40.4063 147.58C38.8943 147.58 37.7183 147.868 36.8783 148.444C36.0623 148.996 35.6543 149.728 35.6543 150.64C35.6543 151.672 36.0743 152.452 36.9143 152.98C37.7783 153.508 39.1223 153.94 40.9463 154.276C43.0103 154.636 44.6543 155.104 45.8783 155.68C47.1263 156.232 48.0623 157 48.6863 157.984C49.3103 158.944 49.6223 160.228 49.6223 161.836C49.6223 163.348 49.1903 164.68 48.3263 165.832C47.4863 166.96 46.3583 167.836 44.9423 168.46C43.5263 169.06 42.0023 169.36 40.3703 169.36ZM61.8508 169.36C60.1228 169.36 58.5868 169.144 57.2428 168.712C55.8988 168.28 54.6388 167.548 53.4628 166.516C52.8148 165.94 52.4908 165.304 52.4908 164.608C52.4908 164.056 52.6948 163.576 53.1028 163.168C53.5108 162.736 54.0028 162.52 54.5788 162.52C55.0348 162.52 55.4428 162.664 55.8028 162.952C56.7628 163.744 57.6988 164.32 58.6108 164.68C59.5228 165.04 60.6028 165.22 61.8508 165.22C63.1948 165.22 64.3468 164.92 65.3068 164.32C66.2908 163.72 66.7828 162.976 66.7828 162.088C66.7828 161.008 66.3028 160.168 65.3428 159.568C64.3828 158.944 62.8588 158.476 60.7708 158.164C55.5148 157.396 52.8868 154.948 52.8868 150.82C52.8868 149.308 53.2828 148 54.0748 146.896C54.8668 145.768 55.9468 144.916 57.3148 144.34C58.6828 143.74 60.2068 143.44 61.8868 143.44C63.3988 143.44 64.8148 143.668 66.1348 144.124C67.4788 144.58 68.5948 145.18 69.4828 145.924C70.1788 146.476 70.5268 147.112 70.5268 147.832C70.5268 148.384 70.3228 148.876 69.9148 149.308C69.5068 149.716 69.0268 149.92 68.4748 149.92C68.1148 149.92 67.7908 149.812 67.5028 149.596C66.8788 149.092 66.0028 148.636 64.8748 148.228C63.7708 147.796 62.7748 147.58 61.8868 147.58C60.3748 147.58 59.1988 147.868 58.3588 148.444C57.5428 148.996 57.1348 149.728 57.1348 150.64C57.1348 151.672 57.5548 152.452 58.3948 152.98C59.2588 153.508 60.6028 153.94 62.4268 154.276C64.4908 154.636 66.1348 155.104 67.3588 155.68C68.6068 156.232 69.5428 157 70.1668 157.984C70.7908 158.944 71.1028 160.228 71.1028 161.836C71.1028 163.348 70.6708 164.68 69.8068 165.832C68.9668 166.96 67.8388 167.836 66.4228 168.46C65.0068 169.06 63.4828 169.36 61.8508 169.36ZM93.2771 153.016C94.5971 153.064 95.7611 153.448 96.7691 154.168C97.8011 154.888 98.5931 155.836 99.1451 157.012C99.6971 158.164 99.9731 159.4 99.9731 160.72C99.9731 162.472 99.5771 164.008 98.7851 165.328C97.9931 166.624 96.8771 167.62 95.4371 168.316C93.9971 169.012 92.3171 169.36 90.3971 169.36C89.5331 169.36 88.6691 169.252 87.8051 169.036C86.9411 168.82 86.1851 168.532 85.5371 168.172C84.6491 167.692 84.2051 167.044 84.2051 166.228C84.2051 165.652 84.4091 165.124 84.8171 164.644C85.2251 164.164 85.7171 163.924 86.2931 163.924C86.7731 163.924 87.2891 164.104 87.8411 164.464C88.8731 165.256 90.0131 165.652 91.2611 165.652C92.0051 165.652 92.7131 165.472 93.3851 165.112C94.0571 164.728 94.5971 164.188 95.0051 163.492C95.4371 162.772 95.6531 161.956 95.6531 161.044C95.6531 159.748 95.2571 158.74 94.4651 158.02C93.6971 157.3 92.7611 156.94 91.6571 156.94C91.1771 156.94 90.7571 156.988 90.3971 157.084C90.0371 157.18 89.8211 157.24 89.7491 157.264C89.1251 157.456 88.6091 157.552 88.2011 157.552C87.6731 157.552 87.2531 157.372 86.9411 157.012C86.6291 156.628 86.4731 156.16 86.4731 155.608C86.4731 155.272 86.5331 154.972 86.6531 154.708C86.7731 154.444 86.9771 154.156 87.2651 153.844L92.8451 147.76H85.7171C85.1411 147.76 84.6611 147.568 84.2771 147.184C83.8931 146.8 83.7011 146.32 83.7011 145.744C83.7011 145.192 83.8931 144.736 84.2771 144.376C84.6611 143.992 85.1411 143.8 85.7171 143.8H96.7331C97.4531 143.8 98.0051 144.004 98.3891 144.412C98.7731 144.796 98.9651 145.312 98.9651 145.96C98.9651 146.536 98.6771 147.112 98.1011 147.688L93.2771 153.016Z" fill="#0277BD" />
</svg>