<svg width="131" height="169" viewBox="0 0 131 169" fill="none" xmlns="http://www.w3.org/2000/svg">
  <path d="M18.166 117.695L7.67578 0H123.068L112.578 117.695L65.2441 131" fill="#E34F26" />
  <path d="M65.5 120.766L103.623 110.275L112.578 9.4668H65.5" fill="#EF652A" />
  <path d="M65.5 53.2188H46.3105L45.0312 38.3789H65.5V24.0508H29.168L33.0059 67.8027H65.5V53.2188ZM65.2441 90.8301L49.125 86.4805L48.1016 74.9668H33.7734L35.5645 97.7383L65.2441 105.926V90.8301Z" fill="#EBEBEB" />
  <path d="M65.2441 53.2188V67.8027H83.1543L81.3633 86.4805L65.2441 90.8301V105.926L94.9238 97.7383L99.0176 53.2188H65.2441ZM65.2441 24.0508V38.3789H100.297L101.576 24.0508H65.2441Z" fill="white" />
  <path d="M20.952 142.8C21.624 142.8 22.164 143.004 22.572 143.412C22.98 143.82 23.184 144.348 23.184 144.996V165.804C23.184 166.428 22.968 166.956 22.536 167.388C22.104 167.796 21.552 168 20.88 168C20.28 168 19.764 167.796 19.332 167.388C18.9 166.956 18.684 166.428 18.684 165.804V157.416H7.2V165.804C7.2 166.428 6.972 166.956 6.516 167.388C6.06 167.796 5.532 168 4.932 168C4.284 168 3.744 167.796 3.312 167.388C2.904 166.956 2.7 166.428 2.7 165.804V144.996C2.7 144.372 2.916 143.856 3.348 143.448C3.78 143.016 4.332 142.8 5.004 142.8C5.604 142.8 6.12 143.016 6.552 143.448C6.984 143.856 7.2 144.372 7.2 144.996V153.276H18.684V144.996C18.684 144.372 18.912 143.856 19.368 143.448C19.824 143.016 20.352 142.8 20.952 142.8ZM45.135 142.8C45.783 142.8 46.311 142.992 46.719 143.376C47.127 143.76 47.331 144.264 47.331 144.888C47.331 145.512 47.127 146.016 46.719 146.4C46.311 146.76 45.783 146.94 45.135 146.94H39.483V165.804C39.483 166.428 39.255 166.956 38.799 167.388C38.343 167.796 37.779 168 37.107 168C36.435 168 35.883 167.796 35.451 167.388C35.019 166.956 34.803 166.428 34.803 165.804V146.94H29.151C28.503 146.94 27.975 146.748 27.567 146.364C27.159 145.98 26.955 145.476 26.955 144.852C26.955 144.252 27.159 143.76 27.567 143.376C27.999 142.992 28.527 142.8 29.151 142.8H45.135ZM72.9622 142.764C73.5622 142.764 74.0782 142.98 74.5102 143.412C74.9662 143.82 75.1942 144.336 75.1942 144.96V165.804C75.1942 166.428 74.9902 166.956 74.5822 167.388C74.1742 167.796 73.6342 168 72.9622 168C72.2902 168 71.7382 167.796 71.3062 167.388C70.8982 166.98 70.6942 166.452 70.6942 165.804V151.296L64.7542 160.368C64.5142 160.656 64.2382 160.896 63.9262 161.088C63.6142 161.256 63.2902 161.328 62.9542 161.304C62.6422 161.328 62.3302 161.256 62.0182 161.088C61.7062 160.896 61.4302 160.656 61.1902 160.368L55.2502 150.972V165.804C55.2502 166.452 55.0582 166.98 54.6742 167.388C54.2902 167.796 53.7862 168 53.1622 168C52.5622 168 52.0702 167.796 51.6862 167.388C51.3022 166.956 51.1102 166.428 51.1102 165.804V144.96C51.1102 144.36 51.3262 143.844 51.7582 143.412C52.2142 142.98 52.7542 142.764 53.3782 142.764C53.7382 142.764 54.0982 142.86 54.4582 143.052C54.8182 143.22 55.0942 143.448 55.2862 143.736L63.1342 155.796L71.1982 143.736C71.3902 143.448 71.6422 143.22 71.9542 143.052C72.2902 142.86 72.6262 142.764 72.9622 142.764ZM94.5023 163.788C95.1263 163.788 95.6423 163.992 96.0503 164.4C96.4823 164.784 96.6983 165.288 96.6983 165.912C96.6983 166.512 96.4823 167.016 96.0503 167.424C95.6423 167.808 95.1263 168 94.5023 168H82.8023C82.1783 168 81.6503 167.796 81.2183 167.388C80.8103 166.956 80.6063 166.428 80.6063 165.804V144.996C80.6063 144.372 80.8223 143.856 81.2543 143.448C81.6863 143.016 82.2383 142.8 82.9103 142.8C83.5103 142.8 84.0263 143.016 84.4583 143.448C84.8903 143.856 85.1063 144.372 85.1063 144.996V163.788H94.5023ZM118.111 151.08C119.695 151.08 121.123 151.452 122.395 152.196C123.691 152.916 124.699 153.912 125.419 155.184C126.163 156.456 126.535 157.872 126.535 159.432C126.535 161.04 126.079 162.528 125.167 163.896C124.255 165.264 123.043 166.356 121.531 167.172C120.019 167.964 118.387 168.36 116.635 168.36C115.699 168.36 114.727 168.216 113.719 167.928C112.735 167.64 111.931 167.244 111.307 166.74C111.019 166.5 110.779 166.164 110.587 165.732C110.395 165.3 110.299 164.892 110.299 164.508C110.299 164.076 110.479 163.692 110.839 163.356C111.223 162.996 111.715 162.816 112.315 162.816C112.747 162.816 113.287 163.044 113.935 163.5C114.943 164.124 115.831 164.436 116.599 164.436C117.583 164.436 118.507 164.208 119.371 163.752C120.235 163.296 120.919 162.684 121.423 161.916C121.951 161.148 122.215 160.32 122.215 159.432C122.215 158.136 121.771 157.08 120.883 156.264C119.995 155.448 118.939 155.04 117.715 155.04C117.163 155.04 116.671 155.112 116.239 155.256C115.807 155.4 115.291 155.616 114.691 155.904C114.259 156.12 113.911 156.276 113.647 156.372C113.407 156.468 113.155 156.516 112.891 156.516C111.955 156.516 111.283 156.264 110.875 155.76C110.491 155.256 110.299 154.656 110.299 153.96C110.299 153.72 110.311 153.552 110.335 153.456L111.451 144.528C111.547 144.024 111.787 143.616 112.171 143.304C112.579 142.968 113.059 142.8 113.611 142.8H124.015C124.591 142.8 125.071 142.992 125.455 143.376C125.839 143.76 126.031 144.24 126.031 144.816C126.031 145.368 125.839 145.836 125.455 146.22C125.071 146.58 124.591 146.76 124.015 146.76H115.087L114.403 151.98C114.859 151.716 115.435 151.5 116.131 151.332C116.827 151.164 117.487 151.08 118.111 151.08Z" fill="#E34F26" />
</svg>