<svg width="128" height="169" viewBox="0 0 128 169" fill="none" xmlns="http://www.w3.org/2000/svg">
  <path fill-rule="evenodd" clip-rule="evenodd" d="M127.043 29.5768C127.09 29.7511 127.114 29.9308 127.114 30.1114V58.1744C127.114 58.5346 127.019 58.8884 126.838 59.2001C126.658 59.5117 126.398 59.7702 126.085 59.9494L102.51 73.5103V100.389C102.51 101.121 102.121 101.796 101.486 102.164L52.2752 130.468C52.1626 130.531 52.0397 130.572 51.9168 130.616C51.8707 130.631 51.8272 130.659 51.7786 130.672C51.4346 130.763 51.073 130.763 50.729 130.672C50.6726 130.657 50.6214 130.626 50.5677 130.606C50.455 130.565 50.3373 130.529 50.2298 130.468L1.02912 102.164C0.716563 101.985 0.456859 101.726 0.276184 101.415C0.0955095 101.103 0.000247653 100.749 0 100.389L0 16.2001C0 16.0159 0.0256 15.8369 0.07168 15.663C0.08704 15.6042 0.12288 15.5504 0.14336 15.4916C0.18176 15.3842 0.2176 15.2742 0.27392 15.1745C0.31232 15.108 0.36864 15.0542 0.41472 14.9929C0.4736 14.911 0.52736 14.8266 0.59648 14.755C0.65536 14.6962 0.73216 14.6527 0.79872 14.6015C0.87296 14.5402 0.93952 14.4737 1.024 14.4251H1.02656L25.6282 0.273344C25.9397 0.0942555 26.2928 0 26.6522 0C27.0116 0 27.3647 0.0942555 27.6762 0.273344L52.2778 14.4251H52.2829C52.3648 14.4762 52.4339 14.5402 52.5082 14.599C52.5747 14.6501 52.649 14.6962 52.7078 14.7524C52.7795 14.8266 52.8307 14.911 52.8922 14.9929C52.9357 15.0542 52.9946 15.108 53.0304 15.1745C53.0893 15.2768 53.1226 15.3842 53.1635 15.4916C53.184 15.5504 53.2198 15.6042 53.2352 15.6655C53.2823 15.8398 53.3064 16.0195 53.3069 16.2001V68.7837L73.8074 56.9902V30.1088C73.8074 29.9298 73.833 29.7482 73.879 29.5768C73.897 29.5154 73.9302 29.4617 73.9507 29.4029C73.9917 29.2955 74.0275 29.1855 74.0838 29.0857C74.1222 29.0192 74.1786 28.9655 74.2221 28.9042C74.2835 28.8223 74.3347 28.7379 74.4064 28.6663C74.4653 28.6075 74.5395 28.564 74.6061 28.5128C74.6829 28.4514 74.7494 28.3849 74.8314 28.3363H74.8339L99.4381 14.1846C99.7495 14.0053 100.103 13.9109 100.462 13.9109C100.822 13.9109 101.175 14.0053 101.486 14.1846L126.088 28.3363C126.175 28.3875 126.241 28.4514 126.318 28.5103C126.382 28.5614 126.456 28.6075 126.515 28.6637C126.587 28.7379 126.638 28.8223 126.7 28.9042C126.746 28.9655 126.802 29.0192 126.838 29.0857C126.897 29.1855 126.93 29.2955 126.971 29.4029C126.994 29.4617 127.027 29.5154 127.043 29.5768ZM123.013 56.9902V33.6538L114.404 38.6055L102.51 45.4473V68.7837L123.016 56.9902H123.013ZM98.4115 99.2049V75.8531L86.7123 82.5287L53.3043 101.578V125.15L98.4115 99.2049ZM4.10112 19.7425V99.2049L49.2032 125.148V101.581L25.641 88.258L25.6333 88.2528L25.623 88.2477C25.5437 88.2017 25.4771 88.1352 25.4029 88.0789C25.3389 88.0278 25.2646 87.9868 25.2083 87.9306L25.2032 87.9229C25.1366 87.859 25.0906 87.7797 25.0342 87.7081C24.983 87.639 24.9216 87.5802 24.8806 87.5086L24.8781 87.5009C24.832 87.4241 24.8038 87.3321 24.7706 87.2451C24.7373 87.1684 24.6938 87.0968 24.6733 87.0149V87.0124C24.6477 86.9152 24.6426 86.8129 24.6323 86.7131C24.6221 86.6364 24.6016 86.5596 24.6016 86.4829V86.4778V31.536L12.7104 24.6916L4.10112 19.7451V19.7425ZM26.6547 4.41169L6.1568 16.2001L26.6496 27.9885L47.145 16.1975L26.6496 4.41169H26.6547ZM37.3146 77.9811L49.2058 71.1419V19.7425L40.5965 24.6942L28.7027 31.536V82.9354L37.3146 77.9811ZM100.462 18.323L79.9667 30.1114L100.462 41.8998L120.955 30.1088L100.462 18.323ZM98.4115 45.4473L86.5178 38.6055L77.9085 33.6538V56.9902L89.7997 63.8294L98.4115 68.7837V45.4473ZM51.2512 98.036L81.3133 80.8892L96.3405 72.321L75.8605 60.5402L52.2803 74.1037L30.7891 86.465L51.2512 98.036Z" fill="#FF2D20" />
  <path d="M15.596 163.788C16.22 163.788 16.736 163.992 17.144 164.4C17.576 164.784 17.792 165.288 17.792 165.912C17.792 166.512 17.576 167.016 17.144 167.424C16.736 167.808 16.22 168 15.596 168H3.896C3.272 168 2.744 167.796 2.312 167.388C1.904 166.956 1.7 166.428 1.7 165.804V144.996C1.7 144.372 1.916 143.856 2.348 143.448C2.78 143.016 3.332 142.8 4.004 142.8C4.604 142.8 5.12 143.016 5.552 143.448C5.984 143.856 6.2 144.372 6.2 144.996V163.788H15.596ZM37.1428 148.38C37.7668 148.38 38.2828 148.584 38.6908 148.992C39.0988 149.4 39.3028 149.928 39.3028 150.576V165.804C39.3028 166.428 39.0988 166.956 38.6908 167.388C38.2828 167.796 37.7668 168 37.1428 168C36.5188 168 36.0028 167.796 35.5948 167.388C35.2108 166.98 35.0068 166.464 34.9828 165.84C34.3828 166.536 33.5668 167.136 32.5348 167.64C31.5268 168.12 30.4588 168.36 29.3308 168.36C27.6748 168.36 26.1748 167.94 24.8308 167.1C23.4868 166.236 22.4188 165.048 21.6268 163.536C20.8588 162.024 20.4748 160.308 20.4748 158.388C20.4748 156.468 20.8588 154.752 21.6268 153.24C22.3948 151.704 23.4388 150.516 24.7588 149.676C26.1028 148.812 27.5788 148.38 29.1868 148.38C30.3388 148.38 31.4188 148.596 32.4268 149.028C33.4348 149.436 34.2868 149.964 34.9828 150.612V150.576C34.9828 149.952 35.1868 149.436 35.5948 149.028C36.0028 148.596 36.5188 148.38 37.1428 148.38ZM29.8708 164.4C31.4308 164.4 32.7028 163.836 33.6868 162.708C34.6708 161.556 35.1628 160.116 35.1628 158.388C35.1628 156.66 34.6708 155.22 33.6868 154.068C32.7028 152.916 31.4308 152.34 29.8708 152.34C28.3348 152.34 27.0748 152.916 26.0908 154.068C25.1068 155.22 24.6148 156.66 24.6148 158.388C24.6148 160.116 25.0948 161.556 26.0548 162.708C27.0388 163.836 28.3108 164.4 29.8708 164.4ZM53.9925 148.38C54.7125 148.38 55.3125 148.584 55.7925 148.992C56.2965 149.4 56.5485 149.88 56.5485 150.432C56.5485 151.176 56.3565 151.74 55.9725 152.124C55.5885 152.484 55.1325 152.664 54.6045 152.664C54.2445 152.664 53.8365 152.58 53.3805 152.412C53.3085 152.388 53.1405 152.34 52.8765 152.268C52.6365 152.196 52.3725 152.16 52.0845 152.16C51.4605 152.16 50.8605 152.352 50.2845 152.736C49.7085 153.12 49.2285 153.708 48.8445 154.5C48.4845 155.268 48.3045 156.192 48.3045 157.272V165.804C48.3045 166.428 48.1005 166.956 47.6925 167.388C47.2845 167.796 46.7685 168 46.1445 168C45.5205 168 45.0045 167.796 44.5965 167.388C44.1885 166.956 43.9845 166.428 43.9845 165.804V150.936C43.9845 150.312 44.1885 149.796 44.5965 149.388C45.0045 148.956 45.5205 148.74 46.1445 148.74C46.7685 148.74 47.2845 148.956 47.6925 149.388C48.1005 149.796 48.3045 150.312 48.3045 150.936V151.404C48.8565 150.42 49.6485 149.676 50.6805 149.172C51.7125 148.644 52.8165 148.38 53.9925 148.38ZM74.76 148.38C75.384 148.38 75.9 148.584 76.308 148.992C76.716 149.4 76.92 149.928 76.92 150.576V165.804C76.92 166.428 76.716 166.956 76.308 167.388C75.9 167.796 75.384 168 74.76 168C74.136 168 73.62 167.796 73.212 167.388C72.828 166.98 72.624 166.464 72.6 165.84C72 166.536 71.184 167.136 70.152 167.64C69.144 168.12 68.076 168.36 66.948 168.36C65.292 168.36 63.792 167.94 62.448 167.1C61.104 166.236 60.036 165.048 59.244 163.536C58.476 162.024 58.092 160.308 58.092 158.388C58.092 156.468 58.476 154.752 59.244 153.24C60.012 151.704 61.056 150.516 62.376 149.676C63.72 148.812 65.196 148.38 66.804 148.38C67.956 148.38 69.036 148.596 70.044 149.028C71.052 149.436 71.904 149.964 72.6 150.612V150.576C72.6 149.952 72.804 149.436 73.212 149.028C73.62 148.596 74.136 148.38 74.76 148.38ZM67.488 164.4C69.048 164.4 70.32 163.836 71.304 162.708C72.288 161.556 72.78 160.116 72.78 158.388C72.78 156.66 72.288 155.22 71.304 154.068C70.32 152.916 69.048 152.34 67.488 152.34C65.952 152.34 64.692 152.916 63.708 154.068C62.724 155.22 62.232 156.66 62.232 158.388C62.232 160.116 62.712 161.556 63.672 162.708C64.656 163.836 65.928 164.4 67.488 164.4ZM95.9758 148.776C96.5518 148.776 97.0318 148.968 97.4158 149.352C97.7998 149.712 97.9918 150.168 97.9918 150.72C97.9918 151.008 97.8958 151.368 97.7038 151.8L90.9718 166.632C90.8038 167.04 90.5518 167.364 90.2158 167.604C89.9038 167.844 89.5438 167.976 89.1358 168L88.8118 168.036C88.4038 168.036 88.0198 167.916 87.6598 167.676C87.3238 167.412 87.0598 167.064 86.8678 166.632L80.1718 151.8C80.0038 151.416 79.9198 151.032 79.9198 150.648C79.9198 150.168 80.1238 149.736 80.5318 149.352C80.9398 148.944 81.4438 148.74 82.0438 148.74C82.4998 148.74 82.9198 148.86 83.3038 149.1C83.6878 149.34 83.9758 149.676 84.1678 150.108L89.1358 161.484L94.0678 150.144C94.2598 149.688 94.5238 149.34 94.8598 149.1C95.1958 148.86 95.5678 148.752 95.9758 148.776ZM118.499 157.92C118.475 158.496 118.247 158.964 117.815 159.324C117.383 159.684 116.879 159.864 116.303 159.864H104.423C104.711 161.28 105.371 162.396 106.403 163.212C107.435 164.004 108.599 164.4 109.895 164.4C110.879 164.4 111.647 164.316 112.199 164.148C112.751 163.956 113.183 163.764 113.495 163.572C113.831 163.356 114.059 163.212 114.179 163.14C114.611 162.924 115.019 162.816 115.403 162.816C115.907 162.816 116.339 162.996 116.699 163.356C117.059 163.716 117.239 164.136 117.239 164.616C117.239 165.264 116.903 165.852 116.231 166.38C115.559 166.932 114.659 167.4 113.531 167.784C112.403 168.168 111.263 168.36 110.111 168.36C108.095 168.36 106.331 167.94 104.819 167.1C103.331 166.26 102.179 165.108 101.363 163.644C100.547 162.156 100.139 160.488 100.139 158.64C100.139 156.576 100.571 154.764 101.435 153.204C102.299 151.644 103.439 150.456 104.855 149.64C106.271 148.8 107.783 148.38 109.391 148.38C110.975 148.38 112.463 148.812 113.855 149.676C115.271 150.54 116.399 151.704 117.239 153.168C118.079 154.632 118.499 156.216 118.499 157.92ZM109.391 152.34C106.607 152.34 104.963 153.648 104.459 156.264H113.891V156.012C113.795 155.004 113.303 154.14 112.415 153.42C111.527 152.7 110.519 152.34 109.391 152.34ZM126.782 165.804C126.782 166.428 126.566 166.956 126.134 167.388C125.726 167.796 125.21 168 124.586 168C123.986 168 123.482 167.796 123.074 167.388C122.666 166.956 122.462 166.428 122.462 165.804V143.556C122.462 142.932 122.666 142.416 123.074 142.008C123.506 141.576 124.034 141.36 124.658 141.36C125.258 141.36 125.762 141.576 126.17 142.008C126.578 142.416 126.782 142.932 126.782 143.556V165.804Z" fill="#FF2D20" />
</svg>