<svg width="147" height="166" viewBox="0 0 147 166" fill="none" xmlns="http://www.w3.org/2000/svg">
  <path d="M44.686 105.497C44.5769 105.304 44.4795 105.105 44.3946 104.9C43.8072 103.541 43.6263 102.041 43.8739 100.581H9.12208L60.7678 9.69506L77.7228 39.5002L82.6393 30.8008L67.8594 4.76317C67.1509 3.42947 66.1194 2.29467 64.8592 1.46257C63.5989 0.630461 62.1502 0.127608 60.6454 0C59.1442 0.0687348 57.6923 0.557327 56.4549 1.41022C55.2176 2.26312 54.2443 3.44611 53.6459 4.82465L1.32624 96.813C0.544052 98.1118 0.0930553 99.583 0.0129298 101.097C-0.0671957 102.611 0.226005 104.122 0.866737 105.496C1.67155 106.765 2.8153 107.783 4.16864 108.435C5.52198 109.088 7.0309 109.349 8.52475 109.188H52.344C50.85 109.351 49.3403 109.092 47.9865 108.439C46.6327 107.787 45.4892 106.767 44.686 105.497Z" fill="#00C492" />
  <path d="M145.435 96.8129L102.443 21.0748C101.738 19.7269 100.705 18.5784 99.4385 17.7352C98.1723 16.892 96.7142 16.3814 95.1986 16.2505C93.6983 16.3152 92.2465 16.8004 91.0088 17.6508C89.7711 18.5012 88.7975 19.6824 88.1991 21.0597L82.6393 30.8008L87.5863 39.5002L95.2432 25.9455L137.777 100.581H121.603C121.81 101.815 121.694 103.081 121.266 104.256C121.176 104.516 121.064 104.767 120.929 105.007L120.792 105.283C119.913 106.524 118.742 107.529 117.382 108.21C116.022 108.891 114.516 109.227 112.996 109.187H138.298C139.818 109.228 141.325 108.893 142.685 108.212C144.045 107.531 145.216 106.525 146.094 105.283C146.787 103.95 147.092 102.451 146.976 100.954C146.859 99.4565 146.326 98.022 145.435 96.8129Z" fill="#008776" />
  <path d="M120.792 105.283L120.929 105.007C121.064 104.767 121.176 104.516 121.266 104.256C121.694 103.081 121.81 101.815 121.603 100.581C121.365 99.25 120.888 97.9734 120.194 96.8129L87.6181 39.5002L82.6405 30.8008L77.6934 39.5002L45.1313 96.8144C44.4992 97.9888 44.0744 99.2634 43.8754 100.582C43.6134 102.038 43.7784 103.538 44.3504 104.901C44.4351 105.106 44.5325 105.306 44.6417 105.499C45.4468 106.767 46.5906 107.785 47.944 108.437C49.2974 109.09 50.8063 109.35 52.3 109.19H112.95C114.478 109.235 115.993 108.901 117.361 108.22C118.729 107.538 119.907 106.529 120.792 105.283H120.792ZM82.6393 48.1996L112.414 100.581H52.8802L82.6393 48.1996Z" fill="#2D4A5D" />
  <path d="M35.816 132.918C36.392 132.918 36.86 133.11 37.22 133.494C37.58 133.878 37.76 134.358 37.76 134.934V155.922C37.76 156.546 37.544 157.074 37.112 157.506C36.704 157.914 36.188 158.118 35.564 158.118C35.228 158.118 34.892 158.07 34.556 157.974C34.244 157.854 34.016 157.698 33.872 157.506L20.66 140.73V156.102C20.66 156.678 20.468 157.158 20.084 157.542C19.724 157.926 19.244 158.118 18.644 158.118C18.068 158.118 17.6 157.926 17.24 157.542C16.88 157.158 16.7 156.678 16.7 156.102V135.114C16.7 134.49 16.904 133.974 17.312 133.566C17.744 133.134 18.272 132.918 18.896 132.918C19.256 132.918 19.604 132.99 19.94 133.134C20.3 133.278 20.564 133.47 20.732 133.71L33.836 150.414V134.934C33.836 134.358 34.016 133.878 34.376 133.494C34.76 133.11 35.24 132.918 35.816 132.918ZM57.1047 138.858C57.7287 138.858 58.2447 139.074 58.6527 139.506C59.0607 139.914 59.2647 140.43 59.2647 141.054V150.198C59.2647 152.79 58.5447 154.818 57.1047 156.282C55.6887 157.746 53.6607 158.478 51.0207 158.478C48.3807 158.478 46.3527 157.746 44.9367 156.282C43.5207 154.818 42.8127 152.79 42.8127 150.198V141.054C42.8127 140.43 43.0167 139.914 43.4247 139.506C43.8327 139.074 44.3487 138.858 44.9727 138.858C45.5967 138.858 46.1127 139.074 46.5207 139.506C46.9287 139.914 47.1327 140.43 47.1327 141.054V150.198C47.1327 151.662 47.4567 152.754 48.1047 153.474C48.7527 154.17 49.7247 154.518 51.0207 154.518C52.3407 154.518 53.3247 154.17 53.9727 153.474C54.6207 152.754 54.9447 151.662 54.9447 150.198V141.054C54.9447 140.43 55.1487 139.914 55.5567 139.506C55.9647 139.074 56.4807 138.858 57.1047 138.858ZM78.1256 154.698C78.4376 155.082 78.5936 155.514 78.5936 155.994C78.5936 156.594 78.3656 157.11 77.9096 157.542C77.4536 157.974 76.9496 158.19 76.3976 158.19C75.7016 158.19 75.1136 157.878 74.6336 157.254L70.3136 151.89L66.1016 157.254C65.8856 157.542 65.6216 157.77 65.3096 157.938C65.0216 158.082 64.7096 158.154 64.3736 158.154C63.8696 158.154 63.3896 157.962 62.9336 157.578C62.4776 157.194 62.2496 156.75 62.2496 156.246C62.2496 155.766 62.4296 155.31 62.7896 154.878L67.7936 148.758L62.6096 142.314C62.2976 141.93 62.1416 141.498 62.1416 141.018C62.1416 140.418 62.3576 139.914 62.7896 139.506C63.2456 139.074 63.7616 138.858 64.3376 138.858C65.0336 138.858 65.6216 139.158 66.1016 139.758L70.5296 145.266L74.6336 139.83C75.0896 139.182 75.6656 138.858 76.3616 138.858C76.9376 138.858 77.4176 139.062 77.8016 139.47C78.2096 139.854 78.4136 140.298 78.4136 140.802C78.4136 141.33 78.2456 141.798 77.9096 142.206L72.9416 148.254L78.1256 154.698ZM92.5655 154.05C92.9015 154.05 93.2015 154.218 93.4655 154.554C93.7535 154.866 93.8975 155.286 93.8975 155.814C93.8975 156.462 93.5375 157.014 92.8175 157.47C92.1215 157.902 91.3295 158.118 90.4415 158.118C88.9535 158.118 87.6935 157.806 86.6615 157.182C85.6535 156.534 85.1495 155.178 85.1495 153.114V143.178H83.4935C82.9175 143.178 82.4375 142.986 82.0535 142.602C81.6695 142.218 81.4775 141.738 81.4775 141.162C81.4775 140.61 81.6695 140.154 82.0535 139.794C82.4375 139.41 82.9175 139.218 83.4935 139.218H85.1495V136.914C85.1495 136.29 85.3535 135.774 85.7615 135.366C86.1935 134.934 86.7215 134.718 87.3455 134.718C87.9455 134.718 88.4495 134.934 88.8575 135.366C89.2655 135.774 89.4695 136.29 89.4695 136.914V139.218H92.0255C92.6015 139.218 93.0815 139.41 93.4655 139.794C93.8495 140.178 94.0415 140.658 94.0415 141.234C94.0415 141.786 93.8495 142.254 93.4655 142.638C93.0815 142.998 92.6015 143.178 92.0255 143.178H89.4695V152.934C89.4695 153.438 89.6015 153.81 89.8655 154.05C90.1295 154.266 90.4895 154.374 90.9455 154.374C91.1375 154.374 91.4015 154.326 91.7375 154.23C92.0255 154.11 92.3015 154.05 92.5655 154.05ZM99.916 158.082C99.22 158.082 98.68 157.902 98.296 157.542C97.936 157.158 97.756 156.618 97.756 155.922V155.31C97.756 154.614 97.936 154.086 98.296 153.726C98.68 153.342 99.22 153.15 99.916 153.15H100.384C101.08 153.15 101.608 153.342 101.968 153.726C102.352 154.086 102.544 154.614 102.544 155.31V155.922C102.544 156.618 102.352 157.158 101.968 157.542C101.608 157.902 101.08 158.082 100.384 158.082H99.916ZM105.929 165.174C105.353 165.174 104.873 164.982 104.489 164.598C104.105 164.214 103.913 163.734 103.913 163.158V162.762C103.913 161.802 104.525 161.142 105.749 160.782C106.517 160.542 106.997 160.134 107.189 159.558C107.405 159.006 107.513 158.226 107.513 157.218V141.054C107.513 140.43 107.717 139.914 108.125 139.506C108.533 139.074 109.049 138.858 109.673 138.858C110.297 138.858 110.813 139.074 111.221 139.506C111.629 139.914 111.833 140.43 111.833 141.054V158.478C111.833 159.822 111.569 160.998 111.041 162.006C110.537 163.014 109.829 163.794 108.917 164.346C108.029 164.898 107.033 165.174 105.929 165.174ZM109.601 136.518C108.785 136.518 108.209 136.386 107.873 136.122C107.537 135.858 107.369 135.39 107.369 134.718V134.034C107.369 133.362 107.549 132.894 107.909 132.63C108.269 132.366 108.845 132.234 109.637 132.234C110.477 132.234 111.065 132.366 111.401 132.63C111.737 132.894 111.905 133.362 111.905 134.034V134.718C111.905 135.414 111.725 135.894 111.365 136.158C111.029 136.398 110.441 136.518 109.601 136.518ZM115.771 155.13C115.555 154.842 115.447 154.482 115.447 154.05C115.447 153.426 115.759 152.898 116.383 152.466C116.719 152.25 117.067 152.142 117.427 152.142C117.931 152.142 118.411 152.37 118.867 152.826C119.587 153.57 120.331 154.122 121.099 154.482C121.891 154.842 122.839 155.022 123.943 155.022C125.815 154.95 126.751 154.242 126.751 152.898C126.751 152.202 126.427 151.674 125.779 151.314C125.155 150.954 124.171 150.594 122.827 150.234C121.435 149.85 120.295 149.466 119.407 149.082C118.543 148.698 117.787 148.122 117.139 147.354C116.515 146.562 116.203 145.506 116.203 144.186C116.203 143.034 116.527 142.038 117.175 141.198C117.847 140.334 118.711 139.674 119.767 139.218C120.847 138.738 121.987 138.498 123.187 138.498C124.411 138.498 125.635 138.726 126.859 139.182C128.083 139.638 129.043 140.31 129.739 141.198C130.051 141.582 130.207 142.014 130.207 142.494C130.207 143.046 129.979 143.502 129.523 143.862C129.187 144.126 128.803 144.258 128.371 144.258C127.843 144.258 127.411 144.09 127.075 143.754C126.643 143.226 126.079 142.806 125.383 142.494C124.711 142.182 123.943 142.026 123.079 142.026C121.255 142.026 120.343 142.686 120.343 144.006C120.343 144.534 120.511 144.966 120.847 145.302C121.183 145.614 121.603 145.866 122.107 146.058C122.635 146.226 123.367 146.442 124.303 146.706C125.599 147.066 126.679 147.438 127.543 147.822C128.407 148.206 129.139 148.794 129.739 149.586C130.339 150.378 130.639 151.422 130.639 152.718C130.639 153.894 130.291 154.926 129.595 155.814C128.899 156.678 127.999 157.338 126.895 157.794C125.815 158.25 124.699 158.478 123.547 158.478C121.963 158.478 120.487 158.214 119.119 157.686C117.751 157.158 116.635 156.306 115.771 155.13Z" fill="#2D4A5D" />
</svg>