<svg width="213" height="164" viewBox="0 0 213 164" fill="none" xmlns="http://www.w3.org/2000/svg">
  <path fill-rule="evenodd" clip-rule="evenodd" d="M110.5 0C89.3 0 76.05 10.5818 70.75 31.7455C78.7 21.1636 87.975 17.1955 98.575 19.8409C104.623 21.3488 108.945 25.7315 113.73 30.5785C121.524 38.4767 130.546 47.6182 150.25 47.6182C171.45 47.6182 184.7 37.0364 190 15.8727C182.05 26.4545 172.775 30.4227 162.175 27.7773C156.127 26.2694 151.805 21.8867 147.02 17.0397C139.226 9.14151 130.204 0 110.5 0ZM70.75 47.6182C49.55 47.6182 36.3 58.2 31 79.3636C38.95 68.7818 48.225 64.8136 58.825 67.4591C64.8729 68.9699 69.1953 73.3496 73.9801 78.1967C81.774 86.0948 90.7958 95.2364 110.5 95.2364C131.7 95.2364 144.95 84.6545 150.25 63.4909C142.3 74.0727 133.025 78.0409 122.425 75.3954C116.377 73.8875 112.055 69.5049 107.27 64.6578C99.476 56.7597 90.4542 47.6182 70.75 47.6182Z" fill="#14B4C6" />
  <path d="M18.26 137.8C18.908 137.8 19.436 137.992 19.844 138.376C20.252 138.76 20.456 139.264 20.456 139.888C20.456 140.512 20.252 141.016 19.844 141.4C19.436 141.76 18.908 141.94 18.26 141.94H12.608V160.804C12.608 161.428 12.38 161.956 11.924 162.388C11.468 162.796 10.904 163 10.232 163C9.56 163 9.008 162.796 8.576 162.388C8.144 161.956 7.928 161.428 7.928 160.804V141.94H2.276C1.628 141.94 1.1 141.748 0.692 141.364C0.284 140.98 0.08 140.476 0.08 139.852C0.08 139.252 0.284 138.76 0.692 138.376C1.124 137.992 1.652 137.8 2.276 137.8H18.26ZM35.8772 143.38C36.5012 143.38 37.0172 143.584 37.4252 143.992C37.8332 144.4 38.0372 144.928 38.0372 145.576V160.804C38.0372 161.428 37.8332 161.956 37.4252 162.388C37.0172 162.796 36.5012 163 35.8772 163C35.2532 163 34.7372 162.796 34.3292 162.388C33.9452 161.98 33.7412 161.464 33.7172 160.84C33.1172 161.536 32.3012 162.136 31.2692 162.64C30.2612 163.12 29.1932 163.36 28.0652 163.36C26.4092 163.36 24.9092 162.94 23.5652 162.1C22.2212 161.236 21.1532 160.048 20.3612 158.536C19.5932 157.024 19.2092 155.308 19.2092 153.388C19.2092 151.468 19.5932 149.752 20.3612 148.24C21.1292 146.704 22.1732 145.516 23.4932 144.676C24.8372 143.812 26.3132 143.38 27.9212 143.38C29.0732 143.38 30.1532 143.596 31.1612 144.028C32.1692 144.436 33.0212 144.964 33.7172 145.612V145.576C33.7172 144.952 33.9212 144.436 34.3292 144.028C34.7372 143.596 35.2532 143.38 35.8772 143.38ZM28.6052 159.4C30.1652 159.4 31.4372 158.836 32.4212 157.708C33.4052 156.556 33.8972 155.116 33.8972 153.388C33.8972 151.66 33.4052 150.22 32.4212 149.068C31.4372 147.916 30.1652 147.34 28.6052 147.34C27.0692 147.34 25.8092 147.916 24.8252 149.068C23.8412 150.22 23.3492 151.66 23.3492 153.388C23.3492 155.116 23.8292 156.556 24.7892 157.708C25.7732 158.836 27.0452 159.4 28.6052 159.4ZM46.7869 160.804C46.7869 161.428 46.5829 161.956 46.1749 162.388C45.7669 162.796 45.2509 163 44.6269 163C44.0029 163 43.4869 162.796 43.0789 162.388C42.6709 161.956 42.4669 161.428 42.4669 160.804V145.936C42.4669 145.312 42.6709 144.796 43.0789 144.388C43.4869 143.956 44.0029 143.74 44.6269 143.74C45.2509 143.74 45.7669 143.956 46.1749 144.388C46.5829 144.796 46.7869 145.312 46.7869 145.936V160.804ZM44.5909 141.4C43.7749 141.4 43.1989 141.268 42.8629 141.004C42.5269 140.74 42.3589 140.272 42.3589 139.6V138.916C42.3589 138.244 42.5389 137.776 42.8989 137.512C43.2589 137.248 43.8349 137.116 44.6269 137.116C45.4669 137.116 46.0549 137.248 46.3909 137.512C46.7269 137.776 46.8949 138.244 46.8949 138.916V139.6C46.8949 140.296 46.7149 140.776 46.3549 141.04C46.0189 141.28 45.4309 141.4 44.5909 141.4ZM55.9067 160.804C55.9067 161.428 55.6907 161.956 55.2587 162.388C54.8507 162.796 54.3347 163 53.7107 163C53.1107 163 52.6067 162.796 52.1987 162.388C51.7907 161.956 51.5867 161.428 51.5867 160.804V138.556C51.5867 137.932 51.7907 137.416 52.1987 137.008C52.6307 136.576 53.1587 136.36 53.7827 136.36C54.3827 136.36 54.8867 136.576 55.2947 137.008C55.7027 137.416 55.9067 137.932 55.9067 138.556V160.804ZM82.5785 143.74C83.1545 143.74 83.6345 143.956 84.0185 144.388C84.4265 144.796 84.6305 145.324 84.6305 145.972C84.6305 146.188 84.5825 146.464 84.4865 146.8L78.9785 161.632C78.8345 162.064 78.5705 162.412 78.1865 162.676C77.8265 162.916 77.4305 163.036 76.9985 163.036L76.7105 163C75.8945 162.952 75.2825 162.496 74.8745 161.632L71.8145 152.776L68.8985 161.632C68.4905 162.496 67.8785 162.952 67.0625 163L66.7745 163.036C66.3425 163.036 65.9345 162.916 65.5505 162.676C65.1905 162.412 64.9385 162.064 64.7945 161.632L59.2865 146.8C59.1905 146.536 59.1425 146.26 59.1425 145.972C59.1425 145.372 59.3345 144.856 59.7185 144.424C60.1265 143.968 60.6545 143.74 61.3025 143.74C61.7825 143.74 62.1905 143.86 62.5265 144.1C62.8865 144.316 63.1385 144.652 63.2825 145.108L67.1705 155.656L70.0145 147.952C70.3985 147.064 71.0585 146.62 71.9945 146.62C72.4985 146.62 72.8825 146.728 73.1465 146.944C73.4345 147.16 73.6745 147.496 73.8665 147.952L76.6385 155.476L80.4905 145.108C80.6345 144.652 80.8865 144.316 81.2465 144.1C81.6065 143.86 82.0505 143.74 82.5785 143.74ZM92.1033 160.804C92.1033 161.428 91.8993 161.956 91.4913 162.388C91.0833 162.796 90.5673 163 89.9433 163C89.3193 163 88.8033 162.796 88.3953 162.388C87.9873 161.956 87.7833 161.428 87.7833 160.804V145.936C87.7833 145.312 87.9873 144.796 88.3953 144.388C88.8033 143.956 89.3193 143.74 89.9433 143.74C90.5673 143.74 91.0833 143.956 91.4913 144.388C91.8993 144.796 92.1033 145.312 92.1033 145.936V160.804ZM89.9073 141.4C89.0913 141.4 88.5153 141.268 88.1793 141.004C87.8433 140.74 87.6753 140.272 87.6753 139.6V138.916C87.6753 138.244 87.8553 137.776 88.2153 137.512C88.5753 137.248 89.1513 137.116 89.9433 137.116C90.7833 137.116 91.3713 137.248 91.7073 137.512C92.0433 137.776 92.2113 138.244 92.2113 138.916V139.6C92.2113 140.296 92.0313 140.776 91.6713 141.04C91.3353 141.28 90.7473 141.4 89.9073 141.4ZM106.839 143.38C109.287 143.38 110.979 144.112 111.915 145.576C112.851 147.016 113.319 149.02 113.319 151.588V160.804C113.319 161.428 113.115 161.956 112.707 162.388C112.299 162.796 111.783 163 111.159 163C110.535 163 110.019 162.796 109.611 162.388C109.203 161.956 108.999 161.428 108.999 160.804V151.588C108.999 150.268 108.723 149.236 108.171 148.492C107.619 147.724 106.671 147.34 105.327 147.34C103.935 147.34 102.843 147.748 102.051 148.564C101.259 149.356 100.863 150.364 100.863 151.588V160.804C100.863 161.428 100.659 161.956 100.251 162.388C99.8431 162.796 99.3271 163 98.7031 163C98.0791 163 97.5631 162.796 97.1551 162.388C96.7471 161.956 96.5431 161.428 96.5431 160.804V145.936C96.5431 145.312 96.7471 144.796 97.1551 144.388C97.5631 143.956 98.0791 143.74 98.7031 143.74C99.3271 143.74 99.8431 143.956 100.251 144.388C100.659 144.796 100.863 145.312 100.863 145.936V146.548C101.511 145.684 102.351 144.94 103.383 144.316C104.439 143.692 105.591 143.38 106.839 143.38ZM133.576 136.36C134.2 136.36 134.716 136.564 135.124 136.972C135.532 137.38 135.736 137.908 135.736 138.556V160.804C135.736 161.428 135.532 161.956 135.124 162.388C134.716 162.796 134.2 163 133.576 163C132.952 163 132.436 162.796 132.028 162.388C131.644 161.98 131.44 161.464 131.416 160.84C130.816 161.536 130 162.136 128.968 162.64C127.96 163.12 126.892 163.36 125.764 163.36C124.108 163.36 122.608 162.94 121.264 162.1C119.92 161.236 118.852 160.048 118.06 158.536C117.292 157.024 116.908 155.308 116.908 153.388C116.908 151.468 117.292 149.752 118.06 148.24C118.828 146.704 119.872 145.516 121.192 144.676C122.536 143.812 124.012 143.38 125.62 143.38C126.772 143.38 127.852 143.596 128.86 144.028C129.868 144.436 130.72 144.964 131.416 145.612V138.556C131.416 137.932 131.62 137.416 132.028 137.008C132.436 136.576 132.952 136.36 133.576 136.36ZM126.304 159.4C127.864 159.4 129.136 158.836 130.12 157.708C131.104 156.556 131.596 155.116 131.596 153.388C131.596 151.66 131.104 150.22 130.12 149.068C129.136 147.916 127.864 147.34 126.304 147.34C124.768 147.34 123.508 147.916 122.524 149.068C121.54 150.22 121.048 151.66 121.048 153.388C121.048 155.116 121.528 156.556 122.488 157.708C123.472 158.836 124.744 159.4 126.304 159.4ZM168.508 139.024C169.252 139.408 169.624 140.02 169.624 140.86C169.624 141.364 169.444 141.856 169.084 142.336C168.7 142.84 168.208 143.092 167.608 143.092C167.2 143.092 166.792 142.984 166.384 142.768C165.208 142.216 163.936 141.94 162.568 141.94C160.888 141.94 159.424 142.3 158.176 143.02C156.928 143.716 155.968 144.712 155.296 146.008C154.624 147.28 154.288 148.744 154.288 150.4C154.288 153.232 155.044 155.38 156.556 156.844C158.092 158.308 160.096 159.04 162.568 159.04C164.032 159.04 165.304 158.764 166.384 158.212C166.816 158.02 167.2 157.924 167.536 157.924C168.16 157.924 168.688 158.188 169.12 158.716C169.48 159.172 169.66 159.664 169.66 160.192C169.66 160.576 169.564 160.924 169.372 161.236C169.18 161.548 168.904 161.788 168.544 161.956C166.672 162.892 164.68 163.36 162.568 163.36C160.216 163.36 158.056 162.868 156.088 161.884C154.12 160.876 152.548 159.4 151.372 157.456C150.196 155.512 149.608 153.16 149.608 150.4C149.608 147.952 150.16 145.756 151.264 143.812C152.392 141.868 153.94 140.356 155.908 139.276C157.876 138.172 160.096 137.62 162.568 137.62C164.704 137.62 166.684 138.088 168.508 139.024ZM181.538 163.36C179.81 163.36 178.274 163.144 176.93 162.712C175.586 162.28 174.326 161.548 173.15 160.516C172.502 159.94 172.178 159.304 172.178 158.608C172.178 158.056 172.382 157.576 172.79 157.168C173.198 156.736 173.69 156.52 174.266 156.52C174.722 156.52 175.13 156.664 175.49 156.952C176.45 157.744 177.386 158.32 178.298 158.68C179.21 159.04 180.29 159.22 181.538 159.22C182.882 159.22 184.034 158.92 184.994 158.32C185.978 157.72 186.47 156.976 186.47 156.088C186.47 155.008 185.99 154.168 185.03 153.568C184.07 152.944 182.546 152.476 180.458 152.164C175.202 151.396 172.574 148.948 172.574 144.82C172.574 143.308 172.97 142 173.762 140.896C174.554 139.768 175.634 138.916 177.002 138.34C178.37 137.74 179.894 137.44 181.574 137.44C183.086 137.44 184.502 137.668 185.822 138.124C187.166 138.58 188.282 139.18 189.17 139.924C189.866 140.476 190.214 141.112 190.214 141.832C190.214 142.384 190.01 142.876 189.602 143.308C189.194 143.716 188.714 143.92 188.162 143.92C187.802 143.92 187.478 143.812 187.19 143.596C186.566 143.092 185.69 142.636 184.562 142.228C183.458 141.796 182.462 141.58 181.574 141.58C180.062 141.58 178.886 141.868 178.046 142.444C177.23 142.996 176.822 143.728 176.822 144.64C176.822 145.672 177.242 146.452 178.082 146.98C178.946 147.508 180.29 147.94 182.114 148.276C184.178 148.636 185.822 149.104 187.046 149.68C188.294 150.232 189.23 151 189.854 151.984C190.478 152.944 190.79 154.228 190.79 155.836C190.79 157.348 190.358 158.68 189.494 159.832C188.654 160.96 187.526 161.836 186.11 162.46C184.694 163.06 183.17 163.36 181.538 163.36ZM203.019 163.36C201.291 163.36 199.755 163.144 198.411 162.712C197.067 162.28 195.807 161.548 194.631 160.516C193.983 159.94 193.659 159.304 193.659 158.608C193.659 158.056 193.863 157.576 194.271 157.168C194.679 156.736 195.171 156.52 195.747 156.52C196.203 156.52 196.611 156.664 196.971 156.952C197.931 157.744 198.867 158.32 199.779 158.68C200.691 159.04 201.771 159.22 203.019 159.22C204.363 159.22 205.515 158.92 206.475 158.32C207.459 157.72 207.951 156.976 207.951 156.088C207.951 155.008 207.471 154.168 206.511 153.568C205.551 152.944 204.027 152.476 201.939 152.164C196.683 151.396 194.055 148.948 194.055 144.82C194.055 143.308 194.451 142 195.243 140.896C196.035 139.768 197.115 138.916 198.483 138.34C199.851 137.74 201.375 137.44 203.055 137.44C204.567 137.44 205.983 137.668 207.303 138.124C208.647 138.58 209.763 139.18 210.651 139.924C211.347 140.476 211.695 141.112 211.695 141.832C211.695 142.384 211.491 142.876 211.083 143.308C210.675 143.716 210.195 143.92 209.643 143.92C209.283 143.92 208.959 143.812 208.671 143.596C208.047 143.092 207.171 142.636 206.043 142.228C204.939 141.796 203.943 141.58 203.055 141.58C201.543 141.58 200.367 141.868 199.527 142.444C198.711 142.996 198.303 143.728 198.303 144.64C198.303 145.672 198.723 146.452 199.563 146.98C200.427 147.508 201.771 147.94 203.595 148.276C205.659 148.636 207.303 149.104 208.527 149.68C209.775 150.232 210.711 151 211.335 151.984C211.959 152.944 212.271 154.228 212.271 155.836C212.271 157.348 211.839 158.68 210.975 159.832C210.135 160.96 209.007 161.836 207.591 162.46C206.175 163.06 204.651 163.36 203.019 163.36Z" fill="#14B4C6" />
</svg>