<svg width="128" height="172" viewBox="0 0 128 172" fill="none" xmlns="http://www.w3.org/2000/svg">
  <g clip-path="url(#clip0)">
    <path fill-rule="evenodd" clip-rule="evenodd" d="M102.4 8.6144C102.4 8.70592 102.349 8.83552 102.288 8.9024C102.226 8.96928 101.986 9.3696 101.755 9.792C100.831 11.4781 100.691 11.7242 100.48 12.032C100.359 12.208 100.117 12.6112 99.9421 12.928C99.6387 13.4765 98.9862 14.6061 98.5491 15.3395C98.4374 15.5267 98.1552 16.0234 97.9222 16.4429C97.689 16.8627 96.9536 18.1299 96.288 19.2589C95.6227 20.3882 94.9018 21.6288 94.6861 22.016C93.9661 23.3094 93.8653 23.4835 93.3312 24.3542C93.039 24.8307 92.8 25.2512 92.8 25.2883C92.8 25.3258 92.6093 25.656 92.3763 26.0221C92.143 26.3885 91.9123 26.7744 91.863 26.88C91.8141 26.9856 91.6685 27.2448 91.5398 27.456C91.4112 27.6672 91.1152 28.1834 90.8822 28.6032C90.649 29.0227 90.265 29.6682 90.0291 30.0371C89.793 30.4058 89.6 30.7354 89.6 30.769C89.6 30.8029 89.168 31.5603 88.64 32.4522C88.112 33.344 87.68 34.0995 87.68 34.1312C87.68 34.1626 87.4893 34.488 87.2563 34.8541C87.023 35.2205 86.7923 35.6064 86.743 35.712C86.6941 35.8176 86.5485 36.0768 86.4198 36.288C86.2912 36.4992 85.9952 37.0154 85.7622 37.4352C85.529 37.8547 85.145 38.5002 84.9091 38.8691C84.673 39.2378 84.48 39.5741 84.48 39.616C84.48 39.6579 84.2784 40.0074 84.032 40.3926C83.7856 40.7779 83.584 41.1453 83.584 41.2093C83.584 41.2733 83.512 41.4042 83.424 41.4998C83.336 41.5955 83.2013 41.7869 83.1242 41.9248C83.0474 42.063 82.7939 42.5216 82.5613 42.944C82.3283 43.3664 81.9446 44.0154 81.7088 44.3866C81.473 44.7574 81.28 45.0848 81.28 45.1136C81.28 45.1427 80.848 45.8963 80.32 46.7882C79.792 47.68 79.36 48.4288 79.36 48.4522C79.36 48.4755 78.928 49.2243 78.4 50.1162C77.872 51.008 77.44 51.7635 77.44 51.7952C77.44 51.8266 77.248 52.1523 77.0134 52.519C76.5984 53.168 76.4019 53.5088 75.5229 55.104C75.2902 55.5264 75.001 56.016 74.8803 56.192C74.7594 56.368 74.5171 56.7712 74.3421 57.088C74.0387 57.6365 73.3862 58.7661 72.9491 59.4995C72.8374 59.6867 72.5552 60.1834 72.3222 60.6029C72.089 61.0227 71.3536 62.2899 70.688 63.4189C70.0227 64.5482 69.3018 65.7888 69.0861 66.176C68.3661 67.4694 68.2653 67.6435 67.7312 68.5142C67.439 68.9907 67.2 69.4112 67.2 69.4483C67.2 69.4858 67.0093 69.816 66.7763 70.1821C66.543 70.5485 66.3123 70.9344 66.263 71.04C66.2141 71.1456 66.0688 71.4048 65.9402 71.616C65.8115 71.8272 65.5469 72.288 65.3517 72.64C63.9558 75.1574 64.0464 75.1552 62.6829 72.704C62.5066 72.3872 62.0109 71.5328 61.5811 70.8054C61.1517 70.0781 60.8 69.4586 60.8 69.4282C60.8 69.3981 60.512 68.9136 60.16 68.352C59.808 67.7904 59.52 67.3098 59.52 67.2838C59.52 67.2202 58.3657 65.2182 57.9414 64.5462C57.7536 64.2486 57.6 63.976 57.6 63.9408C57.6 63.9053 57.361 63.4867 57.0688 63.0102C56.5264 62.1258 56.4221 61.9453 55.6819 60.6128C55.4489 60.1933 55.065 59.5478 54.8291 59.1789C54.593 58.8102 54.4 58.4806 54.4 58.447C54.4 58.4131 53.968 57.6557 53.44 56.7638C52.912 55.872 52.48 55.1165 52.48 55.0848C52.48 55.0534 52.2893 54.728 52.0563 54.3619C51.823 53.9955 51.5923 53.6096 51.543 53.504C51.4941 53.3984 51.3485 53.1392 51.2198 52.928C51.0912 52.7168 50.7958 52.1984 50.5629 51.776C50.3302 51.3536 50.041 50.864 49.9203 50.688C49.7994 50.512 49.5571 50.1088 49.3821 49.792C48.5382 48.2659 48.199 47.6746 48.1344 47.616C48.0957 47.5808 48.0013 47.4368 47.9241 47.296C47.2358 46.0339 46.8752 45.4061 46.5088 44.8294C46.2729 44.4586 46.08 44.1331 46.08 44.1066C46.08 44.0602 44.2918 40.9763 44.0326 40.576C43.9645 40.4704 43.7888 40.1536 43.6422 39.872C43.4957 39.5904 43.3069 39.2448 43.2224 39.104C43.1379 38.9632 42.8966 38.5613 42.6864 38.2106C42.4761 37.8602 42.2342 37.457 42.1491 37.3146C42.0637 37.1725 41.9536 36.9696 41.9043 36.864C41.8547 36.7584 41.7168 36.528 41.5974 36.352C41.4781 36.176 41.1897 35.6864 40.9571 35.264C40.7241 34.8416 40.4288 34.3232 40.3001 34.112C40.1715 33.9008 40.0272 33.6416 39.9795 33.536C39.9315 33.4304 39.7008 33.0406 39.4662 32.6694C39.2317 32.2986 39.04 31.9731 39.04 31.9466C39.04 31.897 37.2211 28.7654 36.9897 28.416C36.9197 28.3104 36.8227 28.1376 36.7741 28.032C36.7254 27.9264 36.265 27.1286 35.7507 26.2589C35.2368 25.3894 34.816 24.6563 34.816 24.6294C34.816 24.6029 34.6144 24.2659 34.368 23.8806C34.1216 23.4954 33.92 23.1498 33.92 23.1123C33.92 23.0752 33.6896 22.6682 33.408 22.208C33.1264 21.7478 32.896 21.345 32.896 21.3123C32.896 21.2605 32.3872 20.4058 31.903 19.6448C31.8147 19.5059 31.7037 19.3056 31.6566 19.2C31.6093 19.0944 31.4339 18.7882 31.2665 18.5197C30.9597 18.0272 30.8525 17.84 30.0819 16.4528C29.849 16.0333 29.465 15.3878 29.2291 15.0189C28.993 14.6502 28.8 14.3206 28.8 14.287C28.8 14.2531 28.368 13.4957 27.84 12.6038C27.312 11.712 26.88 10.9565 26.88 10.9248C26.88 10.8934 26.6784 10.5526 26.432 10.1674C26.1856 9.78208 25.984 9.4176 25.984 9.35712C25.984 9.29664 25.8976 9.17568 25.792 9.088C25.6864 9.00032 25.6 8.82048 25.6 8.68832C25.6 8.45504 25.9481 8.448 37.696 8.448H49.792V8.768C49.792 8.944 49.8496 9.088 49.92 9.088C49.9904 9.088 50.048 9.16832 50.048 9.26624C50.048 9.36448 50.1344 9.47776 50.24 9.5184C50.3456 9.55872 50.432 9.70912 50.432 9.85184C50.432 9.99488 50.4896 10.112 50.56 10.112C50.6304 10.112 50.688 10.256 50.688 10.432C50.688 10.608 50.761 10.752 50.8499 10.752C50.9389 10.752 51.1261 10.991 51.2659 11.2829C51.6707 12.129 51.7664 12.288 51.8704 12.288C51.9242 12.288 51.968 12.4061 51.968 12.5501C51.968 12.6944 52.112 12.9456 52.288 13.1088C52.464 13.272 52.608 13.5283 52.608 13.6787C52.608 13.8362 52.6893 13.952 52.8 13.952C52.9193 13.952 52.992 14.073 52.992 14.272C52.992 14.448 53.0496 14.592 53.12 14.592C53.1904 14.592 53.248 14.736 53.248 14.912C53.248 15.111 53.3206 15.232 53.44 15.232C53.5456 15.232 53.632 15.3219 53.632 15.4317C53.632 15.5414 53.6896 15.5955 53.76 15.552C53.8326 15.5072 53.888 15.6147 53.888 15.8003C53.888 16.0064 53.9594 16.128 54.08 16.128C54.1994 16.128 54.272 16.249 54.272 16.448C54.272 16.624 54.3296 16.768 54.4 16.768C54.4704 16.768 54.528 16.8851 54.528 17.0282C54.528 17.1709 54.6144 17.3213 54.72 17.3616C54.8256 17.4022 54.912 17.5155 54.912 17.6138C54.912 17.7117 54.9696 17.792 55.04 17.792C55.1104 17.792 55.168 17.936 55.168 18.112C55.168 18.311 55.2406 18.432 55.36 18.432C55.4678 18.432 55.552 18.5462 55.552 18.6934C55.552 18.8371 55.6698 19.0813 55.8138 19.2355C56.1178 19.5619 56.448 20.1869 56.448 20.4355C56.448 20.5306 56.5344 20.608 56.64 20.608C56.7456 20.608 56.832 20.6829 56.832 20.7744C56.832 21.0451 57.1411 21.6301 57.2848 21.631C57.3577 21.6317 57.4272 21.7606 57.439 21.9181C57.4509 22.0755 57.5206 22.2243 57.5942 22.2486C57.6678 22.2733 57.728 22.4326 57.728 22.6026C57.728 22.7923 57.8022 22.912 57.92 22.912C58.0256 22.912 58.112 23.0211 58.112 23.1546C58.112 23.288 58.255 23.5328 58.4298 23.6986C58.6045 23.8643 58.7485 24.1008 58.7498 24.224C58.751 24.3472 58.8096 24.448 58.88 24.448C58.9504 24.448 59.008 24.5603 59.008 24.6973C59.008 24.8346 59.152 25.1021 59.328 25.2922C59.504 25.4819 59.648 25.7379 59.648 25.8611C59.648 25.984 59.7344 26.1178 59.84 26.1584C59.9456 26.1987 60.032 26.3491 60.032 26.4918C60.032 26.6349 60.0896 26.752 60.16 26.752C60.2304 26.752 60.288 26.8246 60.288 26.9133C60.288 27.0019 60.432 27.2298 60.608 27.4198C60.784 27.6096 60.928 27.8826 60.928 28.0266C60.928 28.1738 61.0118 28.288 61.12 28.288C61.2393 28.288 61.312 28.409 61.312 28.608C61.312 28.784 61.3696 28.928 61.44 28.928C61.5104 28.928 61.568 29.0083 61.568 29.1062C61.568 29.2045 61.6544 29.3178 61.76 29.3584C61.8656 29.3987 61.952 29.5491 61.952 29.6918C61.952 29.8349 62.0096 29.952 62.08 29.952C62.1504 29.952 62.208 30.096 62.208 30.272C62.208 30.471 62.2806 30.592 62.4 30.592C62.5194 30.592 62.592 30.713 62.592 30.912C62.592 31.088 62.6496 31.232 62.72 31.232C62.7904 31.232 62.848 31.3184 62.848 31.424C62.848 31.5296 62.9123 31.6016 62.991 31.584C63.0698 31.5664 63.152 31.6605 63.1741 31.7926C63.1962 31.9251 63.2758 32.095 63.351 32.1702C63.4266 32.2458 63.488 32.4109 63.488 32.5376C63.488 32.6643 63.5744 32.768 63.68 32.768C63.7856 32.768 63.872 32.8544 63.872 32.96C63.872 33.0656 63.9296 33.152 64 33.152C64.0704 33.152 64.128 33.0656 64.128 32.96C64.128 32.8544 64.2144 32.768 64.32 32.768C64.4256 32.768 64.512 32.681 64.512 32.5744C64.512 32.4678 64.5654 32.2806 64.6307 32.1584C64.696 32.0362 64.7817 31.8317 64.8218 31.704C64.8614 31.5763 64.9523 31.5075 65.023 31.5514C65.0941 31.5952 65.152 31.5414 65.152 31.4317C65.152 31.3219 65.2096 31.232 65.28 31.232C65.3504 31.232 65.408 31.088 65.408 30.912C65.408 30.713 65.4806 30.592 65.6 30.592C65.7194 30.592 65.792 30.471 65.792 30.272C65.792 30.096 65.8496 29.952 65.92 29.952C65.9904 29.952 66.048 29.8349 66.048 29.6918C66.048 29.5491 66.1344 29.3987 66.24 29.3584C66.3456 29.3178 66.432 29.2045 66.432 29.1062C66.432 29.0083 66.4896 28.928 66.56 28.928C66.6304 28.928 66.688 28.784 66.688 28.608C66.688 28.409 66.7606 28.288 66.88 28.288C66.9882 28.288 67.072 28.1738 67.072 28.0266C67.072 27.8826 67.216 27.6096 67.392 27.4198C67.568 27.2298 67.712 27.0019 67.712 26.9133C67.712 26.8246 67.7696 26.752 67.84 26.752C67.9104 26.752 67.968 26.608 67.968 26.432C67.968 26.233 68.0406 26.112 68.16 26.112C68.2794 26.112 68.352 25.991 68.352 25.792C68.352 25.616 68.4096 25.472 68.48 25.472C68.5504 25.472 68.608 25.3856 68.608 25.28C68.608 25.1744 68.6944 25.088 68.8 25.088C68.9193 25.088 68.992 24.967 68.992 24.768C68.992 24.592 69.0496 24.448 69.12 24.448C69.1904 24.448 69.248 24.3309 69.248 24.1878C69.248 24.0451 69.3344 23.8947 69.44 23.8544C69.5456 23.8138 69.632 23.6682 69.632 23.5309C69.632 23.3933 69.6896 23.3165 69.76 23.36C69.8304 23.4035 69.888 23.3206 69.888 23.1757C69.888 23.0266 69.9715 22.912 70.08 22.912C70.1994 22.912 70.272 22.791 70.272 22.592C70.272 22.416 70.3296 22.272 70.4 22.272C70.4704 22.272 70.528 22.128 70.528 21.952C70.528 21.776 70.6 21.6317 70.688 21.631C70.8531 21.6301 71.168 21.0685 71.168 20.7744C71.168 20.6829 71.2544 20.608 71.36 20.608C71.4656 20.608 71.552 20.5306 71.552 20.4355C71.552 20.1869 71.8822 19.5619 72.1862 19.2355C72.3302 19.0813 72.448 18.8371 72.448 18.6934C72.448 18.5462 72.5322 18.432 72.64 18.432C72.7594 18.432 72.832 18.311 72.832 18.112C72.832 17.936 72.8896 17.792 72.96 17.792C73.0304 17.792 73.088 17.7117 73.088 17.6138C73.088 17.5155 73.1744 17.4022 73.28 17.3616C73.3856 17.3213 73.472 17.1709 73.472 17.0282C73.472 16.8851 73.5296 16.768 73.6 16.768C73.6704 16.768 73.728 16.624 73.728 16.448C73.728 16.249 73.8006 16.128 73.92 16.128C74.0406 16.128 74.112 16.0064 74.112 15.8003C74.112 15.6147 74.1674 15.5072 74.24 15.552C74.3104 15.5955 74.368 15.5414 74.368 15.4317C74.368 15.3219 74.4544 15.232 74.56 15.232C74.6794 15.232 74.752 15.111 74.752 14.912C74.752 14.736 74.8096 14.592 74.88 14.592C74.9504 14.592 75.008 14.448 75.008 14.272C75.008 14.073 75.0806 13.952 75.2 13.952C75.3107 13.952 75.392 13.8362 75.392 13.6787C75.392 13.5283 75.536 13.272 75.712 13.1088C75.888 12.9456 76.032 12.6944 76.032 12.5501C76.032 12.4061 76.0896 12.288 76.16 12.288C76.2304 12.288 76.288 12.1728 76.288 12.032C76.288 11.8912 76.3459 11.776 76.4163 11.776C76.487 11.776 76.6445 11.5456 76.7667 11.264C76.8886 10.9824 77.0611 10.752 77.1501 10.752C77.239 10.752 77.312 10.608 77.312 10.432C77.312 10.256 77.3696 10.112 77.44 10.112C77.5104 10.112 77.568 9.99488 77.568 9.85184C77.568 9.70912 77.6544 9.55872 77.76 9.5184C77.8656 9.47776 77.952 9.36448 77.952 9.26624C77.952 9.16832 78.0096 9.088 78.08 9.088C78.1504 9.088 78.208 8.944 78.208 8.768V8.448H90.304C100.144 8.448 102.4 8.47904 102.4 8.6144Z" fill="#344C5C" />
    <path fill-rule="evenodd" clip-rule="evenodd" d="M127.952 9.056C127.912 9.3904 127.868 9.736 127.854 9.824C127.841 9.912 127.753 9.984 127.659 9.984C127.565 9.984 127.488 10.0589 127.488 10.1504C127.488 10.4445 127.173 11.0061 127.008 11.007C126.92 11.0077 126.848 11.152 126.848 11.328C126.848 11.504 126.79 11.648 126.72 11.648C126.65 11.648 126.591 11.7488 126.59 11.872C126.588 11.9952 126.444 12.2317 126.27 12.3974C126.095 12.5632 125.952 12.8099 125.952 12.9456C125.952 13.081 125.866 13.2253 125.76 13.2656C125.654 13.3062 125.568 13.4806 125.568 13.6531C125.568 13.8298 125.512 13.9325 125.44 13.888C125.37 13.8445 125.312 13.9011 125.312 14.0138C125.312 14.2067 125.23 14.337 124.824 14.7872C124.732 14.8896 124.648 15.0893 124.637 15.2307C124.626 15.3722 124.543 15.488 124.453 15.488C124.362 15.488 124.288 15.5731 124.288 15.6768C124.288 15.9421 123.836 16.657 123.733 16.5542C123.686 16.5075 123.648 16.623 123.648 16.8106C123.648 16.9984 123.59 17.152 123.52 17.152C123.45 17.152 123.392 17.2314 123.392 17.3283C123.392 17.4253 123.306 17.5763 123.2 17.664C123.094 17.7517 123.008 17.9315 123.008 18.0637C123.008 18.1958 122.95 18.304 122.88 18.304C122.81 18.304 122.752 18.3843 122.752 18.4822C122.752 18.5805 122.666 18.6938 122.56 18.7344C122.454 18.7747 122.368 18.9203 122.368 19.0573C122.368 19.1946 122.308 19.3267 122.234 19.3514C122.161 19.3757 122.091 19.5245 122.079 19.6819C122.067 19.8394 121.993 19.968 121.913 19.968C121.834 19.968 121.693 20.1984 121.6 20.48C121.507 20.7616 121.354 20.992 121.26 20.992C121.165 20.992 121.086 21.0928 121.084 21.216C121.082 21.3392 120.997 21.5494 120.896 21.6829C120.795 21.8163 120.742 21.9747 120.78 22.0349C120.817 22.095 120.757 22.144 120.648 22.144C120.538 22.144 120.448 22.2454 120.448 22.3693C120.448 22.4931 120.304 22.7498 120.128 22.9398C119.952 23.1296 119.808 23.3702 119.808 23.4749C119.808 23.5795 119.75 23.7005 119.68 23.744C119.61 23.7875 119.552 23.9286 119.552 24.0579C119.552 24.1869 119.466 24.3258 119.36 24.3664C119.254 24.4067 119.168 24.5283 119.168 24.6358C119.168 24.7437 119.11 24.832 119.04 24.832C118.97 24.832 118.912 24.9411 118.912 25.0742C118.912 25.2077 118.826 25.3498 118.72 25.3904C118.614 25.4307 118.528 25.6195 118.528 25.8093C118.528 25.9994 118.49 26.1165 118.444 26.0701C118.359 25.9853 118.091 26.3645 117.939 26.784C117.895 26.9072 117.807 27.008 117.745 27.008C117.683 27.008 117.632 27.152 117.632 27.328C117.632 27.527 117.559 27.648 117.44 27.648C117.334 27.648 117.248 27.7229 117.248 27.8144C117.248 28.1085 116.933 28.6701 116.768 28.671C116.68 28.6717 116.608 28.7494 116.608 28.8445C116.608 29.1011 116.223 29.824 116.087 29.824C116.021 29.824 115.968 29.911 115.968 30.0176C115.968 30.263 115.698 30.7523 115.488 30.8864C115.4 30.9427 115.328 31.1011 115.328 31.2384C115.328 31.3757 115.27 31.488 115.2 31.488C115.13 31.488 115.072 31.6051 115.072 31.7482C115.072 31.8909 114.986 32.0413 114.88 32.0816C114.774 32.1222 114.688 32.224 114.688 32.3082C114.688 32.5907 114.37 33.1501 114.208 33.151C114.12 33.1517 114.048 33.2672 114.048 33.408C114.048 33.5488 113.99 33.664 113.92 33.664C113.85 33.664 113.792 33.8 113.792 33.9661C113.792 34.1389 113.655 34.3709 113.472 34.5085C113.296 34.6406 113.152 34.8522 113.152 34.9782C113.152 35.1046 113.066 35.2413 112.96 35.2816C112.854 35.3222 112.768 35.4883 112.768 35.6509C112.768 35.8138 112.719 35.9658 112.659 35.9894C112.492 36.0547 111.872 37.0902 111.872 37.303C111.872 37.4067 111.796 37.5373 111.705 37.5936C111.612 37.6499 111.463 37.879 111.373 38.1027C111.283 38.3264 111.127 38.5408 111.028 38.5789C110.929 38.617 110.848 38.7402 110.848 38.8531C110.848 38.9661 110.764 39.1421 110.661 39.2448C110.559 39.3475 110.508 39.5162 110.547 39.6198C110.589 39.7283 110.546 39.8083 110.446 39.809C110.269 39.8099 109.952 40.361 109.952 40.6656C109.952 40.7571 109.899 40.832 109.833 40.832C109.705 40.832 109.312 41.5488 109.312 41.7834C109.312 41.8624 109.194 42.0278 109.051 42.151C108.907 42.2742 108.824 42.431 108.866 42.4995C108.908 42.568 108.882 42.624 108.808 42.624C108.733 42.624 108.672 42.7104 108.672 42.816C108.672 42.9216 108.586 43.008 108.48 43.008C108.371 43.008 108.288 43.1229 108.288 43.2733C108.288 43.4189 108.201 43.6253 108.095 43.7315C107.988 43.8378 107.935 43.9779 107.975 44.0432C108.015 44.1085 107.958 44.1965 107.848 44.2387C107.738 44.281 107.648 44.4144 107.648 44.5354C107.648 44.6563 107.504 44.8906 107.328 45.056C107.152 45.2214 107.008 45.424 107.008 45.5066C107.008 45.7162 106.624 46.464 106.517 46.464C106.468 46.464 106.329 46.6944 106.207 46.976C106.084 47.2576 105.927 47.488 105.856 47.488C105.786 47.488 105.728 47.6074 105.728 47.7533C105.728 47.8989 105.656 48.0986 105.568 48.1968C105.17 48.6406 105.088 48.7699 105.088 48.9546C105.088 49.063 105.03 49.152 104.96 49.152C104.89 49.152 104.832 49.2314 104.832 49.3283C104.832 49.4253 104.746 49.5763 104.64 49.664C104.534 49.7517 104.448 49.9274 104.448 50.0544C104.448 50.1814 104.304 50.3987 104.128 50.5373C103.952 50.6755 103.808 50.9101 103.808 51.0586C103.808 51.2067 103.75 51.328 103.68 51.328C103.61 51.328 103.552 51.472 103.552 51.648C103.552 51.847 103.479 51.968 103.36 51.968C103.19 51.968 103.102 52.209 103.156 52.5216C103.166 52.5795 103.115 52.5904 103.043 52.5459C102.971 52.5011 102.912 52.5766 102.912 52.7149C102.912 52.8522 102.826 52.9978 102.72 53.0384C102.614 53.0787 102.528 53.2323 102.528 53.3795C102.528 53.5267 102.47 53.6115 102.4 53.568C102.289 53.4992 102.211 53.7587 102.257 54.048C102.265 54.1008 102.186 54.144 102.08 54.144C101.974 54.144 101.888 54.2189 101.888 54.3104C101.888 54.6045 101.573 55.1661 101.408 55.167C101.32 55.1677 101.248 55.312 101.248 55.488C101.248 55.664 101.19 55.808 101.12 55.808C101.05 55.808 100.991 55.9088 100.99 56.032C100.988 56.1552 100.844 56.3917 100.67 56.5574C100.495 56.7232 100.352 56.9699 100.352 57.1056C100.352 57.241 100.266 57.3853 100.16 57.4256C100.054 57.4662 99.968 57.6406 99.968 57.8131C99.968 57.9898 99.912 58.0925 99.84 58.048C99.7696 58.0045 99.712 58.0627 99.712 58.1776C99.712 58.2925 99.64 58.4666 99.552 58.5648C99.1363 59.0282 99.0544 59.1606 99.0365 59.3955C99.0262 59.5344 98.9434 59.648 98.8528 59.648C98.7622 59.648 98.688 59.7331 98.688 59.8368C98.688 60.1021 98.2358 60.817 98.1328 60.7142C98.0861 60.6675 98.048 60.783 98.048 60.9706C98.048 61.1584 97.9904 61.312 97.92 61.312C97.8496 61.312 97.792 61.3914 97.792 61.4883C97.792 61.5853 97.7056 61.7363 97.6 61.824C97.4944 61.9117 97.408 62.0915 97.408 62.2237C97.408 62.3558 97.3504 62.464 97.28 62.464C97.2096 62.464 97.152 62.5443 97.152 62.6422C97.152 62.7405 97.0656 62.8538 96.96 62.8944C96.8544 62.9347 96.768 63.0803 96.768 63.2173C96.768 63.3546 96.7078 63.4867 96.6342 63.5114C96.5606 63.5357 96.4909 63.6845 96.479 63.8419C96.4672 63.9994 96.3926 64.128 96.3133 64.128C96.2339 64.128 96.0928 64.3584 96 64.64C95.9072 64.9216 95.7539 65.152 95.6595 65.152C95.5651 65.152 95.4861 65.2528 95.4838 65.376C95.4816 65.4992 95.3971 65.7094 95.296 65.8429C95.1949 65.9763 95.1424 66.1347 95.1795 66.1949C95.2166 66.255 95.1574 66.304 95.0477 66.304C94.9379 66.304 94.848 66.4054 94.848 66.5293C94.848 66.6531 94.704 66.9098 94.528 67.0998C94.352 67.2896 94.208 67.5302 94.208 67.6349C94.208 67.7395 94.1504 67.8605 94.08 67.904C94.0096 67.9475 93.952 68.0886 93.952 68.2179C93.952 68.3469 93.8656 68.4858 93.76 68.5264C93.6544 68.5667 93.568 68.6883 93.568 68.7958C93.568 68.9037 93.5104 68.992 93.44 68.992C93.3696 68.992 93.312 69.1011 93.312 69.2342C93.312 69.3677 93.2256 69.5098 93.12 69.5504C93.0144 69.5907 92.928 69.7795 92.928 69.9693C92.928 70.1594 92.8899 70.2765 92.8435 70.2301C92.7587 70.1453 92.4909 70.5245 92.3392 70.944C92.2947 71.0672 92.2074 71.168 92.145 71.168C92.0829 71.168 92.032 71.312 92.032 71.488C92.032 71.664 91.96 71.8083 91.872 71.809C91.7069 71.8099 91.392 72.3715 91.392 72.6656C91.392 72.7571 91.3056 72.832 91.2 72.832C91.0944 72.832 91.008 72.9094 91.008 73.0045C91.008 73.2611 90.6234 73.984 90.4867 73.984C90.4214 73.984 90.368 74.0589 90.368 74.1504C90.368 74.4445 90.0531 75.0061 89.888 75.007C89.8 75.0077 89.728 75.152 89.728 75.328C89.728 75.504 89.6704 75.648 89.6 75.648C89.5296 75.648 89.472 75.7651 89.472 75.9082C89.472 76.0509 89.3856 76.2013 89.28 76.2416C89.1744 76.2822 89.088 76.384 89.088 76.4682C89.088 76.7507 88.7696 77.3101 88.608 77.311C88.52 77.3117 88.448 77.4272 88.448 77.568C88.448 77.7088 88.3904 77.824 88.32 77.824C88.2496 77.824 88.192 77.96 88.192 78.1261C88.192 78.2989 88.055 78.5309 87.872 78.6685C87.696 78.8006 87.552 79.0122 87.552 79.1382C87.552 79.2646 87.4656 79.4013 87.36 79.4416C87.2544 79.4822 87.168 79.6483 87.168 79.8109C87.168 79.9738 87.119 80.1258 87.0592 80.1494C86.8925 80.2147 86.272 81.2502 86.272 81.463C86.272 81.5667 86.1965 81.6973 86.1046 81.7536C86.0125 81.8099 85.863 82.039 85.7728 82.2627C85.6826 82.4864 85.5274 82.7008 85.4282 82.7389C85.3293 82.777 85.248 82.9002 85.248 83.0131C85.248 83.1261 85.1642 83.3021 85.0614 83.4048C84.9587 83.5075 84.9075 83.6762 84.9472 83.7798C84.9888 83.8883 84.9459 83.9683 84.8458 83.969C84.6694 83.9699 84.352 84.521 84.352 84.8256C84.352 84.9171 84.2986 84.992 84.2333 84.992C84.105 84.992 83.712 85.7088 83.712 85.9434C83.712 86.0224 83.5942 86.1878 83.4506 86.311C83.3069 86.4342 83.2237 86.591 83.2662 86.6595C83.3085 86.728 83.2822 86.784 83.2077 86.784C83.1331 86.784 83.072 86.8704 83.072 86.976C83.072 87.0816 82.9856 87.168 82.88 87.168C82.7712 87.168 82.688 87.2829 82.688 87.4333C82.688 87.5789 82.601 87.7853 82.4947 87.8915C82.3885 87.9978 82.3347 88.1379 82.375 88.2032C82.4154 88.2685 82.3581 88.3565 82.248 88.3987C82.1379 88.441 82.048 88.5357 82.048 88.6096C82.048 88.6835 81.904 88.9325 81.728 89.1635C81.552 89.3942 81.408 89.6662 81.408 89.7677C81.408 89.8694 81.3222 90.0237 81.2173 90.1107C81.1126 90.1978 81.0563 90.3165 81.0922 90.3747C81.128 90.4326 81.081 90.527 80.9878 90.584C80.8944 90.6413 80.7178 90.904 80.5952 91.168C80.4723 91.432 80.3171 91.648 80.2499 91.648C80.183 91.648 80.128 91.7674 80.128 91.9133C80.128 92.0589 80.056 92.2586 79.968 92.3568C79.5699 92.8006 79.488 92.9299 79.488 93.1146C79.488 93.223 79.4304 93.312 79.36 93.312C79.2896 93.312 79.232 93.3914 79.232 93.4883C79.232 93.5853 79.1456 93.7363 79.04 93.824C78.9344 93.9117 78.848 94.0704 78.848 94.177C78.848 94.2835 78.704 94.504 78.528 94.6672C78.352 94.8304 78.208 95.0816 78.208 95.2259C78.208 95.3699 78.1504 95.488 78.08 95.488C78.0096 95.488 77.952 95.632 77.952 95.808C77.952 96.007 77.8794 96.128 77.76 96.128C77.5904 96.128 77.5018 96.369 77.5562 96.6816C77.5661 96.7395 77.5152 96.7504 77.4432 96.7059C77.3699 96.6605 77.312 96.7411 77.312 96.8883C77.312 97.0374 77.2285 97.152 77.12 97.152C76.9994 97.152 76.928 97.2736 76.928 97.4797C76.928 97.6653 76.8726 97.7728 76.8 97.728C76.6886 97.6592 76.6112 97.9187 76.657 98.208C76.6653 98.2608 76.5856 98.304 76.48 98.304C76.3744 98.304 76.288 98.3789 76.288 98.4704C76.288 98.7645 75.9731 99.3261 75.808 99.327C75.72 99.3277 75.648 99.472 75.648 99.648C75.648 99.824 75.5904 99.968 75.52 99.968C75.4496 99.968 75.391 100.069 75.3898 100.192C75.3885 100.315 75.2445 100.552 75.0698 100.717C74.895 100.883 74.752 101.13 74.752 101.266C74.752 101.401 74.6656 101.545 74.56 101.586C74.4544 101.626 74.368 101.801 74.368 101.973C74.368 102.15 74.312 102.252 74.24 102.208C74.1696 102.164 74.112 102.223 74.112 102.338C74.112 102.452 74.04 102.627 73.952 102.725C73.5363 103.188 73.4544 103.321 73.4365 103.556C73.4262 103.694 73.3434 103.808 73.2528 103.808C73.1622 103.808 73.088 103.893 73.088 103.997C73.088 104.262 72.6358 104.977 72.5328 104.874C72.4861 104.828 72.448 104.876 72.448 104.983C72.448 105.22 72.0925 105.951 71.928 106.053C71.8621 106.094 71.808 106.239 71.808 106.376C71.808 106.512 71.7504 106.624 71.68 106.624C71.6096 106.624 71.552 106.704 71.552 106.802C71.552 106.9 71.4656 107.014 71.36 107.054C71.2544 107.095 71.168 107.24 71.168 107.377C71.168 107.515 71.1078 107.647 71.0342 107.671C70.9606 107.696 70.8909 107.844 70.879 108.002C70.8672 108.159 70.7926 108.288 70.7133 108.288C70.6339 108.288 70.4928 108.518 70.4 108.8C70.3072 109.082 70.1539 109.312 70.0595 109.312C69.9651 109.312 69.8861 109.413 69.8838 109.536C69.8816 109.659 69.7971 109.869 69.696 110.003C69.5949 110.136 69.5424 110.295 69.5795 110.355C69.6166 110.415 69.5574 110.464 69.4477 110.464C69.3315 110.464 69.248 110.574 69.248 110.728C69.248 110.873 69.1965 110.959 69.1338 110.92C69.0707 110.882 68.9834 110.993 68.9392 111.169C68.895 111.344 68.8026 111.488 68.7334 111.488C68.6646 111.488 68.608 111.6 68.608 111.736C68.608 111.873 68.5504 112.02 68.48 112.064C68.4096 112.108 68.352 112.249 68.352 112.378C68.352 112.507 68.2656 112.646 68.16 112.686C68.0544 112.727 67.968 112.848 67.968 112.956C67.968 113.064 67.9104 113.152 67.84 113.152C67.7696 113.152 67.712 113.261 67.712 113.394C67.712 113.528 67.6256 113.67 67.52 113.71C67.4144 113.751 67.328 113.94 67.328 114.129C67.328 114.319 67.2899 114.436 67.2435 114.39C67.1587 114.305 66.8909 114.684 66.7392 115.104C66.6947 115.227 66.6074 115.328 66.545 115.328C66.4829 115.328 66.432 115.472 66.432 115.648C66.432 115.824 66.36 115.968 66.272 115.969C66.1069 115.97 65.792 116.532 65.792 116.826C65.792 116.917 65.7056 116.992 65.6 116.992C65.4944 116.992 65.408 117.069 65.408 117.164C65.408 117.421 65.0234 118.144 64.8867 118.144C64.8214 118.144 64.768 118.219 64.768 118.31C64.768 119.052 63.6973 119.57 63.5251 118.912C63.4883 118.771 63.4074 118.656 63.345 118.656C63.2829 118.656 63.232 118.541 63.232 118.4C63.232 118.259 63.1888 118.144 63.136 118.143C63.0074 118.142 62.592 117.402 62.592 117.174C62.592 117.074 62.5056 116.992 62.4 116.992C62.2944 116.992 62.208 116.917 62.208 116.826C62.208 116.555 61.8989 115.97 61.7552 115.969C61.6822 115.968 61.6131 115.844 61.6016 115.692C61.5901 115.54 61.5306 115.381 61.4691 115.34C61.4077 115.298 61.3162 115.178 61.2656 115.072C61.0269 114.572 60.8336 114.313 60.7565 114.39C60.7101 114.436 60.672 114.328 60.672 114.149C60.672 113.97 60.5856 113.752 60.48 113.664C60.3744 113.576 60.288 113.425 60.288 113.328C60.288 113.231 60.2442 113.152 60.1904 113.152C60.0925 113.152 59.8614 112.773 59.7027 112.352C59.6563 112.229 59.5674 112.128 59.505 112.128C59.4429 112.128 59.392 111.99 59.392 111.822C59.392 111.653 59.3056 111.482 59.2 111.442C59.0944 111.401 59.008 111.248 59.008 111.1C59.008 110.953 58.9504 110.868 58.88 110.912C58.8096 110.956 58.752 110.873 58.752 110.728C58.752 110.583 58.6954 110.464 58.6266 110.464C58.5574 110.464 58.465 110.32 58.4208 110.145C58.3766 109.969 58.2893 109.858 58.2262 109.896C58.1635 109.935 58.112 109.852 58.112 109.71C58.112 109.569 57.968 109.298 57.792 109.108C57.616 108.918 57.472 108.656 57.472 108.525C57.472 108.395 57.4154 108.288 57.3466 108.288C57.2774 108.288 57.1846 108.144 57.1405 107.968C57.0963 107.792 57.009 107.648 56.9462 107.648C56.8832 107.648 56.832 107.531 56.832 107.388C56.832 107.245 56.7456 107.095 56.64 107.054C56.5344 107.014 56.448 106.9 56.448 106.802C56.448 106.704 56.3904 106.624 56.32 106.624C56.2496 106.624 56.192 106.512 56.192 106.376C56.192 106.239 56.136 106.092 56.0675 106.05C55.999 106.008 55.8435 105.76 55.7222 105.499C55.6006 105.237 55.4682 104.995 55.4278 104.96C55.2464 104.803 54.912 104.183 54.912 104.004C54.912 103.896 54.8256 103.808 54.72 103.808C54.6112 103.808 54.528 103.693 54.528 103.543C54.528 103.397 54.456 103.197 54.368 103.099C53.9699 102.655 53.888 102.526 53.888 102.341C53.888 102.233 53.8304 102.144 53.76 102.144C53.6896 102.144 53.632 102.035 53.632 101.902C53.632 101.768 53.5456 101.626 53.44 101.586C53.3344 101.545 53.248 101.395 53.248 101.252C53.248 101.109 53.1904 100.992 53.12 100.992C53.0496 100.992 52.992 100.906 52.992 100.8C52.992 100.694 52.9408 100.608 52.8778 100.608C52.815 100.608 52.7277 100.464 52.6835 100.288C52.6394 100.112 52.5466 99.968 52.4774 99.968C52.4086 99.968 52.352 99.824 52.352 99.648C52.352 99.471 52.2778 99.328 52.1856 99.328C52.0944 99.328 51.9421 99.1142 51.8477 98.8528C51.753 98.5914 51.6118 98.3053 51.5338 98.2173C51.1408 97.7731 51.072 97.6554 51.072 97.4272C51.072 97.2909 50.9856 97.1462 50.88 97.1056C50.7744 97.0653 50.688 96.9405 50.688 96.8285C50.688 96.7165 50.6422 96.6531 50.5866 96.6877C50.5309 96.7219 50.4758 96.6285 50.4646 96.4797C50.4534 96.3309 50.3552 96.159 50.2461 96.0982C50.1373 96.0371 50.048 95.8749 50.048 95.7376C50.048 95.6003 49.9904 95.488 49.92 95.488C49.8496 95.488 49.792 95.3699 49.792 95.2259C49.792 95.0816 49.648 94.8304 49.472 94.6672C49.296 94.504 49.152 94.2835 49.152 94.177C49.152 94.0704 49.0656 93.9117 48.96 93.824C48.8544 93.7363 48.768 93.5853 48.768 93.4883C48.768 93.3914 48.7104 93.312 48.64 93.312C48.5696 93.312 48.512 93.2214 48.512 93.1107C48.512 93.0003 48.44 92.8294 48.352 92.7312C47.9434 92.2758 47.872 92.1533 47.872 91.9094C47.872 91.7658 47.817 91.648 47.7501 91.648C47.6829 91.648 47.5274 91.432 47.4048 91.168C47.2819 90.904 47.1482 90.6592 47.1078 90.624C46.9264 90.4666 46.592 89.8467 46.592 89.6685C46.592 89.5603 46.5446 89.472 46.4867 89.472C46.4288 89.472 46.2518 89.2128 46.0938 88.896C45.9354 88.5792 45.7526 88.32 45.687 88.32C45.6214 88.32 45.568 88.2048 45.568 88.064C45.568 87.9232 45.5104 87.808 45.44 87.808C45.3696 87.808 45.312 87.664 45.312 87.488C45.312 87.311 45.2378 87.168 45.1456 87.168C45.0544 87.168 44.9085 86.9718 44.8218 86.7322C44.735 86.4925 44.5795 86.264 44.4762 86.2243C44.3728 86.1846 44.288 86.0726 44.288 85.9757C44.288 85.7158 43.9043 84.992 43.7667 84.992C43.7014 84.992 43.648 84.905 43.648 84.7984C43.648 84.553 43.3776 84.0637 43.168 83.9296C43.08 83.8733 43.008 83.7149 43.008 83.5776C43.008 83.4403 42.9504 83.328 42.88 83.328C42.8096 83.328 42.751 83.2272 42.7498 83.104C42.7485 82.9808 42.6045 82.7443 42.4298 82.5786C42.255 82.4128 42.112 82.1741 42.112 82.0483C42.112 81.9222 42.0256 81.7862 41.92 81.7456C41.8144 81.7053 41.728 81.5658 41.728 81.4362C41.728 81.3066 41.6163 81.0803 41.4797 80.9338C41.343 80.7872 41.2662 80.6323 41.3091 80.5898C41.3517 80.5469 41.3194 80.512 41.2374 80.512C41.1552 80.512 41.088 80.4256 41.088 80.32C41.088 80.2144 41.0304 80.128 40.96 80.128C40.8896 80.128 40.832 79.9901 40.832 79.8218C40.832 79.6531 40.7456 79.4822 40.64 79.4416C40.5344 79.4013 40.448 79.2646 40.448 79.1382C40.448 79.0122 40.304 78.8006 40.128 78.6685C39.9411 78.528 39.808 78.2995 39.808 78.1184C39.808 77.9446 39.752 77.8435 39.68 77.888C39.6096 77.9315 39.552 77.8515 39.552 77.7101C39.552 77.569 39.408 77.2979 39.232 77.1078C39.056 76.9181 38.912 76.6621 38.912 76.5389C38.912 76.416 38.8256 76.2822 38.72 76.2416C38.6144 76.2013 38.528 76.0509 38.528 75.9082C38.528 75.7651 38.4704 75.648 38.4 75.648C38.3296 75.648 38.272 75.5101 38.272 75.3418C38.272 75.1731 38.1856 75.0022 38.08 74.9616C37.9744 74.9213 37.888 74.7997 37.888 74.6922C37.888 74.5843 37.8304 74.496 37.76 74.496C37.6896 74.496 37.632 74.3808 37.632 74.24C37.632 74.0992 37.5888 73.9837 37.536 73.983C37.4074 73.9821 36.992 73.2419 36.992 73.0138C36.992 72.9136 36.9056 72.832 36.8 72.832C36.6944 72.832 36.608 72.7571 36.608 72.6656C36.608 72.3949 36.2989 71.8099 36.1552 71.809C36.0822 71.8083 36.0131 71.6835 36.0016 71.5315C35.9901 71.3795 35.9306 71.2211 35.8691 71.1795C35.8077 71.1379 35.7162 71.0176 35.6656 70.912C35.4269 70.4118 35.2336 70.153 35.1565 70.2301C35.1101 70.2765 35.072 70.168 35.072 69.9891C35.072 69.8099 34.9856 69.5917 34.88 69.504C34.7744 69.4163 34.688 69.2653 34.688 69.1683C34.688 69.0714 34.6442 68.992 34.5904 68.992C34.4925 68.992 34.2614 68.6128 34.1027 68.192C34.0563 68.0688 33.9674 67.968 33.905 67.968C33.8429 67.968 33.792 67.8301 33.792 67.6618C33.792 67.4931 33.7056 67.3222 33.6 67.2816C33.4944 67.2413 33.408 67.0877 33.408 66.9405C33.408 66.7933 33.3504 66.7085 33.28 66.752C33.2096 66.7955 33.152 66.7126 33.152 66.5677C33.152 66.4227 33.0954 66.304 33.0266 66.304C32.9574 66.304 32.865 66.1603 32.8208 65.985C32.7766 65.8093 32.6893 65.6976 32.6262 65.7363C32.5635 65.7754 32.512 65.6915 32.512 65.5501C32.512 65.409 32.368 65.1379 32.192 64.9478C32.016 64.7581 31.872 64.4957 31.872 64.3654C31.872 64.2349 31.8154 64.128 31.7466 64.128C31.6774 64.128 31.5846 63.984 31.5405 63.808C31.4963 63.632 31.409 63.488 31.3462 63.488C31.2832 63.488 31.232 63.3709 31.232 63.2278C31.232 63.0851 31.1456 62.9347 31.04 62.8944C30.9344 62.8538 30.848 62.7405 30.848 62.6422C30.848 62.5443 30.7904 62.464 30.72 62.464C30.6496 62.464 30.592 62.3523 30.592 62.2157C30.592 62.079 30.536 61.9325 30.4675 61.8902C30.399 61.8477 30.2435 61.5997 30.1222 61.3386C30.0006 61.0774 29.8682 60.8352 29.8278 60.8C29.6464 60.6426 29.312 60.0227 29.312 59.8445C29.312 59.7363 29.2256 59.648 29.12 59.648C29.0112 59.648 28.928 59.5331 28.928 59.3827C28.928 59.2371 28.856 59.0374 28.768 58.9392C28.3699 58.4954 28.288 58.3661 28.288 58.1814C28.288 58.073 28.2304 57.984 28.16 57.984C28.0896 57.984 28.032 57.8749 28.032 57.7418C28.032 57.6083 27.9456 57.4662 27.84 57.4256C27.7344 57.3853 27.648 57.2349 27.648 57.0922C27.648 56.9491 27.5904 56.832 27.52 56.832C27.4496 56.832 27.392 56.7456 27.392 56.64C27.392 56.5344 27.3408 56.448 27.2778 56.448C27.215 56.448 27.1277 56.304 27.0835 56.128C27.0394 55.952 26.9466 55.808 26.8774 55.808C26.8086 55.808 26.752 55.664 26.752 55.488C26.752 55.311 26.6778 55.168 26.5856 55.168C26.4944 55.168 26.3421 54.9542 26.2477 54.6928C26.153 54.4314 26.0118 54.1453 25.9338 54.0573C25.5408 53.6131 25.472 53.4954 25.472 53.2672C25.472 53.1309 25.3856 52.9862 25.28 52.9456C25.1744 52.9053 25.088 52.7805 25.088 52.6685C25.088 52.5565 25.0422 52.4931 24.9866 52.5277C24.9309 52.5619 24.8758 52.4685 24.8646 52.3197C24.8534 52.1709 24.7552 51.999 24.6461 51.9382C24.5373 51.8771 24.448 51.7149 24.448 51.5776C24.448 51.4403 24.3904 51.328 24.32 51.328C24.2496 51.328 24.192 51.2099 24.192 51.0659C24.192 50.9216 24.048 50.6704 23.872 50.5072C23.696 50.344 23.552 50.1235 23.552 50.017C23.552 49.9104 23.4656 49.7517 23.36 49.664C23.2544 49.5763 23.168 49.4253 23.168 49.3283C23.168 49.2314 23.1104 49.152 23.04 49.152C22.9696 49.152 22.912 49.0614 22.912 48.9507C22.912 48.8403 22.84 48.6694 22.752 48.5712C22.3434 48.1158 22.272 47.9933 22.272 47.7494C22.272 47.6058 22.217 47.488 22.1501 47.488C22.0829 47.488 21.9274 47.272 21.8048 47.008C21.6819 46.744 21.5482 46.4992 21.5078 46.464C21.3536 46.3302 20.992 45.6989 20.992 45.5638C20.992 45.4864 20.848 45.2342 20.672 45.0035C20.496 44.7725 20.352 44.5235 20.352 44.4496C20.352 44.3757 20.2656 44.2822 20.16 44.2416C20.0544 44.2013 19.968 44.0509 19.968 43.9082C19.968 43.7651 19.9104 43.648 19.84 43.648C19.7696 43.648 19.712 43.504 19.712 43.328C19.712 43.151 19.6378 43.008 19.5456 43.008C19.4544 43.008 19.3085 42.8118 19.2218 42.5722C19.135 42.3325 18.9795 42.104 18.8762 42.0643C18.7728 42.0246 18.688 41.9126 18.688 41.8157C18.688 41.5558 18.3043 40.832 18.1667 40.832C18.1014 40.832 18.048 40.745 18.048 40.6384C18.048 40.393 17.7776 39.9037 17.568 39.7696C17.48 39.7133 17.408 39.5549 17.408 39.4176C17.408 39.2803 17.3504 39.168 17.28 39.168C17.2096 39.168 17.151 39.0672 17.1498 38.944C17.1485 38.8208 17.0045 38.5843 16.8298 38.4186C16.655 38.2528 16.512 38.0141 16.512 37.8883C16.512 37.7622 16.4256 37.6262 16.32 37.5856C16.2144 37.5453 16.128 37.4285 16.128 37.3264C16.128 37.095 15.7139 36.3539 15.584 36.353C15.5312 36.3523 15.488 36.2656 15.488 36.16C15.488 36.0544 15.4304 35.968 15.36 35.968C15.2896 35.968 15.232 35.8301 15.232 35.6618C15.232 35.4931 15.1456 35.3222 15.04 35.2816C14.9344 35.2413 14.848 35.1046 14.848 34.9782C14.848 34.8522 14.704 34.6406 14.528 34.5085C14.3411 34.368 14.208 34.1395 14.208 33.9584C14.208 33.7846 14.152 33.6835 14.08 33.728C14.0096 33.7715 13.952 33.6915 13.952 33.5501C13.952 33.409 13.808 33.1379 13.632 32.9478C13.456 32.7581 13.312 32.5021 13.312 32.3789C13.312 32.256 13.2256 32.1222 13.12 32.0816C13.0144 32.0413 12.928 31.8909 12.928 31.7482C12.928 31.6051 12.8704 31.488 12.8 31.488C12.7296 31.488 12.672 31.3501 12.672 31.1818C12.672 31.0131 12.5856 30.8422 12.48 30.8016C12.3744 30.7613 12.288 30.6397 12.288 30.5322C12.288 30.4243 12.2304 30.336 12.16 30.336C12.0896 30.336 12.032 30.2208 12.032 30.08C12.032 29.9392 11.9888 29.8237 11.936 29.823C11.8074 29.8221 11.392 29.0819 11.392 28.8538C11.392 28.7536 11.3056 28.672 11.2 28.672C11.0944 28.672 11.008 28.5971 11.008 28.5056C11.008 28.2349 10.6989 27.6499 10.5552 27.649C10.4822 27.6483 10.4131 27.5235 10.4016 27.3715C10.3901 27.2195 10.3306 27.0611 10.2691 27.0195C10.2077 26.9779 10.1162 26.8576 10.0656 26.752C9.82687 26.2518 9.63361 25.993 9.55648 26.0701C9.51009 26.1165 9.472 26.008 9.472 25.8291C9.472 25.6499 9.3856 25.4317 9.28 25.344C9.1744 25.2563 9.088 25.1053 9.088 25.0083C9.088 24.9114 9.04416 24.832 8.9904 24.832C8.89248 24.832 8.66145 24.4528 8.50272 24.032C8.45632 23.9088 8.36736 23.808 8.30496 23.808C8.24288 23.808 8.192 23.6701 8.192 23.5018C8.192 23.3331 8.1056 23.1622 8 23.1216C7.8944 23.0813 7.808 22.9277 7.808 22.7805C7.808 22.6333 7.7504 22.5485 7.68 22.592C7.6096 22.6355 7.552 22.5526 7.552 22.4077C7.552 22.2627 7.49536 22.144 7.42656 22.144C7.35744 22.144 7.26496 22.0003 7.2208 21.825C7.17664 21.6493 7.08928 21.5376 7.02624 21.5763C6.96352 21.6154 6.912 21.5315 6.912 21.3901C6.912 21.249 6.768 20.9779 6.592 20.7878C6.416 20.5981 6.272 20.3357 6.272 20.2054C6.272 20.0749 6.21536 19.968 6.14656 19.968C6.07744 19.968 5.98463 19.824 5.94048 19.648C5.89632 19.472 5.80896 19.328 5.74624 19.328C5.6832 19.328 5.632 19.2157 5.632 19.0784C5.632 18.9411 5.56 18.7827 5.472 18.7264C5.31872 18.6285 5.01215 18.1174 4.52672 17.152C4.40256 16.9056 4.26816 16.6752 4.22784 16.64C4.0464 16.4826 3.712 15.8627 3.712 15.6845C3.712 15.5763 3.6256 15.488 3.52 15.488C3.4112 15.488 3.328 15.3731 3.328 15.2227C3.328 15.0771 3.256 14.8774 3.168 14.7792C2.76991 14.3354 2.688 14.2061 2.688 14.0214C2.688 13.913 2.6304 13.824 2.56 13.824C2.4896 13.824 2.432 13.7149 2.432 13.5818C2.432 13.4483 2.3456 13.3062 2.24 13.2656C2.1344 13.2253 2.048 13.0749 2.048 12.9322C2.048 12.7891 1.99039 12.672 1.92 12.672C1.84959 12.672 1.792 12.5856 1.792 12.48C1.792 12.3744 1.7408 12.288 1.67776 12.288C1.61504 12.288 1.52767 12.144 1.48351 11.968C1.43935 11.792 1.34656 11.648 1.27744 11.648C1.20864 11.648 1.152 11.504 1.152 11.328C1.152 11.1459 1.07808 11.008 0.980476 11.008C0.886078 11.008 0.732796 10.7776 0.639999 10.496C0.547195 10.2144 0.431999 9.984 0.384003 9.984C0.226242 9.984 0 9.33984 0 8.88992V8.448H12.8C25.2365 8.448 25.6 8.45472 25.6 8.68832C25.6 8.82048 25.6864 9.00032 25.792 9.088C25.8976 9.17568 25.984 9.29664 25.984 9.35712C25.984 9.4176 26.1856 9.78208 26.432 10.1674C26.6784 10.5526 26.88 10.8934 26.88 10.9248C26.88 10.9565 27.312 11.712 27.84 12.6038C28.368 13.4957 28.8 14.2531 28.8 14.287C28.8 14.3206 28.993 14.6502 29.2291 15.0189C29.465 15.3878 29.849 16.0333 30.0819 16.4528C30.3152 16.8726 30.6086 17.3994 30.7341 17.6237C30.9978 18.0947 31.4797 18.9046 31.713 19.2688C31.8013 19.407 31.912 19.6064 31.9584 19.712C32.0051 19.8176 32.2352 20.2074 32.4698 20.5786C32.7043 20.9494 32.896 21.2797 32.896 21.3123C32.896 21.345 33.1264 21.7478 33.408 22.208C33.6896 22.6682 33.92 23.0752 33.92 23.1123C33.92 23.1498 34.1216 23.4954 34.368 23.8806C34.6144 24.2659 34.816 24.6029 34.816 24.6294C34.816 24.679 36.6349 27.8106 36.8662 28.16C36.9363 28.2656 37.0333 28.4384 37.0819 28.544C37.1306 28.6496 37.591 29.4474 38.1053 30.3171C38.6192 31.1866 39.04 31.9197 39.04 31.9466C39.04 31.9731 39.2317 32.2986 39.4662 32.6694C39.7008 33.0406 39.9315 33.4304 39.9795 33.536C40.0272 33.6416 40.1715 33.9008 40.3002 34.112C40.4288 34.3232 40.7242 34.8416 40.9571 35.264C41.1898 35.6864 41.4781 36.176 41.5974 36.352C41.7168 36.528 41.8547 36.7584 41.9043 36.864C41.9536 36.9696 42.0637 37.1725 42.1491 37.3146C42.2342 37.457 42.4762 37.8602 42.6864 38.2106C42.8966 38.5613 43.1379 38.9632 43.2224 39.104C43.3069 39.2448 43.4957 39.5904 43.6422 39.872C43.7888 40.1536 43.9645 40.4704 44.0326 40.576C44.2918 40.9763 46.08 44.0602 46.08 44.1066C46.08 44.1331 46.273 44.4586 46.5088 44.8294C46.8752 45.4061 47.2358 46.0339 47.9242 47.296C48.0013 47.4368 48.0957 47.5808 48.1344 47.616C48.199 47.6746 48.5382 48.2659 49.3821 49.792C49.5571 50.1088 49.7994 50.512 49.9203 50.688C50.041 50.864 50.3302 51.3536 50.5629 51.776C50.7958 52.1984 51.0912 52.7168 51.2198 52.928C51.3485 53.1392 51.4941 53.3984 51.543 53.504C51.5923 53.6096 51.823 53.9955 52.0563 54.3619C52.2893 54.728 52.48 55.0534 52.48 55.0848C52.48 55.1165 52.912 55.872 53.44 56.7638C53.968 57.6557 54.4 58.4131 54.4 58.447C54.4 58.4806 54.593 58.8102 54.8291 59.1789C55.065 59.5478 55.449 60.1933 55.6819 60.6128C56.4221 61.9453 56.5264 62.1258 57.0688 63.0102C57.361 63.4867 57.6 63.9053 57.6 63.9408C57.6 63.976 57.7536 64.2486 57.9414 64.5462C58.3658 65.2182 59.52 67.2202 59.52 67.2838C59.52 67.3098 59.808 67.7904 60.16 68.352C60.512 68.9136 60.8 69.3981 60.8 69.4282C60.8 69.4586 61.1517 70.0781 61.5811 70.8054C62.0109 71.5328 62.5066 72.3872 62.6829 72.704C64.0464 75.1552 63.9558 75.1574 65.3517 72.64C65.5469 72.288 65.8115 71.8272 65.9402 71.616C66.0688 71.4048 66.2141 71.1456 66.263 71.04C66.3123 70.9344 66.543 70.5485 66.7763 70.1821C67.0093 69.816 67.2 69.4858 67.2 69.4483C67.2 69.4112 67.439 68.9907 67.7312 68.5142C68.2653 67.6435 68.3661 67.4694 69.0861 66.176C69.3018 65.7888 70.0227 64.5482 70.688 63.4189C71.3536 62.2899 72.089 61.0227 72.3222 60.6029C72.5552 60.1834 72.8374 59.6867 72.9491 59.4995C73.3862 58.7661 74.0387 57.6365 74.3421 57.088C74.5171 56.7712 74.7594 56.368 74.8803 56.192C75.001 56.016 75.2902 55.5264 75.5229 55.104C76.4019 53.5088 76.5984 53.168 77.0134 52.519C77.248 52.1523 77.44 51.8266 77.44 51.7952C77.44 51.7635 77.872 51.008 78.4 50.1162C78.928 49.2243 79.36 48.4755 79.36 48.4522C79.36 48.4288 79.792 47.68 80.32 46.7882C80.848 45.8963 81.28 45.1427 81.28 45.1136C81.28 45.0848 81.473 44.7574 81.7088 44.3866C81.9446 44.0154 82.3283 43.3664 82.5613 42.944C82.7939 42.5216 83.0474 42.063 83.1242 41.9248C83.2013 41.7869 83.336 41.5955 83.424 41.4998C83.512 41.4042 83.584 41.2733 83.584 41.2093C83.584 41.1453 83.7856 40.7779 84.032 40.3926C84.2784 40.0074 84.48 39.6579 84.48 39.616C84.48 39.5741 84.673 39.2378 84.9091 38.8691C85.145 38.5002 85.529 37.8547 85.7622 37.4352C85.9952 37.0154 86.2912 36.4992 86.4198 36.288C86.5485 36.0768 86.6941 35.8176 86.743 35.712C86.7923 35.6064 87.023 35.2205 87.2563 34.8541C87.4893 34.488 87.68 34.1626 87.68 34.1312C87.68 34.0995 88.112 33.344 88.64 32.4522C89.168 31.5603 89.6 30.8029 89.6 30.769C89.6 30.7354 89.793 30.4058 90.0291 30.0371C90.265 29.6682 90.649 29.0227 90.8822 28.6032C91.1152 28.1834 91.4112 27.6672 91.5398 27.456C91.6685 27.2448 91.8141 26.9856 91.863 26.88C91.9123 26.7744 92.143 26.3885 92.3763 26.0221C92.6093 25.656 92.8 25.3258 92.8 25.2883C92.8 25.2512 93.039 24.8307 93.3312 24.3542C93.8653 23.4835 93.9661 23.3094 94.6861 22.016C94.9018 21.6288 95.6227 20.3882 96.288 19.2589C96.9536 18.1299 97.689 16.8627 97.9222 16.4429C98.1552 16.0234 98.4374 15.5267 98.5491 15.3395C98.9862 14.6061 99.6387 13.4765 99.9421 12.928C100.117 12.6112 100.359 12.208 100.48 12.032C100.601 11.856 100.874 11.3952 101.088 11.008C101.301 10.6208 101.658 9.9872 101.881 9.6C102.104 9.2128 102.318 8.7952 102.358 8.672C102.426 8.46048 103.152 8.448 115.228 8.448H128.026L127.952 9.056Z" fill="#44BC84" />
  </g>
  <path d="M33.096 138.728C33.696 138.728 34.212 138.932 34.644 139.34C35.1 139.748 35.328 140.24 35.328 140.816C35.328 141.128 35.256 141.452 35.112 141.788L26.22 162.596C26.004 163.052 25.704 163.4 25.32 163.64C24.936 163.88 24.528 164 24.096 164C23.688 163.976 23.304 163.856 22.944 163.64C22.608 163.4 22.344 163.064 22.152 162.632L13.26 141.752C13.14 141.512 13.08 141.212 13.08 140.852C13.08 140.204 13.32 139.688 13.8 139.304C14.28 138.896 14.772 138.692 15.276 138.692C15.684 138.692 16.068 138.812 16.428 139.052C16.788 139.292 17.064 139.64 17.256 140.096L24.492 157.124L31.116 140.096C31.308 139.664 31.584 139.328 31.944 139.088C32.304 138.848 32.688 138.728 33.096 138.728ZM52.6789 144.74C53.3029 144.74 53.8189 144.956 54.2269 145.388C54.6349 145.796 54.8389 146.312 54.8389 146.936V156.08C54.8389 158.672 54.1189 160.7 52.6789 162.164C51.2629 163.628 49.2349 164.36 46.5949 164.36C43.9549 164.36 41.9269 163.628 40.5109 162.164C39.0949 160.7 38.3869 158.672 38.3869 156.08V146.936C38.3869 146.312 38.5909 145.796 38.9989 145.388C39.4069 144.956 39.9229 144.74 40.5469 144.74C41.1709 144.74 41.6869 144.956 42.0949 145.388C42.5029 145.796 42.7069 146.312 42.7069 146.936V156.08C42.7069 157.544 43.0309 158.636 43.6789 159.356C44.3269 160.052 45.2989 160.4 46.5949 160.4C47.9149 160.4 48.8989 160.052 49.5469 159.356C50.1949 158.636 50.5189 157.544 50.5189 156.08V146.936C50.5189 146.312 50.7229 145.796 51.1309 145.388C51.5389 144.956 52.0549 144.74 52.6789 144.74ZM76.7958 153.92C76.7718 154.496 76.5438 154.964 76.1118 155.324C75.6798 155.684 75.1758 155.864 74.5998 155.864H62.7198C63.0078 157.28 63.6678 158.396 64.6998 159.212C65.7318 160.004 66.8958 160.4 68.1918 160.4C69.1758 160.4 69.9438 160.316 70.4958 160.148C71.0478 159.956 71.4798 159.764 71.7918 159.572C72.1278 159.356 72.3558 159.212 72.4758 159.14C72.9078 158.924 73.3158 158.816 73.6998 158.816C74.2038 158.816 74.6358 158.996 74.9958 159.356C75.3558 159.716 75.5358 160.136 75.5358 160.616C75.5358 161.264 75.1998 161.852 74.5278 162.38C73.8558 162.932 72.9558 163.4 71.8278 163.784C70.6998 164.168 69.5598 164.36 68.4078 164.36C66.3918 164.36 64.6278 163.94 63.1158 163.1C61.6278 162.26 60.4758 161.108 59.6598 159.644C58.8438 158.156 58.4358 156.488 58.4358 154.64C58.4358 152.576 58.8678 150.764 59.7318 149.204C60.5958 147.644 61.7358 146.456 63.1518 145.64C64.5678 144.8 66.0798 144.38 67.6878 144.38C69.2718 144.38 70.7598 144.812 72.1518 145.676C73.5678 146.54 74.6958 147.704 75.5358 149.168C76.3758 150.632 76.7958 152.216 76.7958 153.92ZM67.6878 148.34C64.9038 148.34 63.2598 149.648 62.7558 152.264H72.1878V152.012C72.0918 151.004 71.5998 150.14 70.7118 149.42C69.8238 148.7 68.8158 148.34 67.6878 148.34ZM82.3066 163.964C81.6106 163.964 81.0706 163.784 80.6866 163.424C80.3266 163.04 80.1466 162.5 80.1466 161.804V161.192C80.1466 160.496 80.3266 159.968 80.6866 159.608C81.0706 159.224 81.6106 159.032 82.3066 159.032H82.7746C83.4706 159.032 83.9986 159.224 84.3586 159.608C84.7426 159.968 84.9346 160.496 84.9346 161.192V161.804C84.9346 162.5 84.7426 163.04 84.3586 163.424C83.9986 163.784 83.4706 163.964 82.7746 163.964H82.3066ZM88.3194 171.056C87.7434 171.056 87.2634 170.864 86.8794 170.48C86.4954 170.096 86.3034 169.616 86.3034 169.04V168.644C86.3034 167.684 86.9154 167.024 88.1394 166.664C88.9074 166.424 89.3874 166.016 89.5794 165.44C89.7954 164.888 89.9034 164.108 89.9034 163.1V146.936C89.9034 146.312 90.1074 145.796 90.5154 145.388C90.9234 144.956 91.4394 144.74 92.0634 144.74C92.6874 144.74 93.2034 144.956 93.6114 145.388C94.0194 145.796 94.2234 146.312 94.2234 146.936V164.36C94.2234 165.704 93.9594 166.88 93.4314 167.888C92.9274 168.896 92.2194 169.676 91.3074 170.228C90.4194 170.78 89.4234 171.056 88.3194 171.056ZM91.9914 142.4C91.1754 142.4 90.5994 142.268 90.2634 142.004C89.9274 141.74 89.7594 141.272 89.7594 140.6V139.916C89.7594 139.244 89.9394 138.776 90.2994 138.512C90.6594 138.248 91.2354 138.116 92.0274 138.116C92.8674 138.116 93.4554 138.248 93.7914 138.512C94.1274 138.776 94.2954 139.244 94.2954 139.916V140.6C94.2954 141.296 94.1154 141.776 93.7554 142.04C93.4194 142.28 92.8314 142.4 91.9914 142.4ZM98.1615 161.012C97.9455 160.724 97.8375 160.364 97.8375 159.932C97.8375 159.308 98.1495 158.78 98.7735 158.348C99.1095 158.132 99.4575 158.024 99.8175 158.024C100.322 158.024 100.802 158.252 101.258 158.708C101.978 159.452 102.722 160.004 103.49 160.364C104.282 160.724 105.23 160.904 106.334 160.904C108.206 160.832 109.142 160.124 109.142 158.78C109.142 158.084 108.818 157.556 108.17 157.196C107.546 156.836 106.562 156.476 105.218 156.116C103.826 155.732 102.686 155.348 101.798 154.964C100.934 154.58 100.178 154.004 99.5295 153.236C98.9055 152.444 98.5935 151.388 98.5935 150.068C98.5935 148.916 98.9175 147.92 99.5655 147.08C100.238 146.216 101.102 145.556 102.158 145.1C103.238 144.62 104.378 144.38 105.578 144.38C106.802 144.38 108.026 144.608 109.25 145.064C110.474 145.52 111.434 146.192 112.13 147.08C112.442 147.464 112.598 147.896 112.598 148.376C112.598 148.928 112.37 149.384 111.914 149.744C111.578 150.008 111.194 150.14 110.762 150.14C110.234 150.14 109.802 149.972 109.466 149.636C109.034 149.108 108.47 148.688 107.774 148.376C107.102 148.064 106.334 147.908 105.47 147.908C103.646 147.908 102.734 148.568 102.734 149.888C102.734 150.416 102.902 150.848 103.238 151.184C103.574 151.496 103.994 151.748 104.498 151.94C105.026 152.108 105.758 152.324 106.694 152.588C107.99 152.948 109.07 153.32 109.934 153.704C110.798 154.088 111.53 154.676 112.13 155.468C112.73 156.26 113.03 157.304 113.03 158.6C113.03 159.776 112.682 160.808 111.986 161.696C111.29 162.56 110.39 163.22 109.286 163.676C108.206 164.132 107.09 164.36 105.938 164.36C104.354 164.36 102.878 164.096 101.51 163.568C100.142 163.04 99.0255 162.188 98.1615 161.012Z" fill="#344C5C" />
  <defs>
    <clipPath id="clip0">
      <rect width="128" height="128" fill="white" transform="matrix(-1 0 0 1 128 0)" />
    </clipPath>
  </defs>
</svg>