<svg width="30" height="27" viewBox="0 0 30 27" fill="none" xmlns="http://www.w3.org/2000/svg">
<path fill-rule="evenodd" clip-rule="evenodd" d="M23.6955 8.32247C27.5112 9.49042 30 11.3738 30 13.3612C30 15.3424 27.5234 17.2258 23.7322 18.3938C24.6188 22.2707 24.2336 25.3588 22.5153 26.3493C22.1117 26.5818 21.647 26.6918 21.1333 26.6918C19.4517 26.6918 17.2503 25.5055 15.0245 23.4387C12.7986 25.5177 10.5972 26.7163 8.91562 26.7163C8.40196 26.7163 7.93722 26.6062 7.53975 26.3738C5.81533 25.3832 5.42397 22.2891 6.30452 18.3999C2.48878 17.232 0 15.3486 0 13.3612C0 11.3799 2.47656 9.50265 6.28007 8.32858C5.3934 4.45169 5.77864 1.36364 7.49694 0.373013C7.90053 0.140644 8.36526 0.0305748 8.87892 0.0305748V0.02446C10.5605 0.02446 12.7619 1.21076 14.9877 3.27762C17.2136 1.19853 19.415 0 21.0966 0V0.00612011C21.6017 0.00699354 22.0644 0.117109 22.4603 0.348553C24.1847 1.33917 24.576 4.43335 23.6955 8.32247ZM21.0905 1.36365C19.8188 1.36686 17.9504 2.38167 15.9601 4.23155C16.8223 5.13045 17.6784 6.15777 18.5039 7.28903C19.8798 7.4358 21.1884 7.66205 22.3869 7.95557C22.5214 7.33795 22.6315 6.73257 22.6988 6.15777C22.98 3.82186 22.6192 2.0057 21.7876 1.52874C21.598 1.42479 21.3718 1.36975 21.0905 1.36975V1.36365ZM14.0155 4.23767C12.022 2.39707 10.1447 1.3881 8.87892 1.3881V1.39421C8.59763 1.39421 8.35915 1.44313 8.1757 1.5532C7.35018 2.03628 6.99551 3.85242 7.28292 6.18834C7.35629 6.75704 7.46025 7.35018 7.6009 7.96169C8.79943 7.66205 10.108 7.4358 11.49 7.28903C12.3034 6.15777 13.1594 5.13657 14.0155 4.23767ZM21.2128 11.6979C21.5307 10.8846 21.8121 10.0713 22.0384 9.28252C21.2373 9.08683 20.3995 8.92785 19.5312 8.79943C19.8309 9.26416 20.1305 9.74113 20.4117 10.2303C20.6991 10.7195 20.9621 11.2087 21.2128 11.6979ZM17.764 18.1309C18.2715 17.4032 18.7607 16.6205 19.2377 15.795C19.6963 14.9939 20.1183 14.1745 20.5035 13.3551C20.1183 12.5357 19.6963 11.7224 19.2316 10.9213C18.7546 10.1019 18.2592 9.32531 17.7517 8.59764C16.8468 8.52426 15.9234 8.48145 15 8.48145C14.0705 8.48145 13.1472 8.52426 12.236 8.60375C11.7285 9.33143 11.2393 10.1141 10.7623 10.9397C10.3037 11.7408 9.87567 12.5601 9.49653 13.3795C9.88178 14.199 10.3037 15.0123 10.7684 15.8133C11.2454 16.6327 11.7408 17.4092 12.2483 18.137C13.1532 18.2103 14.0766 18.2532 15 18.2532C15.9295 18.2532 16.8528 18.2103 17.764 18.1309ZM22.0566 17.4338C21.8243 16.6388 21.543 15.8194 21.2128 15C20.9621 15.4892 20.6991 15.9846 20.4179 16.4737C20.1366 16.969 19.8369 17.4521 19.5373 17.9229C20.4117 17.7946 21.2556 17.6295 22.0566 17.4338ZM13.3123 19.5679C13.8749 20.2833 14.4435 20.9376 15.0123 21.5247C15.5748 20.9376 16.1435 20.2833 16.6939 19.5679C16.1373 19.5984 15.5687 19.6107 14.9939 19.6107C14.4252 19.6107 13.8627 19.5924 13.3123 19.5679ZM7.95556 17.4399C8.75663 17.6355 9.59438 17.7946 10.4627 17.9229C10.1631 17.4583 9.86954 16.9813 9.58215 16.4921C9.29474 16.0028 9.03179 15.5136 8.78108 15.0245C8.46311 15.8377 8.18182 16.651 7.95556 17.4399ZM16.6816 7.1545C16.1191 6.43905 15.5503 5.78475 14.9817 5.19772C14.4191 5.78475 13.8504 6.43905 13.3001 7.1545C13.8565 7.12393 14.4252 7.1117 15 7.1117C15.5687 7.1117 16.1313 7.13005 16.6816 7.1545ZM9.57602 10.2487C9.85732 9.75336 10.1569 9.27028 10.4565 8.79943C9.58215 8.92785 8.73828 9.09295 7.93722 9.28252C8.16959 10.0775 8.45088 10.8968 8.78108 11.7163C9.03179 11.2271 9.29474 10.7379 9.57602 10.2487ZM1.35753 13.3612C1.35753 14.3213 2.75785 15.532 4.92254 16.4554C5.45455 16.6816 6.02936 16.8895 6.63474 17.0791C6.97717 15.8866 7.42968 14.6453 7.99225 13.3734C7.42357 12.0954 6.96494 10.8479 6.61639 9.64941C6.02323 9.83898 5.44843 10.0408 4.92254 10.267C2.75785 11.1843 1.35753 12.4012 1.35753 13.3612ZM7.30127 20.5646C7.01998 22.9006 7.38076 24.7167 8.21239 25.1936C8.39584 25.2976 8.62821 25.3526 8.90338 25.3588C10.1753 25.3588 12.0465 24.3437 14.0399 22.4908C13.1777 21.5919 12.3216 20.5646 11.4961 19.4333C10.1203 19.2866 8.81166 19.0603 7.61313 18.7668C7.4786 19.3844 7.36853 19.9898 7.30127 20.5646ZM21.8243 25.1692C22.6498 24.6861 23.0045 22.8699 22.717 20.534C22.6498 19.9654 22.5398 19.3722 22.3991 18.7546C21.2006 19.0543 19.892 19.2805 18.51 19.4273C17.6966 20.5585 16.8406 21.5797 15.9845 22.4786C17.978 24.3192 19.8553 25.3282 21.1211 25.3282C21.4024 25.3282 21.6409 25.2792 21.8243 25.1692ZM23.3775 17.0729C23.9707 16.8835 24.5455 16.6816 25.0714 16.4554C27.236 15.5381 28.6363 14.3213 28.6425 13.3612C28.6425 12.4012 27.2422 11.1904 25.0774 10.267C24.5393 10.0408 23.9645 9.83286 23.3592 9.6433C23.0167 10.8357 22.5642 12.0771 22.0017 13.349C22.5703 14.627 23.0289 15.8744 23.3775 17.0729ZM17.788 13.3612C17.788 14.9046 16.5367 16.1557 14.9934 16.1557C13.45 16.1557 12.1988 14.9046 12.1988 13.3612C12.1988 11.8178 13.45 10.5666 14.9934 10.5666C16.5367 10.5666 17.788 11.8178 17.788 13.3612Z" fill="#61DAFB"/>
</svg>