<svg width="1396" height="535" viewBox="0 0 1396 535" fill="none" xmlns="http://www.w3.org/2000/svg">
<g filter="url(#filter0_d)">
<path fill-rule="evenodd" clip-rule="evenodd" d="M1024.9 522.399H487.3C477.5 522.399 469.5 514.399 469.5 504.599V182.999C469.5 173.199 477.5 165.199 487.3 165.199H1024.9C1034.7 165.199 1042.7 173.199 1042.7 182.999V504.699C1042.6 514.399 1034.7 522.399 1024.9 522.399Z" fill="white"/>
<path fill-rule="evenodd" clip-rule="evenodd" d="M1024.9 162.199H487.3C475.843 162.199 466.5 171.542 466.5 182.999V504.599C466.5 516.056 475.843 525.399 487.3 525.399H1024.9C1036.3 525.399 1045.58 516.118 1045.7 504.73L1045.7 182.999C1045.7 171.542 1036.36 162.199 1024.9 162.199ZM487.3 168.199H1024.9C1033.04 168.199 1039.7 174.856 1039.7 182.999V504.699C1039.62 512.781 1033 519.399 1024.9 519.399H487.3C479.157 519.399 472.5 512.742 472.5 504.599V182.999C472.5 174.856 479.157 168.199 487.3 168.199Z" fill="#2F2E41"/>
<path fill-rule="evenodd" clip-rule="evenodd" d="M1033.96 166.531C1035.27 165.513 1037.15 165.749 1038.17 167.057C1039.15 168.314 1038.97 170.105 1037.79 171.145L1037.64 171.267L768.442 380.667C761.169 386.324 751.437 386.408 744.09 380.92L743.758 380.667L474.558 171.267C473.25 170.249 473.015 168.364 474.032 167.057C475.01 165.799 476.79 165.533 478.089 166.419L478.242 166.531L747.442 375.931C752.564 379.914 759.292 379.987 764.472 376.148L764.758 375.931L1033.96 166.531Z" fill="#2F2E41"/>
<path fill-rule="evenodd" clip-rule="evenodd" d="M475.6 456.098L639.9 296.398L475.6 456.098Z" fill="white"/>
<path fill-rule="evenodd" clip-rule="evenodd" d="M637.809 294.247C638.997 293.092 640.896 293.119 642.051 294.307C643.16 295.448 643.179 297.244 642.128 298.408L641.991 298.55L477.691 458.25C476.503 459.404 474.604 459.378 473.449 458.189C472.34 457.049 472.321 455.253 473.372 454.089L473.509 453.947L637.809 294.247Z" fill="#2F2E41"/>
<path fill-rule="evenodd" clip-rule="evenodd" d="M873.7 296.398L1041.1 459.098L873.7 296.398Z" fill="white"/>
<path fill-rule="evenodd" clip-rule="evenodd" d="M871.549 294.308C872.657 293.167 874.452 293.096 875.645 294.114L875.791 294.247L1043.19 456.947C1044.38 458.102 1044.41 460.001 1043.25 461.189C1042.14 462.33 1040.35 462.4 1039.16 461.383L1039.01 461.25L871.609 298.55C870.421 297.395 870.394 295.496 871.549 294.308Z" fill="#2F2E41"/>
<path fill-rule="evenodd" clip-rule="evenodd" d="M320.9 289.3L385.2 277.4C385.2 277.4 356.2 204.2 409.7 117.5C463.2 30.9004 557.9 60.9004 613.6 100.1C613.6 100.1 547.2 -7.49962 463.9 15.5004C380.6 38.5004 340 89.6004 323.7 177.3C307.4 265 320.9 289.3 320.9 289.3Z" fill="white"/>
<path fill-rule="evenodd" clip-rule="evenodd" d="M463.101 12.6084C380.475 35.4223 337.644 85.8578 320.75 176.752C311.394 227.093 310.755 261.001 315.347 281.679C315.95 284.395 316.603 286.631 317.266 288.422L317.471 288.96C317.802 289.806 318.078 290.398 318.277 290.757C318.903 291.884 320.179 292.485 321.446 292.25L385.746 280.35C387.604 280.006 388.685 278.052 387.989 276.295L387.792 275.768L387.689 275.482C387.47 274.867 387.228 274.15 386.968 273.335L386.836 272.919C385.942 270.069 385.045 266.734 384.205 262.946C380.491 246.184 379.135 226.782 381.532 205.495C384.758 176.848 394.528 147.8 412.253 119.076C436.34 80.0862 470.223 62.9146 510.698 64.6225C544.065 66.0305 580.608 80.5499 611.873 102.553C614.496 104.399 617.752 101.408 616.237 98.6686L616.038 98.3405L615.496 97.4888L615.08 96.8483C614.719 96.2947 614.319 95.6918 613.883 95.0423L613.617 94.6471C611.561 91.6037 609.151 88.2169 606.404 84.5722C598.562 74.1653 589.586 63.7598 579.609 54.0394C563.618 38.4594 546.602 26.1556 528.778 18.3725C507.332 9.00764 485.581 6.59641 463.859 12.4025L463.101 12.6084ZM526.377 23.8711C543.465 31.3328 559.911 43.2245 575.422 58.3369C585.163 67.828 593.944 78.0062 601.613 88.1831L602.279 89.0712L601.531 88.6148C572.719 71.1104 540.739 59.8847 510.951 58.6278C468.349 56.8301 432.399 75.0491 407.148 115.923C388.948 145.417 378.893 175.313 375.57 204.824C373.094 226.806 374.496 246.865 378.347 264.244C379.166 267.939 380.041 271.236 380.923 274.107L381.227 275.084L322.738 285.909L322.65 285.655C322.162 284.233 321.671 282.482 321.204 280.378C316.805 260.572 317.43 227.452 326.649 177.848C343.139 89.1285 384.376 40.5697 464.698 18.3919C485.267 12.7129 505.881 14.9211 526.377 23.8711Z" fill="#2F2E41"/>
<path fill-rule="evenodd" clip-rule="evenodd" d="M285.3 343.799C282.5 316.999 294.7 290.899 340.6 275.899C386.5 260.899 432.7 292.999 435.3 302.799C437.9 312.599 502.6 487.099 431 504.299C359.4 521.499 301.3 461.499 295.4 429.199C289.5 396.899 285.3 343.799 285.3 343.799Z" fill="white"/>
<path fill-rule="evenodd" clip-rule="evenodd" d="M403.029 282.817C418.08 289.119 430.948 298.934 432.358 303.424L432.5 303.908C433.154 306.04 436.442 315.997 437.467 319.186C440.882 329.814 444.03 340.304 447.014 351.32C452.036 369.859 455.98 387.705 458.514 404.465C466.834 459.482 458.947 494.501 430.299 501.383C398.516 509.018 367.077 501.543 340.279 482.852C317.96 467.285 301.344 445.045 298.351 428.661C296.819 420.273 295.315 409.999 293.855 398.26C292.46 387.047 291.176 375.076 290.025 363.057L289.605 358.604C289.292 355.229 289.008 352.054 288.756 349.127L288.291 343.563C285.222 314.18 301.197 291.932 341.532 278.751C361.333 272.28 382.869 274.375 403.029 282.817ZM282.221 343.146L282.335 344.355L282.703 348.767L283.015 352.353C283.26 355.13 283.53 358.096 283.823 361.216C285.036 374.094 286.405 386.973 287.901 399.001L288.33 402.397C289.668 412.835 291.044 422.047 292.449 429.739C295.757 447.851 313.329 471.37 336.846 487.773C364.978 507.394 398.141 515.279 431.701 507.217C449.384 502.969 460.22 489.626 464.888 468.894C468.777 451.625 468.37 429.514 464.447 403.567C461.875 386.558 457.883 368.496 452.805 349.751C450.026 339.492 447.108 329.691 443.969 319.82L442.668 315.771C441.196 311.247 438.376 302.696 438.2 302.03C436.401 295.25 422.151 284.319 405.346 277.282C383.949 268.323 360.968 266.087 339.668 273.048C297.18 286.933 279.306 311.371 282.221 343.146Z" fill="#2F2E41"/>
<path fill-rule="evenodd" clip-rule="evenodd" d="M361.795 327.468C349.799 338.244 347.546 364.571 355.296 388.5C363.88 415.003 381.996 431.038 404.926 426.954C425.828 423.231 433.615 409.02 431.093 388.634C430.191 381.351 428.02 373.632 424.966 365.823C423.54 362.175 422.013 358.746 420.485 355.63L420.034 354.722C419.814 354.282 419.601 353.864 419.397 353.469L418.808 352.351L418.545 351.866L418.639 352.13C416.037 344.519 407.627 333.478 398.521 326.961C386.23 318.163 373.359 317.331 362.135 327.167L361.795 327.468ZM395.029 331.84C403.136 337.643 410.772 347.667 412.961 354.071C413.001 354.186 413.047 354.299 413.1 354.409L413.606 355.347L414.069 356.23C414.39 356.85 414.735 357.532 415.098 358.273C416.557 361.246 418.016 364.525 419.378 368.008C422.264 375.388 424.306 382.646 425.138 389.371C427.305 406.881 421.237 417.954 403.874 421.047C384.45 424.506 368.77 410.626 361.004 386.651C353.904 364.731 355.955 340.78 365.805 331.932C374.775 323.874 384.711 324.454 395.029 331.84Z" fill="#2F2E41"/>
<path fill-rule="evenodd" clip-rule="evenodd" d="M619.9 257.201C595.6 243.401 540.1 225.401 508.8 237.601C477.5 249.801 419.6 279.801 405.8 408.601C392 537.401 544.9 516.901 544.9 516.901L619.9 257.201Z" fill="white"/>
<path fill-rule="evenodd" clip-rule="evenodd" d="M507.71 234.806C497.373 238.835 488.678 243.063 479.805 248.84C468.339 256.306 457.862 265.675 448.395 277.501C424.956 306.782 409.138 349.29 402.817 408.281C399.371 440.449 405.903 465.442 421.031 483.827C433.702 499.224 451.906 509.433 474.146 515.286C495.408 520.88 517.801 522.014 537.911 520.571L539.006 520.49C540.548 520.372 541.939 520.246 543.166 520.118L544.634 519.957L545.299 519.874C546.478 519.716 547.452 518.876 547.782 517.733L622.782 258.033C623.167 256.7 622.588 255.277 621.381 254.592C607.861 246.914 587.35 239.174 567.635 234.725C543.761 229.336 522.755 228.942 507.71 234.806ZM567.273 240.796C584.854 244.856 603 251.565 615.729 258.333L616.353 258.667L542.572 514.147L541.635 514.242C540.693 514.332 539.662 514.422 538.547 514.507C518.766 516.025 496.572 514.982 475.673 509.483C454.559 503.927 437.444 494.329 425.664 480.014C411.612 462.938 405.501 439.554 408.783 408.921C414.988 351.005 430.405 309.576 453.079 281.251C469.501 260.737 487.095 249.281 509.889 240.396C523.594 235.055 543.5 235.428 566.314 240.577L567.273 240.796Z" fill="#2F2E41"/>
<path fill-rule="evenodd" clip-rule="evenodd" d="M654.8 275.4C656.7 265.3 661.2 242.4 661.2 242.4C667.1 213.5 672.6 186.4 671.5 158.9C669.2 102.3 633.2 52.0999 593.8 31.2999C508.2 -14.0001 453 4.49991 453 4.49991C269.6 66.4999 302.9 268.5 306.9 289.4C270.1 307.3 254.4 332 257.2 366.6C259.3 385.5 256.8 477.7 303.6 503.9C350.3 530.1 397 522.6 427.6 505.2C357.9 519.4 307.8 455.1 301.9 423.3C296 391 291.9 343.1 291.9 343.1C289.6 321.5 299.3 298.7 331.4 282.4L331.2 280.8C331.2 280.8 331.2 280.8 331.3 280.8C331.2 280.5 331.2 280.1 331.1 279.8L330.9 278.1L330.8 278.2C326.3 248.5 319 170.7 355.6 108.8C402.4 29.3999 456.4 24.8999 456.4 24.8999C559.2 9.69991 596.9 121.6 594.6 182.5C592.5 237.2 561.8 250.2 555.6 252.3C547.8 251.4 540 252.9 533.1 256.3C510.6 260.3 473.9 310.3 452.1 360.3C452.1 360.4 452.2 360.6 452.2 360.7L451.7 361.2C441.5 384.8 434.7 408.4 434.3 427.1C429.5 447.1 435.9 468.2 450.7 482.4L460.4 480.4C459.4 483 458.2 485.3 456.8 487.5C459.3 489.3 462 491 464.9 492.4L514.9 517.1C536.9 528 563.5 518.9 574.1 496.8L575.6 493.8C598.6 496.8 628.9 473.6 647.5 436.9C667 398.4 666.9 358.4 648.4 343C649.6 331.6 649.2 314.4 652.3 291.4C653 286 653.9 280.7 654.8 275.4Z" fill="#2197B0"/>
<path fill-rule="evenodd" clip-rule="evenodd" d="M566.9 470.8C482.6 490.5 333.7 486.4 171.7 457.4L170.8 460.2C168 452.1 161.2 445.7 152.2 443.7L109 434C95.1999 430.9 81.4999 439.6 78.3999 453.4L77.8999 455.5C74.7999 469.3 83.4999 483 97.2999 486.1L140.5 495.8C147.5 497.4 154.4 495.9 160 492.3L159.5 493.9C159.5 493.9 317.8 541.5 547.2 521.6C547.1 521.5 567.2 473.3 566.9 470.8Z" fill="#2197B0"/>
<path fill-rule="evenodd" clip-rule="evenodd" d="M553.165 454.448C571.427 451.137 580.476 460.935 581.898 478.165C582.358 483.73 581.995 489.631 581.113 495.393C580.929 496.595 580.733 497.711 580.536 498.725L580.347 499.659C580.248 500.132 580.169 500.484 580.117 500.702C579.729 502.313 578.109 503.304 576.498 502.916C574.944 502.542 573.967 501.022 574.247 499.47L574.449 498.548C574.483 498.389 574.519 498.217 574.556 498.035C574.768 496.982 574.982 495.79 575.182 494.485C575.999 489.149 576.334 483.693 575.919 478.658C574.803 465.14 568.958 458.323 555.893 460.088L555.377 460.162L555.21 460.377C545.145 473.19 526.65 480.477 502.143 483.489L501.376 483.582C484.957 485.53 467.482 485.418 450.972 484.063L449.429 483.932C447.665 483.777 446.029 483.616 444.535 483.455L442.876 483.268L441.297 483.072C439.655 482.85 438.505 481.338 438.727 479.696C438.942 478.113 440.355 476.987 441.928 477.108L443.893 477.346L444.568 477.422C446.587 477.647 448.899 477.873 451.463 478.083C467.608 479.408 484.707 479.518 500.668 477.624C524.818 474.758 542.563 467.656 551.271 455.639C551.725 455.013 552.403 454.586 553.165 454.448Z" fill="white"/>
<path fill-rule="evenodd" clip-rule="evenodd" d="M609.8 340.607C618.869 335.242 627.134 334.342 633.859 336.114C635.031 336.423 635.89 336.748 636.411 337.002C637.902 337.726 638.522 339.522 637.798 341.012C637.1 342.447 635.41 343.075 633.955 342.473L633.788 342.398C633.605 342.309 633.109 342.121 632.33 341.916C627.1 340.538 620.484 341.258 612.856 345.771C601.351 352.578 589.843 366.882 578.953 390.51C570.812 408.172 563.285 430.537 556.513 458.018C556.116 459.627 554.491 460.609 552.882 460.213C551.273 459.816 550.291 458.191 550.687 456.582C557.545 428.752 565.192 406.031 573.504 387.999C584.866 363.348 597.128 348.105 609.8 340.607Z" fill="white"/>
<path fill-rule="evenodd" clip-rule="evenodd" d="M1228.6 501.801L1181.9 520.801L679.6 519.501C675.3 519.501 671.7 514.201 671.8 507.701L671.9 487.001C671.9 480.501 675.5 475.301 679.8 475.301L1182.1 476.601L1228.7 495.801C1230.7 496.801 1230.7 501.001 1228.6 501.801Z" fill="#2197B0"/>
<path fill-rule="evenodd" clip-rule="evenodd" d="M689.761 455.801L813.261 458.301C814.917 458.334 816.233 459.704 816.199 461.361C816.167 462.958 814.892 464.239 813.316 464.298L813.139 464.3L692.694 461.861L692.6 521.705C692.598 523.303 691.347 524.607 689.772 524.695L689.595 524.7C687.998 524.698 686.694 523.447 686.605 521.872L686.6 521.695L686.7 458.795C686.703 457.177 687.986 455.864 689.582 455.802L689.761 455.801Z" fill="#2F2E41"/>
<path fill-rule="evenodd" clip-rule="evenodd" d="M864.6 493.699C866.257 493.699 867.6 495.042 867.6 496.699C867.6 498.297 866.351 499.603 864.776 499.694L864.6 499.699H751.4C749.743 499.699 748.4 498.356 748.4 496.699C748.4 495.102 749.649 493.796 751.224 493.704L751.4 493.699H864.6Z" fill="white"/>
</g>
<defs>
<filter id="filter0_d" x="-4" y="0" width="1404" height="535" filterUnits="userSpaceOnUse" color-interpolation-filters="sRGB">
<feFlood flood-opacity="0" result="BackgroundImageFix"/>
<feColorMatrix in="SourceAlpha" type="matrix" values="0 0 0 0 0 0 0 0 0 0 0 0 0 0 0 0 0 0 127 0" result="hardAlpha"/>
<feOffset dy="4"/>
<feGaussianBlur stdDeviation="2"/>
<feComposite in2="hardAlpha" operator="out"/>
<feColorMatrix type="matrix" values="0 0 0 0 0 0 0 0 0 0 0 0 0 0 0 0 0 0 0.25 0"/>
<feBlend mode="normal" in2="BackgroundImageFix" result="effect1_dropShadow"/>
<feBlend mode="normal" in="SourceGraphic" in2="effect1_dropShadow" result="shape"/>
</filter>
</defs>
</svg>
