<?xml version="1.0" encoding="utf-8"?>
<!-- Generator: Adobe Illustrator 23.1.0, SVG Export Plug-In . SVG Version: 6.00 Build 0)  -->
<svg version="1.1" id="Layer_1" xmlns="http://www.w3.org/2000/svg" xmlns:xlink="http://www.w3.org/1999/xlink" x="0px" y="0px"
	 viewBox="0 0 1644 847" style="enable-background:new 0 0 1644 847;" xml:space="preserve">
<style type="text/css">
	.st0{fill-rule:evenodd;clip-rule:evenodd;fill:#2F2E41;}
	.st1{fill-rule:evenodd;clip-rule:evenodd;fill:#2197B0;}
</style>
<path class="st0" d="M543.7,394.2c1.7,0,3,1.3,3,3c0,1.6-1.2,2.9-2.8,3l-0.2,0H414.8c-74.5,0-127.4,59.3-119.4,133.1l0.3,2.2
	l24.4,194.6c0.2,1.6-1,3.1-2.6,3.4c-1.6,0.2-3-0.9-3.3-2.4l0-0.2l-24.4-194.6c-9.7-77.6,45.1-140.8,122.7-142.1l2.4,0H543.7z"/>
<path class="st0" d="M632.2,331.4c1.3-0.2,2.5,0.4,3.1,1.6l3.5,6.7c0.1,0.2,0.2,0.5,0.3,0.8l0,0.2l4.2,30.2c0.1,0.7-0.1,1.4-0.4,2
	l-0.1,0.2l-16,22.5c-1,1.4-2.8,1.7-4.2,0.7c-1.3-0.9-1.6-2.7-0.8-4l0.1-0.2l15.3-21.5l-4-28.5l-2.3-4.3l-0.3,0.1
	c-39,6.1-63.4,17.2-74.5,32.5l-0.3,0.5c-9.7,13.7-9,30.9,1.2,51.1c0.9,1.8-0.2,3.9-2.1,4.3c-65.9,12.9-119.4,68.1-151.4,147.4
	c-28.8,71.4-35.3,152.8-16.6,205l3,8.6c6.4,18,10.3,26.8,16.1,34.6c7.4,10,16.7,15.1,29.4,15.2c1.7,0,3,1.4,3,3c0,1.7-1.4,3-3,3
	c-14.7-0.1-25.6-6.2-34.1-17.6l-0.5-0.7c-5.8-8-9.8-16.9-15.9-34l-3.4-9.7c0-0.1-0.1-0.2-0.1-0.4c-19.2-53.7-12.6-136.5,16.7-209.2
	c32-79.4,85.5-135.4,151.8-150.2l0.3-0.1l-0.2-0.4c-9.1-20.2-9.3-38.2,0.9-52.9l0.3-0.5C563.2,349.8,589.9,337.7,632.2,331.4z"/>
<path class="st1" d="M669.9,474.7c0-0.2,0-0.4,0-0.6c4.7,0.5,9.3,0.5,13.8-3.3c11-9.5,14.9-12.4,14.9-12.4s1,1.2,2.8,3.2
	c2.2-4,4.4-8.2,6.7-12.4c-47.5-36.8-83.8-55.4-83.8-55.4l-2.7-1.9l-17.4,21.3C604.2,413.2,632.6,432.7,669.9,474.7z"/>
<path class="st1" d="M899.5,819.9c0,0-76-204.4-66.3-267.7c5.3-34.6-3-73.7-14.4-104l-21.8,1.4l-26.1,61.6c1.7,0.4,3.4,0.8,5.1,1
	c0,0-1,6.5-3.5,21.3c-1.7,9.9,1.2,11,3.4,17.9c2.9,4.6,5.1,9.8,2.7,17.9c-0.8,2.6-2.7,27.4-7,61c8,16.9,15.6,34.9,22.8,54.1
	c46.1,122.9,41.3,136.3,41.3,136.3L899.5,819.9z"/>
<path class="st0" d="M803.7,338.3c0.5-1.6,2.2-2.4,3.8-1.9c30.4,10.4,51.6,26.8,65.4,48.3c10,15.6,15.4,31.7,18.9,52.2l0.1,0.8
	l2,1.5c96.8,74.1,166,157.8,212,245.5l1.4,2.7c17.3,33.4,30.3,65.6,39.7,96.1c6.6,21.4,10.7,39.7,12.9,54.1c0.2,1.6-0.9,3.2-2.5,3.4
	c-1.6,0.2-3.2-0.9-3.4-2.5l-0.2-1.5c-2.2-13.9-6.2-31.3-12.4-51.7c-9.2-30.2-22.1-62.1-39.2-95.1c-46-88.8-116-173.5-214.6-248.4
	c-0.6-0.5-1-1.1-1.1-1.9c-3.4-20.7-8.5-36.7-18.4-52c-13.1-20.3-33.2-35.9-62.3-45.9C804,341.6,803.1,339.9,803.7,338.3z"/>
<path class="st0" d="M851.5,537.5c2.1,0.1,3.8,1.8,3.9,3.9l0,0.3l0,0.7c0,0.6,0,1.3-0.1,2.1c-0.5,22.5,0.7,49.8,4.7,75.9
	c1.8,11.8,4.2,22.6,7.1,32.2c0.6,2.1-0.5,4.3-2.7,5c-2.1,0.6-4.3-0.5-5-2.7c-3-9.9-5.5-21.1-7.3-33.3c-4-26.1-5.2-53.3-4.8-76
	l0.1-2.8l0-1.5c0.1-2.1,1.8-3.8,3.9-3.9L851.5,537.5z"/>
<path class="st0" d="M886.2,438.7c0.7,4.3,1.3,8.2,1.8,11.6c6.1,39.8-7,66.3-15.7,84.6c23.3-16.5,39.1-47.9,47-71.8
	C909.8,455.5,896.7,446.5,886.2,438.7z"/>
<path class="st0" d="M556.6,421.4c-16.3,3.3-43.1,11.5-62.5,24.8c13.5,7.4,80.4,47.4,135,71.4c0.4-0.2,3.4-5.2,4.9-7.2
	C603.8,486.5,572,452.3,556.6,421.4z"/>
<path class="st0" d="M599.8,259.2c1.6-0.4,3.2,0.5,3.7,2.1c0.4,1.5-0.4,3.1-1.9,3.6l-0.5,0.2c-0.2,0-0.4,0.1-0.6,0.2
	c-0.8,0.3-1.7,0.6-2.7,1c-2.8,1.1-5.7,2.6-8.3,4.4c-11,7.4-15,17.6-8.2,32c4.3,9,10.2,12.8,17.8,12.8c6,0,12.8-2.5,20.1-6.6
	c1.4-0.8,3.3-0.3,4.1,1.1c0.8,1.4,0.3,3.3-1.1,4.1c-8.2,4.6-15.7,7.4-23,7.4c-9.9,0-18-5.1-23.3-16.2c-8.2-17.3-3-30.5,10.3-39.5
	c3-2,6.2-3.7,9.4-4.9C597.4,259.9,598.9,259.4,599.8,259.2z"/>
<path class="st0" d="M696.3,123c-6.2,1.2-11.6,2.7-16,4.2l-0.6,0.2c-37.8,12.9-60.6,35.4-71,64.8c-7.6,21.5-7.8,44.4-3.7,65.7
	c0.5,2.7,1.1,5.1,1.6,7.3l0.2,0.9l0.2,0.6c0.1,0.4,0.2,0.7,0.3,1l0.2,0.5c0.1,2,2.1,3.3,3.9,2.7l10.3-3.4l0.1,0.1
	c8.6,6.7,31.6,35.7,39,49.8c0.8,1.6,2.8,2.1,4.3,1.1l0.9-0.6l0.9-0.6c0.3-0.2,0.7-0.4,1-0.6l0.8-0.4c3-1.8,6.5-3.7,10.5-5.9
	c11.5-6.1,24.7-12.2,39.4-17.9l1.9-0.7c12-4.6,24.4-8.6,37.3-12.1l2-0.5l2.1-0.5c0.5-0.1,1-0.2,1.5-0.3l1.1-0.2
	c3.7-0.8,7.7-1.6,11.7-2.3c3.2-0.6,6.3-1.1,9.2-1.6l2-0.3c7.2-1.1,13.1-1.6,17-1.4c1.8,0.1,3.3-1.5,3.1-3.4
	c-4.8-38.2-13.8-77.3-26.8-110.1c-9.9-25.2-29.7-37.1-55.7-38.5C715.6,120.2,705.9,121.1,696.3,123z M724.7,126.7
	c23.8,1.3,41.5,11.9,50.4,34.7l0.6,1.5c11.9,30.5,20.4,66.5,25.1,101.9l0.2,1.9l-0.1,0c-4.4,0.2-10,0.8-16.6,1.8
	c-3,0.5-6.1,1-9.4,1.6c-3.5,0.6-7.1,1.3-10.4,2l-2.5,0.5c-0.7,0.2-1.4,0.3-2,0.4l-1.8,0.4l-0.1,0c-14.5,3.9-28.4,8.4-41.8,13.6
	c-14.9,5.8-28.3,12-40,18.1l-1.6,0.9c-3.4,1.8-6.5,3.6-9.1,5.1l-1.1,0.6l-0.1-0.2c-9.6-16.5-32.8-45.1-40.7-50l-0.2-0.1
	c-0.7-0.4-1.6-0.4-2.3-0.2l-8.7,2.9c-0.6-2.2-1.2-4.7-1.7-7.5c-4-20.4-3.7-42.2,3.4-62.6c9.6-27.4,30.8-48.4,66.2-60.7l1.1-0.4
	c4.3-1.5,9.6-3,15.9-4.2C706.6,127,715.8,126.2,724.7,126.7z"/>
<path class="st0" d="M621.3,261.3c0.8-0.3,1.8-0.2,2.5,0.3c7.8,4.8,30.6,32.9,40.4,49.5l0.4,0.7l1.1-0.6l1.3-0.7
	c2.8-1.6,6-3.4,9.5-5.3c11.7-6.2,25.1-12.4,40-18.2c12.7-4.9,26-9.3,39.7-13.1l2.1-0.6l1.4-0.3l2.5-0.5l1.1-0.2
	c3.8-0.8,7.8-1.6,11.8-2.3c2.8-0.5,5.5-1,8.1-1.4l1.3-0.2c8.6-1.3,15.6-2,20.4-1.8c1.4,0.1,2.5,1.1,2.8,2.4l0.1,0.7l0.3,1.6
	c0.1,0.4,0.1,0.8,0.2,1.2l0.2,1.4c0.4,2.4,0.8,5,1.1,7.9c2.1,16.9,2.7,34.4,0.9,50.8c-0.1,0.6-0.1,1.2-0.2,1.8
	c-0.2,1.6-1.7,2.8-3.3,2.6c-1.6-0.2-2.8-1.7-2.6-3.3c0.1-0.6,0.1-1.1,0.2-1.7c1.8-15.9,1.2-33-0.9-49.4l-0.2-1.6
	c-0.3-2.4-0.7-4.7-1-6.7l-0.3-1.6l-0.3,0c-4,0.1-9.4,0.7-15.9,1.6l-0.7,0.1c-2.9,0.5-6,1-9.2,1.6c-3.5,0.6-6.9,1.3-10.2,2l-3,0.6
	l-2.4,0.5l-0.7,0.2l-2,0.5c-12.9,3.5-25.3,7.6-37.3,12.1l-1.9,0.7c-14.7,5.7-27.9,11.8-39.4,17.9l-1.6,0.8c-3.1,1.7-5.9,3.2-8.3,4.7
	l-1.4,0.8c-0.4,0.2-0.7,0.4-1,0.6l-1.6,1c-0.1,0.1-0.2,0.1-0.2,0.1c-1.5,1-3.5,0.4-4.3-1.1c-7.3-14-30-42.5-38.7-49.6l-0.4-0.3
	l-16.5,5.5l5.6,11.2l4.3,8.6c3.2,6.4,6.4,12.8,9.5,18.9l4.3,8.4c9,17.8,15.9,30.7,19.6,37c12,20,19,25.9,46,36.5
	c9.1,3.5,20.6,5.5,32.5,5.5c1.7,0,3,1.3,3,3c0,1.7-1.3,3-3,3c-12.6,0-24.9-2.1-34.7-5.9l-2.5-1C664,387.9,655.8,381,644,361.5
	l-0.8-1.2c-3.8-6.3-10.5-19.1-19.4-36.6l-2.6-5.2c-4.1-8-8.3-16.5-12.6-25.1l-3.7-7.4l-6.6-13.4c-0.8-1.6,0-3.5,1.6-4.1l0.2-0.1
	L621.3,261.3z"/>
<path class="st0" d="M603.6,280.4c0,0-19.1-22.2-32.9-48.7c-13-24.9-7.6-55.8,13.9-73.8c18-15.1,35.2-11.1,35.2-11.1
	s-31.1-31.6-6.6-72.6c8.6-14.4,22.9-24.8,39.4-28.4c40.2-8.8,61,21.8,61,21.8S736.7-21.6,835.9,3c10,2.5,23.2,13.1,30.2,20.7
	c42.3,46.1-37.3,133.1-85.7,150.5c-53.1,19.2-87.3,18.2-108.2,9.2C687.3,188,687.8,272.7,603.6,280.4z"/>
<path class="st0" d="M755.5,249c2-0.8,4.2,0.2,5.1,2.1l0.1,0.2l18.8,49.9c1,2.6-0.9,5.3-3.6,5.4l-0.2,0l-19.3-0.1c-2.2,0-4-1.8-4-4
	c0-2.1,1.7-3.9,3.8-4l0.2,0l13.5,0.1l-16.7-44.5c-0.8-2,0.2-4.2,2.1-5.1L755.5,249z"/>
<path class="st0" d="M746.6,345.9c5.2,0,9.5-4.3,9.5-9.5s-4.3-9.5-9.5-9.5s-9.5,4.3-9.5,9.5S741.4,345.9,746.6,345.9z"/>
<path class="st0" d="M779.1,256.8c2.9-0.7,4.3-5,3.2-9.5c-1.1-4.5-4.4-7.6-7.3-6.8c-2.9,0.7-4.3,5-3.2,9.5
	C773,254.5,776.2,257.5,779.1,256.8z"/>
<path class="st0" d="M728.2,268.6c2.9-0.7,4.3-5,3.2-9.5c-1.1-4.5-4.4-7.6-7.3-6.8s-4.3,5-3.2,9.5
	C722.1,266.3,725.3,269.3,728.2,268.6z"/>
<path class="st0" d="M713.2,210.1c2.2-0.2,4.2,1.4,4.4,3.6c0.2,2.2-1.4,4.2-3.6,4.4c-5.5,0.5-9.8,2.7-13.1,6.1
	c-1.3,1.4-2.4,2.8-3.3,4.3l-0.2,0.4c-0.3,0.6-0.5,1-0.6,1.3l0,0.1c-0.8,2.1-3.1,3.1-5.2,2.3c-2.1-0.8-3.1-3.1-2.3-5.2
	c0.2-0.7,0.7-1.7,1.4-2.9c1.2-2,2.7-4,4.5-5.9C699.8,213.9,705.8,210.8,713.2,210.1z"/>
<path class="st0" d="M763.3,196.2c3.6-1.3,7.4-1.8,11.1-1.2c4.5,0.8,8.4,3.3,11.1,7.7c1.1,1.9,0.6,4.3-1.3,5.5
	c-1.9,1.1-4.3,0.6-5.5-1.3c-1.5-2.4-3.3-3.6-5.6-4c-2.2-0.4-4.6,0-7.1,0.9c-0.6,0.2-1.2,0.5-1.7,0.7l-0.4,0.2l-0.1,0
	c-1.9,1.1-4.4,0.3-5.4-1.6c-1.1-1.9-0.3-4.4,1.6-5.4l0.3-0.2C760.9,197.1,761.9,196.6,763.3,196.2z"/>
<path class="st0" d="M1353.4,561.8H964.6c-5.1,0-9.5,3.5-10.7,8.5l-54.1,228.8H758.9c0,0-7.8,40.3,37.7,40.3c23.1,0,496.4,0,496.4,0
	c5.1,0,9.5-3.5,10.7-8.5l60.4-255.6C1365.7,568.4,1360.5,561.8,1353.4,561.8z"/>
<path class="st1" d="M1199.1,223h-3.1c-2.8,0-5-2.2-5-5v-7.9c0-2.8,2.2-5,5-5h3.1c2.8,0,5,2.2,5,5v7.9
	C1204.1,220.8,1201.9,223,1199.1,223z"/>
<path class="st0" d="M1181,223h-79.8c-2.8,0-5-2.2-5-5v-7.9c0-2.8,2.2-5,5-5h79.8c2.8,0,5,2.2,5,5v7.9
	C1186,220.8,1183.8,223,1181,223z"/>
<path class="st0" d="M1189.2,306.1h-87.9c-2.8,0-5-2.2-5-5v-7.9c0-2.8,2.2-5,5-5h87.9c2.8,0,5,2.2,5,5v7.9
	C1194.2,303.9,1191.9,306.1,1189.2,306.1z"/>
<path class="st1" d="M1267.9,278.4H1126c-2.8,0-5-2.2-5-5v-7.9c0-2.8,2.2-5,5-5h141.9c2.8,0,5,2.2,5,5v7.9
	C1272.9,276.2,1270.7,278.4,1267.9,278.4z"/>
<path class="st1" d="M1358.4,278.4h-72c-2.8,0-5-2.2-5-5v-7.9c0-2.8,2.2-5,5-5h72c2.8,0,5,2.2,5,5v7.9
	C1363.4,276.2,1361.2,278.4,1358.4,278.4z"/>
<path class="st0" d="M1386.2,250.8h-3.1c-2.8,0-5-2.2-5-5v-7.9c0-2.8,2.2-5,5-5h3.1c2.8,0,5,2.2,5,5v7.9
	C1391.2,248.5,1389,250.8,1386.2,250.8z"/>
<path class="st0" d="M1248.3,250.7h-147.1c-2.8,0-5-2.2-5-5v-7.9c0-2.8,2.2-5,5-5h147.1c2.8,0,5,2.2,5,5v7.9
	C1253.3,248.5,1251.1,250.7,1248.3,250.7z"/>
<path class="st0" d="M1294.7,223h-79.8c-2.8,0-5-2.2-5-5v-7.9c0-2.8,2.2-5,5-5h79.8c2.8,0,5,2.2,5,5v7.9
	C1299.7,220.8,1297.4,223,1294.7,223z"/>
<path class="st1" d="M1366.1,250.8h-100.8c-2.8,0-5-2.2-5-5v-8c0-2.8,2.2-5,5-5h100.8c2.8,0,5,2.2,5,5v8
	C1371.1,248.5,1368.9,250.8,1366.1,250.8z"/>
<path class="st0" d="M1181,402.4h-79.8c-2.8,0-5-2.2-5-5v-7.9c0-2.8,2.2-5,5-5h79.8c2.8,0,5,2.2,5,5v7.9
	C1186,400.2,1183.8,402.4,1181,402.4z"/>
<path class="st0" d="M1189.2,485.5h-87.9c-2.8,0-5-2.2-5-5v-7.9c0-2.8,2.2-5,5-5h87.9c2.8,0,5,2.2,5,5v7.9
	C1194.2,483.2,1191.9,485.5,1189.2,485.5z"/>
<path class="st1" d="M1267.9,457.8H1126c-2.8,0-5-2.2-5-5v-7.9c0-2.8,2.2-5,5-5h141.9c2.8,0,5,2.2,5,5v7.9
	C1272.9,455.6,1270.7,457.8,1267.9,457.8z"/>
<path class="st1" d="M1358.4,457.8h-72c-2.8,0-5-2.2-5-5v-7.9c0-2.8,2.2-5,5-5h72c2.8,0,5,2.2,5,5v7.9
	C1363.4,455.6,1361.2,457.8,1358.4,457.8z"/>
<path class="st0" d="M1386.2,430.2h-3.1c-2.8,0-5-2.2-5-5v-7.9c0-2.8,2.2-5,5-5h3.1c2.8,0,5,2.2,5,5v7.9
	C1391.2,427.9,1389,430.2,1386.2,430.2z"/>
<path class="st0" d="M1409,402.4h-3.1c-2.8,0-5-2.2-5-5v-7.9c0-2.8,2.2-5,5-5h3.1c2.8,0,5,2.2,5,5v7.9
	C1414,400.2,1411.8,402.4,1409,402.4z"/>
<path class="st0" d="M1248.3,430.1h-147.1c-2.8,0-5-2.2-5-5v-7.9c0-2.8,2.2-5,5-5h147.1c2.8,0,5,2.2,5,5v7.9
	C1253.3,427.9,1251.1,430.1,1248.3,430.1z"/>
<path class="st1" d="M1294.7,402.4h-98.6c-2.8,0-5-2.2-5-5v-7.9c0-2.8,2.2-5,5-5h98.6c2.8,0,5,2.2,5,5v7.9
	C1299.7,400.2,1297.4,402.4,1294.7,402.4z"/>
<path class="st1" d="M1391.4,402.4h-79.8c-2.8,0-5-2.2-5-5v-7.9c0-2.8,2.2-5,5-5h79.8c2.8,0,5,2.2,5,5v7.9
	C1396.4,400.2,1394.2,402.4,1391.4,402.4z"/>
<path class="st1" d="M1199.1,375.6h-3.1c-2.8,0-5-2.2-5-5v-7.9c0-2.8,2.2-5,5-5h3.1c2.8,0,5,2.2,5,5v7.9
	C1204.1,373.3,1201.9,375.6,1199.1,375.6z"/>
<path class="st0" d="M1181,375.6h-79.8c-2.8,0-5-2.2-5-5v-7.9c0-2.8,2.2-5,5-5h79.8c2.8,0,5,2.2,5,5v7.9
	C1186,373.3,1183.8,375.6,1181,375.6z"/>
<path class="st0" d="M1294.7,375.6h-79.8c-2.8,0-5-2.2-5-5v-7.9c0-2.8,2.2-5,5-5h79.8c2.8,0,5,2.2,5,5v7.9
	C1299.7,373.3,1297.4,375.6,1294.7,375.6z"/>
<path class="st1" d="M1366.1,430.2h-100.8c-2.8,0-5-2.2-5-5v-8c0-2.8,2.2-5,5-5h100.8c2.8,0,5,2.2,5,5v8
	C1371.1,427.9,1368.9,430.2,1366.1,430.2z"/>
<path class="st0" d="M1490.3,729.9c16.1-1.2,30,10.8,31.1,26.9c1.2,16.1-10.8,30-26.9,31.1c-2.5,0.1-4.6,0.1-6.6-0.2
	c-1.6-0.2-2.8-1.8-2.5-3.4c0.2-1.6,1.8-2.8,3.4-2.5c1.6,0.2,3.3,0.3,5.3,0.2c12.7-0.9,22.3-11.9,21.3-24.7
	c-0.9-12.7-11.9-22.3-24.7-21.3c-2.1,0.2-4.2,0.6-6.1,1.3c-1.6,0.5-3.3-0.3-3.8-1.9c-0.5-1.6,0.3-3.3,1.9-3.8
	C1485.2,730.6,1487.7,730.1,1490.3,729.9z"/>
<path class="st0" d="M1381.7,689.9c1.2-1,3-0.9,4.1,0.3l0.1,0.1l37.3,45.5c1.1,1.3,0.9,3.2-0.4,4.2c-1.2,1-3,0.9-4.1-0.3l-0.1-0.1
	l-37.3-45.5C1380.2,692.8,1380.4,690.9,1381.7,689.9z"/>
<path class="st0" d="M1378.1,723.6v85.8c0,16.6,13.4,30,30,30h50.6c16.6,0,30-13.4,30-30v-85.8H1378.1z M1422.9,786.4
	c0.7,0.5,1,1,1,1.8c0,0.6-0.2,1-0.6,1.4c-0.4,0.4-0.9,0.6-1.4,0.6c-0.4,0-0.7-0.1-1-0.3l-20-12c-0.7-0.5-1.1-1.1-1.1-1.8
	s0.4-1.3,1.1-1.8l20-12c0.3-0.2,0.6-0.3,1-0.3c0.6,0,1,0.2,1.4,0.6c0.4,0.4,0.6,0.9,0.6,1.4c0,0.7-0.3,1.3-1,1.8l-17.2,10.3
	L1422.9,786.4z M1447.9,756.8l-16.1,40.2c-0.1,0.2-0.2,0.4-0.4,0.6c-0.4,0.4-0.9,0.6-1.4,0.6c-0.6,0-1-0.2-1.4-0.6
	c-0.4-0.4-0.6-0.9-0.6-1.4c0-0.3,0.1-0.6,0.2-0.9l16.1-40.2c0.1-0.2,0.2-0.4,0.4-0.6c0.4-0.4,0.9-0.6,1.4-0.6c0.6,0,1,0.2,1.4,0.6
	c0.4,0.4,0.6,0.9,0.6,1.4C1448.1,756.3,1448,756.6,1447.9,756.8z M1475.1,777.9l-20,12c-0.3,0.2-0.6,0.3-1,0.3c-0.6,0-1-0.2-1.4-0.6
	c-0.4-0.4-0.6-0.9-0.6-1.4c0-0.7,0.3-1.3,1-1.8l17.2-10.3l-17.2-10.3c-0.7-0.5-1-1-1-1.8c0-0.6,0.2-1,0.6-1.4
	c0.4-0.4,0.9-0.6,1.4-0.6c0.4,0,0.7,0.1,1,0.3l20,12c0.7,0.5,1.1,1.1,1.1,1.8S1475.9,777.5,1475.1,777.9z"/>
<path class="st0" d="M240.6,729.9c1.9-0.1,3.7-0.1,5.3,0.1c1.6,0.2,2.8,1.7,2.6,3.4c-0.2,1.6-1.7,2.8-3.4,2.6
	c-1.2-0.2-2.5-0.2-4.1-0.1c-12.7,0.9-22.2,11.9-21.3,24.7c0.9,12.7,11.9,22.3,24.7,21.3c1.7-0.1,3.1,1.1,3.2,2.8
	c0.1,1.7-1.1,3.1-2.8,3.2c-16.1,1.2-30-10.8-31.1-26.9C212.6,744.9,224.6,731,240.6,729.9z"/>
<path class="st0" d="M241.2,723.6v85.8c0,16.6,13.4,30,30,30h50.6c16.6,0,30-13.4,30-30v-85.8H241.2z M285.9,786.4
	c0.7,0.5,1,1,1,1.8c0,0.6-0.2,1-0.6,1.4c-0.4,0.4-0.9,0.6-1.4,0.6c-0.4,0-0.7-0.1-1-0.3l-20-12c-0.7-0.5-1.1-1.1-1.1-1.8
	s0.4-1.3,1.1-1.8l20-12c0.3-0.2,0.6-0.3,1-0.3c0.6,0,1,0.2,1.4,0.6c0.4,0.4,0.6,0.9,0.6,1.4c0,0.7-0.3,1.3-1,1.8l-17.2,10.3
	L285.9,786.4z M328.1,777.9l-20,12c-0.3,0.2-0.6,0.3-1,0.3c-0.6,0-1-0.2-1.4-0.6c-0.4-0.4-0.6-0.9-0.6-1.4c0-0.7,0.3-1.3,1-1.8
	l17.2-10.3l-17.2-10.3c-0.7-0.5-1-1-1-1.8c0-0.6,0.2-1,0.6-1.4c0.4-0.4,0.9-0.6,1.4-0.6c0.4,0,0.7,0.1,1,0.3l20,12
	c0.7,0.5,1.1,1.1,1.1,1.8S328.8,777.5,328.1,777.9z"/>
<path class="st0" d="M411.6,661.5c1.4-0.8,3.1-0.3,4,1l0.1,0.2l13.7,24.8c0.8,1.5,0.3,3.3-1.2,4.1c-1.4,0.8-3.1,0.3-4-1l-0.1-0.2
	l-13.7-24.8C409.6,664.2,410.1,662.3,411.6,661.5z"/>
<path class="st0" d="M472.1,688.7c1.7,0,3,1.3,3,3c0,1.6-1.2,2.9-2.8,3l-0.2,0h-75.8c-1.7,0-3-1.3-3-3c0-1.6,1.2-2.9,2.8-3l0.2,0
	H472.1z"/>
<path class="st0" d="M461.6,772.5c-1.1-1.1-2.5-1.7-4.2-1.7c-1.6,0-3,0.6-4.2,1.7c-1.1,1.1-1.7,2.5-1.7,4.2c0,1.6,0.6,3,1.7,4.2
	c1.1,1.1,2.5,1.7,4.2,1.7c1.6,0,3-0.6,4.2-1.7c1.1-1.1,1.7-2.5,1.7-4.2S462.8,773.6,461.6,772.5z"/>
<path class="st0" d="M457.5,763.7c1.6,0,3-0.6,4.2-1.7c1.1-1.1,1.7-2.5,1.7-4.2c0-1.6-0.6-3-1.7-4.2c-1.1-1.1-2.5-1.7-4.2-1.7
	c-1.6,0-3,0.6-4.2,1.7c-1.1,1.1-1.7,2.5-1.7,4.2c0,1.6,0.6,3,1.7,4.2C454.5,763.1,455.8,763.7,457.5,763.7z"/>
<path class="st0" d="M461.6,799.6c1.1-1.1,1.7-2.5,1.7-4.2c0-1.6-0.6-3-1.7-4.2c-1.1-1.1-2.5-1.7-4.2-1.7c-1.6,0-3,0.6-4.2,1.7
	c-1.1,1.1-1.7,2.5-1.7,4.2c0,1.6,0.6,3,1.7,4.2c1.1,1.1,2.5,1.7,4.2,1.7C459.1,801.3,460.5,800.7,461.6,799.6z"/>
<path class="st0" d="M479.6,709.8l-13.3-17.3h-64.1l-13.3,17.3c-1.3,1.7-2,3.6-2,5.6v105.3c0,3.3,1.8,6.3,4.9,8.3
	c4.1,2.6,9.4,6.5,9.7,10.3h65.3c0.4-3.8,5.6-7.8,9.7-10.3c3.1-1.9,4.9-5,4.9-8.3V715.4C481.5,713.4,480.9,711.4,479.6,709.8z
	 M451.8,730l7-11.7c0.3-0.4,0.6-0.6,1.1-0.6c0.4,0,0.8,0.2,1.1,0.6l7,11.7c0.1,0.2,0.1,0.4,0.1,0.6c0,0.3-0.1,0.6-0.3,0.8
	c-0.2,0.2-0.5,0.3-0.8,0.3c-0.4,0-0.8-0.2-1-0.6l-6-10l-6,10c-0.3,0.4-0.6,0.6-1,0.6c-0.3,0-0.6-0.1-0.8-0.3
	c-0.2-0.2-0.3-0.5-0.3-0.8C451.6,730.3,451.7,730.1,451.8,730z M452.2,734.4c0.2-0.1,0.4-0.2,0.7-0.2c0.3,0,0.6,0.1,0.8,0.3
	c0.2,0.2,0.3,0.5,0.3,0.8c0,0.3-0.1,0.6-0.3,0.8c-0.2,0.2-0.4,0.3-0.4,0.4c-1.1,1.1-1.7,2.5-1.7,4.2c0,1.6,0.5,2.9,1.5,3.9
	c0.3,0.2,0.6,0.4,1,0.4c0.5,0,0.8-0.3,0.9-0.7l2.4-7.2c0.3-0.9,0.7-1.5,1-1.9c0.7-0.7,1.5-1,2.5-1s1.8,0.4,2.5,1.1
	c1.4,1.4,2.2,3.2,2.2,5.5c0,2.5-1,4.6-2.9,6.3c-0.2,0.2-0.4,0.2-0.7,0.2c-0.3,0-0.6-0.1-0.8-0.3c-0.2-0.2-0.3-0.5-0.3-0.8
	s0.1-0.6,0.3-0.8c0.2-0.2,0.4-0.3,0.4-0.4c1.1-1.1,1.7-2.5,1.7-4.2c0-1.6-0.5-2.9-1.5-3.9c-0.3-0.2-0.6-0.4-1-0.4
	c-0.5,0-0.8,0.3-0.9,0.7l-2.4,7.2c-0.3,0.9-0.7,1.5-1,1.9c-0.7,0.7-1.5,1-2.5,1s-1.8-0.4-2.5-1.1c-1.4-1.4-2.2-3.2-2.2-5.5
	C449.3,738.2,450.2,736.1,452.2,734.4z M451.7,752c1.6-1.6,3.5-2.4,5.8-2.4c2.3,0,4.2,0.8,5.8,2.4c1.6,1.6,2.4,3.5,2.4,5.8
	c0,2.3-0.8,4.2-2.4,5.8c-1.6,1.6-3.5,2.4-5.8,2.4c-2.3,0-4.2-0.8-5.8-2.4c-1.6-1.6-2.4-3.5-2.4-5.8
	C449.3,755.5,450.1,753.6,451.7,752z M449.6,803.3c-0.2-0.2-0.3-0.5-0.3-0.8c0-0.3,0.1-0.6,0.3-0.8s0.5-0.3,0.8-0.3h1.3
	c-1.6-1.6-2.5-3.6-2.5-5.9c0-2.3,0.8-4.2,2.4-5.8c1.6-1.6,3.5-2.4,5.8-2.4c2.3,0,4.2,0.8,5.8,2.4c1.6,1.6,2.4,3.5,2.4,5.8
	c0,2.3-0.8,4.2-2.4,5.8c-1.6,1.6-3.5,2.4-5.8,2.4h-7C450.1,803.6,449.8,803.5,449.6,803.3z M467.9,807.7l-7,11.7
	c-0.3,0.4-0.6,0.6-1.1,0.6c-0.4,0-0.8-0.2-1.1-0.6l-7-11.7c-0.1-0.2-0.1-0.4-0.1-0.6c0-0.3,0.1-0.6,0.3-0.8c0.2-0.2,0.5-0.3,0.8-0.3
	c0.4,0,0.8,0.2,1,0.6l6,10l6-10c0.3-0.4,0.6-0.6,1-0.6c0.3,0,0.6,0.1,0.8,0.3c0.2,0.2,0.3,0.5,0.3,0.8
	C468,807.4,468,807.5,467.9,807.7z M472.4,784.5c-0.2,0.2-0.5,0.3-0.8,0.3h-14.1c-2.3,0-4.2-0.8-5.8-2.4s-2.4-3.5-2.4-5.8
	s0.8-4.2,2.4-5.8c1.6-1.6,3.5-2.4,5.8-2.4c2.3,0,4.2,0.8,5.8,2.4c1.6,1.6,2.4,3.5,2.4,5.8s-0.8,4.2-2.4,5.8c0,0,0,0-0.1,0.1h8.4
	c0.3,0,0.6,0.1,0.8,0.3c0.2,0.2,0.3,0.5,0.3,0.8S472.6,784.3,472.4,784.5z"/>
<path class="st0" d="M719.7,350.1c4.4-5.9,12.2-4.4,20.1,3.9c7.7,8,12.7,18.6,15.5,30.2c0.4,1.6-0.6,3.2-2.2,3.6
	c-1.6,0.4-3.2-0.6-3.6-2.2c-2.5-10.6-7.1-20.3-13.9-27.4c-5.7-5.9-9.4-6.7-11-4.5c-1.9,2.6-1.7,8.7,1.2,14.5l0.2,0.4
	c4.2,8.1,5.3,24,4.7,43.7c-0.1,1.7-1.4,3-3.1,2.9c-1.7-0.1-3-1.4-2.9-3.1l0.1-2.1c0.4-17.4-0.7-31.7-4-38.4l-0.1-0.3
	C716.5,363.5,716.1,355,719.7,350.1z"/>
<path class="st0" d="M853.5,336.2c-16.1,0-29.1,13-29.1,29.1c0,16.1,13,29.1,29.1,29.1c16.1,0,29.1-13,29.1-29.1
	C882.6,349.2,869.6,336.2,853.5,336.2z M853.5,342.2c12.8,0,23.1,10.3,23.1,23.1s-10.3,23.1-23.1,23.1s-23.1-10.3-23.1-23.1
	S840.7,342.2,853.5,342.2z"/>
<path class="st0" d="M697.7,460.7c1.3-0.9,3-0.7,4,0.5l0.5,0.7c0.4,0.5,0.8,1,1.3,1.6c1.4,1.7,3.1,3.7,4.9,5.7
	c5.3,5.9,11.2,11.9,17.6,17.4c15.2,13.3,30.3,22.1,44.4,24.4c1.2,0.2,2.1,1,2.4,2.2l0.1,0.3c0.1,0.4,0.2,1.1,0.3,1.9
	c0.6,4.4,0.5,10.5-0.7,18.4l-0.1,0.7c-0.6,3.9,0.3,6.7,3.5,11.5l1.6,2.4c2.3,3.5,3.4,5.6,4.3,8.5c1.2,4.1,1.2,8.4-0.3,13.3l0,0.1
	c-0.4,2-3.3,31-4.8,43.4l-0.1,1.1c-3.8,32.5-8.3,62.9-14.2,91.6c-7.7,37.9-17.1,69.5-28.4,93c-13.6,28.4-29.9,44.6-49.2,46
	c-1.7,0.1-3.1-1.1-3.2-2.8c-0.1-1.7,1.1-3.1,2.8-3.2c16.5-1.2,31.1-15.7,43.8-41.8l0.4-0.8c11.1-23,20.3-54.2,27.9-91.6
	c5.7-27.8,10.1-57.1,13.8-88.5l0.6-4.8c1.4-12.3,4.4-41.4,4.9-43.4l0-0.1c2-6.6,1-10.4-3.5-17.2l-1.1-1.6
	c-4.1-6.2-5.6-10.3-4.7-16.1c1.2-7.2,1.3-12.7,0.9-16.7l0-0.3l-0.6-0.1c-14.3-3-29.2-11.9-44-24.7l-0.7-0.6
	c-6.5-5.7-12.6-11.8-18.1-17.9c-1.6-1.8-3-3.4-4.3-4.9l-0.8-0.9l-1.4,1.1c-2.6,2.1-6,4.9-10.1,8.4c-2.6,2.3-5.5,3.5-8.8,3.8
	l-0.5,0.1c-2,0.2-3.8,0.1-7.2-0.3l-0.4,0c-8.2-1-11.5-0.3-16,4.6l-0.2,0.3c-2.8,3.2-17.3,26.4-39.4,62.9l-7,11.6l-2.9,4.7
	c-6.7,11.1-13.7,22.7-20.7,34.4l-17.2,28.7l-4.4,7.4c-0.8,1.4-2.7,1.9-4.1,1c-1.4-0.8-1.9-2.6-1.1-4l5-8.5l9.1-15.2
	c9.1-15.1,18.1-30.2,26.8-44.6l10.7-17.7c23-37.8,37.4-61,40.6-64.7c3.4-3.9,7.1-6.1,11.2-6.9c2.7-0.6,4.9-0.6,8.8-0.1l2.2,0.2
	c6.1,0.7,8.6,0.3,11.5-2.2l2.5-2.1c3-2.6,5.6-4.7,7.7-6.4l1.6-1.3c0.4-0.3,0.7-0.6,1-0.8l1-0.8C697.6,460.8,697.7,460.8,697.7,460.7
	z"/>
<path class="st0" d="M772.6,533.6c2.5-14.9,3.5-21.3,3.5-21.3c-38.2-5.9-77.5-53.9-77.5-53.9s-3.9,2.9-14.9,12.4
	c-4.4,3.8-9,3.8-13.8,3.3c-3.4,41.7,71.5,78.8,106.9,80.6C774.6,544.7,770.7,544.9,772.6,533.6z"/>
<path class="st0" d="M555.2,584.6c11.2-1.4,21.1,1.2,28.9,8.5c1.2,1.1,1.3,3,0.1,4.2c-1.1,1.2-3,1.3-4.2,0.1c-6.5-6-14.5-8.2-24.1-7
	c-8.7,1.1-18.1,4.9-27.6,10.5c-4.1,2.4-7.9,5-11.3,7.6l-0.9,0.7c-0.6,0.4-1.1,0.8-1.6,1.2l-0.7,0.6c-0.3,0.2-0.5,0.4-0.7,0.6
	l-0.4,0.3c-1.3,1.1-3.1,0.9-4.2-0.3c-1.1-1.3-0.9-3.1,0.3-4.2l0.4-0.3c0.2-0.1,0.4-0.3,0.6-0.5l1-0.8c0.8-0.6,1.7-1.3,2.6-2
	c3.6-2.7,7.6-5.4,11.9-7.9C535.5,589.9,545.6,585.9,555.2,584.6z"/>
<path class="st0" d="M805.6,351.2l-0.3,0c-4,0.6-15.1,6.9-30.7,16.9l-3.2,2.1c-14.2,9.2-28.1,19.1-32.8,23.1l-0.3,0.2
	c-4.1,3.9-13.5,19.3-27.2,43.8l-0.9,1.5c-0.8,1.4-1.6,2.9-2.4,4.4l-2.4,4.4c-4.5,8.1-9.1,16.6-13.7,25.2l-4,7.5
	c-1.5,2.7-2.8,5.3-4.1,7.7l-2.7,5.1c-0.7,1.4-0.2,3.2,1.2,4l75.6,43.9l0.2,0.1c1.5,0.8,3.4,0.1,4.1-1.5l37-87.6l0.5,0
	c15.6-0.4,26.1-4.5,30.8-11.2c4.5-6.4,2.4-14.7-4.4-15.2l-0.2,0c-0.9-0.1-2-0.1-3.5,0l-0.9,0l0.1,0c9.1-3,14.6-7.6,16.3-13.2
	c2-6.3-1.8-12.9-7.4-13.3l-0.1,0c-1.3-0.1-3.8,0.2-7.2,0.8l-0.5,0.1l0.2-0.1c5-2.7,8.3-6.8,9.3-11.5c1.3-5.9-1.3-11.5-6.7-12.9
	l-0.2,0c-3.1-0.7-11.3,0.9-22.6,4.1l-1.2,0.3l0.5-0.3c3.5-2.1,6.5-3.9,8.9-5.5c6.6-4.3,8.8-10.2,6.5-15.6
	C815.5,353.9,810.5,350.8,805.6,351.2z M812,360.9c1.1,2.6,0,5.4-4.3,8.3l-0.8,0.5c-2.9,1.8-6.5,4-10.9,6.5l-2.2,1.2
	c-0.5,0.3-1.1,0.6-1.6,0.9c-4.2,2.3-8.7,4.8-13.2,7.2l-3,1.6l-4.7,2.5l-0.7,0.4c-3.3,1.7-1.2,6.7,2.3,5.5l2.2-0.8
	c23.9-8.2,45.5-14.1,48.8-13.3c2,0.5,3.1,2.8,2.4,5.8c-0.8,3.7-4.2,7.1-9.6,9l-0.5,0.2l-40.7,14.5c-3.5,1.3-2,6.5,1.6,5.8l0.3-0.1
	l5.7-1.4l1.4-0.3c5.5-1.3,11.1-2.7,16.5-3.9l2.4-0.5l3.4-0.8c12.6-2.8,21.4-4.5,23.4-4.3c1.5,0.1,2.9,2.7,2,5.5
	c-1.4,4.6-7.7,8.8-19.6,11.1l-4,0.8c-21.1,4.1-28.6,6.8-29.7,9.4c-0.9,2.1,0.7,4.4,3,4.2l5.4-0.7c4-0.5,8.2-1.1,12.3-1.6l2.1-0.3
	l4.7-0.5c9.7-1.1,16.7-1.6,19.2-1.4c1.4,0.1,2.1,2.7,0,5.7c-3.7,5.2-13.2,8.7-28.4,8.7l-0.2,0c-1.1,0.1-2.1,0.8-2.6,1.8L758,534.2
	l-70.2-40.7l4.9-9.3c0.6-1.2,1.3-2.4,2-3.7l2.5-4.7c5.4-10.1,10.8-20.1,16-29.5l2.4-4.4l2.4-4.4c12.5-22.3,21.5-37,24.6-39.6
	c10.9-9.5,58.2-40.2,63.5-40.7C808.4,357,811,358.6,812,360.9z"/>
<path class="st0" d="M638.6,729.9c16.1-1.2,30,10.8,31.1,26.9c1.2,16.1-10.8,30-26.9,31.1c-3.8,0.2-7.5-0.2-10.7-1.2
	c-1.6-0.5-2.4-2.2-1.9-3.8c0.5-1.6,2.2-2.4,3.8-1.9c2.5,0.8,5.4,1.1,8.4,1c12.7-0.9,22.3-11.9,21.3-24.7
	c-0.9-12.7-11.9-22.3-24.7-21.3c-1.3,0.1-2.5,0.3-3.8,0.5c-1.6,0.3-3.2-0.7-3.6-2.3c-0.3-1.6,0.7-3.2,2.3-3.6
	C635.5,730.2,637.1,730,638.6,729.9z"/>
<path class="st0" d="M526.5,723.6v85.8c0,16.6,13.4,30,30,30h50.6c16.6,0,30-13.4,30-30v-85.8H526.5z M571.2,786.4
	c0.7,0.5,1,1,1,1.8c0,0.6-0.2,1-0.6,1.4c-0.4,0.4-0.9,0.6-1.4,0.6c-0.4,0-0.7-0.1-1-0.3l-20-12c-0.7-0.5-1.1-1.1-1.1-1.8
	s0.4-1.3,1.1-1.8l20-12c0.3-0.2,0.6-0.3,1-0.3c0.6,0,1,0.2,1.4,0.6c0.4,0.4,0.6,0.9,0.6,1.4c0,0.7-0.3,1.3-1,1.8L554,776.1
	L571.2,786.4z M596.2,756.8L580.1,797c-0.1,0.2-0.2,0.4-0.4,0.6c-0.4,0.4-0.9,0.6-1.4,0.6c-0.6,0-1-0.2-1.4-0.6
	c-0.4-0.4-0.6-0.9-0.6-1.4c0-0.3,0.1-0.6,0.2-0.9l16.1-40.2c0.1-0.2,0.2-0.4,0.4-0.6c0.4-0.4,0.9-0.6,1.4-0.6c0.6,0,1,0.2,1.4,0.6
	c0.4,0.4,0.6,0.9,0.6,1.4C596.4,756.3,596.3,756.6,596.2,756.8z M623.4,777.9l-20,12c-0.3,0.2-0.6,0.3-1,0.3c-0.6,0-1-0.2-1.4-0.6
	c-0.4-0.4-0.6-0.9-0.6-1.4c0-0.7,0.3-1.3,1-1.8l17.2-10.3l-17.2-10.3c-0.7-0.5-1-1-1-1.8c0-0.6,0.2-1,0.6-1.4
	c0.4-0.4,0.9-0.6,1.4-0.6c0.4,0,0.7,0.1,1,0.3l20,12c0.7,0.5,1.1,1.1,1.1,1.8C624.6,776.8,624.2,777.5,623.4,777.9z"/>
<path class="st0" d="M1638.8,838.9c1.7,0,3,1.3,3,3c0,1.6-1.2,2.9-2.8,3l-0.2,0H2.4c-1.7,0-3-1.3-3-3c0-1.6,1.2-2.9,2.8-3l0.2,0
	H1638.8z"/>
<path class="st0" d="M853.1,415.9l-5.5-85.6l-110.4,7.1l3.8,57.9c9.8-8.4,58-40.6,65-41.2c7-0.6,15.4,9.6,3.4,17.5
	c-12,7.9-37.4,20.9-37.4,20.9c21.1-7.4,47.8-15.4,52.8-14.1c7.6,2,7.1,16-7.4,20.6l-40.7,14.5c0,0,47.4-11.9,53.8-11.4
	c6.4,0.5,12,17.1-17.8,22.7c-29.8,5.7-31,8.3-31,8.3s36.7-5.2,44.3-4.5c7.6,0.7,7.8,20.5-28.7,20.4l-0.2,0.5l28.1-1.8
	C841.6,446.7,854.2,432.4,853.1,415.9z"/>
</svg>
