<svg width="1642" height="846" viewBox="0 0 1642 846" fill="none" xmlns="http://www.w3.org/2000/svg">
<path fill-rule="evenodd" clip-rule="evenodd" d="M543.7 394.2C545.4 394.2 546.7 395.5 546.7 397.2C546.7 398.8 545.5 400.1 543.9 400.2H543.7H414.8C340.3 400.2 287.4 459.5 295.4 533.3L295.7 535.5L320.1 730.1C320.3 731.7 319.1 733.2 317.5 733.5C315.9 733.7 314.5 732.6 314.2 731.1V730.9L289.8 536.3C280.1 458.7 334.9 395.5 412.5 394.2H414.9H543.7V394.2Z" fill="#2F2E41"/>
<path fill-rule="evenodd" clip-rule="evenodd" d="M632.2 331.4C633.5 331.2 634.7 331.8 635.3 333L638.8 339.7C638.9 339.9 639 340.2 639.1 340.5V340.7L643.3 370.9C643.4 371.6 643.2 372.3 642.9 372.9L642.8 373.1L626.8 395.6C625.8 397 624 397.3 622.6 396.3C621.3 395.4 621 393.6 621.8 392.3L621.9 392.1L637.2 370.6L633.2 342.1L630.9 337.8L630.6 337.9C591.6 344 567.2 355.1 556.1 370.4L555.8 370.9C546.1 384.6 546.8 401.8 557 422C557.9 423.8 556.8 425.9 554.9 426.3C489 439.2 435.5 494.4 403.5 573.7C374.7 645.1 368.2 726.5 386.9 778.7L389.9 787.3C396.3 805.3 400.2 814.1 406 821.9C413.4 831.9 422.7 837 435.4 837.1C437.1 837.1 438.4 838.5 438.4 840.1C438.4 841.8 437 843.1 435.4 843.1C420.7 843 409.8 836.9 401.3 825.5L400.8 824.8C395 816.8 391 807.9 384.9 790.8L381.5 781.1C381.5 781 381.4 780.9 381.4 780.7C362.2 727 368.8 644.2 398.1 571.5C430.1 492.1 483.6 436.1 549.9 421.3L550.2 421.2L550 420.8C540.9 400.6 540.7 382.6 550.9 367.9L551.2 367.4C563.2 349.8 589.9 337.7 632.2 331.4Z" fill="#2F2E41"/>
<path fill-rule="evenodd" clip-rule="evenodd" d="M669.9 474.7C669.9 474.5 669.9 474.3 669.9 474.1C674.6 474.6 679.2 474.6 683.7 470.8C694.7 461.3 698.6 458.4 698.6 458.4C698.6 458.4 699.6 459.6 701.4 461.6C703.6 457.6 705.8 453.4 708.1 449.2C660.6 412.4 624.3 393.8 624.3 393.8L621.6 391.9L604.2 413.2C604.2 413.2 632.6 432.7 669.9 474.7Z" fill="#2197B0"/>
<path fill-rule="evenodd" clip-rule="evenodd" d="M899.5 819.9C899.5 819.9 823.5 615.5 833.2 552.2C838.5 517.6 830.2 478.5 818.8 448.2L797 449.6L770.9 511.2C772.6 511.6 774.3 512 776 512.2C776 512.2 775 518.7 772.5 533.5C770.8 543.4 773.7 544.5 775.9 551.4C778.8 556 781 561.2 778.6 569.3C777.8 571.9 775.9 596.7 771.6 630.3C779.6 647.2 787.2 665.2 794.4 684.4C840.5 807.3 835.7 820.7 835.7 820.7L899.5 819.9Z" fill="#2197B0"/>
<path fill-rule="evenodd" clip-rule="evenodd" d="M803.7 338.3C804.2 336.7 805.9 335.9 807.5 336.4C837.9 346.8 859.1 363.2 872.9 384.7C882.9 400.3 888.3 416.4 891.8 436.9L891.9 437.7L893.9 439.2C990.7 513.3 1059.9 597 1105.9 684.7L1107.3 687.4C1124.6 720.8 1137.6 753 1147 783.5C1153.6 804.9 1157.7 823.2 1159.9 837.6C1160.1 839.2 1159 840.8 1157.4 841C1155.8 841.2 1154.2 840.1 1154 838.5L1153.8 837C1151.6 823.1 1147.6 805.7 1141.4 785.3C1132.2 755.1 1119.3 723.2 1102.2 690.2C1056.2 601.4 986.2 516.7 887.6 441.8C887 441.3 886.6 440.7 886.5 439.9C883.1 419.2 878 403.2 868.1 387.9C855 367.6 834.9 352 805.8 342C804 341.6 803.1 339.9 803.7 338.3Z" fill="#2F2E41"/>
<path fill-rule="evenodd" clip-rule="evenodd" d="M851.5 537.5C853.6 537.6 855.3 539.3 855.4 541.4V541.7V542.4C855.4 543 855.4 543.7 855.3 544.5C854.8 567 856 594.3 860 620.4C861.8 632.2 864.2 643 867.1 652.6C867.7 654.7 866.6 656.9 864.4 657.6C862.3 658.2 860.1 657.1 859.4 654.9C856.4 645 853.9 633.8 852.1 621.6C848.1 595.5 846.9 568.3 847.3 545.6L847.4 542.8V541.3C847.5 539.2 849.2 537.5 851.3 537.4L851.5 537.5Z" fill="#2F2E41"/>
<path fill-rule="evenodd" clip-rule="evenodd" d="M886.2 438.7C886.9 443 887.5 446.9 888 450.3C894.1 490.1 881 516.6 872.3 534.9C895.6 518.4 911.4 487 919.3 463.1C909.8 455.5 896.7 446.5 886.2 438.7Z" fill="#2F2E41"/>
<path fill-rule="evenodd" clip-rule="evenodd" d="M556.6 421.4C540.3 424.7 513.5 432.9 494.1 446.2C507.6 453.6 574.5 493.6 629.1 517.6C629.5 517.4 632.5 512.4 634 510.4C603.8 486.5 572 452.3 556.6 421.4Z" fill="#2F2E41"/>
<path fill-rule="evenodd" clip-rule="evenodd" d="M599.8 259.2C601.4 258.8 603 259.7 603.5 261.3C603.9 262.8 603.1 264.4 601.6 264.9L601.1 265.1C600.9 265.1 600.7 265.2 600.5 265.3C599.7 265.6 598.8 265.9 597.8 266.3C595 267.4 592.1 268.9 589.5 270.7C578.5 278.1 574.5 288.3 581.3 302.7C585.6 311.7 591.5 315.5 599.1 315.5C605.1 315.5 611.9 313 619.2 308.9C620.6 308.1 622.5 308.6 623.3 310C624.1 311.4 623.6 313.3 622.2 314.1C614 318.7 606.5 321.5 599.2 321.5C589.3 321.5 581.2 316.4 575.9 305.3C567.7 288 572.9 274.8 586.2 265.8C589.2 263.8 592.4 262.1 595.6 260.9C597.4 259.9 598.9 259.4 599.8 259.2Z" fill="#2F2E41"/>
<path d="M657.5 372.5C632.5 338 622.637 314.27 603 271L653.5 156L781.5 160.5C781.5 160.5 792.5 192.5 801 230.5C809.5 268.5 814 318.5 810 334C806 349.5 794 349.5 774 365C758.394 377.095 727.5 408.5 727.5 408.5C703.357 404.777 680.5 396.5 657.5 372.5Z" stroke="#2F2E41" stroke-width="5"/>
<path fill-rule="evenodd" clip-rule="evenodd" d="M603.6 280.4C603.6 280.4 584.5 258.2 570.7 231.7C557.7 206.8 563.1 175.9 584.6 157.9C602.6 142.8 619.8 146.8 619.8 146.8C619.8 146.8 588.7 115.2 613.2 74.2C621.8 59.8 636.1 49.4 652.6 45.8C692.8 37 713.6 67.6 713.6 67.6C713.6 67.6 736.7 -21.6 835.9 3.00001C845.9 5.50001 859.1 16.1 866.1 23.7C908.4 69.8 828.8 156.8 780.4 174.2C727.3 193.4 693.1 192.4 672.2 183.4C687.3 188 687.8 272.7 603.6 280.4Z" fill="#2F2E41"/>
<path fill-rule="evenodd" clip-rule="evenodd" d="M755.5 249C757.5 248.2 759.7 249.2 760.6 251.1L760.7 251.3L779.5 301.2C780.5 303.8 778.6 306.5 775.9 306.6H775.7L756.4 306.5C754.2 306.5 752.4 304.7 752.4 302.5C752.4 300.4 754.1 298.6 756.2 298.5H756.4L769.9 298.6L753.2 254.1C752.4 252.1 753.4 249.9 755.3 249H755.5Z" fill="#2F2E41"/>
<path fill-rule="evenodd" clip-rule="evenodd" d="M746.6 345.9C751.8 345.9 756.1 341.6 756.1 336.4C756.1 331.2 751.8 326.9 746.6 326.9C741.4 326.9 737.1 331.2 737.1 336.4C737.1 341.6 741.4 345.9 746.6 345.9Z" fill="#2F2E41"/>
<path fill-rule="evenodd" clip-rule="evenodd" d="M779.1 256.8C782 256.1 783.4 251.8 782.3 247.3C781.2 242.8 777.9 239.7 775 240.5C772.1 241.2 770.7 245.5 771.8 250C773 254.5 776.2 257.5 779.1 256.8Z" fill="#2F2E41"/>
<path fill-rule="evenodd" clip-rule="evenodd" d="M728.2 268.6C731.1 267.9 732.5 263.6 731.4 259.1C730.3 254.6 727 251.5 724.1 252.3C721.2 253.1 719.8 257.3 720.9 261.8C722.1 266.3 725.3 269.3 728.2 268.6Z" fill="#2F2E41"/>
<path fill-rule="evenodd" clip-rule="evenodd" d="M713.2 210.1C715.4 209.9 717.4 211.5 717.6 213.7C717.8 215.9 716.2 217.9 714 218.1C708.5 218.6 704.2 220.8 700.9 224.2C699.6 225.6 698.5 227 697.6 228.5L697.4 228.9C697.1 229.5 696.9 229.9 696.8 230.2V230.3C696 232.4 693.7 233.4 691.6 232.6C689.5 231.8 688.5 229.5 689.3 227.4C689.5 226.7 690 225.7 690.7 224.5C691.9 222.5 693.4 220.5 695.2 218.6C699.8 213.9 705.8 210.8 713.2 210.1Z" fill="#2F2E41"/>
<path fill-rule="evenodd" clip-rule="evenodd" d="M763.3 196.2C766.9 194.9 770.7 194.4 774.4 195C778.9 195.8 782.8 198.3 785.5 202.7C786.6 204.6 786.1 207 784.2 208.2C782.3 209.3 779.9 208.8 778.7 206.9C777.2 204.5 775.4 203.3 773.1 202.9C770.9 202.5 768.5 202.9 766 203.8C765.4 204 764.8 204.3 764.3 204.5L763.9 204.7H763.8C761.9 205.8 759.4 205 758.4 203.1C757.3 201.2 758.1 198.7 760 197.7L760.3 197.5C760.9 197.1 761.9 196.6 763.3 196.2Z" fill="#2F2E41"/>
<path fill-rule="evenodd" clip-rule="evenodd" d="M1353.4 561.8H964.6C959.5 561.8 955.1 565.3 953.9 570.3L899.8 799.1H758.9C758.9 799.1 751.1 839.4 796.6 839.4C819.7 839.4 1293 839.4 1293 839.4C1298.1 839.4 1302.5 835.9 1303.7 830.9L1364.1 575.3C1365.7 568.4 1360.5 561.8 1353.4 561.8Z" fill="#2F2E41"/>
<path fill-rule="evenodd" clip-rule="evenodd" d="M1199.1 223H1196C1193.2 223 1191 220.8 1191 218V210.1C1191 207.3 1193.2 205.1 1196 205.1H1199.1C1201.9 205.1 1204.1 207.3 1204.1 210.1V218C1204.1 220.8 1201.9 223 1199.1 223Z" fill="#2197B0"/>
<path fill-rule="evenodd" clip-rule="evenodd" d="M1181 223H1101.2C1098.4 223 1096.2 220.8 1096.2 218V210.1C1096.2 207.3 1098.4 205.1 1101.2 205.1H1181C1183.8 205.1 1186 207.3 1186 210.1V218C1186 220.8 1183.8 223 1181 223Z" fill="#2F2E41"/>
<path fill-rule="evenodd" clip-rule="evenodd" d="M1189.2 306.1H1101.3C1098.5 306.1 1096.3 303.9 1096.3 301.1V293.2C1096.3 290.4 1098.5 288.2 1101.3 288.2H1189.2C1192 288.2 1194.2 290.4 1194.2 293.2V301.1C1194.2 303.9 1191.9 306.1 1189.2 306.1Z" fill="#2F2E41"/>
<path fill-rule="evenodd" clip-rule="evenodd" d="M1267.9 278.4H1126C1123.2 278.4 1121 276.2 1121 273.4V265.5C1121 262.7 1123.2 260.5 1126 260.5H1267.9C1270.7 260.5 1272.9 262.7 1272.9 265.5V273.4C1272.9 276.2 1270.7 278.4 1267.9 278.4Z" fill="#2197B0"/>
<path fill-rule="evenodd" clip-rule="evenodd" d="M1358.4 278.4H1286.4C1283.6 278.4 1281.4 276.2 1281.4 273.4V265.5C1281.4 262.7 1283.6 260.5 1286.4 260.5H1358.4C1361.2 260.5 1363.4 262.7 1363.4 265.5V273.4C1363.4 276.2 1361.2 278.4 1358.4 278.4Z" fill="#2197B0"/>
<path fill-rule="evenodd" clip-rule="evenodd" d="M1386.2 250.8H1383.1C1380.3 250.8 1378.1 248.6 1378.1 245.8V237.9C1378.1 235.1 1380.3 232.9 1383.1 232.9H1386.2C1389 232.9 1391.2 235.1 1391.2 237.9V245.8C1391.2 248.5 1389 250.8 1386.2 250.8Z" fill="#2F2E41"/>
<path fill-rule="evenodd" clip-rule="evenodd" d="M1248.3 250.7H1101.2C1098.4 250.7 1096.2 248.5 1096.2 245.7V237.8C1096.2 235 1098.4 232.8 1101.2 232.8H1248.3C1251.1 232.8 1253.3 235 1253.3 237.8V245.7C1253.3 248.5 1251.1 250.7 1248.3 250.7Z" fill="#2F2E41"/>
<path fill-rule="evenodd" clip-rule="evenodd" d="M1294.7 223H1214.9C1212.1 223 1209.9 220.8 1209.9 218V210.1C1209.9 207.3 1212.1 205.1 1214.9 205.1H1294.7C1297.5 205.1 1299.7 207.3 1299.7 210.1V218C1299.7 220.8 1297.4 223 1294.7 223Z" fill="#2F2E41"/>
<path fill-rule="evenodd" clip-rule="evenodd" d="M1366.1 250.8H1265.3C1262.5 250.8 1260.3 248.6 1260.3 245.8V237.8C1260.3 235 1262.5 232.8 1265.3 232.8H1366.1C1368.9 232.8 1371.1 235 1371.1 237.8V245.8C1371.1 248.5 1368.9 250.8 1366.1 250.8Z" fill="#2197B0"/>
<path fill-rule="evenodd" clip-rule="evenodd" d="M1181 402.4H1101.2C1098.4 402.4 1096.2 400.2 1096.2 397.4V389.5C1096.2 386.7 1098.4 384.5 1101.2 384.5H1181C1183.8 384.5 1186 386.7 1186 389.5V397.4C1186 400.2 1183.8 402.4 1181 402.4Z" fill="#2F2E41"/>
<path fill-rule="evenodd" clip-rule="evenodd" d="M1189.2 485.5H1101.3C1098.5 485.5 1096.3 483.3 1096.3 480.5V472.6C1096.3 469.8 1098.5 467.6 1101.3 467.6H1189.2C1192 467.6 1194.2 469.8 1194.2 472.6V480.5C1194.2 483.2 1191.9 485.5 1189.2 485.5Z" fill="#2F2E41"/>
<path fill-rule="evenodd" clip-rule="evenodd" d="M1267.9 457.8H1126C1123.2 457.8 1121 455.6 1121 452.8V444.9C1121 442.1 1123.2 439.9 1126 439.9H1267.9C1270.7 439.9 1272.9 442.1 1272.9 444.9V452.8C1272.9 455.6 1270.7 457.8 1267.9 457.8Z" fill="#2197B0"/>
<path fill-rule="evenodd" clip-rule="evenodd" d="M1358.4 457.8H1286.4C1283.6 457.8 1281.4 455.6 1281.4 452.8V444.9C1281.4 442.1 1283.6 439.9 1286.4 439.9H1358.4C1361.2 439.9 1363.4 442.1 1363.4 444.9V452.8C1363.4 455.6 1361.2 457.8 1358.4 457.8Z" fill="#2197B0"/>
<path fill-rule="evenodd" clip-rule="evenodd" d="M1386.2 430.2H1383.1C1380.3 430.2 1378.1 428 1378.1 425.2V417.3C1378.1 414.5 1380.3 412.3 1383.1 412.3H1386.2C1389 412.3 1391.2 414.5 1391.2 417.3V425.2C1391.2 427.9 1389 430.2 1386.2 430.2Z" fill="#2F2E41"/>
<path fill-rule="evenodd" clip-rule="evenodd" d="M1409 402.4H1405.9C1403.1 402.4 1400.9 400.2 1400.9 397.4V389.5C1400.9 386.7 1403.1 384.5 1405.9 384.5H1409C1411.8 384.5 1414 386.7 1414 389.5V397.4C1414 400.2 1411.8 402.4 1409 402.4Z" fill="#2F2E41"/>
<path fill-rule="evenodd" clip-rule="evenodd" d="M1248.3 430.1H1101.2C1098.4 430.1 1096.2 427.9 1096.2 425.1V417.2C1096.2 414.4 1098.4 412.2 1101.2 412.2H1248.3C1251.1 412.2 1253.3 414.4 1253.3 417.2V425.1C1253.3 427.9 1251.1 430.1 1248.3 430.1Z" fill="#2F2E41"/>
<path fill-rule="evenodd" clip-rule="evenodd" d="M1294.7 402.4H1196.1C1193.3 402.4 1191.1 400.2 1191.1 397.4V389.5C1191.1 386.7 1193.3 384.5 1196.1 384.5H1294.7C1297.5 384.5 1299.7 386.7 1299.7 389.5V397.4C1299.7 400.2 1297.4 402.4 1294.7 402.4Z" fill="#2197B0"/>
<path fill-rule="evenodd" clip-rule="evenodd" d="M1391.4 402.4H1311.6C1308.8 402.4 1306.6 400.2 1306.6 397.4V389.5C1306.6 386.7 1308.8 384.5 1311.6 384.5H1391.4C1394.2 384.5 1396.4 386.7 1396.4 389.5V397.4C1396.4 400.2 1394.2 402.4 1391.4 402.4Z" fill="#2197B0"/>
<path fill-rule="evenodd" clip-rule="evenodd" d="M1199.1 375.6H1196C1193.2 375.6 1191 373.4 1191 370.6V362.7C1191 359.9 1193.2 357.7 1196 357.7H1199.1C1201.9 357.7 1204.1 359.9 1204.1 362.7V370.6C1204.1 373.3 1201.9 375.6 1199.1 375.6Z" fill="#2197B0"/>
<path fill-rule="evenodd" clip-rule="evenodd" d="M1181 375.6H1101.2C1098.4 375.6 1096.2 373.4 1096.2 370.6V362.7C1096.2 359.9 1098.4 357.7 1101.2 357.7H1181C1183.8 357.7 1186 359.9 1186 362.7V370.6C1186 373.3 1183.8 375.6 1181 375.6Z" fill="#2F2E41"/>
<path fill-rule="evenodd" clip-rule="evenodd" d="M1294.7 375.6H1214.9C1212.1 375.6 1209.9 373.4 1209.9 370.6V362.7C1209.9 359.9 1212.1 357.7 1214.9 357.7H1294.7C1297.5 357.7 1299.7 359.9 1299.7 362.7V370.6C1299.7 373.3 1297.4 375.6 1294.7 375.6Z" fill="#2F2E41"/>
<path fill-rule="evenodd" clip-rule="evenodd" d="M1366.1 430.2H1265.3C1262.5 430.2 1260.3 428 1260.3 425.2V417.2C1260.3 414.4 1262.5 412.2 1265.3 412.2H1366.1C1368.9 412.2 1371.1 414.4 1371.1 417.2V425.2C1371.1 427.9 1368.9 430.2 1366.1 430.2Z" fill="#2197B0"/>
<path fill-rule="evenodd" clip-rule="evenodd" d="M1490.3 729.9C1506.4 728.7 1520.3 740.7 1521.4 756.8C1522.6 772.9 1510.6 786.8 1494.5 787.9C1492 788 1489.9 788 1487.9 787.7C1486.3 787.5 1485.1 785.9 1485.4 784.3C1485.6 782.7 1487.2 781.5 1488.8 781.8C1490.4 782 1492.1 782.1 1494.1 782C1506.8 781.1 1516.4 770.1 1515.4 757.3C1514.5 744.6 1503.5 735 1490.7 736C1488.6 736.2 1486.5 736.6 1484.6 737.3C1483 737.8 1481.3 737 1480.8 735.4C1480.3 733.8 1481.1 732.1 1482.7 731.6C1485.2 730.6 1487.7 730.1 1490.3 729.9Z" fill="#2F2E41"/>
<path fill-rule="evenodd" clip-rule="evenodd" d="M1381.7 689.9C1382.9 688.9 1384.7 689 1385.8 690.2L1385.9 690.3L1423.2 735.8C1424.3 737.1 1424.1 739 1422.8 740C1421.6 741 1419.8 740.9 1418.7 739.7L1418.6 739.6L1381.3 694.1C1380.2 692.8 1380.4 690.9 1381.7 689.9Z" fill="#2F2E41"/>
<path fill-rule="evenodd" clip-rule="evenodd" d="M1378.1 723.6V809.4C1378.1 826 1391.5 839.4 1408.1 839.4H1458.7C1475.3 839.4 1488.7 826 1488.7 809.4V723.6H1378.1ZM1422.9 786.4C1423.6 786.9 1423.9 787.4 1423.9 788.2C1423.9 788.8 1423.7 789.2 1423.3 789.6C1422.9 790 1422.4 790.2 1421.9 790.2C1421.5 790.2 1421.2 790.1 1420.9 789.9L1400.9 777.9C1400.2 777.4 1399.8 776.8 1399.8 776.1C1399.8 775.4 1400.2 774.8 1400.9 774.3L1420.9 762.3C1421.2 762.1 1421.5 762 1421.9 762C1422.5 762 1422.9 762.2 1423.3 762.6C1423.7 763 1423.9 763.5 1423.9 764C1423.9 764.7 1423.6 765.3 1422.9 765.8L1405.7 776.1L1422.9 786.4ZM1447.9 756.8L1431.8 797C1431.7 797.2 1431.6 797.4 1431.4 797.6C1431 798 1430.5 798.2 1430 798.2C1429.4 798.2 1429 798 1428.6 797.6C1428.2 797.2 1428 796.7 1428 796.2C1428 795.9 1428.1 795.6 1428.2 795.3L1444.3 755.1C1444.4 754.9 1444.5 754.7 1444.7 754.5C1445.1 754.1 1445.6 753.9 1446.1 753.9C1446.7 753.9 1447.1 754.1 1447.5 754.5C1447.9 754.9 1448.1 755.4 1448.1 755.9C1448.1 756.3 1448 756.6 1447.9 756.8ZM1475.1 777.9L1455.1 789.9C1454.8 790.1 1454.5 790.2 1454.1 790.2C1453.5 790.2 1453.1 790 1452.7 789.6C1452.3 789.2 1452.1 788.7 1452.1 788.2C1452.1 787.5 1452.4 786.9 1453.1 786.4L1470.3 776.1L1453.1 765.8C1452.4 765.3 1452.1 764.8 1452.1 764C1452.1 763.4 1452.3 763 1452.7 762.6C1453.1 762.2 1453.6 762 1454.1 762C1454.5 762 1454.8 762.1 1455.1 762.3L1475.1 774.3C1475.8 774.8 1476.2 775.4 1476.2 776.1C1476.2 776.8 1475.9 777.5 1475.1 777.9Z" fill="#2F2E41"/>
<path fill-rule="evenodd" clip-rule="evenodd" d="M241.2 723.6V809.4C241.2 826 254.6 839.4 271.2 839.4H321.8C338.4 839.4 351.8 826 351.8 809.4V723.6H241.2ZM285.9 786.4C286.6 786.9 286.9 787.4 286.9 788.2C286.9 788.8 286.7 789.2 286.3 789.6C285.9 790 285.4 790.2 284.9 790.2C284.5 790.2 284.2 790.1 283.9 789.9L263.9 777.9C263.2 777.4 262.8 776.8 262.8 776.1C262.8 775.4 263.2 774.8 263.9 774.3L283.9 762.3C284.2 762.1 284.5 762 284.9 762C285.5 762 285.9 762.2 286.3 762.6C286.7 763 286.9 763.5 286.9 764C286.9 764.7 286.6 765.3 285.9 765.8L268.7 776.1L285.9 786.4ZM328.1 777.9L308.1 789.9C307.8 790.1 307.5 790.2 307.1 790.2C306.5 790.2 306.1 790 305.7 789.6C305.3 789.2 305.1 788.7 305.1 788.2C305.1 787.5 305.4 786.9 306.1 786.4L323.3 776.1L306.1 765.8C305.4 765.3 305.1 764.8 305.1 764C305.1 763.4 305.3 763 305.7 762.6C306.1 762.2 306.6 762 307.1 762C307.5 762 307.8 762.1 308.1 762.3L328.1 774.3C328.8 774.8 329.2 775.4 329.2 776.1C329.2 776.8 328.8 777.5 328.1 777.9Z" fill="#2F2E41"/>
<path fill-rule="evenodd" clip-rule="evenodd" d="M411.6 661.5C413 660.7 414.7 661.2 415.6 662.5L415.7 662.7L429.4 687.5C430.2 689 429.7 690.8 428.2 691.6C426.8 692.4 425.1 691.9 424.2 690.6L424.1 690.4L410.4 665.6C409.6 664.2 410.1 662.3 411.6 661.5Z" fill="#2F2E41"/>
<path fill-rule="evenodd" clip-rule="evenodd" d="M472.1 688.7C473.8 688.7 475.1 690 475.1 691.7C475.1 693.3 473.9 694.6 472.3 694.7H472.1H396.3C394.6 694.7 393.3 693.4 393.3 691.7C393.3 690.1 394.5 688.8 396.1 688.7H396.3H472.1Z" fill="#2F2E41"/>
<path fill-rule="evenodd" clip-rule="evenodd" d="M461.6 772.5C460.5 771.4 459.1 770.8 457.4 770.8C455.8 770.8 454.4 771.4 453.2 772.5C452.1 773.6 451.5 775 451.5 776.7C451.5 778.3 452.1 779.7 453.2 780.9C454.3 782 455.7 782.6 457.4 782.6C459 782.6 460.4 782 461.6 780.9C462.7 779.8 463.3 778.4 463.3 776.7C463.3 775 462.8 773.6 461.6 772.5Z" fill="#2F2E41"/>
<path fill-rule="evenodd" clip-rule="evenodd" d="M457.5 763.7C459.1 763.7 460.5 763.1 461.7 762C462.8 760.9 463.4 759.5 463.4 757.8C463.4 756.2 462.8 754.8 461.7 753.6C460.6 752.5 459.2 751.9 457.5 751.9C455.9 751.9 454.5 752.5 453.3 753.6C452.2 754.7 451.6 756.1 451.6 757.8C451.6 759.4 452.2 760.8 453.3 762C454.5 763.1 455.8 763.7 457.5 763.7Z" fill="#2F2E41"/>
<path fill-rule="evenodd" clip-rule="evenodd" d="M461.6 799.6C462.7 798.5 463.3 797.1 463.3 795.4C463.3 793.8 462.7 792.4 461.6 791.2C460.5 790.1 459.1 789.5 457.4 789.5C455.8 789.5 454.4 790.1 453.2 791.2C452.1 792.3 451.5 793.7 451.5 795.4C451.5 797 452.1 798.4 453.2 799.6C454.3 800.7 455.7 801.3 457.4 801.3C459.1 801.3 460.5 800.7 461.6 799.6Z" fill="#2F2E41"/>
<path fill-rule="evenodd" clip-rule="evenodd" d="M479.6 709.8L466.3 692.5H402.2L388.9 709.8C387.6 711.5 386.9 713.4 386.9 715.4V820.7C386.9 824 388.7 827 391.8 829C395.9 831.6 401.2 835.5 401.5 839.3H466.8C467.2 835.5 472.4 831.5 476.5 829C479.6 827.1 481.4 824 481.4 820.7V715.4C481.5 713.4 480.9 711.4 479.6 709.8ZM451.8 730L458.8 718.3C459.1 717.9 459.4 717.7 459.9 717.7C460.3 717.7 460.7 717.9 461 718.3L468 730C468.1 730.2 468.1 730.4 468.1 730.6C468.1 730.9 468 731.2 467.8 731.4C467.6 731.6 467.3 731.7 467 731.7C466.6 731.7 466.2 731.5 466 731.1L460 721.1L454 731.1C453.7 731.5 453.4 731.7 453 731.7C452.7 731.7 452.4 731.6 452.2 731.4C452 731.2 451.9 730.9 451.9 730.6C451.6 730.3 451.7 730.1 451.8 730ZM452.2 734.4C452.4 734.3 452.6 734.2 452.9 734.2C453.2 734.2 453.5 734.3 453.7 734.5C453.9 734.7 454 735 454 735.3C454 735.6 453.9 735.9 453.7 736.1C453.5 736.3 453.3 736.4 453.3 736.5C452.2 737.6 451.6 739 451.6 740.7C451.6 742.3 452.1 743.6 453.1 744.6C453.4 744.8 453.7 745 454.1 745C454.6 745 454.9 744.7 455 744.3L457.4 737.1C457.7 736.2 458.1 735.6 458.4 735.2C459.1 734.5 459.9 734.2 460.9 734.2C461.9 734.2 462.7 734.6 463.4 735.3C464.8 736.7 465.6 738.5 465.6 740.8C465.6 743.3 464.6 745.4 462.7 747.1C462.5 747.3 462.3 747.3 462 747.3C461.7 747.3 461.4 747.2 461.2 747C461 746.8 460.9 746.5 460.9 746.2C460.9 745.9 461 745.6 461.2 745.4C461.4 745.2 461.6 745.1 461.6 745C462.7 743.9 463.3 742.5 463.3 740.8C463.3 739.2 462.8 737.9 461.8 736.9C461.5 736.7 461.2 736.5 460.8 736.5C460.3 736.5 460 736.8 459.9 737.2L457.5 744.4C457.2 745.3 456.8 745.9 456.5 746.3C455.8 747 455 747.3 454 747.3C453 747.3 452.2 746.9 451.5 746.2C450.1 744.8 449.3 743 449.3 740.7C449.3 738.2 450.2 736.1 452.2 734.4ZM451.7 752C453.3 750.4 455.2 749.6 457.5 749.6C459.8 749.6 461.7 750.4 463.3 752C464.9 753.6 465.7 755.5 465.7 757.8C465.7 760.1 464.9 762 463.3 763.6C461.7 765.2 459.8 766 457.5 766C455.2 766 453.3 765.2 451.7 763.6C450.1 762 449.3 760.1 449.3 757.8C449.3 755.5 450.1 753.6 451.7 752ZM449.6 803.3C449.4 803.1 449.3 802.8 449.3 802.5C449.3 802.2 449.4 801.9 449.6 801.7C449.8 801.5 450.1 801.4 450.4 801.4H451.7C450.1 799.8 449.2 797.8 449.2 795.5C449.2 793.2 450 791.3 451.6 789.7C453.2 788.1 455.1 787.3 457.4 787.3C459.7 787.3 461.6 788.1 463.2 789.7C464.8 791.3 465.6 793.2 465.6 795.5C465.6 797.8 464.8 799.7 463.2 801.3C461.6 802.9 459.7 803.7 457.4 803.7H450.4C450.1 803.6 449.8 803.5 449.6 803.3ZM467.9 807.7L460.9 819.4C460.6 819.8 460.3 820 459.8 820C459.4 820 459 819.8 458.7 819.4L451.7 807.7C451.6 807.5 451.6 807.3 451.6 807.1C451.6 806.8 451.7 806.5 451.9 806.3C452.1 806.1 452.4 806 452.7 806C453.1 806 453.5 806.2 453.7 806.6L459.7 816.6L465.7 806.6C466 806.2 466.3 806 466.7 806C467 806 467.3 806.1 467.5 806.3C467.7 806.5 467.8 806.8 467.8 807.1C468 807.4 468 807.5 467.9 807.7ZM472.4 784.5C472.2 784.7 471.9 784.8 471.6 784.8H457.5C455.2 784.8 453.3 784 451.7 782.4C450.1 780.8 449.3 778.9 449.3 776.6C449.3 774.3 450.1 772.4 451.7 770.8C453.3 769.2 455.2 768.4 457.5 768.4C459.8 768.4 461.7 769.2 463.3 770.8C464.9 772.4 465.7 774.3 465.7 776.6C465.7 778.9 464.9 780.8 463.3 782.4C463.3 782.4 463.3 782.4 463.2 782.5H471.6C471.9 782.5 472.2 782.6 472.4 782.8C472.6 783 472.7 783.3 472.7 783.6C472.7 783.9 472.6 784.3 472.4 784.5Z" fill="#2F2E41"/>
<path fill-rule="evenodd" clip-rule="evenodd" d="M719.7 350.1C724.1 344.2 731.9 345.7 739.8 354C747.5 362 752.5 372.6 755.3 384.2C755.7 385.8 754.7 387.4 753.1 387.8C751.5 388.2 749.9 387.2 749.5 385.6C747 375 742.4 365.3 735.6 358.2C729.9 352.3 726.2 351.5 724.6 353.7C722.7 356.3 722.9 362.4 725.8 368.2L726 368.6C730.2 376.7 731.3 392.6 730.7 412.3C730.6 414 729.3 415.3 727.6 415.2C725.9 415.1 724.6 413.8 724.7 412.1L724.8 410C725.2 392.6 724.1 378.3 720.8 371.6L720.7 371.3C716.5 363.5 716.1 355 719.7 350.1Z" fill="#2F2E41"/>
<path fill-rule="evenodd" clip-rule="evenodd" d="M853.5 336.2C837.4 336.2 824.4 349.2 824.4 365.3C824.4 381.4 837.4 394.4 853.5 394.4C869.6 394.4 882.6 381.4 882.6 365.3C882.6 349.2 869.6 336.2 853.5 336.2ZM853.5 342.2C866.3 342.2 876.6 352.5 876.6 365.3C876.6 378.1 866.3 388.4 853.5 388.4C840.7 388.4 830.4 378.1 830.4 365.3C830.4 352.5 840.7 342.2 853.5 342.2Z" fill="#2F2E41"/>
<path fill-rule="evenodd" clip-rule="evenodd" d="M697.7 460.7C699 459.8 700.7 460 701.7 461.2L702.2 461.9C702.6 462.4 703 462.9 703.5 463.5C704.9 465.2 706.6 467.2 708.4 469.2C713.7 475.1 719.6 481.1 726 486.6C741.2 499.9 756.3 508.7 770.4 511C771.6 511.2 772.5 512 772.8 513.2L772.9 513.5C773 513.9 773.1 514.6 773.2 515.4C773.8 519.8 773.7 525.9 772.5 533.8L772.4 534.5C771.8 538.4 772.7 541.2 775.9 546L777.5 548.4C779.8 551.9 780.9 554 781.8 556.9C783 561 783 565.3 781.5 570.2V570.3C781.1 572.3 778.2 601.3 776.7 613.7L776.6 614.8C772.8 647.3 768.3 677.7 762.4 706.4C754.7 744.3 745.3 775.9 734 799.4C720.4 827.8 704.1 844 684.8 845.4C683.1 845.5 681.7 844.3 681.6 842.6C681.5 840.9 682.7 839.5 684.4 839.4C700.9 838.2 715.5 823.7 728.2 797.6L728.6 796.8C739.7 773.8 748.9 742.6 756.5 705.2C762.2 677.4 766.6 648.1 770.3 616.7L770.9 611.9C772.3 599.6 775.3 570.5 775.8 568.5V568.4C777.8 561.8 776.8 558 772.3 551.2L771.2 549.6C767.1 543.4 765.6 539.3 766.5 533.5C767.7 526.3 767.8 520.8 767.4 516.8V516.5L766.8 516.4C752.5 513.4 737.6 504.5 722.8 491.7L722.1 491.1C715.6 485.4 709.5 479.3 704 473.2C702.4 471.4 701 469.8 699.7 468.3L698.9 467.4L697.5 468.5C694.9 470.6 691.5 473.4 687.4 476.9C684.8 479.2 681.9 480.4 678.6 480.7L678.1 480.8C676.1 481 674.3 480.9 670.9 480.5H670.5C662.3 479.5 659 480.2 654.5 485.1L654.3 485.4C651.5 488.6 637 511.8 614.9 548.3L607.9 559.9L605 564.6C598.3 575.7 591.3 587.3 584.3 599L567.1 627.7L562.7 635.1C561.9 636.5 560 637 558.6 636.1C557.2 635.3 556.7 633.5 557.5 632.1L562.5 623.6L571.6 608.4C580.7 593.3 589.7 578.2 598.4 563.8L609.1 546.1C632.1 508.3 646.5 485.1 649.7 481.4C653.1 477.5 656.8 475.3 660.9 474.5C663.6 473.9 665.8 473.9 669.7 474.4L671.9 474.6C678 475.3 680.5 474.9 683.4 472.4L685.9 470.3C688.9 467.7 691.5 465.6 693.6 463.9L695.2 462.6C695.6 462.3 695.9 462 696.2 461.8L697.2 461C697.6 460.8 697.7 460.8 697.7 460.7Z" fill="#2F2E41"/>
<path fill-rule="evenodd" clip-rule="evenodd" d="M772.6 533.6C775.1 518.7 776.1 512.3 776.1 512.3C737.9 506.4 698.6 458.4 698.6 458.4C698.6 458.4 694.7 461.3 683.7 470.8C679.3 474.6 674.7 474.6 669.9 474.1C666.5 515.8 741.4 552.9 776.8 554.7C774.6 544.7 770.7 544.9 772.6 533.6Z" fill="#2F2E41"/>
<path fill-rule="evenodd" clip-rule="evenodd" d="M555.2 584.6C566.4 583.2 576.3 585.8 584.1 593.1C585.3 594.2 585.4 596.1 584.2 597.3C583.1 598.5 581.2 598.6 580 597.4C573.5 591.4 565.5 589.2 555.9 590.4C547.2 591.5 537.8 595.3 528.3 600.9C524.2 603.3 520.4 605.9 517 608.5L516.1 609.2C515.5 609.6 515 610 514.5 610.4L513.8 611C513.5 611.2 513.3 611.4 513.1 611.6L512.7 611.9C511.4 613 509.6 612.8 508.5 611.6C507.4 610.3 507.6 608.5 508.8 607.4L509.2 607.1C509.4 607 509.6 606.8 509.8 606.6L510.8 605.8C511.6 605.2 512.5 604.5 513.4 603.8C517 601.1 521 598.4 525.3 595.9C535.5 589.9 545.6 585.9 555.2 584.6Z" fill="#2F2E41"/>
<path fill-rule="evenodd" clip-rule="evenodd" d="M638.6 729.9C654.7 728.7 668.6 740.7 669.7 756.8C670.9 772.9 658.9 786.8 642.8 787.9C639 788.1 635.3 787.7 632.1 786.7C630.5 786.2 629.7 784.5 630.2 782.9C630.7 781.3 632.4 780.5 634 781C636.5 781.8 639.4 782.1 642.4 782C655.1 781.1 664.7 770.1 663.7 757.3C662.8 744.6 651.8 735 639 736C637.7 736.1 636.5 736.3 635.2 736.5C633.6 736.8 632 735.8 631.6 734.2C631.3 732.6 632.3 731 633.9 730.6C635.5 730.2 637.1 730 638.6 729.9Z" fill="#2F2E41"/>
<path fill-rule="evenodd" clip-rule="evenodd" d="M526.5 723.6V809.4C526.5 826 539.9 839.4 556.5 839.4H607.1C623.7 839.4 637.1 826 637.1 809.4V723.6H526.5ZM571.2 786.4C571.9 786.9 572.2 787.4 572.2 788.2C572.2 788.8 572 789.2 571.6 789.6C571.2 790 570.7 790.2 570.2 790.2C569.8 790.2 569.5 790.1 569.2 789.9L549.2 777.9C548.5 777.4 548.1 776.8 548.1 776.1C548.1 775.4 548.5 774.8 549.2 774.3L569.2 762.3C569.5 762.1 569.8 762 570.2 762C570.8 762 571.2 762.2 571.6 762.6C572 763 572.2 763.5 572.2 764C572.2 764.7 571.9 765.3 571.2 765.8L554 776.1L571.2 786.4ZM596.2 756.8L580.1 797C580 797.2 579.9 797.4 579.7 797.6C579.3 798 578.8 798.2 578.3 798.2C577.7 798.2 577.3 798 576.9 797.6C576.5 797.2 576.3 796.7 576.3 796.2C576.3 795.9 576.4 795.6 576.5 795.3L592.6 755.1C592.7 754.9 592.8 754.7 593 754.5C593.4 754.1 593.9 753.9 594.4 753.9C595 753.9 595.4 754.1 595.8 754.5C596.2 754.9 596.4 755.4 596.4 755.9C596.4 756.3 596.3 756.6 596.2 756.8ZM623.4 777.9L603.4 789.9C603.1 790.1 602.8 790.2 602.4 790.2C601.8 790.2 601.4 790 601 789.6C600.6 789.2 600.4 788.7 600.4 788.2C600.4 787.5 600.7 786.9 601.4 786.4L618.6 776.1L601.4 765.8C600.7 765.3 600.4 764.8 600.4 764C600.4 763.4 600.6 763 601 762.6C601.4 762.2 601.9 762 602.4 762C602.8 762 603.1 762.1 603.4 762.3L623.4 774.3C624.1 774.8 624.5 775.4 624.5 776.1C624.6 776.8 624.2 777.5 623.4 777.9Z" fill="#2F2E41"/>
<path fill-rule="evenodd" clip-rule="evenodd" d="M1638.8 838.9C1640.5 838.9 1641.8 840.2 1641.8 841.9C1641.8 843.5 1640.6 844.8 1639 844.9H1638.8H2.40002C0.700024 844.9 -0.599976 843.6 -0.599976 841.9C-0.599976 840.3 0.600025 839 2.20002 838.9H2.40002H1638.8Z" fill="#2F2E41"/>
<path fill-rule="evenodd" clip-rule="evenodd" d="M853.1 415.9L847.6 330.3L737.2 337.4L741 395.3C750.8 386.9 799 354.7 806 354.1C813 353.5 821.4 363.7 809.4 371.6C797.4 379.5 772 392.5 772 392.5C793.1 385.1 819.8 377.1 824.8 378.4C832.4 380.4 831.9 394.4 817.4 399L776.7 413.5C776.7 413.5 824.1 401.6 830.5 402.1C836.9 402.6 842.5 419.2 812.7 424.8C782.9 430.5 781.7 433.1 781.7 433.1C781.7 433.1 818.4 427.9 826 428.6C833.6 429.3 833.8 449.1 797.3 449L797.1 449.5L825.2 447.7C841.6 446.7 854.2 432.4 853.1 415.9Z" fill="#2F2E41"/>
<path fill-rule="evenodd" clip-rule="evenodd" d="M805.6 351.2H805.3C801.3 351.8 790.2 358.1 774.6 368.1L771.4 370.2C757.2 379.4 743.3 389.3 738.6 393.3L738.3 393.5C734.2 397.4 724.8 412.8 711.1 437.3L710.2 438.8C709.4 440.2 708.6 441.7 707.8 443.2L705.4 447.6C700.9 455.7 696.3 464.2 691.7 472.8L687.7 480.3C686.2 483 684.9 485.6 683.6 488L680.9 493.1C680.2 494.5 680.7 496.3 682.1 497.1L757.7 541L757.9 541.1C759.4 541.9 761.3 541.2 762 539.6L799 452H799.5C815.1 451.6 825.6 447.5 830.3 440.8C834.8 434.4 832.7 426.1 825.9 425.6H825.7C824.8 425.5 823.7 425.5 822.2 425.6H821.3H821.4C830.5 422.6 836 418 837.7 412.4C839.7 406.1 835.9 399.5 830.3 399.1H830.2C828.9 399 826.4 399.3 823 399.9L822.5 400L822.7 399.9C827.7 397.2 831 393.1 832 388.4C833.3 382.5 830.7 376.9 825.3 375.5H825.1C822 374.8 813.8 376.4 802.5 379.6L801.3 379.9L801.8 379.6C805.3 377.5 808.3 375.7 810.7 374.1C817.3 369.8 819.5 363.9 817.2 358.5C815.5 353.9 810.5 350.8 805.6 351.2ZM812 360.9C813.1 363.5 812 366.3 807.7 369.2L806.9 369.7C804 371.5 800.4 373.7 796 376.2L793.8 377.4C793.3 377.7 792.7 378 792.2 378.3C788 380.6 783.5 383.1 779 385.5L776 387.1L771.3 389.6L770.6 390C767.3 391.7 769.4 396.7 772.9 395.5L775.1 394.7C799 386.5 820.6 380.6 823.9 381.4C825.9 381.9 827 384.2 826.3 387.2C825.5 390.9 822.1 394.3 816.7 396.2L816.2 396.4L775.5 410.9C772 412.2 773.5 417.4 777.1 416.7L777.4 416.6L783.1 415.2L784.5 414.9C790 413.6 795.6 412.2 801 411L803.4 410.5L806.8 409.7C819.4 406.9 828.2 405.2 830.2 405.4C831.7 405.5 833.1 408.1 832.2 410.9C830.8 415.5 824.5 419.7 812.6 422L808.6 422.8C787.5 426.9 780 429.6 778.9 432.2C778 434.3 779.6 436.6 781.9 436.4L787.3 435.7C791.3 435.2 795.5 434.6 799.6 434.1L801.7 433.8L806.4 433.3C816.1 432.2 823.1 431.7 825.6 431.9C827 432 827.7 434.6 825.6 437.6C821.9 442.8 812.4 446.3 797.2 446.3H797C795.9 446.4 794.9 447.1 794.4 448.1L758 534.2L687.8 493.5L692.7 484.2C693.3 483 694 481.8 694.7 480.5L697.2 475.8C702.6 465.7 708 455.7 713.2 446.3L715.6 441.9L718 437.5C730.5 415.2 739.5 400.5 742.6 397.9C753.5 388.4 800.8 357.7 806.1 357.2C808.4 357 811 358.6 812 360.9Z" fill="#2F2E41"/>
</svg>
