<svg width="1642" height="846" fill="none" xmlns="http://www.w3.org/2000/svg"><path fill-rule="evenodd" clip-rule="evenodd" d="M544 394l3 3c0 2-1 3-3 3H415c-75 0-128 60-120 133l1 3 24 194-2 4c-2 0-3-1-4-3l-24-195c-10-77 45-140 123-142h131z" fill="#2F2E41"/><path fill-rule="evenodd" clip-rule="evenodd" d="M632 331c2 0 3 1 3 2l4 7v1l4 30v2l-16 23h-4c-2-1-2-2-1-4l15-21-4-29-2-4c-39 6-64 17-75 32v1c-10 14-9 31 1 51 1 2 0 4-2 4-66 13-119 68-151 148-29 71-36 153-17 205l3 8c6 18 10 27 16 35 7 10 17 15 29 15 2 0 3 2 3 3 0 2-1 3-3 3-14 0-25-6-34-17v-1c-6-8-10-17-16-34l-3-10h-1c-19-54-12-137 17-209 32-80 86-136 152-151-9-20-9-38 1-53v-1c12-17 39-29 81-36z" fill="#2F2E41"/><path fill-rule="evenodd" clip-rule="evenodd" d="M670 475v-1c5 1 9 1 14-3l15-13 2 4 7-13c-47-37-84-55-84-55l-2-2-18 21s29 20 66 62zm230 345s-76-204-67-268c6-34-3-73-14-104l-22 2-26 61 5 1-3 22c-2 9 1 11 3 17 3 5 5 10 3 18l-7 61 22 54c47 123 42 137 42 137l64-1z" fill="#2197B0"/><path fill-rule="evenodd" clip-rule="evenodd" d="M804 338l4-2c30 11 51 27 65 49 10 15 15 31 19 52v1l2 1c97 74 166 158 212 246l1 2a582 582 0 0153 151c0 1-1 3-3 3l-3-2v-2a566 566 0 00-52-147 742 742 0 00-215-250c-4-21-9-37-19-52-13-20-33-36-62-46-2 0-3-2-2-4zm48 200c2 0 3 1 3 3v4a452 452 0 0012 108 4 4 0 01-8 2l-7-33c-4-26-5-54-5-76v-5l4-4 1 1z" fill="#2F2E41"/><path fill-rule="evenodd" clip-rule="evenodd" d="M886 439l2 11c6 40-7 67-16 85 24-17 39-48 47-72l-33-24zm-329-18c-17 4-43 12-63 25 14 8 81 48 135 72l5-8c-30-23-62-58-77-89zm43-162l4 2-2 4h-1l-3 1-8 5c-11 7-15 17-9 32 5 9 11 13 18 13 6 0 13-3 20-7 2-1 4 0 4 1 1 1 1 3-1 4-8 5-15 8-23 8-10 0-18-6-23-17-8-17-3-30 10-39l10-5 4-2z" fill="#2F2E41"/><path d="M658 373c-25-35-35-59-55-102l51-115 128 5s11 32 19 70c9 38 13 88 9 103-4 16-16 16-36 31-16 12-46 44-46 44-25-4-47-12-70-36z" stroke="#2F2E41" stroke-width="5"/><path fill-rule="evenodd" clip-rule="evenodd" d="M604 280s-19-22-33-48c-13-25-8-56 14-74 18-15 35-11 35-11s-31-32-7-73c9-14 23-25 40-28 40-9 61 22 61 22s23-90 122-65c10 3 23 13 30 21 42 46-37 133-86 150-53 19-87 18-108 9 15 5 16 90-68 97zm152-31c2-1 4 0 5 2l19 50c1 3-1 6-4 6h-20c-2 0-4-2-4-4 0-3 2-4 4-4h14l-17-45c-1-2 0-4 2-5h1zm-9 97c5 0 9-4 9-10 0-5-4-9-9-9-6 0-10 4-10 9 0 6 4 10 10 10zm32-89c3-1 4-5 3-10-1-4-4-7-7-6-3 0-4 5-3 9 1 5 4 8 7 7zm-51 12c3-1 5-5 3-10-1-4-4-7-7-7-3 1-4 5-3 10 1 4 4 7 7 7z" fill="#2F2E41"/><path fill-rule="evenodd" clip-rule="evenodd" d="M713 210c2 0 4 2 5 4 0 2-2 4-4 4-5 1-10 3-13 6l-3 5h-1v1c-1 2-3 3-5 3-2-1-3-3-3-6l2-2 4-6c5-5 11-8 18-9zm50-14c4-1 8-2 11-1 5 1 9 3 12 8 1 2 0 4-2 5s-4 1-5-1c-2-2-4-4-6-4l-7 1-2 1c-2 1-5 0-6-2s0-4 2-5l3-2zm590 366H965c-5 0-10 3-11 8l-54 229H759s-8 40 38 40h496c5 0 10-3 11-8l60-256c2-7-3-13-11-13z" fill="#2F2E41"/><path fill-rule="evenodd" clip-rule="evenodd" d="M1199 223h-3c-3 0-5-2-5-5v-8c0-3 2-5 5-5h3c3 0 5 2 5 5v8c0 3-2 5-5 5z" fill="#2197B0"/><path fill-rule="evenodd" clip-rule="evenodd" d="M1181 223h-80c-3 0-5-2-5-5v-8c0-3 2-5 5-5h80c3 0 5 2 5 5v8c0 3-2 5-5 5zm8 83h-88c-2 0-5-2-5-5v-8c0-3 3-5 5-5h88c3 0 5 2 5 5v8c0 3-2 5-5 5z" fill="#2F2E41"/><path fill-rule="evenodd" clip-rule="evenodd" d="M1268 278h-142c-3 0-5-2-5-5v-7c0-3 2-5 5-5h142c3 0 5 2 5 5v7c0 3-2 5-5 5zm90 0h-72c-2 0-5-2-5-5v-7c0-3 3-5 5-5h72c3 0 5 2 5 5v7c0 3-2 5-5 5z" fill="#2197B0"/><path fill-rule="evenodd" clip-rule="evenodd" d="M1386 251h-3c-3 0-5-2-5-5v-8c0-3 2-5 5-5h3c3 0 5 2 5 5v8c0 3-2 5-5 5zm-138 0h-147c-3 0-5-2-5-5v-8c0-3 2-5 5-5h147c3 0 5 2 5 5v8c0 3-2 5-5 5zm47-28h-80c-3 0-5-2-5-5v-8c0-3 2-5 5-5h80c3 0 5 2 5 5v8c0 3-3 5-5 5z" fill="#2F2E41"/><path fill-rule="evenodd" clip-rule="evenodd" d="M1366 251h-101c-2 0-5-2-5-5v-8c0-3 3-5 5-5h101c3 0 5 2 5 5v8c0 3-2 5-5 5z" fill="#2197B0"/><path fill-rule="evenodd" clip-rule="evenodd" d="M1181 402h-80c-3 0-5-2-5-5v-7c0-3 2-5 5-5h80c3 0 5 2 5 5v7c0 3-2 5-5 5zm8 84h-88c-2 0-5-3-5-5v-8c0-3 3-5 5-5h88c3 0 5 2 5 5v8c0 2-2 5-5 5z" fill="#2F2E41"/><path fill-rule="evenodd" clip-rule="evenodd" d="M1268 458h-142c-3 0-5-2-5-5v-8c0-3 2-5 5-5h142c3 0 5 2 5 5v8c0 3-2 5-5 5zm90 0h-72c-2 0-5-2-5-5v-8c0-3 3-5 5-5h72c3 0 5 2 5 5v8c0 3-2 5-5 5z" fill="#2197B0"/><path fill-rule="evenodd" clip-rule="evenodd" d="M1386 430h-3c-3 0-5-2-5-5v-8c0-2 2-5 5-5h3c3 0 5 3 5 5v8c0 3-2 5-5 5zm23-28h-3c-3 0-5-2-5-5v-7c0-3 2-5 5-5h3c3 0 5 2 5 5v7c0 3-2 5-5 5zm-161 28h-147c-3 0-5-2-5-5v-8c0-3 2-5 5-5h147c3 0 5 2 5 5v8c0 3-2 5-5 5z" fill="#2F2E41"/><path fill-rule="evenodd" clip-rule="evenodd" d="M1295 402h-99c-3 0-5-2-5-5v-7c0-3 2-5 5-5h99c3 0 5 2 5 5v7c0 3-3 5-5 5zm96 0h-79c-3 0-5-2-5-5v-7c0-3 2-5 5-5h79c3 0 5 2 5 5v7c0 3-2 5-5 5zm-192-26h-3c-3 0-5-3-5-5v-8c0-3 2-5 5-5h3c3 0 5 2 5 5v8c0 2-2 5-5 5z" fill="#2197B0"/><path fill-rule="evenodd" clip-rule="evenodd" d="M1181 376h-80c-3 0-5-3-5-5v-8c0-3 2-5 5-5h80c3 0 5 2 5 5v8c0 2-2 5-5 5zm114 0h-80c-3 0-5-3-5-5v-8c0-3 2-5 5-5h80c3 0 5 2 5 5v8c0 2-3 5-5 5z" fill="#2F2E41"/><path fill-rule="evenodd" clip-rule="evenodd" d="M1366 430h-101c-2 0-5-2-5-5v-8c0-3 3-5 5-5h101c3 0 5 2 5 5v8c0 3-2 5-5 5z" fill="#2197B0"/><path fill-rule="evenodd" clip-rule="evenodd" d="M1490 730c16-1 30 11 31 27a29 29 0 01-33 31c-2 0-3-2-3-4l4-2h5c13-1 22-12 21-25a23 23 0 00-30-20c-2 1-4 0-4-2-1-1 0-3 2-3l7-2zm-108-40h4l37 46v4h-4l-38-46c-1-1-1-3 1-4z" fill="#2F2E41"/><path fill-rule="evenodd" clip-rule="evenodd" d="M1378 724v85c0 17 14 30 30 30h51c16 0 30-13 30-30v-85h-111zm45 62l1 2-1 2h-2l-20-12-1-2 1-2 20-12h1l1 1 1 1-1 2-17 10 17 10zm25-29l-16 40-1 1h-2l-1-2v-1l16-40h1l1-1 2 1a2 2 0 010 2zm27 21l-20 12h-2l-1-2 1-2 17-10-17-10-1-2 1-1 1-1h1l20 12 1 2-1 2zM241 724v85c0 17 14 30 30 30h51c16 0 30-13 30-30v-85H241zm45 62l1 2-1 2h-2l-20-12-1-2 1-2 20-12h1l1 1 1 1-1 2-17 10 17 10zm42-8l-20 12h-2l-1-2 1-2 17-10-17-10-1-2 1-1 1-1h1l20 12 1 2-1 2zm84-116c1-1 3-1 4 1l13 25c1 1 1 3-1 4l-4-1v-1l-14-24c0-2 0-4 2-4z" fill="#2F2E41"/><path fill-rule="evenodd" clip-rule="evenodd" d="M472 689c2 0 3 1 3 3 0 1-1 3-3 3h-76l-3-3c0-2 2-3 3-3h76zm-10 84c-1-2-3-2-5-2-1 0-3 0-4 2l-1 4 1 4 4 2 5-2 1-4-1-4zm-4-9l4-2 1-4-1-4-4-2-5 2-1 4 1 4 5 2zm4 36l1-5-1-4-5-1-4 1-1 4 1 5 4 1 5-1z" fill="#2F2E41"/><path fill-rule="evenodd" clip-rule="evenodd" d="M480 710l-14-17h-64l-13 17-2 5v106c0 3 2 6 5 8 4 3 9 7 10 10h65c0-3 5-7 10-10 3-2 4-5 4-8V715c1-2 0-4-1-5zm-28 20l7-12h2l7 12v1l-1 1-1-1-6-10-6 10-1 1-1-1v-1zm0 4h1l1 1v1l-1 1-1 4 1 4h1l1-1 2-7 1-2 3-1 2 1 3 6-3 6h-2v-2h1l1-4-1-4h-2l-2 7-1 2-3 1-2-1c-2-1-3-3-3-5 0-3 1-5 3-7zm0 18c1-2 3-2 6-2 2 0 4 0 5 2l3 6-3 6-5 2-6-2-3-6 3-6zm-2 51h-1l1-1v-1h2c-2-1-3-3-3-5 0-3 1-5 3-6 1-2 3-3 5-3 3 0 5 1 6 3 2 1 3 3 3 6 0 2-1 4-3 5-1 2-3 3-6 3h-7v-1zm18 5l-7 11-1 1-1-1-7-11v-2h1l1 1 6 10 6-10 1-1h1v2zm4-23h-14c-3 0-5-1-6-3-2-1-3-3-3-5 0-3 1-5 3-6 1-2 3-3 6-3 2 0 4 1 5 3 2 1 3 3 3 6 0 2-1 4-3 5v1h9l1 1-1 1zm248-435c4-6 12-4 20 4s13 19 15 30a3 3 0 11-5 2c-3-11-8-21-14-28-6-6-10-6-11-4-2 2-2 8 1 14v1c4 8 5 24 5 43 0 2-2 3-3 3-2 0-3-1-3-3v-2c0-17-1-32-4-38v-1c-4-7-5-16-1-21zm134-14a29 29 0 10-1 58 29 29 0 001-58zm0 6a23 23 0 110 46 23 23 0 110-46zM698 461h4v1a97 97 0 006 7l18 18c15 13 30 22 44 24 2 0 3 1 3 2v21l-1 1c0 3 1 6 4 11l2 2 4 9v13l-5 44v1c-4 32-9 63-15 91-7 38-17 70-28 93-14 29-30 45-49 46-2 1-3-1-3-2l2-4c17-1 32-15 44-41l1-1c11-23 20-54 28-92 5-28 10-57 13-88l1-5 5-43v-1c2-6 1-10-4-17l-1-1c-4-7-5-11-4-16v-18c-14-3-29-11-44-24l-1-1a219 219 0 01-22-23l-1-1-1 2-11 8-8 4h-8c-9-1-12-1-16 4h-1l-39 63-7 12-3 5-21 34-17 29-4 7c-1 2-3 2-4 1-2-1-2-2-1-4l5-8 9-16 26-44 11-18 41-65c3-3 7-6 11-6l9-1 2 1c6 0 9 0 11-3l3-2 8-6 1-1 1-1 1-1h1z" fill="#2F2E41"/><path fill-rule="evenodd" clip-rule="evenodd" d="M773 534l3-22c-38-6-77-54-77-54l-15 13c-5 4-9 4-14 3-3 42 71 79 107 81-2-10-6-10-4-21zm-218 51c11-2 21 1 29 8v4c-1 2-3 2-4 0-6-6-14-8-24-7-9 2-18 5-28 11l-11 8h-1l-1 1-1 1-1 1h-4c-2-2-1-3 0-5h1l1-1 2-2 12-8c11-6 21-10 30-11zm84 145c16-1 30 11 31 27a29 29 0 01-38 30l-2-4c1-2 2-2 4-2l8 1c13-1 23-12 22-25-1-12-12-22-25-21l-4 1c-1 0-3-1-3-3-1-1 0-3 2-3l5-1z" fill="#2F2E41"/><path fill-rule="evenodd" clip-rule="evenodd" d="M527 724v85c0 17 13 30 30 30h50c17 0 30-13 30-30v-85H527zm44 62l1 2v2h-3l-20-12-1-2 1-2 20-12h1l2 1v1l-1 2-17 10 17 10zm25-29l-16 40v1h-3l-1-2 1-1 16-40 1-1 2 1a2 2 0 010 2zm27 21l-20 12h-2l-1-2 1-2 18-10-18-10-1-2 1-1 1-1h1l20 12 2 2-2 2zm1016 61c2 0 3 1 3 3s-1 3-3 3H2c-1 0-3-1-3-3s2-3 3-3h1637zM853 416l-5-86-111 7 4 58c10-8 58-40 65-41 7 0 15 10 3 18s-37 21-37 21c21-8 48-16 53-15 7 2 7 16-8 21l-40 15s47-12 54-12c6 1 12 17-18 23s-31 8-31 8 36-5 44-4c8 0 8 20-29 20v1l28-2c17-1 29-16 28-32z" fill="#2F2E41"/><path fill-rule="evenodd" clip-rule="evenodd" d="M806 351h-1c-4 1-15 7-30 17l-4 2-32 23-1 1c-4 3-13 19-27 43l-1 2-2 4-3 5-13 25-4 7-4 8-3 5c-1 2 0 3 1 4l76 44c1 1 3 0 4-1l37-88h1c15 0 26-4 30-11 5-7 3-15-4-15h-5c10-3 15-8 17-14s-2-12-8-13l-7 1c5-3 8-7 9-12s-1-11-7-12c-3-1-11 0-22 4h-2 1l9-6c6-4 9-10 6-15-1-5-6-8-11-8zm6 10c1 3 0 5-4 8l-1 1-11 6-2 1-2 1-13 8-3 1-5 3c-4 2-2 7 2 6l2-1c24-8 46-14 49-14 2 1 3 3 2 6 0 4-4 7-9 9h-1l-40 15c-4 1-2 6 1 6l6-2h2l16-4h2l4-1 23-5c2 1 3 3 2 6-1 5-7 9-19 11l-4 1c-21 4-29 7-30 9s1 5 3 4h5l13-2h2l4-1 20-1c1 0 2 3 0 6-4 5-14 8-29 8l-3 2-36 86-70-40 5-10 2-3 2-5 16-30 3-4 2-4c13-23 22-37 25-40 11-10 58-40 63-41 2 0 5 2 6 4z" fill="#2F2E41"/></svg>