<svg width="1132" height="659" viewBox="0 0 1132 659" fill="none" xmlns="http://www.w3.org/2000/svg">
<path fill-rule="evenodd" clip-rule="evenodd" d="M1084.5 6.69971H1008.9H53.9997C25.8997 6.69971 3.19971 29.4997 3.19971 57.4997V606.6C3.19971 634.7 25.9997 657.4 53.9997 657.4H1009H1035.8H1084.5C1110.6 657.4 1131.7 636.3 1131.7 610.2V53.8997C1131.7 27.7997 1110.6 6.69971 1084.5 6.69971Z" fill="#2197B0"/>
<path fill-rule="evenodd" clip-rule="evenodd" d="M65.7998 54C73.8079 54 80.2998 47.5081 80.2998 39.5C80.2998 31.4919 73.8079 25 65.7998 25C57.7917 25 51.2998 31.4919 51.2998 39.5C51.2998 47.5081 57.7917 54 65.7998 54Z" fill="#2197B0"/>
<path fill-rule="evenodd" clip-rule="evenodd" d="M122.4 54C130.408 54 136.9 47.5081 136.9 39.5C136.9 31.4919 130.408 25 122.4 25C114.392 25 107.9 31.4919 107.9 39.5C107.9 47.5081 114.392 54 122.4 54Z" fill="#FEBA91"/>
<path fill-rule="evenodd" clip-rule="evenodd" d="M178.9 54C186.908 54 193.4 47.5081 193.4 39.5C193.4 31.4919 186.908 25 178.9 25C170.892 25 164.4 31.4919 164.4 39.5C164.4 47.5081 170.892 54 178.9 54Z" fill="white"/>
<path fill-rule="evenodd" clip-rule="evenodd" d="M741.2 72.5981L747.2 72.6022L746.8 658.702L740.8 658.698L741.2 72.5981Z" fill="white"/>
<path fill-rule="evenodd" clip-rule="evenodd" d="M1086.6 70C1088.26 70 1089.6 71.3431 1089.6 73C1089.6 74.5977 1088.35 75.9037 1086.78 75.9949L1086.6 76H3.2998C1.64295 76 0.299805 74.6569 0.299805 73C0.299805 71.4023 1.54872 70.0963 3.12353 70.0051L3.2998 70H1086.6Z" fill="white"/>
<path fill-rule="evenodd" clip-rule="evenodd" d="M867.5 226.8H865.2C862.7 226.8 860.8 224.8 860.8 222.4V215.9C860.8 213.4 862.8 211.5 865.2 211.5H867.5C870 211.5 871.9 213.5 871.9 215.9V222.4C872 224.8 870 226.8 867.5 226.8Z" fill="#2197B0"/>
<path fill-rule="evenodd" clip-rule="evenodd" d="M851.5 226.8H784.4C781.6 226.8 779.4 224.6 779.4 221.8V216.4C779.4 213.6 781.6 211.4 784.4 211.4H851.5C854.3 211.4 856.5 213.6 856.5 216.4V221.8C856.5 224.5 854.2 226.8 851.5 226.8Z" fill="#2F2E41"/>
<path fill-rule="evenodd" clip-rule="evenodd" d="M858.4 298.1H784.3C781.5 298.1 779.3 295.9 779.3 293.1V287.7C779.3 284.9 781.5 282.7 784.3 282.7H858.4C861.2 282.7 863.4 284.9 863.4 287.7V293.1C863.4 295.9 861.2 298.1 858.4 298.1Z" fill="#2F2E41"/>
<path fill-rule="evenodd" clip-rule="evenodd" d="M926.1 274.4H805.6C802.8 274.4 800.6 272.2 800.6 269.4V264C800.6 261.2 802.8 259 805.6 259H926.1C928.9 259 931.1 261.2 931.1 264V269.4C931.1 272.1 928.8 274.4 926.1 274.4Z" fill="#2197B0"/>
<path fill-rule="evenodd" clip-rule="evenodd" d="M905 191.2H784.5C781.7 191.2 779.5 189 779.5 186.2V180.8C779.5 178 781.7 175.8 784.5 175.8H905C907.8 175.8 910 178 910 180.8V186.2C910 188.9 907.8 191.2 905 191.2Z" fill="#FEBA91"/>
<path fill-rule="evenodd" clip-rule="evenodd" d="M905 374.2H784.5C781.7 374.2 779.5 372 779.5 369.2V363.8C779.5 361 781.7 358.8 784.5 358.8H905C907.8 358.8 910 361 910 363.8V369.2C910 372 907.8 374.2 905 374.2Z" fill="#FEBA91"/>
<path fill-rule="evenodd" clip-rule="evenodd" d="M1003.8 274.4H943.3C940.5 274.4 938.3 272.2 938.3 269.4V264C938.3 261.2 940.5 259 943.3 259H1003.8C1006.6 259 1008.8 261.2 1008.8 264V269.4C1008.8 272.1 1006.6 274.4 1003.8 274.4Z" fill="#FEBA91"/>
<path fill-rule="evenodd" clip-rule="evenodd" d="M1028.2 250.6H1025.9C1023.4 250.6 1021.5 248.6 1021.5 246.2V239.7C1021.5 237.2 1023.5 235.3 1025.9 235.3H1028.2C1030.7 235.3 1032.6 237.3 1032.6 239.7V246.2C1032.7 248.6 1030.7 250.6 1028.2 250.6Z" fill="#2F2E41"/>
<path fill-rule="evenodd" clip-rule="evenodd" d="M909.2 250.6H784.3C781.5 250.6 779.3 248.4 779.3 245.6V240.2C779.3 237.4 781.5 235.2 784.3 235.2H909.2C912 235.2 914.2 237.4 914.2 240.2V245.6C914.2 248.3 912 250.6 909.2 250.6Z" fill="#2F2E41"/>
<path fill-rule="evenodd" clip-rule="evenodd" d="M949.1 226.8H882C879.2 226.8 877 224.6 877 221.8V216.4C877 213.6 879.2 211.4 882 211.4H949.1C951.9 211.4 954.1 213.6 954.1 216.4V221.8C954.1 224.5 951.8 226.8 949.1 226.8Z" fill="#2F2E41"/>
<path fill-rule="evenodd" clip-rule="evenodd" d="M1010.4 250.6H925.2C922.4 250.6 920.2 248.4 920.2 245.6V240.1C920.2 237.3 922.4 235.1 925.2 235.1H1010.4C1013.2 235.1 1015.4 237.3 1015.4 240.1V245.6C1015.4 248.4 1013.2 250.6 1010.4 250.6Z" fill="#2197B0"/>
<path fill-rule="evenodd" clip-rule="evenodd" d="M851.5 434.6H784.4C781.6 434.6 779.4 432.4 779.4 429.6V424.2C779.4 421.4 781.6 419.2 784.4 419.2H851.5C854.3 419.2 856.5 421.4 856.5 424.2V429.6C856.5 432.4 854.2 434.6 851.5 434.6Z" fill="#2F2E41"/>
<path fill-rule="evenodd" clip-rule="evenodd" d="M858.4 506H784.3C781.5 506 779.3 503.8 779.3 501V495.6C779.3 492.8 781.5 490.6 784.3 490.6H858.4C861.2 490.6 863.4 492.8 863.4 495.6V501C863.4 503.7 861.2 506 858.4 506Z" fill="#2F2E41"/>
<path fill-rule="evenodd" clip-rule="evenodd" d="M926.1 482.2H805.6C802.8 482.2 800.6 480 800.6 477.2V471.8C800.6 469 802.8 466.8 805.6 466.8H926.1C928.9 466.8 931.1 469 931.1 471.8V477.2C931.1 480 928.8 482.2 926.1 482.2Z" fill="#2197B0"/>
<path fill-rule="evenodd" clip-rule="evenodd" d="M1003.8 482.2H943.3C940.5 482.2 938.3 480 938.3 477.2V471.8C938.3 469 940.5 466.8 943.3 466.8H1003.8C1006.6 466.8 1008.8 469 1008.8 471.8V477.2C1008.8 480 1006.6 482.2 1003.8 482.2Z" fill="#FEBA91"/>
<path fill-rule="evenodd" clip-rule="evenodd" d="M1028.2 458.5H1025.9C1023.4 458.5 1021.5 456.5 1021.5 454.1V447.6C1021.5 445.1 1023.5 443.2 1025.9 443.2H1028.2C1030.7 443.2 1032.6 445.2 1032.6 447.6V454.1C1032.7 456.5 1030.7 458.5 1028.2 458.5Z" fill="#2F2E41"/>
<path fill-rule="evenodd" clip-rule="evenodd" d="M1047.8 434.6H1045.5C1043 434.6 1041.1 432.6 1041.1 430.2V423.7C1041.1 421.2 1043.1 419.3 1045.5 419.3H1047.8C1050.3 419.3 1052.2 421.3 1052.2 423.7V430.2C1052.3 432.6 1050.3 434.6 1047.8 434.6Z" fill="#2F2E41"/>
<path fill-rule="evenodd" clip-rule="evenodd" d="M909.2 458.4H784.3C781.5 458.4 779.3 456.2 779.3 453.4V448C779.3 445.2 781.5 443 784.3 443H909.2C912 443 914.2 445.2 914.2 448V453.4C914.2 456.2 912 458.4 909.2 458.4Z" fill="#2F2E41"/>
<path fill-rule="evenodd" clip-rule="evenodd" d="M949.1 434.6H865.8C863 434.6 860.8 432.4 860.8 429.6V424.2C860.8 421.4 863 419.2 865.8 419.2H949.1C951.9 419.2 954.1 421.4 954.1 424.2V429.6C954.1 432.4 951.8 434.6 949.1 434.6Z" fill="#2197B0"/>
<path fill-rule="evenodd" clip-rule="evenodd" d="M1032.1 434.6H965C962.2 434.6 960 432.4 960 429.6V424.2C960 421.4 962.2 419.2 965 419.2H1032.1C1034.9 419.2 1037.1 421.4 1037.1 424.2V429.6C1037.1 432.4 1034.9 434.6 1032.1 434.6Z" fill="#2197B0"/>
<path fill-rule="evenodd" clip-rule="evenodd" d="M867.5 411.6H865.2C862.7 411.6 860.8 409.6 860.8 407.2V400.7C860.8 398.2 862.8 396.3 865.2 396.3H867.5C870 396.3 871.9 398.3 871.9 400.7V407.2C872 409.6 870 411.6 867.5 411.6Z" fill="#2197B0"/>
<path fill-rule="evenodd" clip-rule="evenodd" d="M851.5 411.6H784.4C781.6 411.6 779.4 409.4 779.4 406.6V401.2C779.4 398.4 781.6 396.2 784.4 396.2H851.5C854.3 396.2 856.5 398.4 856.5 401.2V406.6C856.5 409.3 854.2 411.6 851.5 411.6Z" fill="#2F2E41"/>
<path fill-rule="evenodd" clip-rule="evenodd" d="M949.1 411.6H882C879.2 411.6 877 409.4 877 406.6V401.2C877 398.4 879.2 396.2 882 396.2H949.1C951.9 396.2 954.1 398.4 954.1 401.2V406.6C954.1 409.3 951.8 411.6 949.1 411.6Z" fill="#2F2E41"/>
<path fill-rule="evenodd" clip-rule="evenodd" d="M1010.4 458.5H925.2C922.4 458.5 920.2 456.3 920.2 453.5V448C920.2 445.2 922.4 443 925.2 443H1010.4C1013.2 443 1015.4 445.2 1015.4 448V453.5C1015.4 456.2 1013.2 458.5 1010.4 458.5Z" fill="#2197B0"/>
<path fill-rule="evenodd" clip-rule="evenodd" d="M592.3 460.9H475.3C466.774 460.9 459.9 467.812 459.9 476.3V596.2C459.9 604.657 466.843 611.6 475.3 611.6H592.3C600.826 611.6 607.7 604.688 607.7 596.2V476.3C607.7 467.774 600.788 460.9 592.3 460.9ZM475.3 466.9H592.3C597.481 466.9 601.7 471.095 601.7 476.3V596.2C601.7 601.381 597.505 605.6 592.3 605.6H475.3C470.157 605.6 465.9 601.343 465.9 596.2V476.3C465.9 471.118 470.095 466.9 475.3 466.9Z" fill="white"/>
<path fill-rule="evenodd" clip-rule="evenodd" d="M430.1 480.7C431.756 480.7 433.1 482.043 433.1 483.7C433.1 485.297 431.851 486.603 430.276 486.695L430.1 486.7H338.5C336.843 486.7 335.5 485.357 335.5 483.7C335.5 482.102 336.748 480.796 338.323 480.705L338.5 480.7H430.1Z" fill="white"/>
<path fill-rule="evenodd" clip-rule="evenodd" d="M430.7 521C432.357 521 433.7 522.343 433.7 524C433.7 525.598 432.451 526.904 430.876 526.995L430.7 527H163.2C161.543 527 160.2 525.657 160.2 524C160.2 522.402 161.449 521.096 163.023 521.005L163.2 521H430.7Z" fill="white"/>
<path fill-rule="evenodd" clip-rule="evenodd" d="M430.7 545C432.357 545 433.7 546.343 433.7 548C433.7 549.598 432.451 550.904 430.876 550.995L430.7 551H163.2C161.543 551 160.2 549.657 160.2 548C160.2 546.402 161.449 545.096 163.023 545.005L163.2 545H430.7Z" fill="white"/>
<path fill-rule="evenodd" clip-rule="evenodd" d="M430.7 569C432.357 569 433.7 570.343 433.7 572C433.7 573.598 432.451 574.904 430.876 574.995L430.7 575H163.2C161.543 575 160.2 573.657 160.2 572C160.2 570.402 161.449 569.096 163.023 569.005L163.2 569H430.7Z" fill="white"/>
<path fill-rule="evenodd" clip-rule="evenodd" d="M430.7 593.6C432.357 593.6 433.7 594.943 433.7 596.6C433.7 598.198 432.451 599.504 430.876 599.595L430.7 599.6H163.2C161.543 599.6 160.2 598.257 160.2 596.6C160.2 595.002 161.449 593.696 163.023 593.605L163.2 593.6H430.7Z" fill="white"/>
<path fill-rule="evenodd" clip-rule="evenodd" d="M599.468 464.889C600.634 463.712 602.534 463.703 603.711 464.869C604.841 465.988 604.895 467.783 603.866 468.967L603.731 469.111L468.431 605.711C467.265 606.888 465.366 606.897 464.189 605.731C463.059 604.612 463.005 602.817 464.034 601.633L464.168 601.489L599.468 464.889Z" fill="white"/>
<path fill-rule="evenodd" clip-rule="evenodd" d="M292.6 271.1H175.6C167.112 271.1 160.2 277.974 160.2 286.5V406.4C160.2 414.888 167.074 421.8 175.6 421.8H292.6C301.059 421.8 307.954 415.009 308.002 406.666L308.001 286.5C308.001 278.012 301.126 271.1 292.6 271.1ZM175.6 277.1H292.6C297.805 277.1 302.001 281.319 302.001 286.5V406.4C302.076 411.56 297.835 415.8 292.6 415.8H175.6C170.395 415.8 166.2 411.582 166.2 406.4V286.5C166.2 281.295 170.418 277.1 175.6 277.1Z" fill="white"/>
<path fill-rule="evenodd" clip-rule="evenodd" d="M429.5 290.9C431.157 290.9 432.5 292.243 432.5 293.9C432.5 295.498 431.251 296.804 429.676 296.895L429.5 296.9H337.9C336.243 296.9 334.9 295.557 334.9 293.9C334.9 292.302 336.149 290.996 337.724 290.905L337.9 290.9H429.5Z" fill="white"/>
<path fill-rule="evenodd" clip-rule="evenodd" d="M604.8 331.2C606.457 331.2 607.8 332.543 607.8 334.2C607.8 335.798 606.551 337.104 604.976 337.195L604.8 337.2H337.2C335.543 337.2 334.2 335.857 334.2 334.2C334.2 332.603 335.449 331.297 337.023 331.205L337.2 331.2H604.8Z" fill="white"/>
<path fill-rule="evenodd" clip-rule="evenodd" d="M604.8 355.2C606.457 355.2 607.8 356.543 607.8 358.2C607.8 359.798 606.551 361.104 604.976 361.195L604.8 361.2H337.2C335.543 361.2 334.2 359.857 334.2 358.2C334.2 356.603 335.449 355.297 337.023 355.205L337.2 355.2H604.8Z" fill="white"/>
<path fill-rule="evenodd" clip-rule="evenodd" d="M604.8 379.2C606.457 379.2 607.8 380.543 607.8 382.2C607.8 383.798 606.551 385.104 604.976 385.195L604.8 385.2H337.2C335.543 385.2 334.2 383.857 334.2 382.2C334.2 380.603 335.449 379.297 337.023 379.205L337.2 379.2H604.8Z" fill="white"/>
<path fill-rule="evenodd" clip-rule="evenodd" d="M604.8 403.2C606.457 403.2 607.8 404.543 607.8 406.2C607.8 407.798 606.551 409.104 604.976 409.195L604.8 409.2H337.2C335.543 409.2 334.2 407.857 334.2 406.2C334.2 404.603 335.449 403.297 337.023 403.205L337.2 403.2H604.8Z" fill="white"/>
<path fill-rule="evenodd" clip-rule="evenodd" d="M299.367 275.29C300.533 274.112 302.432 274.102 303.61 275.268C304.741 276.387 304.795 278.182 303.766 279.366L303.632 279.51L168.332 416.21C167.166 417.388 165.267 417.398 164.089 416.232C162.959 415.113 162.905 413.318 163.933 412.134L164.067 411.99L299.367 275.29Z" fill="white"/>
<path fill-rule="evenodd" clip-rule="evenodd" d="M689.8 116.6H49.7999C41.543 116.6 34.8999 123.243 34.8999 131.5V231.3C34.8999 239.557 41.543 246.2 49.7999 246.2H689.8C697.99 246.2 704.654 239.678 704.702 231.568L704.701 131.5C704.701 123.243 698.057 116.6 689.8 116.6ZM49.7999 122.6H689.8C694.743 122.6 698.701 126.557 698.701 131.5V231.3C698.775 236.223 694.774 240.2 689.8 240.2H49.7999C44.8568 240.2 40.8999 236.243 40.8999 231.3V131.5C40.8999 126.557 44.8568 122.6 49.7999 122.6Z" fill="white"/>
<path fill-rule="evenodd" clip-rule="evenodd" d="M1035.8 0.299805C1065.24 0.299805 1089.12 24.0426 1089.59 53.5053L1089.6 54.3998V606.6C1089.6 608.257 1088.26 609.6 1086.6 609.6C1085 609.6 1083.7 608.351 1083.6 606.776L1083.6 606.6V54.3998C1083.6 27.8293 1062.22 6.2998 1035.8 6.2998C1034.14 6.2998 1032.8 4.95666 1032.8 3.2998C1032.8 1.64295 1034.14 0.299805 1035.8 0.299805Z" fill="white"/>
</svg>
