<svg width="1132" height="659" fill="none" xmlns="http://www.w3.org/2000/svg"><path fill-rule="evenodd" clip-rule="evenodd" d="M1085 7H54C26 7 3 29 3 57v550c0 28 23 50 51 50h1031c26 0 47-21 47-47V54c0-26-21-47-47-47z" fill="#2197B0"/><path fill-rule="evenodd" clip-rule="evenodd" d="M66 54a15 15 0 100-29 15 15 0 000 29z" fill="#2197B0"/><path fill-rule="evenodd" clip-rule="evenodd" d="M122 54a15 15 0 100-29 15 15 0 000 29z" fill="#FEBA91"/><path fill-rule="evenodd" clip-rule="evenodd" d="M179 54a15 15 0 100-29 15 15 0 000 29zM741 73h6v586h-6V73z" fill="#fff"/><path fill-rule="evenodd" clip-rule="evenodd" d="M1087 70a3 3 0 010 6H3a3 3 0 010-6h1084z" fill="#fff"/><path fill-rule="evenodd" clip-rule="evenodd" d="M868 227h-3c-2 0-4-2-4-5v-6c0-3 2-4 4-4h3c2 0 4 2 4 4v6c0 3-2 5-4 5z" fill="#2197B0"/><path fill-rule="evenodd" clip-rule="evenodd" d="M852 227h-68c-2 0-5-2-5-5v-6c0-2 3-5 5-5h68c2 0 5 3 5 5v6c0 3-3 5-5 5zM858 298h-74c-2 0-5-2-5-5v-5c0-3 3-5 5-5h74c3 0 5 2 5 5v5c0 3-2 5-5 5z" fill="#2F2E41"/><path fill-rule="evenodd" clip-rule="evenodd" d="M926 274H806c-3 0-5-2-5-5v-5c0-3 2-5 5-5h120c3 0 5 2 5 5v5c0 3-2 5-5 5z" fill="#2197B0"/><path fill-rule="evenodd" clip-rule="evenodd" d="M905 191H785c-3 0-5-2-5-5v-5c0-3 2-5 5-5h120c3 0 5 2 5 5v5c0 3-2 5-5 5zM905 374H785c-3 0-5-2-5-5v-5c0-3 2-5 5-5h120c3 0 5 2 5 5v5c0 3-2 5-5 5zM1004 274h-61c-2 0-5-2-5-5v-5c0-3 3-5 5-5h61c3 0 5 2 5 5v5c0 3-2 5-5 5z" fill="#FEBA91"/><path fill-rule="evenodd" clip-rule="evenodd" d="M1028 251h-2c-3 0-4-2-4-5v-6c0-3 2-5 4-5h2c3 0 5 2 5 5v6c0 3-2 5-5 5zM909 251H784c-2 0-5-3-5-5v-6c0-3 3-5 5-5h125c3 0 5 2 5 5v6c0 2-2 5-5 5zM949 227h-67c-3 0-5-2-5-5v-6c0-2 2-5 5-5h67c3 0 5 3 5 5v6c0 3-2 5-5 5z" fill="#2F2E41"/><path fill-rule="evenodd" clip-rule="evenodd" d="M1010 251h-85c-3 0-5-3-5-5v-6c0-3 2-5 5-5h85c3 0 5 2 5 5v6c0 2-2 5-5 5z" fill="#2197B0"/><path fill-rule="evenodd" clip-rule="evenodd" d="M852 435h-68c-2 0-5-3-5-5v-6c0-3 3-5 5-5h68c2 0 5 2 5 5v6c0 2-3 5-5 5zM858 506h-74c-2 0-5-2-5-5v-5c0-3 3-5 5-5h74c3 0 5 2 5 5v5c0 3-2 5-5 5z" fill="#2F2E41"/><path fill-rule="evenodd" clip-rule="evenodd" d="M926 482H806c-3 0-5-2-5-5v-5c0-3 2-5 5-5h120c3 0 5 2 5 5v5c0 3-2 5-5 5z" fill="#2197B0"/><path fill-rule="evenodd" clip-rule="evenodd" d="M1004 482h-61c-2 0-5-2-5-5v-5c0-3 3-5 5-5h61c3 0 5 2 5 5v5c0 3-2 5-5 5z" fill="#FEBA91"/><path fill-rule="evenodd" clip-rule="evenodd" d="M1028 459h-2c-3 0-4-2-4-5v-6c0-3 2-5 4-5h2c3 0 5 2 5 5v6c0 3-2 5-5 5zM1048 435h-2c-3 0-5-2-5-5v-6c0-3 2-5 5-5h2c2 0 4 2 4 5v6c0 3-2 5-4 5zM909 458H784c-2 0-5-2-5-5v-5c0-3 3-5 5-5h125c3 0 5 2 5 5v5c0 3-2 5-5 5z" fill="#2F2E41"/><path fill-rule="evenodd" clip-rule="evenodd" d="M949 435h-83c-3 0-5-3-5-5v-6c0-3 2-5 5-5h83c3 0 5 2 5 5v6c0 2-2 5-5 5zM1032 435h-67c-3 0-5-3-5-5v-6c0-3 2-5 5-5h67c3 0 5 2 5 5v6c0 2-2 5-5 5zM868 412h-3c-2 0-4-2-4-5v-6c0-3 2-5 4-5h3c2 0 4 2 4 5v6c0 3-2 5-4 5z" fill="#2197B0"/><path fill-rule="evenodd" clip-rule="evenodd" d="M852 412h-68c-2 0-5-3-5-5v-6c0-3 3-5 5-5h68c2 0 5 2 5 5v6c0 2-3 5-5 5zM949 412h-67c-3 0-5-3-5-5v-6c0-3 2-5 5-5h67c3 0 5 2 5 5v6c0 2-2 5-5 5z" fill="#2F2E41"/><path fill-rule="evenodd" clip-rule="evenodd" d="M1010 459h-85c-3 0-5-3-5-5v-6c0-3 2-5 5-5h85c3 0 5 2 5 5v6c0 2-2 5-5 5z" fill="#2197B0"/><path fill-rule="evenodd" clip-rule="evenodd" d="M592 461H475c-8 0-15 7-15 15v120c0 9 7 16 15 16h117c9 0 16-7 16-16V476c0-8-7-15-16-15zm-117 6h117c5 0 10 4 10 9v120c0 5-4 10-10 10H475c-5 0-9-5-9-10V476c0-5 4-9 9-9zM430 481a3 3 0 010 6h-91a3 3 0 01-1-6h92zM431 521a3 3 0 010 6H163a3 3 0 010-6h268zM431 545a3 3 0 010 6H163a3 3 0 010-6h268zM431 569a3 3 0 010 6H163a3 3 0 010-6h268zM431 594a3 3 0 010 6H163a3 3 0 010-6h268z" fill="#fff"/><path fill-rule="evenodd" clip-rule="evenodd" d="M599 465a3 3 0 015 4L468 606a3 3 0 01-4-4v-1l135-136zM293 271H176c-9 0-16 7-16 16v119c0 9 7 16 16 16h117c8 0 15-7 15-15V287c0-9-7-16-15-16zm-117 6h117c5 0 9 4 9 10v119c0 6-4 10-9 10H176c-6 0-10-4-10-10V287c0-6 4-10 10-10zM430 291a3 3 0 010 6h-92a3 3 0 010-6h92zM605 331a3 3 0 010 6H337a3 3 0 010-6h268zM605 355a3 3 0 010 6H337a3 3 0 010-6h268zM605 379a3 3 0 010 6H337a3 3 0 010-6h268zM605 403a3 3 0 010 6H337a3 3 0 010-6h268z" fill="#fff"/><path fill-rule="evenodd" clip-rule="evenodd" d="M299 275a3 3 0 015 4v1L168 416a3 3 0 01-4-4l135-137zM690 117H50c-8 0-15 6-15 15v99c0 9 7 15 15 15h640c8 0 15-6 15-14V132c0-9-7-15-15-15zm-640 6h640c5 0 9 4 9 9v99c0 5-4 9-9 9H50c-5 0-9-4-9-9v-99c0-5 4-9 9-9zM1036 0c29 0 53 24 54 54v553a3 3 0 01-6 0V54c0-26-22-48-48-48a3 3 0 110-6z" fill="#fff"/></svg>