<svg width="1435" height="785" viewBox="0 0 1435 785" fill="none" xmlns="http://www.w3.org/2000/svg">
<path fill-rule="evenodd" clip-rule="evenodd" d="M791 781.1H390.2C374.9 781.1 362.5 768.7 362.5 753.4V100.9C362.5 85.6001 374.9 73.2001 390.2 73.2001H791C775.7 73.2001 763.3 85.6001 763.3 100.9V753.4C763.2 768.6 775.7 781.1 791 781.1Z" fill="#28AFCC"/>
<path fill-rule="evenodd" clip-rule="evenodd" d="M470.4 128.4L505.1 9.60004C506.4 5.20004 511 2.70004 515.4 3.90004L776.3 80V157.2" fill="white"/>
<path fill-rule="evenodd" clip-rule="evenodd" d="M502.223 8.75001C503.954 2.89238 510.003 -0.515929 515.948 0.944311L516.24 1.02006L777.14 77.1201C778.362 77.4764 779.219 78.5617 779.295 79.8193L779.3 80.0001V157.2C779.3 158.857 777.957 160.2 776.3 160.2C774.703 160.2 773.397 158.951 773.305 157.376L773.3 157.2L773.299 82.249L514.611 6.79434C511.832 6.03661 508.958 7.55967 508.048 10.2281L507.98 10.4412L473.28 129.241C472.815 130.832 471.149 131.744 469.559 131.28C468.025 130.832 467.122 129.267 467.476 127.73L467.521 127.559L502.223 8.75001Z" fill="#2F2E41"/>
<path fill-rule="evenodd" clip-rule="evenodd" d="M547.521 39.0569C547.97 37.5245 549.534 36.6222 551.07 36.9758L551.241 37.0203L768.741 100.52C770.331 100.985 771.244 102.65 770.78 104.241C770.332 105.774 768.767 106.678 767.23 106.324L767.059 106.28L552.291 43.5761L552.151 43.92C546.73 56.8054 532.85 64.1997 519.098 61.3627L518.841 61.3071L498.28 131.642C497.831 133.175 496.266 134.078 494.729 133.724L494.558 133.68C493.025 133.231 492.122 131.666 492.476 130.129L492.521 129.958L513.921 56.7583C514.398 55.1258 516.135 54.2162 517.749 54.754L517.964 54.8289L518.493 55.0341L518.815 55.1266C530.973 58.4726 543.66 51.5019 547.409 39.4281L547.521 39.0569Z" fill="#2F2E41"/>
<path fill-rule="evenodd" clip-rule="evenodd" d="M427.2 302.6L442.3 134.3C442.7 129.7 446.7 126.4 451.3 126.8L765.9 154.5V291.8" fill="white"/>
<path fill-rule="evenodd" clip-rule="evenodd" d="M439.312 134.04C439.846 127.892 445.135 123.409 451.271 123.79L451.564 123.812L766.164 151.512C767.653 151.643 768.808 152.847 768.895 154.322L768.9 154.5V291.8C768.9 293.457 767.557 294.8 765.9 294.8C764.303 294.8 762.997 293.551 762.905 291.976L762.9 291.8V157.247L451.04 129.789C448.146 129.537 445.671 131.527 445.312 134.349L445.288 134.568L430.188 302.868C430.04 304.518 428.583 305.736 426.932 305.588C425.341 305.445 424.152 304.085 424.202 302.508L424.212 302.332L439.312 134.04Z" fill="#2F2E41"/>
<path fill-rule="evenodd" clip-rule="evenodd" d="M498.613 156.63C498.756 155.04 500.116 153.852 501.691 153.901L501.867 153.912L762.667 177.212C764.318 177.359 765.536 178.817 765.389 180.467C765.246 182.058 763.886 183.248 762.309 183.199L762.133 183.188L504.162 160.141L504.149 160.218C501.175 175.182 486.703 185.886 470.068 185.418L469.825 185.408L459.288 303.068C459.146 304.659 457.786 305.848 456.209 305.799L456.033 305.788C454.442 305.646 453.252 304.285 453.302 302.709L453.312 302.532L464.112 181.932C464.251 180.386 465.547 179.2 467.1 179.2C467.368 179.2 467.544 179.215 467.835 179.254L468.137 179.298C468.136 179.3 468.124 179.3 468.1 179.3L468.232 179.303L468.363 179.312C483.864 180.671 497.366 170.426 498.613 156.63Z" fill="#2F2E41"/>
<path fill-rule="evenodd" clip-rule="evenodd" d="M543 300.1C544.657 300.1 546 301.443 546 303.1C546 304.698 544.751 306.004 543.176 306.095L543 306.1H398C396.343 306.1 395 304.757 395 303.1C395 301.502 396.249 300.196 397.824 300.105L398 300.1H543Z" fill="#2F2E41"/>
<path fill-rule="evenodd" clip-rule="evenodd" d="M398 310.1C401.866 310.1 405 306.966 405 303.1C405 299.234 401.866 296.1 398 296.1C394.134 296.1 391 299.234 391 303.1C391 306.966 394.134 310.1 398 310.1Z" fill="#2F2E41"/>
<path fill-rule="evenodd" clip-rule="evenodd" d="M600 781.1H562C552.1 781.1 544 773 544 763.1V242.1C544 232.2 552.1 224.1 562 224.1H582C591.9 224.1 600 232.2 600 242.1V781.1Z" fill="#2F2E41"/>
<path fill-rule="evenodd" clip-rule="evenodd" d="M1057 781.2H582.8C593.8 781.2 602.8 772.2 602.8 761.2V244.1C602.8 233.1 593.8 224.1 582.8 224.1H1057C1068 224.1 1077 233.1 1077 244.1V761.2C1077 772.3 1068 781.2 1057 781.2Z" fill="#2197B0"/>
<path fill-rule="evenodd" clip-rule="evenodd" d="M582 224.1C593.414 224.1 602.805 232.733 602.997 243.561L603 243.9V779.5C603 781.157 601.657 782.5 600 782.5C598.402 782.5 597.096 781.251 597.005 779.676L597 779.5V243.9C597 236.327 590.311 230.1 582 230.1C580.343 230.1 579 228.757 579 227.1C579 225.443 580.343 224.1 582 224.1Z" fill="#2F2E41"/>
<path fill-rule="evenodd" clip-rule="evenodd" d="M543.8 256.5C545.457 256.5 546.8 257.843 546.8 259.5C546.8 261.098 545.551 262.404 543.976 262.495L543.8 262.5H515C513.343 262.5 512 261.157 512 259.5C512 257.902 513.249 256.596 514.824 256.505L515 256.5H543.8Z" fill="#2F2E41"/>
<path fill-rule="evenodd" clip-rule="evenodd" d="M543.8 278.1C545.457 278.1 546.8 279.443 546.8 281.1C546.8 282.698 545.551 284.004 543.976 284.095L543.8 284.1H515C513.343 284.1 512 282.757 512 281.1C512 279.502 513.249 278.196 514.824 278.105L515 278.1H543.8Z" fill="#2F2E41"/>
<path fill-rule="evenodd" clip-rule="evenodd" d="M543.8 321.4C545.457 321.4 546.8 322.743 546.8 324.4C546.8 325.998 545.551 327.304 543.976 327.395L543.8 327.4H515C513.343 327.4 512 326.057 512 324.4C512 322.802 513.249 321.496 514.824 321.405L515 321.4H543.8Z" fill="#2F2E41"/>
<path fill-rule="evenodd" clip-rule="evenodd" d="M543.8 343C545.457 343 546.8 344.343 546.8 346C546.8 347.598 545.551 348.904 543.976 348.995L543.8 349H515C513.343 349 512 347.657 512 346C512 344.402 513.249 343.096 514.824 343.005L515 343H543.8Z" fill="#2F2E41"/>
<path fill-rule="evenodd" clip-rule="evenodd" d="M543.8 364.6C545.457 364.6 546.8 365.943 546.8 367.6C546.8 369.198 545.551 370.504 543.976 370.595L543.8 370.6H515C513.343 370.6 512 369.257 512 367.6C512 366.002 513.249 364.696 514.824 364.605L515 364.6H543.8Z" fill="#2F2E41"/>
<path fill-rule="evenodd" clip-rule="evenodd" d="M543.8 386.3C545.457 386.3 546.8 387.643 546.8 389.3C546.8 390.898 545.551 392.204 543.976 392.295L543.8 392.3H515C513.343 392.3 512 390.957 512 389.3C512 387.702 513.249 386.396 514.824 386.305L515 386.3H543.8Z" fill="#2F2E41"/>
<path fill-rule="evenodd" clip-rule="evenodd" d="M543.8 407.9C545.457 407.9 546.8 409.243 546.8 410.9C546.8 412.498 545.551 413.804 543.976 413.895L543.8 413.9H515C513.343 413.9 512 412.557 512 410.9C512 409.302 513.249 407.996 514.824 407.905L515 407.9H543.8Z" fill="#2F2E41"/>
<path fill-rule="evenodd" clip-rule="evenodd" d="M543.8 429.6C545.457 429.6 546.8 430.943 546.8 432.6C546.8 434.198 545.551 435.504 543.976 435.595L543.8 435.6H515C513.343 435.6 512 434.257 512 432.6C512 431.002 513.249 429.696 514.824 429.605L515 429.6H543.8Z" fill="#2F2E41"/>
<path fill-rule="evenodd" clip-rule="evenodd" d="M543.8 451.2C545.457 451.2 546.8 452.543 546.8 454.2C546.8 455.798 545.551 457.104 543.976 457.195L543.8 457.2H515C513.343 457.2 512 455.857 512 454.2C512 452.602 513.249 451.296 514.824 451.205L515 451.2H543.8Z" fill="#2F2E41"/>
<path fill-rule="evenodd" clip-rule="evenodd" d="M543.8 472.8C545.457 472.8 546.8 474.143 546.8 475.8C546.8 477.398 545.551 478.704 543.976 478.795L543.8 478.8H515C513.343 478.8 512 477.457 512 475.8C512 474.202 513.249 472.896 514.824 472.805L515 472.8H543.8Z" fill="#2F2E41"/>
<path fill-rule="evenodd" clip-rule="evenodd" d="M543.8 494.5C545.457 494.5 546.8 495.843 546.8 497.5C546.8 499.098 545.551 500.404 543.976 500.495L543.8 500.5H515C513.343 500.5 512 499.157 512 497.5C512 495.902 513.249 494.596 514.824 494.505L515 494.5H543.8Z" fill="#2F2E41"/>
<path fill-rule="evenodd" clip-rule="evenodd" d="M543.8 516.1C545.457 516.1 546.8 517.443 546.8 519.1C546.8 520.698 545.551 522.004 543.976 522.095L543.8 522.1H515C513.343 522.1 512 520.757 512 519.1C512 517.502 513.249 516.196 514.824 516.105L515 516.1H543.8Z" fill="#2F2E41"/>
<path fill-rule="evenodd" clip-rule="evenodd" d="M543.8 537.7C545.457 537.7 546.8 539.043 546.8 540.7C546.8 542.298 545.551 543.604 543.976 543.695L543.8 543.7H515C513.343 543.7 512 542.357 512 540.7C512 539.102 513.249 537.796 514.824 537.705L515 537.7H543.8Z" fill="#2F2E41"/>
<path fill-rule="evenodd" clip-rule="evenodd" d="M543.8 559.4C545.457 559.4 546.8 560.743 546.8 562.4C546.8 563.998 545.551 565.304 543.976 565.395L543.8 565.4H515C513.343 565.4 512 564.057 512 562.4C512 560.802 513.249 559.496 514.824 559.405L515 559.4H543.8Z" fill="#2F2E41"/>
<path fill-rule="evenodd" clip-rule="evenodd" d="M543.8 581C545.457 581 546.8 582.343 546.8 584C546.8 585.598 545.551 586.904 543.976 586.995L543.8 587H515C513.343 587 512 585.657 512 584C512 582.402 513.249 581.096 514.824 581.005L515 581H543.8Z" fill="#2F2E41"/>
<path fill-rule="evenodd" clip-rule="evenodd" d="M543.8 624.3C545.457 624.3 546.8 625.643 546.8 627.3C546.8 628.898 545.551 630.204 543.976 630.295L543.8 630.3H515C513.343 630.3 512 628.957 512 627.3C512 625.702 513.249 624.396 514.824 624.305L515 624.3H543.8Z" fill="#2F2E41"/>
<path fill-rule="evenodd" clip-rule="evenodd" d="M543.8 645.9C545.457 645.9 546.8 647.243 546.8 648.9C546.8 650.498 545.551 651.804 543.976 651.895L543.8 651.9H515C513.343 651.9 512 650.557 512 648.9C512 647.302 513.249 645.996 514.824 645.905L515 645.9H543.8Z" fill="#2F2E41"/>
<path fill-rule="evenodd" clip-rule="evenodd" d="M543.8 667.5C545.457 667.5 546.8 668.843 546.8 670.5C546.8 672.098 545.551 673.404 543.976 673.495L543.8 673.5H515C513.343 673.5 512 672.157 512 670.5C512 668.902 513.249 667.596 514.824 667.505L515 667.5H543.8Z" fill="#2F2E41"/>
<path fill-rule="evenodd" clip-rule="evenodd" d="M543.8 689.2C545.457 689.2 546.8 690.543 546.8 692.2C546.8 693.798 545.551 695.104 543.976 695.195L543.8 695.2H515C513.343 695.2 512 693.857 512 692.2C512 690.602 513.249 689.296 514.824 689.205L515 689.2H543.8Z" fill="#2F2E41"/>
<path fill-rule="evenodd" clip-rule="evenodd" d="M543.8 710.8C545.457 710.8 546.8 712.143 546.8 713.8C546.8 715.398 545.551 716.704 543.976 716.795L543.8 716.8H515C513.343 716.8 512 715.457 512 713.8C512 712.202 513.249 710.896 514.824 710.805L515 710.8H543.8Z" fill="#2F2E41"/>
<path fill-rule="evenodd" clip-rule="evenodd" d="M543.8 732.4C545.457 732.4 546.8 733.743 546.8 735.4C546.8 736.998 545.551 738.304 543.976 738.395L543.8 738.4H515C513.343 738.4 512 737.057 512 735.4C512 733.802 513.249 732.496 514.824 732.405L515 732.4H543.8Z" fill="#2F2E41"/>
<path fill-rule="evenodd" clip-rule="evenodd" d="M766 294.9H687.5C677 294.9 668.5 302 668.5 310.7V374.2H765.8" fill="white"/>
<rect x="668" y="322.1" width="98" height="18" fill="#2F2E41"/>
<path fill-rule="evenodd" clip-rule="evenodd" d="M766 498.7H687.5C677 498.7 668.5 505.8 668.5 514.5V578H765.8" fill="white"/>
<rect x="668" y="525.9" width="98" height="18" fill="#2F2E41"/>
<path fill-rule="evenodd" clip-rule="evenodd" d="M767.2 371.1C768.857 371.1 770.2 372.443 770.2 374.1C770.2 375.698 768.951 377.004 767.376 377.095L767.2 377.1H645C643.343 377.1 642 375.757 642 374.1C642 372.502 643.249 371.196 644.824 371.105L645 371.1H767.2Z" fill="#2F2E41"/>
<path fill-rule="evenodd" clip-rule="evenodd" d="M645 381.1C648.866 381.1 652 377.966 652 374.1C652 370.234 648.866 367.1 645 367.1C641.134 367.1 638 370.234 638 374.1C638 377.966 641.134 381.1 645 381.1Z" fill="#2F2E41"/>
<path fill-rule="evenodd" clip-rule="evenodd" d="M767.2 574.9C768.857 574.9 770.2 576.243 770.2 577.9C770.2 579.498 768.951 580.804 767.376 580.895L767.2 580.9H645C643.343 580.9 642 579.557 642 577.9C642 576.302 643.249 574.996 644.824 574.905L645 574.9H767.2Z" fill="#2F2E41"/>
<path fill-rule="evenodd" clip-rule="evenodd" d="M1139 781.1H779C768 781.1 759 772.1 759 761.1V93.1001C759 82.1001 768 73.1001 779 73.1001H1139C1150 73.1001 1159 82.1001 1159 93.1001V761.1C1159 772.1 1150 781.1 1139 781.1Z" fill="#2197B0"/>
<path fill-rule="evenodd" clip-rule="evenodd" d="M1095.6 682.1H867.5C851.7 682.1 839 669.3 839 653.6V148.1C839 132.3 851.8 119.6 867.5 119.6H1095.6C1111.4 119.6 1124.1 132.4 1124.1 148.1V653.6C1124.1 669.3 1111.3 682.1 1095.6 682.1Z" fill="white"/>
<path fill-rule="evenodd" clip-rule="evenodd" d="M988 759.1C972 759.1 959 746.1 959 730.1C959 714.1 972 701.1 988 701.1C1004 701.1 1017 714.1 1017 730.1C1017 746.1 1004 759.1 988 759.1ZM988 707.1C975.3 707.1 965 717.4 965 730.1C965 742.8 975.3 753.1 988 753.1C1000.7 753.1 1011 742.8 1011 730.1C1011 717.4 1000.7 707.1 988 707.1Z" fill="#2197B0"/>
<path fill-rule="evenodd" clip-rule="evenodd" d="M931 106.1C934.866 106.1 938 102.966 938 99.1001C938 95.2341 934.866 92.1001 931 92.1001C927.134 92.1001 924 95.2341 924 99.1001C924 102.966 927.134 106.1 931 106.1Z" fill="#2197B0"/>
<path fill-rule="evenodd" clip-rule="evenodd" d="M1029 105.1H956C952.7 105.1 950 102.4 950 99.1001V99.1001C950 95.8001 952.7 93.1001 956 93.1001H1029C1032.3 93.1001 1035 95.8001 1035 99.1001V99.1001C1035 102.4 1032.3 105.1 1029 105.1Z" fill="#2197B0"/>
<path fill-rule="evenodd" clip-rule="evenodd" d="M819.5 76.0001C821.157 76.0001 822.5 77.3433 822.5 79.0001C822.5 80.657 821.157 82.0001 819.5 82.0001C805.589 82.0001 794.229 93.1392 794.003 106.883L794 107.3V752.8C794 766.771 805.385 778.1 819.5 778.1C821.157 778.1 822.5 779.443 822.5 781.1C822.5 782.757 821.157 784.1 819.5 784.1C802.252 784.1 788.282 770.37 788.004 753.318L788 752.8V107.3C788 90.0419 802.144 76.0001 819.5 76.0001Z" fill="#2F2E41"/>
<path fill-rule="evenodd" clip-rule="evenodd" d="M773 498V498C769.8 498 767.3 495.4 767.3 492.3V401C767.3 397.8 769.9 395.3 773 395.3V395.3C776.2 395.3 778.7 397.9 778.7 401V492.3C778.7 495.4 776.2 498 773 498Z" fill="#2F2E41"/>
<path fill-rule="evenodd" clip-rule="evenodd" d="M1064.7 314.5C1060.2 311.7 1054.4 313.1 1051.6 317.5L1028.2 355.1C1014.3 343.9 996.6 337.2 977.4 337.2C932.7 337.2 896.4 373.6 896.4 418.2C896.4 462.8 932.8 499.2 977.4 499.2C1022 499.2 1058.4 462.8 1058.4 418.2C1058.4 399.8 1052.2 382.8 1041.8 369.1L1067.7 327.5C1070.5 323.2 1069.2 317.3 1064.7 314.5ZM1052.5 418.3C1052.5 459.7 1018.8 493.3 977.5 493.3C936.2 493.3 902.5 459.6 902.5 418.3C902.5 377 936.2 343.3 977.5 343.3C995.5 343.3 1012.1 349.7 1025.1 360.4L982.7 428.5L958.2 395.8C955 391.6 949.1 390.8 944.9 393.9C940.7 397.1 939.9 403 943 407.2L975.9 450.9C977.7 453.3 980.5 454.7 983.5 454.7C983.6 454.7 983.8 454.7 983.9 454.7C987 454.6 989.9 452.9 991.5 450.2L1038.5 374.6C1047.3 387 1052.5 402 1052.5 418.3Z" fill="#2197B0"/>
<path fill-rule="evenodd" clip-rule="evenodd" d="M542.7 400.1H363.1V93.1001C363.1 82.1001 378.6 73.1001 389.6 73.1001H313.9C302.9 73.1001 293.9 82.1001 293.9 93.1001V761.1C293.9 772.1 302.9 781.1 313.9 781.1H383.1C372.1 781.1 363.1 772.1 363.1 761.1V503.1H542.7C564.9 503.1 582.8 485.1 582.8 463V440.2C582.8 418 564.9 400.1 542.7 400.1Z" fill="#2197B0"/>
<path fill-rule="evenodd" clip-rule="evenodd" d="M534.801 475.1C521.601 475.1 510.801 464.3 510.801 451.1C510.801 437.9 521.601 427.1 534.801 427.1C548.001 427.1 558.801 437.9 558.801 451.1C558.801 464.3 548.101 475.1 534.801 475.1ZM534.801 433.1C524.901 433.1 516.801 441.2 516.801 451.1C516.801 461 524.901 469.1 534.801 469.1C544.701 469.1 552.801 461 552.801 451.1C552.801 441.2 544.801 433.1 534.801 433.1Z" fill="#2197B0"/>
<path fill-rule="evenodd" clip-rule="evenodd" d="M389.401 72.3V78.3C375.161 78.3 364.809 87.8935 364.604 101.39L364.601 101.8V399.7H358.601V101.8C358.601 84.8594 371.521 72.5483 388.873 72.3038L389.401 72.3Z" fill="#2F2E41"/>
<path fill-rule="evenodd" clip-rule="evenodd" d="M364.601 503V752.8C364.601 766.631 375.759 777.873 389.678 778.097L390.101 778.1V784.1C372.852 784.1 358.882 770.37 358.605 753.318L358.601 752.8V503H364.601Z" fill="#2F2E41"/>
</svg>
