<svg width="344" height="242" viewBox="0 0 344 242" fill="none" xmlns="http://www.w3.org/2000/svg">
<g clip-path="url(#clip0)">
<path d="M276.253 225.08C274.02 233.602 266.196 238.929 266.196 238.929C266.196 238.929 261.992 230.437 264.225 221.914C266.458 213.391 274.282 208.065 274.282 208.065C274.282 208.065 278.486 216.557 276.253 225.08Z" fill="#3F3D56"/>
<path d="M272.867 223.277C266.613 229.47 265.913 238.924 265.913 238.924C265.913 238.924 275.353 238.337 281.607 232.144C287.86 225.951 288.56 216.497 288.56 216.497C288.56 216.497 279.12 217.084 272.867 223.277Z" fill="#2297B0"/>
<path d="M46.2691 192.839H58.0467L87.0701 181.456C87.0701 181.456 107.681 173.023 105.998 189.045C104.316 205.066 101.371 226.568 101.371 226.568C101.371 226.568 92.1176 222.352 87.07 223.617C82.0225 224.882 85.3875 197.899 85.3875 197.899C85.3875 197.899 44.166 217.714 40.3803 215.185C36.5947 212.655 35.7534 194.947 35.7534 194.947L46.2691 192.839Z" fill="#2F2E41"/>
<path opacity="0.1" d="M46.2691 192.839H58.0467L87.0701 181.456C87.0701 181.456 107.681 173.023 105.998 189.045C104.316 205.066 101.371 226.568 101.371 226.568C101.371 226.568 92.1176 222.352 87.07 223.617C82.0225 224.882 85.3875 197.899 85.3875 197.899C85.3875 197.899 44.166 217.714 40.3803 215.185C36.5947 212.655 35.7534 194.947 35.7534 194.947L46.2691 192.839Z" fill="black"/>
<path d="M64.8248 155.87L79.0781 176.396L112.308 204.223C112.308 204.223 143.014 211.39 138.807 216.45C134.601 221.509 108.943 211.39 108.943 211.39C108.943 211.39 70.6656 183.564 69.4037 181.456C68.1418 179.348 54.2611 159.532 54.2611 159.532L64.8248 155.87Z" fill="#FFB9B9"/>
<path opacity="0.1" d="M64.8248 155.87L79.0781 176.396L112.308 204.223C112.308 204.223 143.014 211.39 138.807 216.45C134.601 221.509 108.943 211.39 108.943 211.39C108.943 211.39 70.6656 183.564 69.4037 181.456C68.1418 179.348 54.2611 159.532 54.2611 159.532L64.8248 155.87Z" fill="black"/>
<path d="M56.3642 139.294L65.618 157.424C65.618 157.424 63.5149 166.278 60.1499 167.121C56.7848 167.964 42.4835 156.159 42.4835 156.159L56.3642 139.294Z" fill="#D0CDE1"/>
<path opacity="0.1" d="M56.3642 139.294L65.618 157.424C65.618 157.424 63.5149 166.278 60.1499 167.121C56.7848 167.964 42.4835 156.159 42.4835 156.159L56.3642 139.294Z" fill="black"/>
<path d="M169.257 183.453L171.99 194.755C172.021 194.881 172.016 195.013 171.977 195.136L159.577 233.976C159.528 234.13 159.428 234.262 159.293 234.351C159.158 234.44 158.997 234.48 158.837 234.464C158.677 234.448 158.527 234.377 158.412 234.264C158.297 234.151 158.225 234.001 158.206 233.841L156.491 218.71C156.48 218.61 156.49 218.508 156.521 218.412L167.903 183.4C167.95 183.254 168.044 183.128 168.17 183.04C168.296 182.952 168.446 182.908 168.6 182.913C168.753 182.919 168.9 182.975 169.018 183.073C169.137 183.17 169.221 183.303 169.257 183.453Z" fill="#2F2E41"/>
<path d="M168.251 184.407L170.775 194.104L159.839 229.52L157.315 218.558L168.251 184.407Z" fill="#F2F2F2"/>
<path d="M113.149 237.109C113.57 238.374 156.894 236.687 157.315 236.266C157.682 235.738 157.992 235.172 158.24 234.579C158.636 233.736 158.998 232.893 158.998 232.893L157.315 219.241L114.411 217.715C114.411 217.715 113.338 229.284 113.12 234.579C113.065 235.916 113.065 236.856 113.149 237.109Z" fill="#2F2E41"/>
<path opacity="0.1" d="M151.847 221.088L152.688 232.893H133.76V221.088H151.847Z" fill="black"/>
<path opacity="0.1" d="M127.451 224.882L127.563 224.859L127.03 229.942H116.514V224.882H127.451Z" fill="black"/>
<path opacity="0.1" d="M113.149 237.109C113.57 238.374 156.894 236.687 157.315 236.266C157.682 235.738 157.992 235.172 158.24 234.579H113.12C113.065 235.916 113.065 236.856 113.149 237.109Z" fill="black"/>
<path d="M62.6736 133.392C73.1274 133.392 81.6019 124.897 81.6019 114.419C81.6019 103.941 73.1274 95.4464 62.6736 95.4464C52.2198 95.4464 43.7454 103.941 43.7454 114.419C43.7454 124.897 52.2198 133.392 62.6736 133.392Z" fill="#FFB9B9"/>
<path d="M61.4117 131.284C61.4117 131.284 55.1023 142.246 53.8404 148.148C52.5785 154.051 34.9122 136.343 34.9122 136.343L32.5987 130.23C32.5987 130.23 49.2135 122.43 47.9516 116.106C46.6898 109.781 61.4117 131.284 61.4117 131.284Z" fill="#FFB9B9"/>
<path d="M64.7768 164.17L82.0225 186.937L123.244 217.715C123.244 217.715 153.109 224.039 146.379 228.677C139.649 233.314 120.3 224.46 120.3 224.46C120.3 224.46 78.6575 202.115 69.8243 192.839C60.9911 183.564 44.5866 167.964 44.5866 167.964L64.7768 164.17Z" fill="#FFB9B9"/>
<path d="M41.6422 199.585L46.6897 207.596L76.8139 198.096C83.4237 196.012 90.6716 196.779 96.5342 200.481C101.792 203.801 105.157 209.071 97.5858 216.871C82.4431 232.471 72.3481 224.039 72.3481 224.039C72.3481 224.039 21.452 248.071 13.0395 236.266C4.62691 224.46 4.2063 218.558 4.2063 218.558C4.2063 218.558 36.5947 198.32 41.6422 199.585Z" fill="#2F2E41"/>
<path d="M104.736 227.412C104.736 227.412 118.197 236.266 102.213 240.482C86.2288 244.698 74.4512 238.795 74.4512 238.795C74.4512 238.795 60.5705 238.795 60.5705 231.628C60.5705 224.46 65.1974 223.617 65.1974 223.617L79.4988 225.725C79.4988 225.725 96.7445 221.087 104.736 227.412Z" fill="#D0CDE1"/>
<path d="M78.2014 109.646C79.4897 110.222 80.7672 110.903 82.1679 111.071C83.5685 111.238 85.1635 110.747 85.8262 109.499C86.1842 108.825 86.2251 108.032 86.2418 107.269C86.2925 104.954 86.1255 102.451 84.6618 100.659C83.7302 99.5189 82.3704 98.8001 81.4062 97.6875C80.7153 96.8904 80.2556 95.9242 79.7605 94.9922C77.8852 91.4619 75.1087 88.0691 71.2499 87.0513C69.6386 86.6263 67.9482 86.6471 66.2822 86.6707L56.5647 86.8081C54.9921 86.8303 53.3953 86.8561 51.8899 87.3124C48.7622 88.2603 46.4848 90.8967 44.3991 93.418C42.8386 95.3043 41.2741 97.2101 40.103 99.361C38.4239 102.5 37.5749 106.018 37.6368 109.579C37.6238 110.492 37.7415 111.402 37.9862 112.282C38.2725 113.089 38.6271 113.87 39.0463 114.616C40.8687 118.204 41.9507 122.686 39.8984 126.146C43.4635 124.687 46.9909 122.773 49.3426 119.716C50.3947 118.349 51.2198 116.748 52.6218 115.744C54.0239 114.741 56.3084 114.654 57.208 116.126C57.5172 116.722 57.6764 117.385 57.6718 118.056C57.7375 119.162 57.7357 120.31 58.2033 121.313C58.6709 122.316 59.7847 123.126 60.8481 122.826C62.6795 122.309 62.5041 119.491 63.9147 118.211C64.9859 117.24 66.6386 117.425 68.0149 116.984C69.6184 116.47 70.8215 115.078 71.507 113.536C72.0281 112.365 72.0206 109.299 73.0066 108.665C74.2431 107.869 77.0552 109.134 78.2014 109.646Z" fill="#2F2E41"/>
<path d="M31.0961 128.23C31.9477 128.002 32.8442 128.004 33.6945 128.236C36.3946 128.963 42.4475 130.886 43.7453 133.813C45.4279 137.608 51.3167 143.51 51.3167 143.51C51.3167 143.51 59.3086 151.521 57.6261 157.002C55.9436 162.483 49.6341 168.807 49.6341 168.807C49.6341 168.807 51.3166 194.947 42.9041 201.693C34.4915 208.439 31.1265 203.801 31.1265 210.125C31.1265 216.45 5.04754 236.266 0 224.039C0 224.039 2.52377 201.272 1.68251 193.261C0.85339 185.366 2.06718 136.107 31.0961 128.23Z" fill="#D0CDE1"/>
<path d="M44.5866 138.873C44.5866 138.873 70.2449 157.845 65.618 165.856C65.618 165.856 50.0548 173.445 46.6898 173.023C43.3247 172.602 30.2852 157.845 26.9202 156.58C23.5552 155.316 21.8727 132.548 44.5866 138.873Z" fill="#D0CDE1"/>
<path d="M159.223 96.9175C170.699 96.9175 180.002 87.5924 180.002 76.0894C180.002 64.5863 170.699 55.2612 159.223 55.2612C147.747 55.2612 138.443 64.5863 138.443 76.0894C138.443 87.5924 147.747 96.9175 159.223 96.9175Z" fill="#F2F2F2"/>
<path d="M330.85 49.0392H214.406V24.616H330.85V49.0392ZM214.919 48.5251H330.337V25.1302H214.919V48.5251Z" fill="#3F3D56"/>
<path d="M322.386 29.5007H206.455V53.4097H322.386V29.5007Z" fill="#2297B0"/>
<path d="M133.169 6.68425C134.161 6.68425 134.964 5.87853 134.964 4.88462C134.964 3.89071 134.161 3.08499 133.169 3.08499C132.177 3.08499 131.374 3.89071 131.374 4.88462C131.374 5.87853 132.177 6.68425 133.169 6.68425Z" fill="#2297B0"/>
<path d="M139.325 6.68425C140.316 6.68425 141.12 5.87853 141.12 4.88462C141.12 3.89071 140.316 3.08499 139.325 3.08499C138.333 3.08499 137.529 3.89071 137.529 4.88462C137.529 5.87853 138.333 6.68425 139.325 6.68425Z" fill="#2297B0"/>
<path d="M145.48 6.68425C146.472 6.68425 147.276 5.87853 147.276 4.88462C147.276 3.89071 146.472 3.08499 145.48 3.08499C144.489 3.08499 143.685 3.89071 143.685 4.88462C143.685 5.87853 144.489 6.68425 145.48 6.68425Z" fill="#2297B0"/>
<path d="M344 140.883H128.039V0H344V140.883ZM128.552 140.369H343.487V0.514174H128.552V140.369Z" fill="#3F3D56"/>
<path d="M343.744 7.79875H128.296V8.31293H343.744V7.79875Z" fill="#3F3D56"/>
<path d="M133.682 6.17006C133.276 6.17006 132.879 6.04944 132.542 5.82345C132.205 5.59745 131.942 5.27624 131.786 4.90043C131.631 4.52462 131.59 4.11108 131.67 3.71212C131.749 3.31317 131.944 2.9467 132.231 2.65906C132.518 2.37143 132.884 2.17555 133.282 2.09619C133.68 2.01683 134.092 2.05756 134.467 2.21323C134.842 2.3689 135.163 2.63251 135.388 2.97073C135.614 3.30895 135.734 3.70659 135.734 4.11337C135.733 4.65864 135.517 5.1814 135.132 5.56697C134.748 5.95254 134.226 6.16943 133.682 6.17006ZM133.682 2.57085C133.378 2.57085 133.08 2.66131 132.827 2.83081C132.574 3.0003 132.377 3.24121 132.26 3.52307C132.144 3.80493 132.113 4.11508 132.173 4.4143C132.232 4.71352 132.379 4.98837 132.594 5.20409C132.809 5.41982 133.083 5.56673 133.382 5.62625C133.68 5.68577 133.99 5.65522 134.271 5.53847C134.552 5.42172 134.792 5.22401 134.962 4.97034C135.131 4.71668 135.221 4.41845 135.221 4.11337C135.22 3.70441 135.058 3.31234 134.77 3.02316C134.481 2.73399 134.09 2.57132 133.682 2.57085Z" fill="#3F3D56"/>
<path d="M139.838 6.17006C139.432 6.17006 139.035 6.04944 138.698 5.82345C138.36 5.59745 138.097 5.27624 137.942 4.90043C137.787 4.52462 137.746 4.11108 137.825 3.71212C137.904 3.31317 138.1 2.9467 138.387 2.65906C138.674 2.37143 139.039 2.17555 139.437 2.09619C139.835 2.01683 140.248 2.05756 140.623 2.21323C140.998 2.3689 141.318 2.63251 141.544 2.97073C141.769 3.30895 141.89 3.70659 141.89 4.11337C141.889 4.65864 141.673 5.1814 141.288 5.56697C140.903 5.95254 140.382 6.16943 139.838 6.17006ZM139.838 2.57085C139.533 2.57085 139.236 2.66131 138.983 2.83081C138.73 3.0003 138.532 3.24121 138.416 3.52307C138.299 3.80493 138.269 4.11508 138.328 4.4143C138.388 4.71352 138.534 4.98837 138.749 5.20409C138.965 5.41982 139.239 5.56673 139.537 5.62625C139.836 5.68577 140.145 5.65522 140.427 5.53847C140.708 5.42172 140.948 5.22401 141.117 4.97034C141.286 4.71668 141.377 4.41845 141.377 4.11337C141.376 3.70441 141.214 3.31234 140.925 3.02316C140.637 2.73399 140.246 2.57132 139.838 2.57085Z" fill="#3F3D56"/>
<path d="M145.993 6.17006C145.587 6.17006 145.191 6.04944 144.853 5.82344C144.516 5.59745 144.253 5.27624 144.098 4.90043C143.942 4.52462 143.902 4.11109 143.981 3.71213C144.06 3.31317 144.255 2.9467 144.542 2.65906C144.829 2.37143 145.195 2.17555 145.593 2.09619C145.991 2.01683 146.404 2.05756 146.779 2.21323C147.153 2.36889 147.474 2.6325 147.699 2.97072C147.925 3.30894 148.045 3.70659 148.045 4.11336C148.045 4.65864 147.828 5.1814 147.443 5.56697C147.059 5.95253 146.537 6.16942 145.993 6.17006ZM145.993 2.57084C145.689 2.57084 145.391 2.66131 145.138 2.83081C144.885 3.0003 144.688 3.24121 144.572 3.52307C144.455 3.80492 144.425 4.11507 144.484 4.41429C144.543 4.71351 144.69 4.98836 144.905 5.20409C145.12 5.41982 145.395 5.56673 145.693 5.62625C145.992 5.68576 146.301 5.65522 146.582 5.53847C146.863 5.42172 147.104 5.22401 147.273 4.97034C147.442 4.71668 147.532 4.41845 147.532 4.11336C147.532 3.70441 147.369 3.31234 147.081 3.02316C146.792 2.73399 146.401 2.57132 145.993 2.57084Z" fill="#3F3D56"/>
<path d="M196.194 8.05576H195.681V140.826H196.194V8.05576Z" fill="#3F3D56"/>
<path d="M257.88 73.334H220.177V78.4758H257.88V73.334Z" fill="#F2F2F2"/>
<path d="M317.128 73.334H279.425V78.4758H317.128V73.334Z" fill="#F2F2F2"/>
<path d="M260.188 76.1619H221.972V70.506H260.188V76.1619ZM222.485 75.6477H259.675V71.0202H222.485V75.6477Z" fill="#3F3D56"/>
<path d="M257.88 113.182H220.177V118.324H257.88V113.182Z" fill="#F2F2F2"/>
<path d="M260.188 116.01H221.972V110.354H260.188V116.01ZM222.485 115.496H259.675V110.869H222.485V115.496Z" fill="#3F3D56"/>
<path d="M317.256 92.744H220.305V97.8857H317.256V92.744Z" fill="#F2F2F2"/>
<path d="M319.565 96.0862H222.1V90.4303H319.565V96.0862ZM222.613 95.572H319.052V90.9444H222.613V95.572Z" fill="#3F3D56"/>
<path d="M319.436 76.1619H281.22V70.506H319.436V76.1619ZM281.733 75.6477H318.923V71.0202H281.733V75.6477Z" fill="#3F3D56"/>
<path d="M162.739 91.4702C158.566 91.4702 154.487 90.2299 151.017 87.906C147.548 85.5822 144.843 82.2792 143.246 78.4148C141.649 74.5504 141.232 70.2982 142.046 66.1957C142.86 62.0933 144.869 58.325 147.82 55.3673C150.771 52.4096 154.53 50.3954 158.623 49.5794C162.716 48.7634 166.958 49.1822 170.814 50.7829C174.669 52.3836 177.964 55.0942 180.283 58.5721C182.601 62.05 183.839 66.1388 183.839 70.3216C183.832 75.9286 181.607 81.3042 177.652 85.2689C173.696 89.2337 168.333 91.4639 162.739 91.4702ZM162.739 49.8139C158.693 49.8139 154.737 51.0167 151.373 53.2701C148.008 55.5235 145.386 58.7264 143.837 62.4736C142.288 66.2209 141.883 70.3444 142.673 74.3225C143.462 78.3006 145.411 81.9547 148.272 84.8228C151.133 87.6908 154.779 89.644 158.748 90.4353C162.717 91.2266 166.83 90.8204 170.569 89.2683C174.308 87.7161 177.503 85.0876 179.751 81.7151C181.999 78.3426 183.199 74.3777 183.199 70.3216C183.193 64.8845 181.035 59.6719 177.2 55.8273C173.364 51.9827 168.164 49.8201 162.739 49.8139Z" fill="#3F3D56"/>
<path d="M329.614 238.549H239.144V239.19H329.614V238.549Z" fill="#3F3D56"/>
</g>
<defs>
<clipPath id="clip0">
<rect width="344" height="242" fill="white"/>
</clipPath>
</defs>
</svg>
