<svg width="478" height="62" viewBox="0 0 478 62" fill="none" xmlns="http://www.w3.org/2000/svg">
  <g clip-path="url(#clip0)">
    <rect width="478" height="62" fill="white" />
    <path d="M2.56 20.72C2.56 19.7387 2.58133 19.0133 2.624 18.544C2.70933 18.032 2.92267 17.456 3.264 16.816C3.86133 15.664 5.52533 15.088 8.256 15.088C11.2427 15.088 13.0133 15.8773 13.568 17.456C13.7813 18.1813 13.888 19.2907 13.888 20.784V56.368C13.888 57.392 13.8453 58.1387 13.76 58.608C13.7173 59.0773 13.5253 59.632 13.184 60.272C12.5867 61.424 10.9227 62 8.192 62C5.20533 62 3.456 61.1893 2.944 59.568C2.688 58.8853 2.56 57.7973 2.56 56.304V20.72ZM30.0055 32.752C32.0108 29.7227 34.4215 28.208 37.2375 28.208C41.5895 28.208 44.8322 30.064 46.9655 33.776C47.4348 33.136 47.9895 32.4747 48.6295 31.792C49.3122 31.0667 50.3788 30.2987 51.8295 29.488C53.2802 28.6347 54.7735 28.208 56.3095 28.208C59.7228 28.208 62.5815 29.5307 64.8855 32.176C67.1895 34.7787 68.3415 39.1093 68.3415 45.168V56.368C68.3415 57.3493 68.2988 58.096 68.2135 58.608C68.1708 59.0773 67.9788 59.632 67.6375 60.272C67.0828 61.424 65.4402 62 62.7095 62C60.0215 62 58.3788 61.4027 57.7815 60.208C57.4828 59.568 57.2908 59.0133 57.2055 58.544C57.1628 58.032 57.1415 57.2853 57.1415 56.304V45.104C57.1415 41.392 55.8188 39.536 53.1735 39.536C51.6802 39.536 50.6562 40.0267 50.1015 41.008C49.5895 41.9893 49.3335 43.376 49.3335 45.168V56.368C49.3335 57.392 49.2908 58.1387 49.2055 58.608C49.1628 59.0773 48.9708 59.632 48.6295 60.272C48.0322 61.424 46.3682 62 43.6375 62C40.9495 62 39.3068 61.4027 38.7095 60.208C38.4108 59.568 38.2188 59.0133 38.1335 58.544C38.0908 58.032 38.0695 57.2853 38.0695 56.304V45.104C38.0695 41.392 36.7468 39.536 34.1015 39.536C31.5415 39.536 30.2615 41.392 30.2615 45.104V56.432C30.2615 57.4133 30.2188 58.16 30.1335 58.672C30.0908 59.1413 29.8988 59.696 29.5575 60.336C28.9175 61.4453 27.2535 62 24.5655 62C21.8775 62 20.2348 61.424 19.6375 60.272C19.3388 59.632 19.1468 59.0773 19.0615 58.608C19.0188 58.1387 18.9975 57.392 18.9975 56.368V33.84C18.9975 32.8587 19.0188 32.1333 19.0615 31.664C19.1468 31.152 19.3602 30.5973 19.7015 30C20.3415 28.848 21.8562 28.272 24.2455 28.272C26.6348 28.272 28.1922 28.656 28.9175 29.424C29.6428 30.192 30.0055 31.3013 30.0055 32.752ZM96.347 28.656C97.1577 28.912 97.819 29.36 98.331 30C98.8857 30.5973 99.163 31.5787 99.163 32.944C99.163 34.3093 98.7577 35.8027 97.947 37.424C97.1363 39.0453 95.963 39.856 94.427 39.856C93.659 39.856 92.9123 39.6853 92.187 39.344C91.5043 39.0027 90.587 38.832 89.435 38.832C88.283 38.832 87.195 39.2373 86.171 40.048C85.1897 40.8587 84.699 41.84 84.699 42.992V56.432C84.699 57.4133 84.6563 58.16 84.571 58.672C84.5283 59.1413 84.3363 59.696 83.995 60.336C83.355 61.4453 81.691 62 79.003 62C76.955 62 75.483 61.6373 74.587 60.912C73.9043 60.3147 73.5203 59.3973 73.435 58.16C73.435 57.7333 73.435 57.1147 73.435 56.304V33.84C73.435 32.8587 73.4563 32.1333 73.499 31.664C73.5843 31.152 73.7763 30.5973 74.075 30C74.6723 28.848 76.3363 28.272 79.067 28.272C81.627 28.272 83.227 28.7627 83.867 29.744C84.3363 30.4267 84.571 31.1307 84.571 31.856C84.7843 31.5573 85.083 31.1947 85.467 30.768C85.8937 30.3413 86.7683 29.7653 88.091 29.04C89.4137 28.3147 90.5657 27.952 91.547 27.952C92.571 27.952 93.4243 28.016 94.107 28.144C94.7897 28.2293 95.5363 28.4 96.347 28.656ZM122.636 31.856C122.892 29.4667 124.577 28.272 127.692 28.272C129.356 28.272 130.593 28.4 131.404 28.656C132.214 28.912 132.769 29.36 133.068 30C133.409 30.64 133.601 31.216 133.644 31.728C133.729 32.1973 133.772 32.9227 133.772 33.904V56.304C133.772 57.2853 133.729 58.032 133.644 58.544C133.601 59.0133 133.43 59.568 133.132 60.208C132.534 61.3173 131.062 61.872 128.716 61.872C126.412 61.872 124.854 61.5947 124.044 61.04C123.276 60.4427 122.828 59.5893 122.7 58.48C121.121 60.7413 118.476 61.872 114.764 61.872C111.094 61.872 107.681 60.1867 104.524 56.816C101.366 53.4453 99.7875 49.5413 99.7875 45.104C99.7875 40.624 101.366 36.72 104.524 33.392C107.724 30.0213 111.222 28.336 115.02 28.336C116.47 28.336 117.793 28.592 118.988 29.104C120.182 29.616 121.014 30.1067 121.484 30.576C121.953 31.0027 122.337 31.4293 122.636 31.856ZM110.988 45.168C110.988 46.576 111.542 47.856 112.652 49.008C113.761 50.1173 115.105 50.672 116.684 50.672C118.262 50.672 119.564 50.096 120.588 48.944C121.654 47.792 122.188 46.5333 122.188 45.168C122.188 43.76 121.676 42.4587 120.652 41.264C119.67 40.0693 118.326 39.472 116.62 39.472C114.956 39.472 113.59 40.0693 112.524 41.264C111.5 42.4587 110.988 43.76 110.988 45.168ZM157.625 28.272C161.891 28.272 165.433 29.9147 168.249 33.2C171.107 36.4427 172.537 40.4107 172.537 45.104V56.368C172.537 57.3493 172.494 58.096 172.409 58.608C172.366 59.0773 172.195 59.6107 171.897 60.208C171.299 61.36 169.635 61.936 166.905 61.936C163.875 61.936 162.126 61.1467 161.657 59.568C161.401 58.8427 161.273 57.7547 161.273 56.304V45.04C161.273 43.2907 160.761 41.9253 159.737 40.944C158.755 39.9627 157.411 39.472 155.705 39.472C154.041 39.472 152.675 39.984 151.609 41.008C150.585 42.032 150.073 43.376 150.073 45.04V56.368C150.073 57.3493 150.03 58.096 149.945 58.608C149.902 59.0773 149.71 59.6107 149.369 60.208C148.814 61.36 147.171 61.936 144.441 61.936C141.753 61.936 140.11 61.36 139.513 60.208C139.214 59.568 139.022 59.0133 138.937 58.544C138.894 58.032 138.873 57.2853 138.873 56.304V33.648C138.873 32.7093 138.894 32.0053 138.937 31.536C139.022 31.024 139.235 30.4693 139.577 29.872C140.174 28.8053 141.817 28.272 144.505 28.272C147.107 28.272 148.707 28.7627 149.305 29.744C149.731 30.4693 149.945 31.344 149.945 32.368C150.115 32.0693 150.499 31.6427 151.097 31.088C151.694 30.5333 152.27 30.0853 152.825 29.744C154.275 28.7627 155.875 28.272 157.625 28.272ZM210.197 41.136C210.197 43.7387 209.536 45.68 208.213 46.96C206.933 48.1973 205.504 48.816 203.925 48.816H188.757C188.757 50.0107 189.461 51.0133 190.869 51.824C192.277 52.6347 193.685 53.04 195.093 53.04C197.568 53.04 199.509 52.784 200.917 52.272L201.621 52.016C202.645 51.5467 203.498 51.312 204.181 51.312C205.546 51.312 206.72 52.272 207.701 54.192C208.256 55.344 208.533 56.3253 208.533 57.136C208.533 60.9333 203.989 62.832 194.901 62.832C191.744 62.832 188.928 62.2987 186.453 61.232C184.021 60.1227 182.122 58.672 180.757 56.88C178.069 53.424 176.725 49.5627 176.725 45.296C176.725 39.92 178.453 35.632 181.909 32.432C185.408 29.1893 189.76 27.568 194.965 27.568C200.896 27.568 205.248 29.6587 208.021 33.84C209.472 36.0587 210.197 38.4907 210.197 41.136ZM196.693 42.992C198.314 42.992 199.125 42.3093 199.125 40.944C199.125 39.9627 198.741 39.1733 197.973 38.576C197.248 37.9787 196.181 37.68 194.773 37.68C193.408 37.68 192.042 38.256 190.677 39.408C189.312 40.5173 188.629 41.712 188.629 42.992H196.693ZM259.872 49.712L261.024 48.88C262.475 48.0267 263.499 47.6 264.096 47.6C265.419 47.6 266.848 48.7947 268.384 51.184C269.323 52.6773 269.792 53.872 269.792 54.768C269.792 55.664 269.493 56.4107 268.896 57.008C268.341 57.6053 267.68 58.1387 266.912 58.608C266.144 59.0773 265.397 59.5253 264.672 59.952C263.989 60.3787 262.56 60.9333 260.384 61.616C258.208 62.2987 256.096 62.64 254.048 62.64C252.043 62.64 249.995 62.384 247.904 61.872C245.856 61.3173 243.723 60.4213 241.504 59.184C239.328 57.904 237.365 56.368 235.616 54.576C233.867 52.7413 232.416 50.416 231.264 47.6C230.155 44.7413 229.6 41.648 229.6 38.32C229.6 34.992 230.155 31.984 231.264 29.296C232.373 26.5653 233.781 24.3253 235.488 22.576C237.237 20.784 239.221 19.2907 241.44 18.096C245.621 15.792 249.824 14.64 254.048 14.64C256.053 14.64 258.08 14.96 260.128 15.6C262.219 16.1973 263.797 16.816 264.864 17.456L266.4 18.352C267.168 18.8213 267.765 19.2053 268.192 19.504C269.301 20.4 269.856 21.424 269.856 22.576C269.856 23.6853 269.408 24.8587 268.512 26.096C266.848 28.4 265.355 29.552 264.032 29.552C263.264 29.552 262.176 29.0827 260.768 28.144C258.976 26.6933 256.587 25.968 253.6 25.968C250.827 25.968 248.096 26.928 245.408 28.848C244.128 29.7867 243.061 31.1093 242.208 32.816C241.355 34.5227 240.928 36.464 240.928 38.64C240.928 40.7733 241.355 42.6933 242.208 44.4C243.061 46.1067 244.149 47.4507 245.472 48.432C248.075 50.3093 250.784 51.248 253.6 51.248C254.923 51.248 256.16 51.0773 257.312 50.736C258.507 50.3947 259.36 50.0533 259.872 49.712ZM292.686 28.4C296.952 28.4 300.494 30.0213 303.31 33.264C306.168 36.5067 307.597 40.4747 307.597 45.168V56.432C307.597 57.4133 307.555 58.16 307.47 58.672C307.427 59.1413 307.235 59.696 306.894 60.336C306.339 61.4453 304.696 62 301.966 62C299.363 62 297.742 61.4453 297.102 60.336C296.76 59.696 296.547 59.12 296.462 58.608C296.419 58.096 296.398 57.328 296.398 56.304V45.104C296.398 43.3547 295.907 41.9893 294.926 41.008C293.944 40.0267 292.686 39.536 291.15 39.536C289.656 39.536 288.334 40.0053 287.182 40.944C286.03 41.84 285.368 42.864 285.198 44.016V56.432C285.198 57.4133 285.155 58.16 285.07 58.672C285.027 59.1413 284.835 59.696 284.494 60.336C283.939 61.4453 282.296 62 279.566 62C276.878 62 275.235 61.424 274.638 60.272C274.339 59.632 274.147 59.0773 274.062 58.608C274.019 58.1387 273.998 57.392 273.998 56.368V18.096C273.998 17.1147 274.019 16.3893 274.062 15.92C274.147 15.408 274.339 14.8533 274.638 14.256C275.235 13.104 276.899 12.528 279.63 12.528C282.318 12.528 283.939 13.104 284.494 14.256C284.835 14.896 285.027 15.472 285.07 15.984C285.155 16.4533 285.198 17.1787 285.198 18.16V32.304C287.331 29.7013 289.827 28.4 292.686 28.4ZM345.26 41.136C345.26 43.7387 344.598 45.68 343.276 46.96C341.996 48.1973 340.566 48.816 338.988 48.816H323.82C323.82 50.0107 324.524 51.0133 325.932 51.824C327.34 52.6347 328.748 53.04 330.156 53.04C332.63 53.04 334.572 52.784 335.98 52.272L336.684 52.016C337.708 51.5467 338.561 51.312 339.244 51.312C340.609 51.312 341.782 52.272 342.764 54.192C343.318 55.344 343.596 56.3253 343.596 57.136C343.596 60.9333 339.052 62.832 329.964 62.832C326.806 62.832 323.99 62.2987 321.516 61.232C319.084 60.1227 317.185 58.672 315.82 56.88C313.132 53.424 311.788 49.5627 311.788 45.296C311.788 39.92 313.516 35.632 316.972 32.432C320.47 29.1893 324.822 27.568 330.028 27.568C335.958 27.568 340.31 29.6587 343.083 33.84C344.534 36.0587 345.26 38.4907 345.26 41.136ZM331.756 42.992C333.377 42.992 334.188 42.3093 334.188 40.944C334.188 39.9627 333.804 39.1733 333.036 38.576C332.31 37.9787 331.244 37.68 329.836 37.68C328.47 37.68 327.105 38.256 325.74 39.408C324.374 40.5173 323.692 41.712 323.692 42.992H331.756ZM368.123 28.4C372.39 28.4 375.931 30.0213 378.747 33.264C381.606 36.5067 383.035 40.4747 383.035 45.168V56.432C383.035 57.4133 382.992 58.16 382.907 58.672C382.864 59.1413 382.672 59.696 382.331 60.336C381.776 61.4453 380.134 62 377.403 62C374.8 62 373.179 61.4453 372.539 60.336C372.198 59.696 371.984 59.12 371.899 58.608C371.856 58.096 371.835 57.328 371.835 56.304V45.104C371.835 43.3547 371.344 41.9893 370.363 41.008C369.382 40.0267 368.123 39.536 366.587 39.536C365.094 39.536 363.771 40.0053 362.619 40.944C361.467 41.84 360.806 42.864 360.635 44.016V56.432C360.635 57.4133 360.592 58.16 360.507 58.672C360.464 59.1413 360.272 59.696 359.931 60.336C359.376 61.4453 357.734 62 355.003 62C352.315 62 350.672 61.424 350.075 60.272C349.776 59.632 349.584 59.0773 349.499 58.608C349.456 58.1387 349.435 57.392 349.435 56.368V18.096C349.435 17.1147 349.456 16.3893 349.499 15.92C349.584 15.408 349.776 14.8533 350.075 14.256C350.672 13.104 352.336 12.528 355.067 12.528C357.755 12.528 359.376 13.104 359.931 14.256C360.272 14.896 360.464 15.472 360.507 15.984C360.592 16.4533 360.635 17.1787 360.635 18.16V32.304C362.768 29.7013 365.264 28.4 368.123 28.4ZM410.073 31.856C410.329 29.4667 412.014 28.272 415.129 28.272C416.793 28.272 418.03 28.4 418.841 28.656C419.652 28.912 420.206 29.36 420.505 30C420.846 30.64 421.038 31.216 421.081 31.728C421.166 32.1973 421.209 32.9227 421.209 33.904V56.304C421.209 57.2853 421.166 58.032 421.081 58.544C421.038 59.0133 420.868 59.568 420.569 60.208C419.972 61.3173 418.5 61.872 416.153 61.872C413.849 61.872 412.292 61.5947 411.481 61.04C410.713 60.4427 410.265 59.5893 410.137 58.48C408.558 60.7413 405.913 61.872 402.201 61.872C398.532 61.872 395.118 60.1867 391.961 56.816C388.804 53.4453 387.225 49.5413 387.225 45.104C387.225 40.624 388.804 36.72 391.961 33.392C395.161 30.0213 398.66 28.336 402.457 28.336C403.908 28.336 405.23 28.592 406.425 29.104C407.62 29.616 408.452 30.1067 408.921 30.576C409.39 31.0027 409.774 31.4293 410.073 31.856ZM398.425 45.168C398.425 46.576 398.98 47.856 400.089 49.008C401.198 50.1173 402.542 50.672 404.121 50.672C405.7 50.672 407.001 50.096 408.025 48.944C409.092 47.792 409.625 46.5333 409.625 45.168C409.625 43.76 409.113 42.4587 408.089 41.264C407.108 40.0693 405.764 39.472 404.057 39.472C402.393 39.472 401.028 40.0693 399.961 41.264C398.937 42.4587 398.425 43.76 398.425 45.168ZM444.806 28.336C448.603 28.336 452.081 30.0213 455.238 33.392C458.438 36.7627 460.038 40.688 460.038 45.168C460.038 49.6053 458.459 53.5093 455.302 56.88C452.145 60.208 448.753 61.872 445.126 61.872C441.499 61.872 438.918 60.848 437.382 58.8C437.041 60.8907 435.206 61.936 431.878 61.936C429.19 61.936 427.547 61.36 426.95 60.208C426.651 59.568 426.459 59.0133 426.374 58.544C426.331 58.032 426.31 57.2853 426.31 56.304V18.096C426.31 17.1147 426.331 16.3893 426.374 15.92C426.459 15.408 426.651 14.8533 426.95 14.256C427.547 13.104 429.211 12.528 431.942 12.528C434.63 12.528 436.251 13.104 436.806 14.256C437.147 14.896 437.339 15.472 437.382 15.984C437.467 16.4533 437.51 17.1787 437.51 18.16V31.472C439.217 29.3813 441.649 28.336 444.806 28.336ZM439.174 49.008C440.241 50.16 441.563 50.736 443.142 50.736C444.721 50.736 446.065 50.16 447.174 49.008C448.283 47.856 448.838 46.576 448.838 45.168C448.838 43.76 448.326 42.48 447.302 41.328C446.278 40.1333 444.913 39.536 443.206 39.536C441.499 39.536 440.134 40.1333 439.11 41.328C438.129 42.5227 437.638 43.824 437.638 45.232C437.638 46.5973 438.15 47.856 439.174 49.008ZM464.185 33.904C464.185 32.9227 464.206 32.1973 464.249 31.728C464.334 31.216 464.526 30.64 464.825 30C465.422 28.8907 467.086 28.336 469.817 28.336C471.865 28.336 473.316 28.6987 474.169 29.424C474.894 30.0213 475.278 30.9387 475.321 32.176C475.364 32.6027 475.385 33.2213 475.385 34.032V56.432C475.385 57.4133 475.342 58.16 475.257 58.672C475.214 59.1413 475.022 59.696 474.681 60.336C474.126 61.4453 472.484 62 469.753 62C467.065 62 465.422 61.424 464.825 60.272C464.526 59.632 464.334 59.0773 464.249 58.608C464.206 58.1387 464.185 57.392 464.185 56.368V33.904ZM474.681 22.064C474.382 22.6613 473.828 23.088 473.017 23.344C472.206 23.6 471.118 23.728 469.753 23.728C468.43 23.728 467.364 23.6 466.553 23.344C465.742 23.088 465.166 22.64 464.825 22C464.526 21.36 464.334 20.8053 464.249 20.336C464.206 19.824 464.185 19.0773 464.185 18.096C464.185 17.1147 464.206 16.3893 464.249 15.92C464.334 15.408 464.526 14.8533 464.825 14.256C465.422 13.104 467.086 12.528 469.817 12.528C472.505 12.528 474.126 13.104 474.681 14.256C475.022 14.896 475.214 15.472 475.257 15.984C475.342 16.4533 475.385 17.1787 475.385 18.16C475.385 19.1413 475.342 19.888 475.257 20.4C475.214 20.8693 475.022 21.424 474.681 22.064Z" fill="black" />
  </g>
  <defs>
    <clipPath id="clip0">
      <rect width="478" height="62" fill="white" />
    </clipPath>
  </defs>
</svg>