<svg width="209" height="47" viewBox="0 0 209 47" fill="none" xmlns="http://www.w3.org/2000/svg">
  <path d="M0.56 5.72C0.56 4.73866 0.581333 4.01333 0.624 3.544C0.709333 3.032 0.922667 2.456 1.264 1.816C1.86133 0.663998 3.52533 0.0879974 6.256 0.0879974C9.24267 0.0879974 11.0133 0.877331 11.568 2.456C11.7813 3.18133 11.888 4.29066 11.888 5.784V41.368C11.888 42.392 11.8453 43.1387 11.76 43.608C11.7173 44.0773 11.5253 44.632 11.184 45.272C10.5867 46.424 8.92267 47 6.192 47C3.20533 47 1.456 46.1893 0.944 44.568C0.688 43.8853 0.56 42.7973 0.56 41.304V5.72ZM28.0055 17.752C30.0108 14.7227 32.4215 13.208 35.2375 13.208C39.5895 13.208 42.8322 15.064 44.9655 18.776C45.4348 18.136 45.9895 17.4747 46.6295 16.792C47.3122 16.0667 48.3788 15.2987 49.8295 14.488C51.2802 13.6347 52.7735 13.208 54.3095 13.208C57.7228 13.208 60.5815 14.5307 62.8855 17.176C65.1895 19.7787 66.3415 24.1093 66.3415 30.168V41.368C66.3415 42.3493 66.2988 43.096 66.2135 43.608C66.1708 44.0773 65.9788 44.632 65.6375 45.272C65.0828 46.424 63.4402 47 60.7095 47C58.0215 47 56.3788 46.4027 55.7815 45.208C55.4828 44.568 55.2908 44.0133 55.2055 43.544C55.1628 43.032 55.1415 42.2853 55.1415 41.304V30.104C55.1415 26.392 53.8188 24.536 51.1735 24.536C49.6802 24.536 48.6562 25.0267 48.1015 26.008C47.5895 26.9893 47.3335 28.376 47.3335 30.168V41.368C47.3335 42.392 47.2908 43.1387 47.2055 43.608C47.1628 44.0773 46.9708 44.632 46.6295 45.272C46.0322 46.424 44.3682 47 41.6375 47C38.9495 47 37.3068 46.4027 36.7095 45.208C36.4108 44.568 36.2188 44.0133 36.1335 43.544C36.0908 43.032 36.0695 42.2853 36.0695 41.304V30.104C36.0695 26.392 34.7468 24.536 32.1015 24.536C29.5415 24.536 28.2615 26.392 28.2615 30.104V41.432C28.2615 42.4133 28.2188 43.16 28.1335 43.672C28.0908 44.1413 27.8988 44.696 27.5575 45.336C26.9175 46.4453 25.2535 47 22.5655 47C19.8775 47 18.2348 46.424 17.6375 45.272C17.3388 44.632 17.1468 44.0773 17.0615 43.608C17.0188 43.1387 16.9975 42.392 16.9975 41.368V18.84C16.9975 17.8587 17.0188 17.1333 17.0615 16.664C17.1468 16.152 17.3602 15.5973 17.7015 15C18.3415 13.848 19.8562 13.272 22.2455 13.272C24.6348 13.272 26.1922 13.656 26.9175 14.424C27.6428 15.192 28.0055 16.3013 28.0055 17.752ZM94.347 13.656C95.1577 13.912 95.819 14.36 96.331 15C96.8857 15.5973 97.163 16.5787 97.163 17.944C97.163 19.3093 96.7577 20.8027 95.947 22.424C95.1363 24.0453 93.963 24.856 92.427 24.856C91.659 24.856 90.9123 24.6853 90.187 24.344C89.5043 24.0027 88.587 23.832 87.435 23.832C86.283 23.832 85.195 24.2373 84.171 25.048C83.1897 25.8587 82.699 26.84 82.699 27.992V41.432C82.699 42.4133 82.6563 43.16 82.571 43.672C82.5283 44.1413 82.3363 44.696 81.995 45.336C81.355 46.4453 79.691 47 77.003 47C74.955 47 73.483 46.6373 72.587 45.912C71.9043 45.3147 71.5203 44.3973 71.435 43.16C71.435 42.7333 71.435 42.1147 71.435 41.304V18.84C71.435 17.8587 71.4563 17.1333 71.499 16.664C71.5843 16.152 71.7763 15.5973 72.075 15C72.6723 13.848 74.3363 13.272 77.067 13.272C79.627 13.272 81.227 13.7627 81.867 14.744C82.3363 15.4267 82.571 16.1307 82.571 16.856C82.7843 16.5573 83.083 16.1947 83.467 15.768C83.8937 15.3413 84.7683 14.7653 86.091 14.04C87.4137 13.3147 88.5657 12.952 89.547 12.952C90.571 12.952 91.4243 13.016 92.107 13.144C92.7897 13.2293 93.5363 13.4 94.347 13.656ZM120.636 16.856C120.892 14.4667 122.577 13.272 125.692 13.272C127.356 13.272 128.593 13.4 129.404 13.656C130.214 13.912 130.769 14.36 131.068 15C131.409 15.64 131.601 16.216 131.644 16.728C131.729 17.1973 131.772 17.9227 131.772 18.904V41.304C131.772 42.2853 131.729 43.032 131.644 43.544C131.601 44.0133 131.43 44.568 131.132 45.208C130.534 46.3173 129.062 46.872 126.716 46.872C124.412 46.872 122.854 46.5947 122.044 46.04C121.276 45.4427 120.828 44.5893 120.7 43.48C119.121 45.7413 116.476 46.872 112.764 46.872C109.094 46.872 105.681 45.1867 102.524 41.816C99.3662 38.4453 97.7875 34.5413 97.7875 30.104C97.7875 25.624 99.3662 21.72 102.524 18.392C105.724 15.0213 109.222 13.336 113.02 13.336C114.47 13.336 115.793 13.592 116.988 14.104C118.182 14.616 119.014 15.1067 119.484 15.576C119.953 16.0027 120.337 16.4293 120.636 16.856ZM108.988 30.168C108.988 31.576 109.542 32.856 110.652 34.008C111.761 35.1173 113.105 35.672 114.684 35.672C116.262 35.672 117.564 35.096 118.588 33.944C119.654 32.792 120.188 31.5333 120.188 30.168C120.188 28.76 119.676 27.4587 118.652 26.264C117.67 25.0693 116.326 24.472 114.62 24.472C112.956 24.472 111.59 25.0693 110.524 26.264C109.5 27.4587 108.988 28.76 108.988 30.168ZM155.625 13.272C159.891 13.272 163.433 14.9147 166.249 18.2C169.107 21.4427 170.537 25.4107 170.537 30.104V41.368C170.537 42.3493 170.494 43.096 170.409 43.608C170.366 44.0773 170.195 44.6107 169.897 45.208C169.299 46.36 167.635 46.936 164.905 46.936C161.875 46.936 160.126 46.1467 159.657 44.568C159.401 43.8427 159.273 42.7547 159.273 41.304V30.04C159.273 28.2907 158.761 26.9253 157.737 25.944C156.755 24.9627 155.411 24.472 153.705 24.472C152.041 24.472 150.675 24.984 149.609 26.008C148.585 27.032 148.073 28.376 148.073 30.04V41.368C148.073 42.3493 148.03 43.096 147.945 43.608C147.902 44.0773 147.71 44.6107 147.369 45.208C146.814 46.36 145.171 46.936 142.441 46.936C139.753 46.936 138.11 46.36 137.513 45.208C137.214 44.568 137.022 44.0133 136.937 43.544C136.894 43.032 136.873 42.2853 136.873 41.304V18.648C136.873 17.7093 136.894 17.0053 136.937 16.536C137.022 16.024 137.235 15.4693 137.577 14.872C138.174 13.8053 139.817 13.272 142.505 13.272C145.107 13.272 146.707 13.7627 147.305 14.744C147.731 15.4693 147.945 16.344 147.945 17.368C148.115 17.0693 148.499 16.6427 149.097 16.088C149.694 15.5333 150.27 15.0853 150.825 14.744C152.275 13.7627 153.875 13.272 155.625 13.272ZM208.197 26.136C208.197 28.7387 207.536 30.68 206.213 31.96C204.933 33.1973 203.504 33.816 201.925 33.816H186.757C186.757 35.0107 187.461 36.0133 188.869 36.824C190.277 37.6347 191.685 38.04 193.093 38.04C195.568 38.04 197.509 37.784 198.917 37.272L199.621 37.016C200.645 36.5467 201.498 36.312 202.181 36.312C203.546 36.312 204.72 37.272 205.701 39.192C206.256 40.344 206.533 41.3253 206.533 42.136C206.533 45.9333 201.989 47.832 192.901 47.832C189.744 47.832 186.928 47.2987 184.453 46.232C182.021 45.1227 180.122 43.672 178.757 41.88C176.069 38.424 174.725 34.5627 174.725 30.296C174.725 24.92 176.453 20.632 179.909 17.432C183.408 14.1893 187.76 12.568 192.965 12.568C198.896 12.568 203.248 14.6587 206.021 18.84C207.472 21.0587 208.197 23.4907 208.197 26.136ZM194.693 27.992C196.314 27.992 197.125 27.3093 197.125 25.944C197.125 24.9627 196.741 24.1733 195.973 23.576C195.248 22.9787 194.181 22.68 192.773 22.68C191.408 22.68 190.042 23.256 188.677 24.408C187.312 25.5173 186.629 26.712 186.629 27.992H194.693Z" fill="black" />
</svg>