<svg width="225" height="215" viewBox="0 0 225 215" fill="none" xmlns="http://www.w3.org/2000/svg">
  <g clip-path="url(#clip0)">
    <path d="M192.628 80.4861C180.962 34.6351 140.65 1.53713 93.3333 0.209594C68.3183 -0.492239 41.9956 7.79974 22.8306 36.8164C-11.4287 88.6867 24.936 124.531 50.2885 141.563C62.5368 149.808 73.5732 159.723 83.0781 171.019C100.203 191.329 133.147 216.568 172.382 177.023C200.82 148.36 200.399 111.027 192.628 80.4861Z" fill="#F2F2F2" />
    <path d="M224.294 182.594C224.294 193.849 175.155 214.784 113.256 214.784C51.3578 214.784 0.400024 195.147 0.400024 183.892C0.400024 172.637 51.3578 174.027 113.256 174.027C175.155 174.027 224.294 171.339 224.294 182.594Z" fill="#3F3D56" />
    <path opacity="0.1" d="M224.294 182.594C224.294 193.849 175.155 214.784 113.256 214.784C51.3578 214.784 0.400024 195.147 0.400024 183.892C0.400024 172.637 51.3578 174.027 113.256 174.027C175.155 174.027 224.294 171.339 224.294 182.594Z" fill="black" />
    <path d="M112.477 204.141C174.375 204.141 224.554 195.017 224.554 183.762C224.554 172.507 174.375 163.384 112.477 163.384C50.5786 163.384 0.400024 172.507 0.400024 183.762C0.400024 195.017 50.5786 204.141 112.477 204.141Z" fill="#3F3D56" />
    <path d="M154.907 114.455V168.957L164.029 183.814L164.723 184.944H200.713L201.44 114.455H154.907Z" fill="#2F2E41" />
    <path opacity="0.1" d="M154.907 114.455V168.957L164.029 183.814L164.588 114.455H154.907Z" fill="black" />
    <path d="M68.0223 113.002V167.503L58.9011 182.36L58.2068 183.49H22.2164L21.4894 113.002H68.0223Z" fill="#2F2E41" />
    <path opacity="0.1" d="M68.0223 113.002V167.503L58.9011 182.36L58.3411 113.002H68.0223Z" fill="black" />
    <path d="M212.346 111.912V115.182H16.7635V110.458L34.9402 101.011H196.35L212.346 111.912Z" fill="#2F2E41" />
    <path opacity="0.1" d="M212.346 111.912V115.182H16.7635V110.458L212.346 111.912Z" fill="black" />
    <path opacity="0.1" d="M44.7557 128.262H36.0309L32.3956 125.719H48.7547L44.7557 128.262Z" fill="black" />
    <path opacity="0.1" d="M44.7557 138.799H36.0309L32.3956 136.256H48.7547L44.7557 138.799Z" fill="black" />
    <path opacity="0.1" d="M44.7557 153.696H36.0309L32.3956 151.153H48.7547L44.7557 153.696Z" fill="black" />
    <path opacity="0.1" d="M44.7557 168.593H36.0309L32.3956 166.05H48.7547L44.7557 168.593Z" fill="black" />
    <path opacity="0.1" d="M178.174 129.716H186.899L190.534 127.172H174.175L178.174 129.716Z" fill="black" />
    <path opacity="0.1" d="M178.174 140.253H186.899L190.534 137.709H174.175L178.174 140.253Z" fill="black" />
    <path opacity="0.1" d="M178.174 155.15H186.899L190.534 152.606H174.175L178.174 155.15Z" fill="black" />
    <path opacity="0.1" d="M178.174 170.047H186.899L190.534 167.503H174.175L178.174 170.047Z" fill="black" />
    <path d="M138.715 91.9189L137.502 99.6569C137.502 99.6569 131.532 102.827 135.73 102.92C139.927 103.013 159.702 102.92 159.702 102.92C159.702 102.92 163.527 102.92 157.464 99.5637L156.251 91.4528L138.715 91.9189Z" fill="#3F3D56" />
    <path opacity="0.1" d="M134.885 102.836C135.7 102.177 136.577 101.598 137.502 101.105L138.715 93.3668L156.251 93.3833L157.464 101.012C158.46 101.526 159.399 102.143 160.266 102.855C161.044 102.677 161.895 102.017 157.464 99.5637L156.251 91.4528L138.715 91.9189L137.502 99.657C137.502 99.657 132.485 102.321 134.885 102.836Z" fill="black" />
    <path d="M184.115 37.9857H110.664C109.13 37.9857 107.886 39.2287 107.886 40.7621V90.2147C107.886 91.7481 109.13 92.9911 110.664 92.9911H184.115C185.649 92.9911 186.893 91.7481 186.893 90.2147V40.7621C186.893 39.2287 185.649 37.9857 184.115 37.9857Z" fill="#3F3D56" />
    <path d="M184.235 40.9224H110.544V82.1298H184.235V40.9224Z" fill="#F2F2F2" />
    <path d="M147.389 40.0833C147.647 40.0833 147.856 39.8746 147.856 39.6171C147.856 39.3597 147.647 39.151 147.389 39.151C147.132 39.151 146.923 39.3597 146.923 39.6171C146.923 39.8746 147.132 40.0833 147.389 40.0833Z" fill="#F2F2F2" />
    <path d="M186.893 85.3928V90.2146C186.893 90.5793 186.821 90.9403 186.682 91.2772C186.542 91.614 186.338 91.9201 186.08 92.1779C185.822 92.4358 185.515 92.6403 185.178 92.7798C184.841 92.9193 184.48 92.9911 184.115 92.991H110.664C110.299 92.9911 109.938 92.9193 109.601 92.7798C109.264 92.6403 108.957 92.4358 108.699 92.1779C108.441 91.9201 108.237 91.614 108.097 91.2772C107.958 90.9403 107.886 90.5793 107.886 90.2146V85.3928H186.893Z" fill="#3F3D56" />
    <path d="M147.389 90.9866C148.368 90.9866 149.162 90.1935 149.162 89.2152C149.162 88.2369 148.368 87.4438 147.389 87.4438C146.411 87.4438 145.617 88.2369 145.617 89.2152C145.617 90.1935 146.411 90.9866 147.389 90.9866Z" fill="#F2F2F2" />
    <path d="M144.628 107.954V108.887H94.4436V108.141L94.5127 107.954L95.7496 104.598H143.602L144.628 107.954Z" fill="#3F3D56" />
    <path d="M163.94 107.042C163.849 107.432 163.504 107.844 162.724 108.234C159.925 109.633 154.235 107.861 154.235 107.861C154.235 107.861 149.851 107.115 149.851 105.158C149.974 105.073 150.103 104.997 150.236 104.929C151.412 104.307 155.313 102.772 162.23 104.994C162.739 105.154 163.195 105.452 163.545 105.855C163.7 106.008 163.816 106.195 163.885 106.401C163.954 106.607 163.973 106.827 163.94 107.042Z" fill="#3F3D56" />
    <path opacity="0.1" d="M163.94 107.042C160.515 108.353 157.462 108.451 154.329 106.276C152.749 105.18 151.313 104.909 150.236 104.929C151.412 104.307 155.313 102.772 162.23 104.994C162.739 105.154 163.195 105.452 163.545 105.855C163.7 106.008 163.816 106.195 163.885 106.401C163.954 106.607 163.973 106.827 163.94 107.042Z" fill="black" />
    <path d="M159.646 106.276C160.315 106.276 160.858 106.109 160.858 105.903C160.858 105.697 160.315 105.53 159.646 105.53C158.976 105.53 158.433 105.697 158.433 105.903C158.433 106.109 158.976 106.276 159.646 106.276Z" fill="#F2F2F2" />
    <path opacity="0.1" d="M144.628 107.954V108.887H94.4436V108.141L94.5127 107.954H144.628Z" fill="black" />
    <path d="M173.306 60.3839C172.91 59.9881 167.829 53.5905 166.971 52.5352C166.047 51.4799 165.651 51.6778 165.057 51.7437C164.463 51.8097 158.062 52.9309 157.336 52.9969C156.61 53.1288 156.148 53.3926 156.61 54.0522C157.006 54.6458 161.23 60.5817 162.154 61.9668L145.326 65.99L131.996 43.6312C131.468 42.8398 131.336 42.576 130.148 42.6419C128.961 42.7078 119.656 43.4993 118.996 43.4993C118.336 43.5653 117.61 43.8291 118.27 45.412C118.93 46.9949 129.489 69.6835 129.752 70.3431C130.016 71.0026 130.808 72.0579 132.59 71.6622C134.438 71.2005 140.773 69.5516 144.27 68.6282C146.118 71.926 149.813 78.6534 150.539 79.6427C151.463 80.9618 152.123 80.698 153.509 80.3023C154.631 79.9725 170.798 74.1685 171.524 73.8387C172.25 73.5089 172.712 73.3111 172.184 72.5855C171.788 72.0579 167.565 66.3198 165.321 63.3518C166.839 62.9561 172.316 61.5051 172.91 61.3072C173.57 61.1093 173.702 60.7796 173.306 60.3838V60.3839ZM142.753 66.6496C142.555 66.7156 133.118 68.958 132.656 69.0899C132.128 69.2218 132.128 69.1559 132.128 68.958C131.996 68.7602 120.91 45.8078 120.712 45.5439C120.58 45.2801 120.58 45.0163 120.712 45.0163C120.844 45.0163 129.62 44.2248 129.884 44.2248C130.214 44.2248 130.148 44.2908 130.28 44.4887C130.28 44.4887 142.621 65.7922 142.818 66.122C143.082 66.4517 142.95 66.5836 142.753 66.6496V66.6496ZM169.281 71.5962C169.412 71.8601 169.61 71.992 169.083 72.1239C168.621 72.3217 153.179 77.5322 152.849 77.6641C152.519 77.796 152.321 77.862 151.925 77.2684C151.529 76.6748 146.514 68.0346 146.514 68.0346L162.945 63.7476C163.341 63.6157 163.473 63.5497 163.737 63.9454C164.001 64.4071 169.149 71.3984 169.281 71.5962V71.5962ZM170.336 59.9881C169.94 60.0541 163.935 61.571 163.935 61.571L158.986 54.8436C158.854 54.6458 158.722 54.4479 159.052 54.3819C159.382 54.316 164.991 53.3267 165.255 53.2607C165.519 53.1947 165.717 53.1288 166.047 53.5905C166.377 53.9862 170.6 59.3945 170.798 59.5924C170.996 59.7903 170.732 59.9222 170.336 59.9881V59.9881Z" fill="#FB503B" />
    <path d="M102.903 50.5684C108.389 50.5684 112.837 46.1231 112.837 40.6396C112.837 35.156 108.389 30.7107 102.903 30.7107C97.4163 30.7107 92.9686 35.156 92.9686 40.6396C92.9686 46.1231 97.4163 50.5684 102.903 50.5684Z" fill="#FFB9B9" />
    <path d="M95.5829 45.6039V61.281H111.791C111.791 61.281 109.7 48.2168 110.745 44.2975L95.5829 45.6039Z" fill="#FFB9B9" />
    <path d="M127.738 66.768C127.738 66.768 112.314 59.1907 112.314 58.6682C112.314 58.1456 110.745 54.7489 109.7 54.7489C108.654 54.7489 99.7656 51.8747 94.7986 56.0553L94.2757 59.452L75.1918 71.9937L80.4203 91.0676C80.4203 91.0676 83.8188 94.7256 82.7731 97.3384C81.7274 99.9513 83.5574 113.277 83.5574 113.277L124.601 111.97V94.203C124.601 94.203 125.908 90.0224 126.692 88.716C127.477 87.4096 126.692 83.4903 126.692 83.4903L132.966 75.6517C132.966 75.6517 132.182 68.3357 127.738 66.768Z" fill="#D0CDE1" />
    <path opacity="0.1" d="M75.8454 78.3953L77.0218 71.9938C77.0218 71.9938 70.2247 101.519 71.009 104.916C71.7933 108.312 77.5446 113.538 78.3289 113.799C79.1132 114.061 86.433 91.3289 86.433 91.3289L75.8454 78.3953Z" fill="black" />
    <path d="M79.636 71.2098L75.1918 71.9937C75.1918 71.9937 68.3948 101.519 69.1791 104.916C69.9633 108.312 75.7147 113.538 76.4989 113.799C77.2832 114.061 84.6031 91.3288 84.6031 91.3288L79.636 71.2098Z" fill="#D0CDE1" />
    <path opacity="0.1" d="M129.176 79.9629L131.398 75.6517C131.398 75.6517 134.535 105.177 132.444 108.051C130.352 110.925 122.079 112.001 122.079 112.001L121.987 90.545L129.176 79.9629Z" fill="black" />
    <path d="M129.568 72.255L132.967 75.6517C132.967 75.6517 136.104 105.177 134.012 108.051C131.921 110.925 123.648 112.001 123.648 112.001L123.555 90.545L129.568 72.255Z" fill="#D0CDE1" />
    <path d="M78.8517 117.196C78.8517 117.196 71.2704 114.322 69.9633 119.809C68.6562 125.296 73.1004 149.857 73.1004 149.857C73.1004 149.857 75.9761 168.408 77.806 168.931C79.636 169.453 87.7401 169.715 89.0473 167.363C90.3544 165.011 85.1259 140.973 85.1259 140.973L115.451 140.451C115.451 140.451 113.621 161.353 112.575 163.182C111.53 165.011 111.53 171.282 112.575 171.282C113.621 171.282 125.124 170.76 125.908 169.192C126.692 167.624 131.137 132.351 131.137 132.351C131.137 132.351 134.796 120.07 130.614 120.854C126.431 121.638 78.8517 117.196 78.8517 117.196Z" fill="#3F3D56" />
    <path d="M123.555 168.147C123.555 168.147 126.169 166.318 127.477 168.147C128.784 169.976 129.307 172.066 123.555 175.202C117.804 178.337 113.36 177.553 113.36 177.031V169.453L123.555 168.147Z" fill="#2F2E41" />
    <path d="M78.3289 167.363C78.3289 167.363 75.7147 165.534 74.4075 167.363C73.1004 169.192 72.5776 171.282 78.3289 174.418C84.0802 177.553 88.5244 176.769 88.5244 176.247V168.669L78.3289 167.363Z" fill="#2F2E41" />
    <path d="M102.967 28.1202C101.978 28.0858 100.99 28.2265 100.049 28.5358C99.3201 28.8288 98.6235 29.1972 97.9708 29.635L93.585 32.3609C93.2127 32.5219 92.8964 32.7896 92.6761 33.1301C92.4558 33.4706 92.3413 33.8687 92.3471 34.2741L91.799 38.3763C91.6607 39.4115 91.5332 40.5186 91.9969 41.4545C92.3839 42.2358 93.1219 42.7704 93.7288 43.3965C94.6999 44.4026 95.3536 45.672 95.6084 47.0467C95.9221 48.7594 95.7212 50.8219 97.0773 51.9149C97.8116 52.5068 98.8125 52.6187 99.7541 52.6737C102.329 52.824 104.913 52.7246 107.469 52.377C107.875 52.3465 108.271 52.2356 108.634 52.0505C109.095 51.778 109.385 51.2969 109.657 50.8353C110.636 49.1687 111.645 47.3958 111.635 45.4631C111.63 44.5069 111.385 43.48 111.844 42.6413C112.087 42.2848 112.35 41.9428 112.633 41.6172C113.202 40.8184 113.313 39.7922 113.405 38.8162C113.701 35.6987 113.392 33.3263 111.093 31.1303C108.947 29.0804 105.894 28.139 102.967 28.1202Z" fill="#2F2E41" />
    <path d="M78.5648 148.064L69.8399 192.392H74.2022L82.5637 148.791L78.5648 148.064Z" fill="#2F2E41" />
    <path d="M106.557 151.698L112.01 202.566H115.645L112.374 150.244L106.557 151.698Z" fill="#2F2E41" />
    <path d="M121.462 150.244L129.096 184.036H132.732L125.461 149.518L121.462 150.244Z" fill="#2F2E41" />
    <path d="M92.3792 150.244L91.2886 177.132H94.1969L96.3781 150.244H92.3792Z" fill="#2F2E41" />
    <path d="M72.3846 143.341C72.3846 143.341 66.568 104.463 82.9272 103.373C99.2863 102.283 122.553 103.373 122.553 103.373C122.553 103.373 136.004 102.283 132.005 143.341C132.005 143.341 135.64 155.331 102.922 154.241C70.2034 153.151 72.3846 143.341 72.3846 143.341Z" fill="#BF4B00" />
    <path d="M221.437 159.217C221.437 165.997 217.405 168.364 212.43 168.364C207.456 168.364 203.423 165.997 203.423 159.217C203.423 152.438 212.43 143.813 212.43 143.813C212.43 143.813 221.437 152.438 221.437 159.217Z" fill="#BF4B00" />
    <path d="M212.194 161.653L216.033 154.634L212.209 160.763L212.25 158.212L214.896 153.133L212.261 157.537L212.336 152.948L215.169 148.905L212.347 152.227L212.394 143.813L212.114 154.474L209.245 150.085L212.079 155.374L211.811 160.498L211.803 160.362L208.482 155.725L211.793 160.843L211.759 161.484L211.753 161.493L211.756 161.546L211.075 168.384H211.985L212.094 167.832L215.397 162.726L212.102 167.327L212.194 161.653Z" fill="#3F3D56" />
    <path d="M218.182 183.07H207.445L204.67 167.394H220.354L218.182 183.07Z" fill="#2F2E41" />
    <path d="M60.3995 77.0889H38.062V103.264H60.3995V77.0889Z" fill="#3F3D56" />
    <path d="M56.9333 81.1505H41.5282V99.2022H56.9333V81.1505Z" fill="#F2F2F2" />
    <path d="M50.7747 84.9844L49.2103 87.6924L47.6459 84.9844H42.4367L49.2103 96.7106L55.9839 84.9844H50.7747Z" fill="#4DBA87" />
    <path d="M50.7747 84.9844L49.2103 87.6924L47.6459 84.9844H45.1461L49.2103 92.0198L53.2745 84.9844H50.7747Z" fill="#435466" />
  </g>
  <defs>
    <clipPath id="clip0">
      <rect width="224.154" height="214.615" fill="white" transform="translate(0.400024 0.169189)" />
    </clipPath>
  </defs>
</svg>