<svg width="101" height="128" viewBox="0 0 101 128" fill="none" xmlns="http://www.w3.org/2000/svg">
<g clip-path="url(#clip0)">
<path fill-rule="evenodd" clip-rule="evenodd" d="M100.216 23.3525C100.253 23.4901 100.273 23.632 100.273 23.7746V45.9317C100.273 46.5106 99.9629 47.0452 99.4608 47.3332L80.8639 58.0402V79.2623C80.8639 79.8399 80.5569 80.373 80.0561 80.6638L41.2367 103.011C41.1478 103.061 41.0509 103.094 40.954 103.128C40.9176 103.14 40.8833 103.162 40.8449 103.172C40.5735 103.244 40.2883 103.244 40.0169 103.172C39.9725 103.16 39.9321 103.136 39.8897 103.12C39.8009 103.088 39.708 103.059 39.6232 103.011L0.811809 80.6638C0.309972 80.3755 0 79.8411 0 79.2623V12.7909C0 12.6455 0.0201943 12.5041 0.0565439 12.3668C0.0686605 12.3204 0.0969325 12.278 0.113088 12.2315C0.143379 12.1467 0.171651 12.0599 0.216079 11.9811C0.24637 11.9286 0.290797 11.8862 0.327147 11.8377C0.373594 11.7731 0.416002 11.7065 0.470526 11.6499C0.516973 11.6035 0.577556 11.5692 0.630061 11.5288C0.688624 11.4803 0.741129 11.4278 0.80777 11.3894H0.80979L20.2165 0.215941C20.7165 -0.0718174 21.3319 -0.0718174 21.832 0.215941L41.2387 11.3894H41.2427C41.3074 11.4298 41.3619 11.4803 41.4204 11.5267C41.473 11.5671 41.5315 11.6035 41.578 11.6479C41.6345 11.7065 41.6749 11.7731 41.7234 11.8377C41.7577 11.8862 41.8041 11.9286 41.8324 11.9811C41.8789 12.0619 41.9051 12.1467 41.9374 12.2315C41.9536 12.278 41.9818 12.3204 41.994 12.3688C42.0311 12.5065 42.0502 12.6484 42.0505 12.7909V54.3083L58.2221 44.9967V23.7725C58.2221 23.6312 58.2423 23.4878 58.2786 23.3525C58.2928 23.304 58.319 23.2616 58.3352 23.2152C58.3675 23.1304 58.3957 23.0435 58.4402 22.9648C58.4705 22.9123 58.5149 22.8699 58.5492 22.8214C58.5977 22.7568 58.6381 22.6901 58.6946 22.6336C58.7411 22.5871 58.7996 22.5528 58.8521 22.5124C58.9127 22.464 58.9652 22.4114 59.0298 22.3731H59.0319L78.4406 11.1996C78.9405 10.9114 79.5561 10.9114 80.0561 11.1996L99.4628 22.3731C99.5314 22.4135 99.584 22.464 99.6445 22.5104C99.695 22.5508 99.7536 22.5871 99.8 22.6316C99.8566 22.6901 99.897 22.7568 99.9454 22.8214C99.9818 22.8699 100.026 22.9123 100.054 22.9648C100.101 23.0435 100.127 23.1304 100.159 23.2152C100.178 23.2616 100.204 23.304 100.216 23.3525ZM97.0375 44.9967V26.5715L90.2461 30.4811L80.8639 35.883V54.3083L97.0395 44.9967H97.0375ZM77.6308 78.3273V59.89L68.402 65.1607L42.0485 80.2014V98.8124L77.6308 78.3273ZM3.23512 15.5878V78.3273L38.8134 98.8104V80.2034L20.2266 69.6842L20.2205 69.6801L20.2124 69.6761C20.1498 69.6398 20.0973 69.5872 20.0388 69.5428C19.9883 69.5024 19.9297 69.4701 19.8853 69.4257L19.8812 69.4196C19.8287 69.3692 19.7924 69.3066 19.748 69.25C19.7076 69.1955 19.6591 69.149 19.6268 69.0925L19.6248 69.0864C19.5884 69.0259 19.5662 68.9532 19.54 68.8845C19.5137 68.8239 19.4794 68.7674 19.4632 68.7027V68.7007C19.443 68.624 19.439 68.5432 19.4309 68.4644C19.4228 68.4039 19.4067 68.3433 19.4067 68.2827V68.2787V24.8994L10.0265 19.4954L3.23512 15.5898V15.5878ZM21.0263 3.48337L4.85672 12.7909L21.0222 22.0984L37.1897 12.7889L21.0222 3.48337H21.0263ZM29.4352 61.5701L38.8154 56.1702V15.5878L32.0241 19.4974L22.6418 24.8994V65.4818L29.4352 61.5701ZM79.2483 14.467L63.0808 23.7746L79.2483 33.0821L95.4138 23.7725L79.2483 14.467ZM77.6308 35.883L68.2485 30.4811L61.4572 26.5715V44.9967L70.8374 50.3967L77.6308 54.3083V35.883ZM40.4289 77.4044L64.143 63.8662L75.9971 57.1011L59.8417 47.7997L41.2407 58.5087L24.2876 68.2686L40.4289 77.4044Z" fill="#FF2D20"/>
<path fill-rule="evenodd" clip-rule="evenodd" d="M3.92851 103V123.391H11.306V126.909H0V103H3.92851V103ZM25.1725 113.144V110.992H28.8958V126.91H25.1734V124.757C24.6717 125.554 23.9612 126.181 23.0384 126.636C22.1164 127.091 21.1883 127.319 20.2548 127.319C19.0471 127.319 17.9428 127.098 16.9412 126.653C15.965 126.228 15.087 125.605 14.3621 124.825C13.6437 124.049 13.0766 123.146 12.6898 122.162C12.2867 121.14 12.0833 120.049 12.0908 118.95C12.0908 117.835 12.2899 116.77 12.6889 115.756C13.0733 114.765 13.6409 113.856 14.3621 113.075C15.0873 112.296 15.9652 111.674 16.9412 111.248C17.9428 110.804 19.0471 110.583 20.2548 110.583C21.1883 110.583 22.1164 110.81 23.0384 111.266C23.9604 111.721 24.6717 112.347 25.1734 113.144H25.1725ZM24.831 120.898C25.0603 120.274 25.1763 119.615 25.1734 118.951C25.1734 118.267 25.0584 117.619 24.831 117.005C24.6176 116.413 24.2933 115.868 23.8754 115.399C23.4583 114.938 22.9528 114.566 22.389 114.305C21.8085 114.033 21.1653 113.895 20.4601 113.895C19.7531 113.895 19.1152 114.033 18.5463 114.305C17.9895 114.569 17.4903 114.941 17.0775 115.399C16.661 115.866 16.3422 116.412 16.1396 117.004C15.9208 117.629 15.8106 118.288 15.814 118.95C15.814 119.633 15.922 120.283 16.1387 120.897C16.3546 121.513 16.6678 122.047 17.0784 122.503C17.491 122.961 17.9902 123.332 18.5472 123.596C19.1152 123.87 19.7531 124.006 20.4592 124.006C21.1653 124.006 21.8085 123.87 22.389 123.596C22.9529 123.335 23.4585 122.964 23.8754 122.503C24.2933 122.033 24.6176 121.489 24.831 120.898V120.898ZM31.8333 126.909V110.992H41.9439V114.656H35.5557V126.911H31.8333V126.909ZM55.4353 113.144V110.992H59.1586V126.91H55.4353V124.757C54.9345 125.554 54.2231 126.181 53.3003 126.636C52.3783 127.091 51.4511 127.319 50.5167 127.319C49.3099 127.319 48.2056 127.098 47.204 126.653C46.2278 126.228 45.3498 125.605 44.6248 124.825C43.9062 124.049 43.3388 123.146 42.9517 122.162C42.5489 121.14 42.3458 120.049 42.3536 118.95C42.3536 117.835 42.5526 116.77 42.9517 115.756C43.3358 114.765 43.9031 113.856 44.624 113.075C45.3494 112.295 46.2277 111.674 47.204 111.248C48.2056 110.804 49.3099 110.583 50.5167 110.583C51.4502 110.583 52.3783 110.81 53.3003 111.266C54.2231 111.721 54.9345 112.347 55.4353 113.144V113.144ZM55.0938 120.898C55.3228 120.274 55.4385 119.615 55.4353 118.951C55.4353 118.267 55.3203 117.619 55.0938 117.005C54.8804 116.413 54.5561 115.868 54.1382 115.399C53.7211 114.938 53.2156 114.566 52.6517 114.305C52.0713 114.033 51.4272 113.895 50.722 113.895C50.0159 113.895 49.378 114.033 48.8091 114.305C48.2522 114.569 47.7531 114.941 47.3403 115.399C46.9235 115.866 46.6043 116.411 46.4015 117.004C46.183 117.629 46.0731 118.288 46.0768 118.95C46.0768 119.633 46.1839 120.283 46.4015 120.897C46.6174 121.513 46.9306 122.047 47.3403 122.503C47.7529 122.961 48.2521 123.332 48.8091 123.596C49.378 123.87 50.0159 124.006 50.722 124.006C51.4272 124.006 52.0713 123.87 52.6517 123.596C53.2157 123.335 53.7213 122.964 54.1382 122.503C54.5561 122.033 54.8804 121.489 55.0938 120.898V120.898ZM74.0842 110.992H77.8552L71.7457 126.91H67.0651L60.9547 110.992H64.7257L69.4054 123.181L74.0842 110.992ZM85.9759 110.583C91.0449 110.583 94.5019 115.076 93.8524 120.334H81.5015C81.5015 121.707 82.888 124.362 86.1803 124.362C89.0117 124.362 90.9096 121.871 90.9105 121.869L93.4259 123.816C91.1768 126.216 89.3355 127.32 86.452 127.32C81.2998 127.32 77.8075 124.06 77.8075 118.951C77.8075 114.33 81.4166 110.583 85.9751 110.583H85.9759ZM81.5112 117.567H90.4336C90.4061 117.261 89.9221 113.54 85.9459 113.54C81.9687 113.54 81.5396 117.261 81.5112 117.567ZM96.2768 126.909V103H100V126.909H96.2768Z" fill="#FF2D20"/>
</g>
<defs>
<clipPath id="clip0">
<rect width="100.273" height="127.319" fill="white" transform="translate(0 0.00012207)"/>
</clipPath>
</defs>
</svg>
