<svg width="100" height="122" viewBox="0 0 100 122" fill="none" xmlns="http://www.w3.org/2000/svg">
<g clip-path="url(#clip0)">
<path fill-rule="evenodd" clip-rule="evenodd" d="M13.3813 104.665C13.5612 104.863 13.6871 105.133 13.6691 105.421V120.079C13.6691 120.385 13.5612 120.691 13.3453 120.924C13.2385 121.035 13.1098 121.123 12.9674 121.182C12.8251 121.241 12.672 121.269 12.518 121.266C12.3381 121.266 12.1583 121.23 11.9784 121.176C11.8331 121.126 11.703 121.039 11.6007 120.924L2.10432 108.568V120.187C2.10951 120.329 2.08502 120.471 2.03238 120.603C1.97975 120.736 1.90014 120.856 1.79861 120.955C1.69709 121.055 1.57589 121.133 1.44273 121.183C1.30956 121.234 1.16736 121.256 1.02518 121.248C0.755396 121.248 0.485612 121.14 0.305755 120.942C0.110097 120.747 0.000116315 120.482 0 120.205L0 105.511C0 105.205 0.125899 104.899 0.359712 104.683C0.460504 104.581 0.580856 104.499 0.713678 104.443C0.846499 104.388 0.989105 104.359 1.13309 104.36C1.31295 104.36 1.51079 104.396 1.67266 104.468C1.85252 104.522 1.9964 104.647 2.10432 104.773L11.5468 117.165V105.421C11.5416 105.279 11.5661 105.137 11.6187 105.004C11.6713 104.872 11.7509 104.752 11.8525 104.652C11.954 104.553 12.0752 104.475 12.2084 104.425C12.3415 104.374 12.4837 104.352 12.6259 104.36C12.8957 104.36 13.1655 104.45 13.3453 104.665H13.3813ZM32.9317 104.701C33.1295 104.935 33.2554 105.241 33.2374 105.529V114.809C33.2554 115.996 32.9676 117.183 32.3921 118.227C31.8525 119.234 31.0432 120.061 30.054 120.619C29.0468 121.212 27.8957 121.518 26.7086 121.5C25.5396 121.5 24.3705 121.212 23.3273 120.637C22.3432 120.077 21.5338 119.255 20.9892 118.263C20.4155 117.21 20.1243 116.026 20.1439 114.827V105.547C20.1439 105.241 20.2518 104.935 20.5036 104.719C20.7282 104.503 21.028 104.382 21.3399 104.382C21.6519 104.382 21.9517 104.503 22.1763 104.719C22.3921 104.935 22.518 105.223 22.518 105.547V114.791C22.5 115.583 22.6978 116.356 23.0935 117.058C23.4576 117.695 23.9836 118.226 24.6184 118.595C25.2531 118.965 25.9742 119.16 26.7086 119.162C27.2816 119.164 27.8493 119.053 28.3786 118.833C28.9079 118.614 29.3884 118.292 29.7918 117.885C30.1953 117.478 30.5137 116.995 30.7285 116.464C30.9434 115.933 31.0503 115.364 31.0432 114.791V105.547C31.0432 105.241 31.1331 104.935 31.3309 104.701C31.5468 104.468 31.8345 104.342 32.1403 104.36C32.446 104.36 32.7338 104.486 32.9317 104.701V104.701ZM51.6187 119.414C51.7563 119.614 51.8257 119.854 51.8165 120.097C51.8345 120.403 51.7086 120.709 51.4748 120.924C51.2641 121.119 50.9883 121.228 50.7014 121.23C50.3237 121.248 49.964 121.05 49.7482 120.745L45.0719 114.486L40.4676 120.745C40.3659 120.9 40.2271 121.027 40.0638 121.115C39.9005 121.203 39.7179 121.249 39.5324 121.248C39.2446 121.248 38.9928 121.14 38.795 120.942C38.6151 120.763 38.4892 120.511 38.4892 120.259C38.4892 119.971 38.5971 119.683 38.777 119.468L43.741 112.723L38.759 106.032C38.5812 105.815 38.4917 105.539 38.5084 105.259C38.5251 104.979 38.6467 104.716 38.8489 104.522C39.0184 104.348 39.2392 104.233 39.4788 104.194C39.7184 104.155 39.9642 104.194 40.1799 104.306C40.353 104.385 40.5019 104.51 40.6115 104.665L45.2518 110.889L49.8201 104.719C50.018 104.414 50.3597 104.216 50.7374 104.18C51.0252 104.18 51.313 104.324 51.5108 104.54C51.7086 104.719 51.8345 104.989 51.8525 105.259C51.8525 105.529 51.7626 105.763 51.6007 105.978L46.5647 112.669L51.6007 119.414H51.6187ZM68.9748 104.665C69.1906 104.863 69.3345 105.169 69.3165 105.475C69.3165 105.781 69.1906 106.068 68.9568 106.266C68.741 106.464 68.4353 106.572 68.1295 106.554H63.8489V120.115C63.8489 120.421 63.741 120.709 63.5072 120.924C63.2639 121.139 62.9505 121.258 62.6259 121.258C62.3013 121.258 61.9879 121.139 61.7446 120.924C61.6325 120.821 61.5428 120.696 61.481 120.557C61.4191 120.418 61.3864 120.267 61.3849 120.115V106.554H57.1043C56.7986 106.554 56.5108 106.464 56.277 106.248C56.1655 106.146 56.0774 106.02 56.0184 105.881C55.9595 105.741 55.9311 105.59 55.9353 105.439C55.9353 105.151 56.0432 104.863 56.259 104.665C56.4928 104.45 56.7986 104.342 57.0863 104.36H68.1295C68.4353 104.36 68.741 104.45 68.9748 104.665Z" fill="#2E495E"/>
<path fill-rule="evenodd" clip-rule="evenodd" d="M74.2266 120.835C73.4533 120.403 72.7878 119.755 72.3381 118.982C72.2122 118.802 72.1403 118.568 72.1223 118.335C72.1223 118.029 72.2482 117.741 72.482 117.543C72.6799 117.327 72.9497 117.219 73.2374 117.183C73.6691 117.237 74.0648 117.453 74.3166 117.795C74.8561 118.694 75.8273 119.234 76.8525 119.198C77.2663 119.21 77.6782 119.139 78.064 118.989C78.4498 118.839 78.8015 118.613 79.0984 118.324C79.3952 118.036 79.6311 117.691 79.7922 117.309C79.9533 116.928 80.0362 116.518 80.036 116.104V105.529C80.0327 105.373 80.0631 105.219 80.1252 105.076C80.1873 104.933 80.2796 104.805 80.3957 104.701C80.6295 104.486 80.9353 104.36 81.241 104.36C81.5648 104.36 81.8705 104.468 82.1043 104.683C82.2112 104.792 82.295 104.922 82.3507 105.064C82.4063 105.206 82.4326 105.358 82.4281 105.511V116.122C82.4477 117.074 82.2068 118.012 81.7312 118.837C81.2557 119.661 80.5637 120.339 79.7302 120.799C78.8954 121.274 77.9526 121.526 76.9921 121.533C76.0316 121.539 75.0856 121.299 74.2446 120.835H74.2266ZM90.8633 120.906C89.9101 120.547 89.0288 120.007 88.2734 119.288C88.1237 119.172 88.001 119.026 87.914 118.858C87.827 118.69 87.7778 118.505 87.7698 118.317C87.7716 118.167 87.8045 118.019 87.8664 117.883C87.9284 117.747 88.018 117.625 88.1295 117.525C88.2288 117.419 88.3484 117.334 88.4813 117.275C88.6142 117.217 88.7576 117.185 88.9029 117.183C89.1727 117.183 89.4065 117.273 89.6043 117.453C90.1799 117.993 90.8633 118.442 91.5828 118.766C92.3381 119.054 93.1295 119.198 93.9209 119.198C94.8202 119.216 95.7194 118.982 96.4928 118.478C97.1223 118.119 97.536 117.453 97.536 116.716C97.554 115.942 97.1583 115.205 96.4928 114.773C95.5258 114.212 94.4658 113.828 93.3633 113.64C91.7086 113.281 90.4317 112.741 89.5324 111.968C88.6331 111.194 88.2015 110.115 88.2015 108.748C88.1835 107.849 88.4353 106.968 88.9568 106.23C89.4784 105.511 90.1799 104.935 91.0072 104.576C92.8728 103.831 94.9469 103.799 96.8346 104.486C97.6367 104.753 98.3726 105.188 98.9928 105.763C99.3166 106.014 99.5324 106.392 99.5324 106.788C99.5328 106.932 99.5043 107.074 99.4487 107.207C99.3931 107.34 99.3115 107.46 99.2086 107.561C99.1111 107.675 98.9897 107.767 98.853 107.829C98.7162 107.891 98.5675 107.923 98.4173 107.921C98.2374 107.921 98.0216 107.849 97.8777 107.723C96.8199 106.775 95.4495 106.25 94.0288 106.248C93.1295 106.194 92.2302 106.428 91.4568 106.896C91.1638 107.091 90.9235 107.356 90.7573 107.667C90.5911 107.977 90.5042 108.324 90.5042 108.676C90.5042 109.029 90.5911 109.375 90.7573 109.686C90.9235 109.997 91.1638 110.261 91.4568 110.457C92.336 110.975 93.297 111.34 94.2986 111.536C95.3597 111.734 96.3849 112.076 97.3741 112.489C98.1295 112.831 98.777 113.353 99.2266 114.036C99.6943 114.827 99.9101 115.709 99.8741 116.626C99.8921 117.525 99.6223 118.389 99.1007 119.108C98.5612 119.863 97.8058 120.439 96.9425 120.799C94.9853 121.547 92.8278 121.585 90.8453 120.906H90.8633Z" fill="#00C48D"/>
<path d="M30.3986 71.7667C30.3244 71.6354 30.2582 71.4997 30.2004 71.3604C29.8008 70.4358 29.6777 69.4152 29.8462 68.4222H6.20549L41.3386 6.59527L52.8726 26.8708L56.2171 20.9529L46.1628 3.24025C45.6809 2.33297 44.9792 1.561 44.1218 0.994941C43.2645 0.428885 42.279 0.0868084 41.2553 0C40.2341 0.0467583 39.2464 0.379133 38.4047 0.959335C37.5629 1.53954 36.9009 2.34429 36.4938 3.28207L0.902204 65.8591C0.370103 66.7427 0.0633028 67.7435 0.00879577 68.7735C-0.0457113 69.8035 0.153745 70.8311 0.589616 71.7659C1.13711 72.629 1.91517 73.3216 2.83581 73.7655C3.75644 74.2094 4.78292 74.3868 5.79914 74.2777H35.6081C34.5918 74.3886 33.5648 74.212 32.6439 73.7681C31.7229 73.3242 30.945 72.6308 30.3986 71.7667Z" fill="#00C492"/>
<path d="M98.9354 65.8591L69.6892 14.3367C69.2095 13.4197 68.5065 12.6384 67.6452 12.0648C66.7839 11.4912 65.7919 11.1439 64.7609 11.0548C63.7403 11.0988 62.7527 11.4289 61.9107 12.0074C61.0687 12.5859 60.4064 13.3894 59.9993 14.3264L56.2172 20.953L59.5825 26.8709L64.7912 17.6501L93.7259 68.4223H82.7233C82.8641 69.2616 82.7852 70.123 82.4941 70.9228C82.4329 71.0994 82.3562 71.2702 82.2648 71.4334L82.1711 71.6209C81.5732 72.4651 80.7766 73.149 79.8516 73.6123C78.9267 74.0755 77.9019 74.3038 76.8678 74.277H94.0801C95.1144 74.3048 96.1396 74.0769 97.0647 73.6136C97.9898 73.1503 98.7862 72.4658 99.3834 71.6209C99.8548 70.7146 100.063 69.6944 99.9835 68.6759C99.9043 67.6575 99.5412 66.6816 98.9354 65.8591Z" fill="#008776"/>
<path d="M82.1711 71.6208L82.2649 71.4333C82.3562 71.2702 82.433 71.0993 82.4942 70.9227C82.7853 70.123 82.8642 69.2615 82.7234 68.4222C82.5613 67.5169 82.2365 66.6485 81.7648 65.8591L59.6042 26.8708L56.218 20.9529L52.8527 26.8708L30.7016 65.86C30.2717 66.659 29.9827 67.5261 29.8473 68.4232C29.6691 69.4132 29.7813 70.4337 30.1704 71.3614C30.2281 71.5007 30.2943 71.6364 30.3686 71.7677C30.9163 72.6306 31.6944 73.3231 32.6151 73.7668C33.5357 74.2106 34.5622 74.3879 35.5783 74.2787H76.8367C77.876 74.3092 78.9067 74.0826 79.8373 73.6189C80.7679 73.1552 81.5696 72.4688 82.1711 71.6208H82.1711ZM56.2173 32.7888L76.472 68.4222H35.973L56.2173 32.7888Z" fill="#2D4A5D"/>
</g>
<defs>
<clipPath id="clip0">
<rect width="99.9999" height="121.533" fill="white"/>
</clipPath>
</defs>
</svg>
