<svg width="157" height="37" viewBox="0 0 157 37" fill="none" xmlns="http://www.w3.org/2000/svg">
    <path d="M0.92 5.04C0.92 4.304 0.936 3.76 0.968 3.408C1.032 3.024 1.192 2.592 1.448 2.112C1.896 1.248 3.144 0.815998 5.192 0.815998C7.432 0.815998 8.76 1.408 9.176 2.592C9.336 3.136 9.416 3.968 9.416 5.088V31.776C9.416 32.544 9.384 33.104 9.32 33.456C9.288 33.808 9.144 34.224 8.888 34.704C8.44 35.568 7.192 36 5.144 36C2.904 36 1.592 35.392 1.208 34.176C1.016 33.664 0.92 32.848 0.92 31.728V5.04ZM21.5041 14.064C23.0081 11.792 24.8161 10.656 26.9281 10.656C30.1921 10.656 32.6241 12.048 34.2241 14.832C34.5761 14.352 34.9921 13.856 35.4721 13.344C35.9841 12.8 36.7841 12.224 37.8721 11.616C38.9601 10.976 40.0801 10.656 41.2321 10.656C43.7921 10.656 45.9361 11.648 47.6641 13.632C49.3921 15.584 50.2561 18.832 50.2561 23.376V31.776C50.2561 32.512 50.2241 33.072 50.1601 33.456C50.1281 33.808 49.9841 34.224 49.7281 34.704C49.3121 35.568 48.0801 36 46.0321 36C44.0161 36 42.7841 35.552 42.3361 34.656C42.1121 34.176 41.9681 33.76 41.9041 33.408C41.8721 33.024 41.8561 32.464 41.8561 31.728V23.328C41.8561 20.544 40.8641 19.152 38.8801 19.152C37.7601 19.152 36.9921 19.52 36.5761 20.256C36.1921 20.992 36.0001 22.032 36.0001 23.376V31.776C36.0001 32.544 35.9681 33.104 35.9041 33.456C35.8721 33.808 35.7281 34.224 35.4721 34.704C35.0241 35.568 33.7761 36 31.7281 36C29.7121 36 28.4801 35.552 28.0321 34.656C27.8081 34.176 27.6641 33.76 27.6001 33.408C27.5681 33.024 27.5521 32.464 27.5521 31.728V23.328C27.5521 20.544 26.5601 19.152 24.5761 19.152C22.6561 19.152 21.6961 20.544 21.6961 23.328V31.824C21.6961 32.56 21.6641 33.12 21.6001 33.504C21.5681 33.856 21.4241 34.272 21.1681 34.752C20.6881 35.584 19.4401 36 17.4241 36C15.4081 36 14.1761 35.568 13.7281 34.704C13.5041 34.224 13.3601 33.808 13.2961 33.456C13.2641 33.104 13.2481 32.544 13.2481 31.776V14.88C13.2481 14.144 13.2641 13.6 13.2961 13.248C13.3601 12.864 13.5201 12.448 13.7761 12C14.2561 11.136 15.3921 10.704 17.1841 10.704C18.9761 10.704 20.1441 10.992 20.6881 11.568C21.2321 12.144 21.5041 12.976 21.5041 14.064ZM71.2603 10.992C71.8683 11.184 72.3643 11.52 72.7483 12C73.1643 12.448 73.3723 13.184 73.3723 14.208C73.3723 15.232 73.0683 16.352 72.4603 17.568C71.8523 18.784 70.9723 19.392 69.8203 19.392C69.2443 19.392 68.6843 19.264 68.1403 19.008C67.6283 18.752 66.9403 18.624 66.0763 18.624C65.2123 18.624 64.3963 18.928 63.6283 19.536C62.8923 20.144 62.5243 20.88 62.5243 21.744V31.824C62.5243 32.56 62.4923 33.12 62.4283 33.504C62.3963 33.856 62.2523 34.272 61.9963 34.752C61.5163 35.584 60.2683 36 58.2523 36C56.7163 36 55.6123 35.728 54.9403 35.184C54.4283 34.736 54.1403 34.048 54.0763 33.12C54.0763 32.8 54.0763 32.336 54.0763 31.728V14.88C54.0763 14.144 54.0923 13.6 54.1243 13.248C54.1883 12.864 54.3323 12.448 54.5563 12C55.0043 11.136 56.2523 10.704 58.3003 10.704C60.2203 10.704 61.4203 11.072 61.9003 11.808C62.2523 12.32 62.4283 12.848 62.4283 13.392C62.5883 13.168 62.8123 12.896 63.1003 12.576C63.4203 12.256 64.0763 11.824 65.0683 11.28C66.0603 10.736 66.9243 10.464 67.6603 10.464C68.4283 10.464 69.0683 10.512 69.5803 10.608C70.0923 10.672 70.6523 10.8 71.2603 10.992ZM90.9766 13.392C91.1686 11.6 92.4326 10.704 94.7686 10.704C96.0166 10.704 96.9446 10.8 97.5526 10.992C98.1606 11.184 98.5766 11.52 98.8006 12C99.0566 12.48 99.2006 12.912 99.2326 13.296C99.2966 13.648 99.3286 14.192 99.3286 14.928V31.728C99.3286 32.464 99.2966 33.024 99.2326 33.408C99.2006 33.76 99.0726 34.176 98.8486 34.656C98.4006 35.488 97.2966 35.904 95.5366 35.904C93.8086 35.904 92.6406 35.696 92.0326 35.28C91.4566 34.832 91.1206 34.192 91.0246 33.36C89.8406 35.056 87.8566 35.904 85.0726 35.904C82.3206 35.904 79.7606 34.64 77.3926 32.112C75.0246 29.584 73.8406 26.656 73.8406 23.328C73.8406 19.968 75.0246 17.04 77.3926 14.544C79.7926 12.016 82.4166 10.752 85.2646 10.752C86.3526 10.752 87.3446 10.944 88.2406 11.328C89.1366 11.712 89.7606 12.08 90.1126 12.432C90.4646 12.752 90.7526 13.072 90.9766 13.392ZM82.2406 23.376C82.2406 24.432 82.6566 25.392 83.4886 26.256C84.3206 27.088 85.3286 27.504 86.5126 27.504C87.6966 27.504 88.6726 27.072 89.4406 26.208C90.2406 25.344 90.6406 24.4 90.6406 23.376C90.6406 22.32 90.2566 21.344 89.4886 20.448C88.7526 19.552 87.7446 19.104 86.4646 19.104C85.2166 19.104 84.1926 19.552 83.3926 20.448C82.6246 21.344 82.2406 22.32 82.2406 23.376ZM117.218 10.704C120.418 10.704 123.074 11.936 125.186 14.4C127.33 16.832 128.402 19.808 128.402 23.328V31.776C128.402 32.512 128.37 33.072 128.306 33.456C128.274 33.808 128.146 34.208 127.922 34.656C127.474 35.52 126.226 35.952 124.178 35.952C121.906 35.952 120.594 35.36 120.242 34.176C120.05 33.632 119.954 32.816 119.954 31.728V23.28C119.954 21.968 119.57 20.944 118.802 20.208C118.066 19.472 117.058 19.104 115.778 19.104C114.53 19.104 113.506 19.488 112.706 20.256C111.938 21.024 111.554 22.032 111.554 23.28V31.776C111.554 32.512 111.522 33.072 111.458 33.456C111.426 33.808 111.282 34.208 111.026 34.656C110.61 35.52 109.378 35.952 107.33 35.952C105.314 35.952 104.082 35.52 103.634 34.656C103.41 34.176 103.266 33.76 103.202 33.408C103.17 33.024 103.154 32.464 103.154 31.728V14.736C103.154 14.032 103.17 13.504 103.202 13.152C103.266 12.768 103.426 12.352 103.682 11.904C104.13 11.104 105.362 10.704 107.378 10.704C109.33 10.704 110.53 11.072 110.978 11.808C111.298 12.352 111.458 13.008 111.458 13.776C111.586 13.552 111.874 13.232 112.322 12.816C112.77 12.4 113.202 12.064 113.618 11.808C114.706 11.072 115.906 10.704 117.218 10.704ZM156.648 20.352C156.648 22.304 156.152 23.76 155.16 24.72C154.2 25.648 153.128 26.112 151.944 26.112H140.568C140.568 27.008 141.096 27.76 142.152 28.368C143.208 28.976 144.264 29.28 145.32 29.28C147.176 29.28 148.632 29.088 149.688 28.704L150.216 28.512C150.984 28.16 151.624 27.984 152.136 27.984C153.16 27.984 154.04 28.704 154.776 30.144C155.192 31.008 155.4 31.744 155.4 32.352C155.4 35.2 151.992 36.624 145.176 36.624C142.808 36.624 140.696 36.224 138.84 35.424C137.016 34.592 135.592 33.504 134.568 32.16C132.552 29.568 131.544 26.672 131.544 23.472C131.544 19.44 132.84 16.224 135.432 13.824C138.056 11.392 141.32 10.176 145.224 10.176C149.672 10.176 152.936 11.744 155.016 14.88C156.104 16.544 156.648 18.368 156.648 20.352ZM146.52 21.744C147.736 21.744 148.344 21.232 148.344 20.208C148.344 19.472 148.056 18.88 147.48 18.432C146.936 17.984 146.136 17.76 145.08 17.76C144.056 17.76 143.032 18.192 142.008 19.056C140.984 19.888 140.472 20.784 140.472 21.744H146.52Z" fill="#2297B0"/>
</svg>
