<svg width="20" height="20" viewBox="0 0 20 20" fill="none" xmlns="http://www.w3.org/2000/svg">
    <path fill-rule="evenodd" clip-rule="evenodd" d="M9.99936 0C4.47749 0 0 4.59024 0 10.2539C0 14.7833 2.865 18.6263 6.83937 19.9823C7.33937 20.0765 7.52187 19.7599 7.52187 19.4882C7.52187 19.2447 7.51311 18.6 7.50811 17.7445C4.72624 18.3642 4.13938 16.37 4.13938 16.37C3.685 15.1857 3.02938 14.8704 3.02938 14.8704C2.12125 14.2341 3.09812 14.2469 3.09812 14.2469C4.10124 14.3193 4.62936 15.3036 4.62936 15.3036C5.52186 16.8704 6.97 16.418 7.54 16.1553C7.63063 15.4927 7.88937 15.0409 8.175 14.7846C5.95437 14.5257 3.62 13.6464 3.62 9.71752C3.62 8.598 4.00938 7.68289 4.64938 6.9658C4.54625 6.70626 4.20313 5.66428 4.74688 4.25254C4.74688 4.25254 5.58687 3.97697 7.49687 5.30349C8.295 5.07599 9.15001 4.96257 10.0006 4.95808C10.85 4.96257 11.7056 5.07599 12.5044 5.30349C14.4131 3.97697 15.2513 4.25254 15.2513 4.25254C15.7969 5.66428 15.4537 6.70626 15.3506 6.9658C15.9919 7.68289 16.3788 8.598 16.3788 9.71752C16.3788 13.6561 14.0406 14.5231 11.8131 14.7768C12.1719 15.0934 12.4919 15.7189 12.4919 16.6756C12.4919 18.0464 12.4794 19.1518 12.4794 19.4882C12.4794 19.7625 12.6594 20.0816 13.1669 19.981C17.1375 18.6225 20 14.782 20 10.2539C20 4.59024 15.5225 0 9.99936 0Z" fill="#363636"/>
</svg>
