<svg width="108" height="138" viewBox="0 0 108 138" fill="none" xmlns="http://www.w3.org/2000/svg">
<path d="M104 50C104 22.3858 81.6142 0 54 0C26.3858 0 4 22.3858 4 50C4 77.6142 26.3858 100 54 100C81.6142 100 104 77.6142 104 50Z" fill="#00A672"/>
<path fill-rule="evenodd" clip-rule="evenodd" d="M20.4252 50.031C20.5051 70.4912 37.2978 84.0115 54.2765 83.5937C74.3191 82.8785 88.7978 65.4693 87.5937 49.9293C87.3146 46.7015 84.4517 44.1998 81.2177 44.3551C77.9835 44.5101 75.4874 47.2572 75.6427 50.491C76.0956 59.9353 67.3861 71.5025 53.988 71.8736C43.3456 72.1353 32.6908 63.7793 32.2242 50.7748C32.0997 53.7898 29.7228 56.2515 26.6529 56.374C23.4177 56.5031 20.5726 53.8926 20.4435 50.6578C20.4351 50.4488 20.429 50.24 20.4252 50.031Z" fill="url(#paint0_linear)"/>
<path d="M48.0535 50.3477C48.0535 47.0283 50.7476 44.3375 54.0673 44.3375C57.3871 44.3375 60.0814 47.0283 60.0814 50.3477C60.0814 53.667 57.3871 56.3578 54.0673 56.3578C50.7476 56.3578 48.0535 53.667 48.0535 50.3477Z" fill="white"/>
<path d="M66.5719 50.3389C66.5719 47.0244 69.2832 44.3375 72.628 44.3375H81.4537C84.7985 44.3375 87.5938 47.0244 87.5938 50.3389C87.5938 53.6533 84.7985 56.3403 81.4537 56.3403H72.628C69.2832 56.3403 66.5719 53.6533 66.5719 50.3389Z" fill="white"/>
<path fill-rule="evenodd" clip-rule="evenodd" d="M59.9149 22.2672C60.0491 25.5017 57.5356 28.2328 54.3004 28.3672C40.3352 28.9471 31.8096 39.8912 32.2247 50.283C32.3538 53.5178 29.8883 56.2449 26.653 56.374C23.4178 56.5031 20.5727 53.8926 20.4435 50.6576C19.7673 33.7234 33.9088 16.9824 53.8139 16.6536C57.0491 16.5193 59.7805 19.0326 59.9149 22.2672Z" fill="white"/>
<path d="M9.984 129.24C8.112 129.24 6.528 128.888 5.232 128.184C3.952 127.48 2.976 126.48 2.304 125.184C1.632 123.888 1.296 122.352 1.296 120.576C1.296 118.784 1.64 117.24 2.328 115.944C3.016 114.632 4.008 113.624 5.304 112.92C6.6 112.2 8.152 111.84 9.96 111.84C11.144 111.84 12.256 112.016 13.296 112.368C14.336 112.704 15.2 113.176 15.888 113.784L14.856 116.184C14.104 115.592 13.336 115.168 12.552 114.912C11.768 114.656 10.904 114.528 9.96 114.528C8.168 114.528 6.808 115.048 5.88 116.088C4.968 117.128 4.512 118.624 4.512 120.576C4.512 122.544 4.984 124.04 5.928 125.064C6.872 126.088 8.272 126.6 10.128 126.6C10.656 126.6 11.192 126.56 11.736 126.48C12.296 126.384 12.848 126.248 13.392 126.072V122.136H9.504V119.856H15.96V127.992C15.176 128.376 14.248 128.68 13.176 128.904C12.104 129.128 11.04 129.24 9.984 129.24ZM19.2319 129V117.264H22.1599V119.328C22.7359 117.936 23.9679 117.168 25.8559 117.024L26.7679 116.952L26.9599 119.496L25.2319 119.664C23.2639 119.856 22.2799 120.864 22.2799 122.688V129H19.2319ZM28.4383 114.744V111.816H31.7983V114.744H28.4383ZM28.6303 129V117.264H31.6303V129H28.6303ZM39.2595 129.24C38.2355 129.24 37.3315 128.992 36.5475 128.496C35.7795 128 35.1795 127.296 34.7475 126.384C34.3155 125.456 34.0995 124.368 34.0995 123.12C34.0995 121.856 34.3155 120.776 34.7475 119.88C35.1795 118.968 35.7795 118.264 36.5475 117.768C37.3315 117.272 38.2355 117.024 39.2595 117.024C40.0915 117.024 40.8435 117.208 41.5155 117.576C42.1875 117.944 42.6915 118.432 43.0275 119.04V112.08H46.0275V129H43.0995V127.056C42.7795 127.728 42.2755 128.264 41.5875 128.664C40.8995 129.048 40.1235 129.24 39.2595 129.24ZM40.0995 126.96C40.9955 126.96 41.7155 126.64 42.2595 126C42.8035 125.344 43.0755 124.384 43.0755 123.12C43.0755 121.84 42.8035 120.888 42.2595 120.264C41.7155 119.624 40.9955 119.304 40.0995 119.304C39.2035 119.304 38.4835 119.624 37.9395 120.264C37.3955 120.888 37.1235 121.84 37.1235 123.12C37.1235 124.384 37.3955 125.344 37.9395 126C38.4835 126.64 39.2035 126.96 40.0995 126.96ZM53.4341 129.24C52.4421 129.24 51.5141 129.12 50.6501 128.88C49.7861 128.64 49.0661 128.296 48.4901 127.848L49.2581 125.88C49.8501 126.28 50.5141 126.592 51.2501 126.816C51.9861 127.024 52.7221 127.128 53.4581 127.128C54.2261 127.128 54.7941 127 55.1621 126.744C55.5461 126.472 55.7381 126.12 55.7381 125.688C55.7381 125.016 55.2421 124.584 54.2501 124.392L51.8501 123.936C49.8181 123.552 48.8021 122.496 48.8021 120.768C48.8021 120 49.0101 119.336 49.4261 118.776C49.8581 118.216 50.4501 117.784 51.2021 117.48C51.9541 117.176 52.8181 117.024 53.7941 117.024C54.6261 117.024 55.4261 117.144 56.1941 117.384C56.9621 117.608 57.6181 117.952 58.1621 118.416L57.3461 120.384C56.8821 120 56.3221 119.696 55.6661 119.472C55.0261 119.248 54.4101 119.136 53.8181 119.136C53.0341 119.136 52.4501 119.272 52.0661 119.544C51.6981 119.816 51.5141 120.176 51.5141 120.624C51.5141 121.328 51.9701 121.76 52.8821 121.92L55.2821 122.376C56.3221 122.568 57.1061 122.92 57.6341 123.432C58.1781 123.944 58.4501 124.632 58.4501 125.496C58.4501 126.664 57.9941 127.584 57.0821 128.256C56.1701 128.912 54.9541 129.24 53.4341 129.24ZM66.2089 129.24C64.9929 129.24 63.9369 128.992 63.0409 128.496C62.1449 128 61.4489 127.296 60.9529 126.384C60.4569 125.456 60.2089 124.368 60.2089 123.12C60.2089 121.872 60.4569 120.792 60.9529 119.88C61.4489 118.968 62.1449 118.264 63.0409 117.768C63.9369 117.272 64.9929 117.024 66.2089 117.024C67.4249 117.024 68.4809 117.272 69.3769 117.768C70.2729 118.264 70.9689 118.968 71.4649 119.88C71.9609 120.792 72.2089 121.872 72.2089 123.12C72.2089 124.368 71.9609 125.456 71.4649 126.384C70.9689 127.296 70.2729 128 69.3769 128.496C68.4809 128.992 67.4249 129.24 66.2089 129.24ZM66.2089 126.96C67.1049 126.96 67.8249 126.64 68.3689 126C68.9129 125.344 69.1849 124.384 69.1849 123.12C69.1849 121.84 68.9129 120.888 68.3689 120.264C67.8249 119.624 67.1049 119.304 66.2089 119.304C65.3129 119.304 64.5929 119.624 64.0489 120.264C63.5049 120.888 63.2329 121.84 63.2329 123.12C63.2329 124.384 63.5049 125.344 64.0489 126C64.5929 126.64 65.3129 126.96 66.2089 126.96ZM74.733 129V117.264H77.661V119.064C78.013 118.424 78.501 117.928 79.125 117.576C79.749 117.208 80.469 117.024 81.285 117.024C83.045 117.024 84.197 117.792 84.741 119.328C85.109 118.608 85.637 118.048 86.325 117.648C87.013 117.232 87.797 117.024 88.677 117.024C91.317 117.024 92.637 118.632 92.637 121.848V129H89.637V121.968C89.637 121.072 89.485 120.416 89.181 120C88.893 119.584 88.397 119.376 87.693 119.376C86.909 119.376 86.293 119.656 85.845 120.216C85.397 120.76 85.173 121.52 85.173 122.496V129H82.173V121.968C82.173 121.072 82.021 120.416 81.717 120C81.429 119.584 80.941 119.376 80.253 119.376C79.469 119.376 78.853 119.656 78.405 120.216C77.957 120.76 77.733 121.52 77.733 122.496V129H74.733ZM101.516 129.24C100.188 129.24 99.0439 128.992 98.0839 128.496C97.1239 128 96.3799 127.296 95.8519 126.384C95.3399 125.472 95.0839 124.392 95.0839 123.144C95.0839 121.928 95.3319 120.864 95.8279 119.952C96.3399 119.04 97.0359 118.328 97.9159 117.816C98.8119 117.288 99.8279 117.024 100.964 117.024C102.628 117.024 103.94 117.552 104.9 118.608C105.876 119.664 106.364 121.104 106.364 122.928V123.816H97.9639C98.1879 125.912 99.3879 126.96 101.564 126.96C102.22 126.96 102.876 126.864 103.532 126.672C104.188 126.464 104.788 126.144 105.332 125.712L106.172 127.728C105.612 128.192 104.908 128.56 104.06 128.832C103.212 129.104 102.364 129.24 101.516 129.24ZM101.084 119.064C100.204 119.064 99.4919 119.336 98.9479 119.88C98.4039 120.424 98.0759 121.16 97.9639 122.088H103.868C103.804 121.112 103.532 120.368 103.052 119.856C102.588 119.328 101.932 119.064 101.084 119.064Z" fill="#225B49"/>
<defs>
<linearGradient id="paint0_linear" x1="55.5355" y1="86.9898" x2="55.5355" y2="49.1207" gradientUnits="userSpaceOnUse">
<stop stop-color="white" stop-opacity="0.95"/>
<stop offset="1" stop-color="white" stop-opacity="0.5"/>
</linearGradient>
</defs>
</svg>
