<svg width="100" height="123" viewBox="0 0 100 123" fill="none" xmlns="http://www.w3.org/2000/svg">
<g clip-path="url(#clip0)">
<path fill-rule="evenodd" clip-rule="evenodd" d="M83.9783 44.0697C82.5528 20.565 57.2114 0.22604 46.7718 0.00154556C36.328 -0.225809 16.8102 24.6674 16.02 49.9595C15.28 73.6744 35.3143 89.9367 43.9388 92C44.179 80.8425 45.0628 39.7628 45.2108 34.9727C45.5221 25.1835 45.9983 9.95223 47.6165 9.44605C48.545 9.15578 49.8099 17.718 49.655 22.7785C49.6229 23.7436 49.6117 26.8708 49.6117 31.3092C51.3584 29.5147 53.1818 27.6516 54.2904 26.5505C57.33 23.5334 58.6746 23.8923 57.2169 26.5834C56.3192 28.2392 52.4586 33.7444 49.6201 37.7338C49.6354 45.7799 49.6717 55.9064 49.7094 65.3423C53.718 60.6022 58.6257 54.9198 61.2031 52.3932C66.6107 47.0982 67.186 47.766 64.6323 53.324C63.0643 56.73 55.3962 65.8156 49.7374 72.9809C49.7723 81.3544 49.8002 88.3938 49.8058 91.7541C64.9869 88.3809 85.3732 67.1469 83.9783 44.0697Z" fill="#DB6A26"/>
<path fill-rule="evenodd" clip-rule="evenodd" d="M14.0855 113.147C14.0855 112.261 13.9726 111.465 13.7475 110.756C13.523 110.048 13.1991 109.446 12.777 108.955C12.3551 108.463 11.8379 108.086 11.2274 107.823C10.6161 107.561 9.92031 107.43 9.14089 107.43C8.35304 107.43 7.65109 107.561 7.03698 107.823C6.42147 108.086 5.90363 108.463 5.48122 108.955C5.05853 109.446 4.73548 110.048 4.50954 110.756C4.285 111.465 4.17217 112.261 4.17217 113.147C4.17217 114.04 4.285 114.842 4.50954 115.55C4.73548 116.259 5.05853 116.86 5.48122 117.352C5.90363 117.843 6.42147 118.218 7.03698 118.476C7.65109 118.735 8.35304 118.864 9.14089 118.864C9.92031 118.864 10.6161 118.735 11.2274 118.476C11.8379 118.218 12.3551 117.843 12.777 117.352C13.1991 116.86 13.523 116.259 13.7475 115.55C13.9726 114.842 14.0855 114.04 14.0855 113.147ZM18.2585 113.147C18.2585 114.443 18.0387 115.647 17.6006 116.762C17.1622 117.876 16.5461 118.846 15.7498 119.669C14.9541 120.492 13.9954 121.138 12.8735 121.605C11.7517 122.072 10.508 122.306 9.14089 122.306C7.77402 122.306 6.5284 122.072 5.40263 121.605C4.27714 121.138 3.31472 120.492 2.51453 119.669C1.7135 118.846 1.09546 117.876 0.65677 116.762C0.218923 115.647 0 114.443 0 113.147C0 111.853 0.218923 110.648 0.65677 109.532C1.09546 108.417 1.7135 107.451 2.51453 106.631C3.31472 105.811 4.27714 105.168 5.40263 104.701C6.5284 104.234 7.77402 104.001 9.14089 104.001C10.508 104.001 11.7517 104.236 12.8735 104.707C13.9954 105.179 14.9541 105.825 15.7498 106.644C16.5461 107.463 17.1622 108.431 17.6006 109.545C18.0387 110.66 18.2585 111.86 18.2585 113.147Z" fill="#586667"/>
<path fill-rule="evenodd" clip-rule="evenodd" d="M29.6847 117.352C29.269 117.843 28.7593 118.218 28.1578 118.476C27.5555 118.735 26.8698 118.863 26.1019 118.863C25.3256 118.863 24.634 118.735 24.0292 118.476C23.4223 118.218 22.9121 117.843 22.4961 117.352C22.0793 116.86 21.7613 116.259 21.5388 115.55C21.3173 114.841 21.2062 114.04 21.2062 113.147C21.2062 112.261 21.3173 111.465 21.5388 110.755C21.7613 110.047 22.0793 109.446 22.4961 108.954C22.9121 108.462 23.4223 108.086 24.0292 107.823C24.634 107.561 25.3256 107.43 26.1019 107.43C26.8698 107.43 27.5555 107.561 28.1578 107.823C28.7593 108.086 29.269 108.462 29.6847 108.954C29.8856 109.192 30.0641 109.454 30.2188 109.743C30.5174 110.301 31.2671 110.234 31.2671 110.234H34.6666C34.597 110.002 34.5248 109.77 34.4373 109.545C34.0056 108.43 33.3982 107.463 32.6137 106.643C31.8296 105.824 30.8848 105.179 29.7798 104.707C28.6743 104.235 27.4494 104 26.1019 104C24.7552 104 23.5279 104.233 22.4189 104.7C21.31 105.168 20.3613 105.811 19.5729 106.63C18.784 107.451 18.1749 108.417 17.7427 109.532C17.3113 110.647 17.0955 111.852 17.0955 113.147C17.0955 114.442 17.3113 115.647 17.7427 116.762C18.1749 117.876 18.784 118.846 19.5729 119.669C20.3613 120.492 21.31 121.138 22.4189 121.605C23.5279 122.072 24.7552 122.306 26.1019 122.306C27.4494 122.306 28.6743 122.072 29.7798 121.605C30.8848 121.138 31.8296 120.492 32.6137 119.669C33.3982 118.846 34.0056 117.876 34.4373 116.762C34.5248 116.536 34.5972 116.304 34.6669 116.071H31.2671C30.955 116.071 30.4543 116.102 30.1424 116.636C30.0187 116.848 29.9134 117.081 29.6847 117.352Z" fill="#586667"/>
<path fill-rule="evenodd" clip-rule="evenodd" d="M54.4773 113.147C54.4773 112.261 54.3647 111.465 54.1399 110.755C53.9154 110.047 53.5915 109.446 53.1694 108.955C52.7472 108.462 52.2299 108.086 51.6198 107.823C51.0082 107.561 50.3124 107.43 49.5327 107.43C48.7451 107.43 48.0435 107.561 47.4294 107.823C46.8133 108.086 46.2954 108.462 45.8733 108.955C45.4506 109.446 45.1273 110.047 44.9016 110.755C44.6771 111.465 44.564 112.261 44.564 113.147C44.564 114.04 44.6771 114.841 44.9016 115.55C45.1273 116.259 45.4506 116.86 45.8733 117.352C46.2954 117.843 46.8133 118.218 47.4294 118.476C48.0435 118.735 48.7451 118.863 49.5327 118.863C50.3124 118.863 51.0082 118.735 51.6198 118.476C52.2299 118.218 52.7472 117.843 53.1694 117.352C53.5915 116.86 53.9154 116.259 54.1399 115.55C54.3647 114.841 54.4773 114.04 54.4773 113.147ZM58.6503 113.147C58.6503 114.442 58.43 115.647 57.9932 116.762C57.554 117.876 56.9376 118.845 56.1425 119.669C55.346 120.492 54.3877 121.138 53.2653 121.605C52.1438 122.072 50.9001 122.306 49.5327 122.306C48.1658 122.306 46.9205 122.072 45.795 121.605C44.669 121.138 43.7063 120.492 42.9069 119.669C42.1053 118.845 41.487 117.876 41.0489 116.762C40.611 115.647 40.3921 114.442 40.3921 113.147C40.3921 111.852 40.611 110.647 41.0489 109.532C41.487 108.417 42.1053 107.451 42.9069 106.631C43.7063 105.811 44.669 105.168 45.795 104.7C46.9205 104.233 48.1658 104 49.5327 104C50.9001 104 52.1438 104.236 53.2653 104.707C54.3877 105.179 55.346 105.824 56.1425 106.643C56.9376 107.463 57.554 108.43 57.9932 109.545C58.43 110.659 58.6503 111.86 58.6503 113.147Z" fill="#586667"/>
<path fill-rule="evenodd" clip-rule="evenodd" d="M63.2091 114.511V118.975H66.0942C66.6361 118.975 67.0796 118.904 67.4234 118.765C67.7667 118.626 68.0358 118.445 68.2295 118.224C68.4237 118.003 68.5568 117.753 68.6297 117.473C68.7022 117.196 68.7386 116.913 68.7386 116.626C68.7386 116.298 68.6965 116.003 68.6118 115.741C68.527 115.479 68.3816 115.258 68.1756 115.077C67.969 114.897 67.6954 114.757 67.3558 114.658C67.0162 114.561 66.5881 114.511 66.0709 114.511H63.2091ZM63.2091 111.733H65.3434C65.7958 111.733 66.2039 111.7 66.5685 111.635C66.9317 111.569 67.2413 111.455 67.4961 111.291C67.751 111.127 67.9441 110.901 68.0785 110.614C68.2118 110.327 68.2778 109.967 68.2778 109.532C68.2778 109.107 68.2259 108.752 68.1206 108.468C68.0154 108.186 67.8534 107.959 67.635 107.786C67.4172 107.614 67.1397 107.492 66.8048 107.418C66.4686 107.344 66.0709 107.307 65.6103 107.307H63.2091V111.733ZM59.1102 122.109V104.196H65.6103C66.8312 104.196 67.8702 104.311 68.7269 104.541C69.5837 104.77 70.2835 105.094 70.8249 105.512C71.3666 105.93 71.7606 106.438 72.0076 107.037C72.254 107.635 72.3778 108.303 72.3778 109.041C72.3778 109.442 72.3206 109.829 72.2077 110.202C72.0941 110.576 71.9167 110.925 71.6736 111.254C71.4311 111.581 71.1207 111.878 70.7401 112.145C70.3604 112.411 69.9031 112.643 69.369 112.839C70.5344 113.127 71.3946 113.592 71.9535 114.235C72.5109 114.879 72.7896 115.704 72.7896 116.712C72.7896 117.473 72.6439 118.183 72.3528 118.838C72.0618 119.495 71.6352 120.066 71.0738 120.554C70.5116 121.042 69.8184 121.423 68.9935 121.697C68.1689 121.972 67.2269 122.109 66.1674 122.109H59.1102Z" fill="#586667"/>
<path fill-rule="evenodd" clip-rule="evenodd" d="M84.7584 104.196V107.393H77.5056V111.573H83.0601V114.647H77.5056V118.912H84.7584V122.109H73.3826V104.196H84.7584Z" fill="#586667"/>
<path fill-rule="evenodd" clip-rule="evenodd" d="M89.6429 112.618H91.2924C91.8495 112.618 92.325 112.546 92.717 112.403C93.1094 112.259 93.4311 112.061 93.6817 111.807C93.9324 111.553 94.114 111.256 94.2273 110.916C94.3396 110.575 94.3974 110.208 94.3974 109.815C94.3974 109.029 94.1443 108.413 93.6391 107.971C93.1338 107.528 92.3513 107.307 91.2924 107.307H89.6429V112.618ZM89.6429 115.483V122.109H85.5439V104.196H91.2924C92.5691 104.196 93.6587 104.33 94.5608 104.596C95.462 104.863 96.1985 105.234 96.7677 105.709C97.338 106.185 97.7517 106.745 98.0116 107.393C98.2696 108.04 98.399 108.745 98.399 109.508C98.399 110.09 98.322 110.638 98.168 111.155C98.0155 111.671 97.7862 112.149 97.4837 112.587C97.1803 113.026 96.8081 113.417 96.368 113.761C95.9268 114.106 95.4193 114.388 94.8451 114.61C95.1204 114.749 95.3772 114.922 95.6155 115.126C95.8535 115.331 96.0624 115.581 96.2412 115.876L99.9999 122.109H96.2894C95.6012 122.109 95.1086 121.847 94.8094 121.323L91.8745 116.122C91.7451 115.892 91.593 115.729 91.4192 115.63C91.2461 115.532 91.0007 115.483 90.6864 115.483H89.6429Z" fill="#586667"/>
<path fill-rule="evenodd" clip-rule="evenodd" d="M35.7375 104.196V111.378H31.2347C30.8271 111.378 30.4971 111.699 30.4971 112.094V114.211C30.4971 114.607 30.8271 114.927 31.2347 114.927H35.7375V122.109H39.8364V104.196H35.7375Z" fill="#586667"/>
</g>
<defs>
<clipPath id="clip0">
<rect width="100" height="122.306" fill="white"/>
</clipPath>
</defs>
</svg>
