<svg width="100" height="127" viewBox="0 0 100 127" fill="none" xmlns="http://www.w3.org/2000/svg">
<g clip-path="url(#clip0)">
<path fill-rule="evenodd" clip-rule="evenodd" d="M6.39093 118.588H3.94502V123.322C3.94502 124.585 4.77347 124.565 6.39093 124.486V126.399C3.11657 126.794 1.81471 125.886 1.81471 123.322V118.588H0V116.537H1.81471V113.887L3.94502 113.256V116.537H6.39093V118.588ZM15.7147 116.537H17.845V126.399H15.7147V124.979C14.9651 126.025 13.8013 126.656 12.2628 126.656C9.58017 126.656 7.35123 124.387 7.35123 121.468C7.35123 118.529 9.58017 116.28 12.2628 116.28C13.8013 116.28 14.9651 116.912 15.7147 117.937V116.537ZM12.5981 124.624C14.3734 124.624 15.7147 123.302 15.7147 121.468C15.7147 119.634 14.3734 118.312 12.5981 118.312C10.8228 118.312 9.48154 119.634 9.48154 121.468C9.48154 123.302 10.8228 124.624 12.5981 124.624ZM21.3955 115.057C20.6459 115.057 20.0345 114.426 20.0345 113.696C20.0345 112.947 20.6459 112.335 21.3955 112.335C22.1451 112.335 22.7565 112.947 22.7565 113.696C22.7565 114.426 22.1451 115.057 21.3955 115.057ZM20.3303 126.399V116.537H22.4607V126.399H20.3303ZM24.9263 126.399V112H27.0566V126.399H24.9263ZM40.8839 116.537H43.1326L40.0357 126.399H37.9449L35.8934 119.752L33.8223 126.399H31.7314L28.6346 116.537H30.8833L32.7966 123.342L34.8677 116.537H36.8994L38.9508 123.342L40.8839 116.537ZM45.7757 115.057C45.0262 115.057 44.4147 114.426 44.4147 113.696C44.4147 112.947 45.0262 112.335 45.7757 112.335C46.5253 112.335 47.1367 112.947 47.1367 113.696C47.1367 114.426 46.5253 115.057 45.7757 115.057ZM44.7106 126.399V116.537H46.8409V126.399H44.7106ZM54.4942 116.28C56.7034 116.28 58.2814 117.779 58.2814 120.344V126.399H56.1511V120.561C56.1511 119.062 55.2832 118.273 53.9419 118.273C52.5414 118.273 51.4368 119.101 51.4368 121.113V126.399H49.3065V116.537H51.4368V117.799C52.0877 116.773 53.1529 116.28 54.4942 116.28ZM68.3807 112.592H70.511V126.399H68.3807V124.979C67.6311 126.025 66.4673 126.656 64.9288 126.656C62.2462 126.656 60.0172 124.387 60.0172 121.468C60.0172 118.529 62.2462 116.28 64.9288 116.28C66.4673 116.28 67.6311 116.912 68.3807 117.937V112.592ZM65.2641 124.624C67.0394 124.624 68.3807 123.302 68.3807 121.468C68.3807 119.634 67.0394 118.312 65.2641 118.312C63.4888 118.312 62.1475 119.634 62.1475 121.468C62.1475 123.302 63.4888 124.624 65.2641 124.624ZM77.6515 126.656C74.673 126.656 72.444 124.387 72.444 121.468C72.444 118.529 74.673 116.28 77.6515 116.28C79.5845 116.28 81.2612 117.286 82.0502 118.825L80.2157 119.89C79.7818 118.963 78.8152 118.371 77.6317 118.371C75.8959 118.371 74.5744 119.693 74.5744 121.468C74.5744 123.243 75.8959 124.565 77.6317 124.565C78.8152 124.565 79.7818 123.953 80.2552 123.046L82.0896 124.091C81.2612 125.65 79.5845 126.656 77.6515 126.656ZM85.6007 119.259C85.6007 121.054 90.9067 119.969 90.9067 123.618C90.9067 125.591 89.1906 126.656 87.0603 126.656C85.0878 126.656 83.6676 125.768 83.0364 124.348L84.8709 123.283C85.1865 124.17 85.9755 124.703 87.0603 124.703C88.0071 124.703 88.737 124.387 88.737 123.598C88.737 121.843 83.4309 122.829 83.4309 119.298C83.4309 117.444 85.0287 116.28 87.0406 116.28C88.6581 116.28 89.9994 117.03 90.6898 118.332L88.8948 119.338C88.5397 118.568 87.8493 118.213 87.0406 118.213C86.2713 118.213 85.6007 118.549 85.6007 119.259ZM94.6939 119.259C94.6939 121.054 100 119.969 100 123.618C100 125.591 98.2839 126.656 96.1536 126.656C94.1811 126.656 92.7609 125.768 92.1297 124.348L93.9641 123.283C94.2797 124.17 95.0687 124.703 96.1536 124.703C97.1004 124.703 97.8302 124.387 97.8302 123.598C97.8302 121.843 92.5242 122.829 92.5242 119.298C92.5242 117.444 94.1219 116.28 96.1339 116.28C97.7513 116.28 99.0926 117.03 99.783 118.332L97.988 119.338C97.633 118.568 96.9426 118.213 96.1339 118.213C95.3646 118.213 94.6939 118.549 94.6939 119.259Z" fill="#161E2E"/>
<path fill-rule="evenodd" clip-rule="evenodd" d="M50 25C36.6667 25 28.3333 31.6667 25 45C30 38.3333 35.8333 35.8333 42.5 37.5C46.3037 38.4509 49.0224 41.2104 52.0317 44.265C56.9339 49.2409 62.6076 55 75 55C88.3333 55 96.6667 48.3333 100 35C95 41.6667 89.1667 44.1667 82.5 42.5C78.6963 41.5491 75.9776 38.7896 72.9683 35.735C68.0661 30.7591 62.3924 25 50 25ZM25 55C11.6667 55 3.33333 61.6667 0 75C5 68.3333 10.8333 65.8333 17.5 67.5C21.3037 68.4509 24.0224 71.2104 27.0317 74.265C31.9339 79.2409 37.6076 85 50 85C63.3333 85 71.6667 78.3333 75 65C70 71.6667 64.1667 74.1667 57.5 72.5C53.6963 71.5491 50.9776 68.7896 47.9683 65.735C43.0661 60.7591 37.3924 55 25 55Z" fill="#16BDCA"/>
</g>
<defs>
<clipPath id="clip0">
<rect width="100" height="126.656" fill="white"/>
</clipPath>
</defs>
</svg>
