<svg width="20" height="20" viewBox="0 0 20 20" fill="none" xmlns="http://www.w3.org/2000/svg">
    <path d="M19.4104 2.82583C19.3118 2.85984 19.2132 2.89151 19.1146 2.92101C18.5119 3.10073 18.4565 2.86358 18.8929 2.34037C19.0883 2.10592 19.2609 1.85091 19.4109 1.57549C19.747 0.957886 19.4555 0.688548 18.8836 0.977043C18.6796 1.07996 18.4723 1.17327 18.2621 1.25646C17.6728 1.49013 16.8367 1.13765 16.3117 0.744414C15.6489 0.248051 14.8956 0 14.0516 0C12.8694 0 11.8618 0.492366 11.0281 1.47632C10.1947 2.46079 9.77775 3.65109 9.77775 5.04682C9.77775 5.2377 9.78698 5.43149 9.80523 5.62798C9.83517 5.9478 9.37906 6.17964 8.76355 6.07699C7.43211 5.85501 6.1671 5.37858 4.96828 4.64824C3.77935 3.92403 2.73002 3.01267 1.82048 1.91412C1.3857 1.38909 0.797675 1.43431 0.635337 2.14306C0.538074 2.56792 0.4897 3.00976 0.4897 3.46868C0.4897 4.33351 0.661676 5.13561 1.0057 5.87499C1.17679 6.24294 1.37717 6.57605 1.60727 6.8741C1.99429 7.37581 1.93507 7.66691 1.39633 7.48854C0.85782 7.31017 0.463178 7.04535 0.463178 7.06264C0.463178 7.07993 0.463178 7.094 0.463178 7.094C0.463178 8.31245 0.787154 9.38307 1.43551 10.3048C1.8349 10.8727 2.29888 11.3113 2.82728 11.6203C3.38448 11.9462 3.64405 12.128 3.33247 12.1757C3.14449 12.2044 2.95537 12.2187 2.76515 12.2187C2.6364 12.2187 2.50132 12.2118 2.36039 12.1977C2.1375 12.1754 2.09744 12.7238 2.43536 13.3402C2.70394 13.8299 3.04771 14.2608 3.46648 14.6331C3.89243 15.0119 4.35148 15.2839 4.84291 15.4495C5.44087 15.6508 5.56087 16.0174 5.02772 16.3949C3.70846 17.3297 2.24849 17.7971 0.648028 17.7971C0.467702 17.7971 0.29569 17.7923 0.131366 17.783C-0.153875 17.7668 0.0374873 18.0635 0.58814 18.404C2.30882 19.4683 4.17222 20 6.17862 20C7.69557 20 9.12019 19.7164 10.4523 19.1487C11.7839 18.5811 12.922 17.8205 13.8657 16.8673C14.8095 15.9142 15.6233 14.8181 16.307 13.5783C16.9906 12.3387 17.4998 11.0444 17.8353 9.69571C18.1702 8.34673 18.338 6.99509 18.338 5.6408C18.338 5.51877 18.3371 5.40921 18.3355 5.31273C18.3324 5.1314 18.7385 4.6406 19.1919 4.13841C19.3965 3.91165 19.5917 3.67368 19.7782 3.42406C20.1894 2.87288 20.0073 2.62031 19.4104 2.82583Z" fill="#363636"/>
</svg>
