<svg width="101" height="128" viewBox="0 0 101 128" fill="none" xmlns="http://www.w3.org/2000/svg">
<g clip-path="url(#clip0)">
<path d="M62.5435 0.000457764L50.9968 20L39.4501 0.000457764H0.998047L50.9968 86.6018L100.996 0.000457764H62.5435Z" fill="#41B883"/>
<path d="M62.5435 0.000419617L50.9968 19.9999L39.4501 0.000419617H20.9976L50.9968 51.9602L80.996 0.000419617H62.5435Z" fill="#34495E"/>
<path d="M31.302 122.138C31.0414 122.138 30.796 122.084 30.566 121.977C30.336 121.854 30.1827 121.686 30.106 121.471L25.391 106.176C25.3757 106.115 25.368 106.053 25.368 105.992C25.368 105.839 25.4294 105.701 25.552 105.578C25.6747 105.455 25.828 105.363 26.012 105.302C26.196 105.225 26.3724 105.187 26.541 105.187C26.7097 105.187 26.8554 105.225 26.978 105.302C27.116 105.363 27.208 105.471 27.254 105.624L31.302 119.286L35.327 105.624C35.373 105.471 35.4574 105.363 35.58 105.302C35.7027 105.225 35.8484 105.187 36.017 105.187C36.201 105.187 36.385 105.225 36.569 105.302C36.753 105.379 36.9064 105.478 37.029 105.601C37.1517 105.708 37.213 105.846 37.213 106.015C37.213 106.03 37.2054 106.053 37.19 106.084C37.19 106.115 37.19 106.145 37.19 106.176L32.498 121.471C32.4367 121.686 32.291 121.854 32.061 121.977C31.831 122.084 31.578 122.138 31.302 122.138Z" fill="#273849"/>
<path d="M42.5212 122.184C41.6779 122.184 40.9112 121.977 40.2212 121.563C39.5312 121.149 38.9792 120.605 38.5652 119.93C38.1512 119.255 37.9442 118.535 37.9442 117.768V111.788C37.9442 111.619 38.0362 111.466 38.2202 111.328C38.4195 111.175 38.6495 111.098 38.9102 111.098C39.1709 111.098 39.3932 111.175 39.5772 111.328C39.7612 111.466 39.8532 111.619 39.8532 111.788V117.768C39.8532 118.213 39.9682 118.642 40.1982 119.056C40.4435 119.47 40.7655 119.807 41.1642 120.068C41.5629 120.329 42.0075 120.459 42.4982 120.459C42.9889 120.459 43.4335 120.329 43.8322 120.068C44.2309 119.807 44.5452 119.47 44.7752 119.056C45.0052 118.642 45.1202 118.213 45.1202 117.768V111.765C45.1202 111.581 45.2199 111.428 45.4192 111.305C45.6185 111.167 45.8409 111.098 46.0862 111.098C46.3775 111.098 46.6075 111.167 46.7762 111.305C46.9449 111.428 47.0292 111.581 47.0292 111.765V117.768C47.0292 118.55 46.8222 119.278 46.4082 119.953C46.0095 120.612 45.4652 121.149 44.7752 121.563C44.0852 121.977 43.3339 122.184 42.5212 122.184Z" fill="#273849"/>
<path d="M54.364 122.184C53.3674 122.184 52.4857 122 51.719 121.632C50.9524 121.249 50.3467 120.727 49.902 120.068C49.4574 119.393 49.235 118.611 49.235 117.722V115.307C49.235 114.525 49.442 113.804 49.856 113.145C50.2854 112.486 50.845 111.957 51.535 111.558C52.225 111.159 52.984 110.96 53.812 110.96C54.6094 110.96 55.3377 111.144 55.997 111.512C56.6717 111.88 57.2084 112.378 57.607 113.007C58.021 113.636 58.228 114.364 58.228 115.192C58.228 115.805 58.1284 116.25 57.929 116.526C57.7297 116.787 57.4767 116.948 57.17 117.009C56.8634 117.07 56.5414 117.101 56.204 117.101H51.144V117.791C51.144 118.65 51.4507 119.332 52.064 119.838C52.6774 120.329 53.467 120.574 54.433 120.574C55.0004 120.574 55.4527 120.497 55.79 120.344C56.1274 120.191 56.4034 120.045 56.618 119.907C56.8327 119.754 57.0244 119.677 57.193 119.677C57.3617 119.677 57.4997 119.731 57.607 119.838C57.7297 119.93 57.8217 120.045 57.883 120.183C57.9444 120.321 57.975 120.444 57.975 120.551C57.975 120.75 57.8294 120.98 57.538 121.241C57.2467 121.486 56.825 121.709 56.273 121.908C55.7364 122.092 55.1 122.184 54.364 122.184ZM51.144 115.813H55.399C55.813 115.813 56.0814 115.767 56.204 115.675C56.342 115.568 56.411 115.368 56.411 115.077C56.411 114.617 56.296 114.195 56.066 113.812C55.8514 113.413 55.5447 113.091 55.146 112.846C54.7474 112.601 54.295 112.478 53.789 112.478C53.3137 112.478 52.8767 112.593 52.478 112.823C52.0794 113.038 51.7574 113.337 51.512 113.72C51.2667 114.103 51.144 114.525 51.144 114.985V115.813Z" fill="#273849"/>
<path d="M61.0304 122.138C60.6778 122.138 60.3864 122.015 60.1564 121.77C59.9264 121.525 59.8114 121.249 59.8114 120.942C59.8114 120.605 59.9264 120.321 60.1564 120.091C60.3864 119.846 60.6778 119.723 61.0304 119.723C61.3371 119.723 61.6054 119.846 61.8354 120.091C62.0808 120.321 62.2034 120.605 62.2034 120.942C62.2034 121.249 62.0808 121.525 61.8354 121.77C61.6054 122.015 61.3371 122.138 61.0304 122.138Z" fill="#273849"/>
<path d="M63.1644 127.267C62.7964 127.267 62.5357 127.175 62.3824 126.991C62.2291 126.822 62.1524 126.638 62.1524 126.439C62.1524 126.178 62.2367 125.971 62.4054 125.818C62.5587 125.665 62.7351 125.588 62.9344 125.588C63.3791 125.588 63.7011 125.473 63.9004 125.243C64.1151 125.013 64.2454 124.691 64.2914 124.277C64.3527 123.878 64.3834 123.426 64.3834 122.92V111.765C64.3834 111.566 64.4754 111.405 64.6594 111.282C64.8434 111.159 65.0657 111.098 65.3264 111.098C65.6024 111.098 65.8324 111.159 66.0164 111.282C66.2004 111.405 66.2924 111.566 66.2924 111.765V122.92C66.2924 123.763 66.1851 124.515 65.9704 125.174C65.7557 125.833 65.4184 126.347 64.9584 126.715C64.4984 127.083 63.9004 127.267 63.1644 127.267ZM65.3264 108.108C65.0044 108.108 64.7207 108.001 64.4754 107.786C64.2454 107.556 64.1304 107.295 64.1304 107.004C64.1304 106.713 64.2454 106.46 64.4754 106.245C64.7207 106.03 65.0044 105.923 65.3264 105.923C65.6637 105.923 65.9397 106.03 66.1544 106.245C66.3844 106.46 66.4994 106.713 66.4994 107.004C66.4994 107.295 66.3844 107.556 66.1544 107.786C65.9397 108.001 65.6637 108.108 65.3264 108.108Z" fill="#273849"/>
<path d="M72.1608 122.184C71.4248 122.184 70.7732 122.092 70.2058 121.908C69.6385 121.709 69.1938 121.479 68.8718 121.218C68.5498 120.957 68.3888 120.697 68.3888 120.436C68.3888 120.313 68.4195 120.191 68.4808 120.068C68.5422 119.93 68.6188 119.815 68.7108 119.723C68.8182 119.616 68.9332 119.562 69.0558 119.562C69.2398 119.562 69.4392 119.654 69.6538 119.838C69.8685 120.007 70.1598 120.183 70.5278 120.367C70.8958 120.551 71.4248 120.643 72.1148 120.643C72.9275 120.643 73.4948 120.497 73.8168 120.206C74.1388 119.899 74.2998 119.562 74.2998 119.194C74.2998 118.719 74.1618 118.358 73.8858 118.113C73.6098 117.852 73.2572 117.653 72.8278 117.515C72.3985 117.362 71.9462 117.216 71.4708 117.078C70.9955 116.94 70.5432 116.771 70.1138 116.572C69.6845 116.357 69.3318 116.066 69.0558 115.698C68.7952 115.315 68.6648 114.809 68.6648 114.18C68.6648 113.674 68.7875 113.176 69.0328 112.685C69.2782 112.194 69.6768 111.788 70.2288 111.466C70.7808 111.129 71.5168 110.96 72.4368 110.96C72.9735 110.96 73.4872 111.021 73.9778 111.144C74.4838 111.251 74.8902 111.405 75.1968 111.604C75.5188 111.788 75.6798 111.987 75.6798 112.202C75.6798 112.294 75.6492 112.417 75.5878 112.57C75.5265 112.723 75.4422 112.861 75.3348 112.984C75.2275 113.107 75.0895 113.168 74.9208 113.168C74.7982 113.168 74.6218 113.114 74.3918 113.007C74.1772 112.884 73.9088 112.769 73.5868 112.662C73.2802 112.555 72.9045 112.501 72.4598 112.501C71.9538 112.501 71.5475 112.593 71.2408 112.777C70.9342 112.946 70.7118 113.153 70.5738 113.398C70.4358 113.628 70.3668 113.866 70.3668 114.111C70.3668 114.494 70.4972 114.793 70.7578 115.008C71.0338 115.223 71.3865 115.399 71.8158 115.537C72.2605 115.66 72.7205 115.79 73.1958 115.928C73.6712 116.051 74.1235 116.235 74.5528 116.48C74.9822 116.71 75.3348 117.032 75.6108 117.446C75.8868 117.86 76.0248 118.412 76.0248 119.102C76.0248 120.037 75.6875 120.789 75.0128 121.356C74.3382 121.908 73.3875 122.184 72.1608 122.184Z" fill="#273849"/>
</g>
<defs>
<clipPath id="clip0">
<rect width="99.9975" height="127.336" fill="white" transform="translate(0.998047 0.000366211)"/>
</clipPath>
</defs>
</svg>
