<svg width="356" height="39" viewBox="0 0 356 39" fill="none" xmlns="http://www.w3.org/2000/svg">
    <path d="M0.92 7.04C0.92 6.304 0.936 5.76 0.968 5.408C1.032 5.024 1.192 4.592 1.448 4.112C1.896 3.248 3.144 2.816 5.192 2.816C7.432 2.816 8.76 3.408 9.176 4.592C9.336 5.136 9.416 5.968 9.416 7.088V33.776C9.416 34.544 9.384 35.104 9.32 35.456C9.288 35.808 9.144 36.224 8.888 36.704C8.44 37.568 7.192 38 5.144 38C2.904 38 1.592 37.392 1.208 36.176C1.016 35.664 0.92 34.848 0.92 33.728V7.04ZM21.5041 16.064C23.0081 13.792 24.8161 12.656 26.9281 12.656C30.1921 12.656 32.6241 14.048 34.2241 16.832C34.5761 16.352 34.9921 15.856 35.4721 15.344C35.9841 14.8 36.7841 14.224 37.8721 13.616C38.9601 12.976 40.0801 12.656 41.2321 12.656C43.7921 12.656 45.9361 13.648 47.6641 15.632C49.3921 17.584 50.2561 20.832 50.2561 25.376V33.776C50.2561 34.512 50.2241 35.072 50.1601 35.456C50.1281 35.808 49.9841 36.224 49.7281 36.704C49.3121 37.568 48.0801 38 46.0321 38C44.0161 38 42.7841 37.552 42.3361 36.656C42.1121 36.176 41.9681 35.76 41.9041 35.408C41.8721 35.024 41.8561 34.464 41.8561 33.728V25.328C41.8561 22.544 40.8641 21.152 38.8801 21.152C37.7601 21.152 36.9921 21.52 36.5761 22.256C36.1921 22.992 36.0001 24.032 36.0001 25.376V33.776C36.0001 34.544 35.9681 35.104 35.9041 35.456C35.8721 35.808 35.7281 36.224 35.4721 36.704C35.0241 37.568 33.7761 38 31.7281 38C29.7121 38 28.4801 37.552 28.0321 36.656C27.8081 36.176 27.6641 35.76 27.6001 35.408C27.5681 35.024 27.5521 34.464 27.5521 33.728V25.328C27.5521 22.544 26.5601 21.152 24.5761 21.152C22.6561 21.152 21.6961 22.544 21.6961 25.328V33.824C21.6961 34.56 21.6641 35.12 21.6001 35.504C21.5681 35.856 21.4241 36.272 21.1681 36.752C20.6881 37.584 19.4401 38 17.4241 38C15.4081 38 14.1761 37.568 13.7281 36.704C13.5041 36.224 13.3601 35.808 13.2961 35.456C13.2641 35.104 13.2481 34.544 13.2481 33.776V16.88C13.2481 16.144 13.2641 15.6 13.2961 15.248C13.3601 14.864 13.5201 14.448 13.7761 14C14.2561 13.136 15.3921 12.704 17.1841 12.704C18.9761 12.704 20.1441 12.992 20.6881 13.568C21.2321 14.144 21.5041 14.976 21.5041 16.064ZM71.2603 12.992C71.8683 13.184 72.3643 13.52 72.7483 14C73.1643 14.448 73.3723 15.184 73.3723 16.208C73.3723 17.232 73.0683 18.352 72.4603 19.568C71.8523 20.784 70.9723 21.392 69.8203 21.392C69.2443 21.392 68.6843 21.264 68.1403 21.008C67.6283 20.752 66.9403 20.624 66.0763 20.624C65.2123 20.624 64.3963 20.928 63.6283 21.536C62.8923 22.144 62.5243 22.88 62.5243 23.744V33.824C62.5243 34.56 62.4923 35.12 62.4283 35.504C62.3963 35.856 62.2523 36.272 61.9963 36.752C61.5163 37.584 60.2683 38 58.2523 38C56.7163 38 55.6123 37.728 54.9403 37.184C54.4283 36.736 54.1403 36.048 54.0763 35.12C54.0763 34.8 54.0763 34.336 54.0763 33.728V16.88C54.0763 16.144 54.0923 15.6 54.1243 15.248C54.1883 14.864 54.3323 14.448 54.5563 14C55.0043 13.136 56.2523 12.704 58.3003 12.704C60.2203 12.704 61.4203 13.072 61.9003 13.808C62.2523 14.32 62.4283 14.848 62.4283 15.392C62.5883 15.168 62.8123 14.896 63.1003 14.576C63.4203 14.256 64.0763 13.824 65.0683 13.28C66.0603 12.736 66.9243 12.464 67.6603 12.464C68.4283 12.464 69.0683 12.512 69.5803 12.608C70.0923 12.672 70.6523 12.8 71.2603 12.992ZM90.9766 15.392C91.1686 13.6 92.4326 12.704 94.7686 12.704C96.0166 12.704 96.9446 12.8 97.5526 12.992C98.1606 13.184 98.5766 13.52 98.8006 14C99.0566 14.48 99.2006 14.912 99.2326 15.296C99.2966 15.648 99.3286 16.192 99.3286 16.928V33.728C99.3286 34.464 99.2966 35.024 99.2326 35.408C99.2006 35.76 99.0726 36.176 98.8486 36.656C98.4006 37.488 97.2966 37.904 95.5366 37.904C93.8086 37.904 92.6406 37.696 92.0326 37.28C91.4566 36.832 91.1206 36.192 91.0246 35.36C89.8406 37.056 87.8566 37.904 85.0726 37.904C82.3206 37.904 79.7606 36.64 77.3926 34.112C75.0246 31.584 73.8406 28.656 73.8406 25.328C73.8406 21.968 75.0246 19.04 77.3926 16.544C79.7926 14.016 82.4166 12.752 85.2646 12.752C86.3526 12.752 87.3446 12.944 88.2406 13.328C89.1366 13.712 89.7606 14.08 90.1126 14.432C90.4646 14.752 90.7526 15.072 90.9766 15.392ZM82.2406 25.376C82.2406 26.432 82.6566 27.392 83.4886 28.256C84.3206 29.088 85.3286 29.504 86.5126 29.504C87.6966 29.504 88.6726 29.072 89.4406 28.208C90.2406 27.344 90.6406 26.4 90.6406 25.376C90.6406 24.32 90.2566 23.344 89.4886 22.448C88.7526 21.552 87.7446 21.104 86.4646 21.104C85.2166 21.104 84.1926 21.552 83.3926 22.448C82.6246 23.344 82.2406 24.32 82.2406 25.376ZM117.218 12.704C120.418 12.704 123.074 13.936 125.186 16.4C127.33 18.832 128.402 21.808 128.402 25.328V33.776C128.402 34.512 128.37 35.072 128.306 35.456C128.274 35.808 128.146 36.208 127.922 36.656C127.474 37.52 126.226 37.952 124.178 37.952C121.906 37.952 120.594 37.36 120.242 36.176C120.05 35.632 119.954 34.816 119.954 33.728V25.28C119.954 23.968 119.57 22.944 118.802 22.208C118.066 21.472 117.058 21.104 115.778 21.104C114.53 21.104 113.506 21.488 112.706 22.256C111.938 23.024 111.554 24.032 111.554 25.28V33.776C111.554 34.512 111.522 35.072 111.458 35.456C111.426 35.808 111.282 36.208 111.026 36.656C110.61 37.52 109.378 37.952 107.33 37.952C105.314 37.952 104.082 37.52 103.634 36.656C103.41 36.176 103.266 35.76 103.202 35.408C103.17 35.024 103.154 34.464 103.154 33.728V16.736C103.154 16.032 103.17 15.504 103.202 15.152C103.266 14.768 103.426 14.352 103.682 13.904C104.13 13.104 105.362 12.704 107.378 12.704C109.33 12.704 110.53 13.072 110.978 13.808C111.298 14.352 111.458 15.008 111.458 15.776C111.586 15.552 111.874 15.232 112.322 14.816C112.77 14.4 113.202 14.064 113.618 13.808C114.706 13.072 115.906 12.704 117.218 12.704ZM156.648 22.352C156.648 24.304 156.152 25.76 155.16 26.72C154.2 27.648 153.128 28.112 151.944 28.112H140.568C140.568 29.008 141.096 29.76 142.152 30.368C143.208 30.976 144.264 31.28 145.32 31.28C147.176 31.28 148.632 31.088 149.688 30.704L150.216 30.512C150.984 30.16 151.624 29.984 152.136 29.984C153.16 29.984 154.04 30.704 154.776 32.144C155.192 33.008 155.4 33.744 155.4 34.352C155.4 37.2 151.992 38.624 145.176 38.624C142.808 38.624 140.696 38.224 138.84 37.424C137.016 36.592 135.592 35.504 134.568 34.16C132.552 31.568 131.544 28.672 131.544 25.472C131.544 21.44 132.84 18.224 135.432 15.824C138.056 13.392 141.32 12.176 145.224 12.176C149.672 12.176 152.936 13.744 155.016 16.88C156.104 18.544 156.648 20.368 156.648 22.352ZM146.52 23.744C147.736 23.744 148.344 23.232 148.344 22.208C148.344 21.472 148.056 20.88 147.48 20.432C146.936 19.984 146.136 19.76 145.08 19.76C144.056 19.76 143.032 20.192 142.008 21.056C140.984 21.888 140.472 22.784 140.472 23.744H146.52ZM193.904 28.784L194.768 28.16C195.856 27.52 196.624 27.2 197.072 27.2C198.064 27.2 199.136 28.096 200.288 29.888C200.992 31.008 201.344 31.904 201.344 32.576C201.344 33.248 201.12 33.808 200.672 34.256C200.256 34.704 199.76 35.104 199.184 35.456C198.608 35.808 198.048 36.144 197.504 36.464C196.992 36.784 195.92 37.2 194.288 37.712C192.656 38.224 191.072 38.48 189.536 38.48C188.032 38.48 186.496 38.288 184.928 37.904C183.392 37.488 181.792 36.816 180.128 35.888C178.496 34.928 177.024 33.776 175.712 32.432C174.4 31.056 173.312 29.312 172.448 27.2C171.616 25.056 171.2 22.736 171.2 20.24C171.2 17.744 171.616 15.488 172.448 13.472C173.28 11.424 174.336 9.744 175.616 8.432C176.928 7.088 178.416 5.968 180.08 5.072C183.216 3.344 186.368 2.48 189.536 2.48C191.04 2.48 192.56 2.72 194.096 3.2C195.664 3.648 196.848 4.112 197.648 4.592L198.8 5.264C199.376 5.616 199.824 5.904 200.144 6.128C200.976 6.8 201.392 7.568 201.392 8.432C201.392 9.264 201.056 10.144 200.384 11.072C199.136 12.8 198.016 13.664 197.024 13.664C196.448 13.664 195.632 13.312 194.576 12.608C193.232 11.52 191.44 10.976 189.2 10.976C187.12 10.976 185.072 11.696 183.056 13.136C182.096 13.84 181.296 14.832 180.656 16.112C180.016 17.392 179.696 18.848 179.696 20.48C179.696 22.08 180.016 23.52 180.656 24.8C181.296 26.08 182.112 27.088 183.104 27.824C185.056 29.232 187.088 29.936 189.2 29.936C190.192 29.936 191.12 29.808 191.984 29.552C192.88 29.296 193.52 29.04 193.904 28.784ZM218.514 12.8C221.714 12.8 224.37 14.016 226.482 16.448C228.626 18.88 229.698 21.856 229.698 25.376V33.824C229.698 34.56 229.666 35.12 229.602 35.504C229.57 35.856 229.426 36.272 229.17 36.752C228.754 37.584 227.522 38 225.474 38C223.522 38 222.306 37.584 221.826 36.752C221.57 36.272 221.41 35.84 221.346 35.456C221.314 35.072 221.298 34.496 221.298 33.728V25.328C221.298 24.016 220.93 22.992 220.194 22.256C219.458 21.52 218.514 21.152 217.362 21.152C216.242 21.152 215.25 21.504 214.386 22.208C213.522 22.88 213.026 23.648 212.898 24.512V33.824C212.898 34.56 212.866 35.12 212.802 35.504C212.77 35.856 212.626 36.272 212.37 36.752C211.954 37.584 210.722 38 208.674 38C206.658 38 205.426 37.568 204.978 36.704C204.754 36.224 204.61 35.808 204.546 35.456C204.514 35.104 204.498 34.544 204.498 33.776V5.072C204.498 4.336 204.514 3.792 204.546 3.44C204.61 3.056 204.754 2.64 204.978 2.192C205.426 1.328 206.674 0.895997 208.722 0.895997C210.738 0.895997 211.954 1.328 212.37 2.192C212.626 2.672 212.77 3.104 212.802 3.488C212.866 3.84 212.898 4.384 212.898 5.12V15.728C214.498 13.776 216.37 12.8 218.514 12.8ZM257.945 22.352C257.945 24.304 257.449 25.76 256.457 26.72C255.497 27.648 254.425 28.112 253.241 28.112H241.865C241.865 29.008 242.393 29.76 243.449 30.368C244.505 30.976 245.561 31.28 246.617 31.28C248.473 31.28 249.929 31.088 250.985 30.704L251.513 30.512C252.281 30.16 252.921 29.984 253.433 29.984C254.457 29.984 255.337 30.704 256.073 32.144C256.489 33.008 256.697 33.744 256.697 34.352C256.697 37.2 253.289 38.624 246.473 38.624C244.105 38.624 241.993 38.224 240.137 37.424C238.313 36.592 236.889 35.504 235.865 34.16C233.849 31.568 232.841 28.672 232.841 25.472C232.841 21.44 234.137 18.224 236.729 15.824C239.353 13.392 242.617 12.176 246.521 12.176C250.969 12.176 254.233 13.744 256.313 16.88C257.401 18.544 257.945 20.368 257.945 22.352ZM247.817 23.744C249.033 23.744 249.641 23.232 249.641 22.208C249.641 21.472 249.353 20.88 248.777 20.432C248.233 19.984 247.433 19.76 246.377 19.76C245.353 19.76 244.329 20.192 243.305 21.056C242.281 21.888 241.769 22.784 241.769 23.744H247.817ZM275.092 12.8C278.292 12.8 280.948 14.016 283.06 16.448C285.204 18.88 286.276 21.856 286.276 25.376V33.824C286.276 34.56 286.244 35.12 286.18 35.504C286.148 35.856 286.004 36.272 285.748 36.752C285.332 37.584 284.1 38 282.052 38C280.1 38 278.884 37.584 278.404 36.752C278.148 36.272 277.988 35.84 277.924 35.456C277.892 35.072 277.876 34.496 277.876 33.728V25.328C277.876 24.016 277.508 22.992 276.772 22.256C276.036 21.52 275.092 21.152 273.94 21.152C272.82 21.152 271.828 21.504 270.964 22.208C270.1 22.88 269.604 23.648 269.476 24.512V33.824C269.476 34.56 269.444 35.12 269.38 35.504C269.348 35.856 269.204 36.272 268.948 36.752C268.532 37.584 267.3 38 265.252 38C263.236 38 262.004 37.568 261.556 36.704C261.332 36.224 261.188 35.808 261.124 35.456C261.092 35.104 261.076 34.544 261.076 33.776V5.072C261.076 4.336 261.092 3.792 261.124 3.44C261.188 3.056 261.332 2.64 261.556 2.192C262.004 1.328 263.252 0.895997 265.3 0.895997C267.316 0.895997 268.532 1.328 268.948 2.192C269.204 2.672 269.348 3.104 269.38 3.488C269.444 3.84 269.476 4.384 269.476 5.12V15.728C271.076 13.776 272.948 12.8 275.092 12.8ZM306.555 15.392C306.747 13.6 308.011 12.704 310.347 12.704C311.595 12.704 312.523 12.8 313.131 12.992C313.739 13.184 314.155 13.52 314.379 14C314.635 14.48 314.779 14.912 314.811 15.296C314.875 15.648 314.907 16.192 314.907 16.928V33.728C314.907 34.464 314.875 35.024 314.811 35.408C314.779 35.76 314.651 36.176 314.427 36.656C313.979 37.488 312.875 37.904 311.115 37.904C309.387 37.904 308.219 37.696 307.611 37.28C307.035 36.832 306.699 36.192 306.603 35.36C305.419 37.056 303.435 37.904 300.651 37.904C297.899 37.904 295.339 36.64 292.971 34.112C290.603 31.584 289.419 28.656 289.419 25.328C289.419 21.968 290.603 19.04 292.971 16.544C295.371 14.016 297.995 12.752 300.843 12.752C301.931 12.752 302.923 12.944 303.819 13.328C304.715 13.712 305.339 14.08 305.691 14.432C306.043 14.752 306.331 15.072 306.555 15.392ZM297.819 25.376C297.819 26.432 298.235 27.392 299.067 28.256C299.899 29.088 300.907 29.504 302.091 29.504C303.275 29.504 304.251 29.072 305.019 28.208C305.819 27.344 306.219 26.4 306.219 25.376C306.219 24.32 305.835 23.344 305.067 22.448C304.331 21.552 303.323 21.104 302.043 21.104C300.795 21.104 299.771 21.552 298.971 22.448C298.203 23.344 297.819 24.32 297.819 25.376ZM332.605 12.752C335.453 12.752 338.061 14.016 340.429 16.544C342.829 19.072 344.029 22.016 344.029 25.376C344.029 28.704 342.845 31.632 340.477 34.16C338.109 36.656 335.565 37.904 332.845 37.904C330.125 37.904 328.189 37.136 327.037 35.6C326.781 37.168 325.405 37.952 322.909 37.952C320.893 37.952 319.661 37.52 319.213 36.656C318.989 36.176 318.845 35.76 318.781 35.408C318.749 35.024 318.733 34.464 318.733 33.728V5.072C318.733 4.336 318.749 3.792 318.781 3.44C318.845 3.056 318.989 2.64 319.213 2.192C319.661 1.328 320.909 0.895997 322.957 0.895997C324.973 0.895997 326.189 1.328 326.605 2.192C326.861 2.672 327.005 3.104 327.037 3.488C327.101 3.84 327.133 4.384 327.133 5.12V15.104C328.413 13.536 330.237 12.752 332.605 12.752ZM328.381 28.256C329.181 29.12 330.173 29.552 331.357 29.552C332.541 29.552 333.549 29.12 334.381 28.256C335.213 27.392 335.629 26.432 335.629 25.376C335.629 24.32 335.245 23.36 334.477 22.496C333.709 21.6 332.685 21.152 331.405 21.152C330.125 21.152 329.101 21.6 328.333 22.496C327.597 23.392 327.229 24.368 327.229 25.424C327.229 26.448 327.613 27.392 328.381 28.256ZM347.139 16.928C347.139 16.192 347.155 15.648 347.187 15.296C347.251 14.912 347.395 14.48 347.619 14C348.067 13.168 349.315 12.752 351.363 12.752C352.899 12.752 353.987 13.024 354.627 13.568C355.171 14.016 355.459 14.704 355.491 15.632C355.523 15.952 355.539 16.416 355.539 17.024V33.824C355.539 34.56 355.507 35.12 355.443 35.504C355.411 35.856 355.267 36.272 355.011 36.752C354.595 37.584 353.363 38 351.315 38C349.299 38 348.067 37.568 347.619 36.704C347.395 36.224 347.251 35.808 347.187 35.456C347.155 35.104 347.139 34.544 347.139 33.776V16.928ZM355.011 8.048C354.787 8.496 354.371 8.816 353.763 9.008C353.155 9.2 352.339 9.296 351.315 9.296C350.323 9.296 349.523 9.2 348.915 9.008C348.307 8.816 347.875 8.48 347.619 8C347.395 7.52 347.251 7.104 347.187 6.752C347.155 6.368 347.139 5.808 347.139 5.072C347.139 4.336 347.155 3.792 347.187 3.44C347.251 3.056 347.395 2.64 347.619 2.192C348.067 1.328 349.315 0.895997 351.363 0.895997C353.379 0.895997 354.595 1.328 355.011 2.192C355.267 2.672 355.411 3.104 355.443 3.488C355.507 3.84 355.539 4.384 355.539 5.12C355.539 5.856 355.507 6.416 355.443 6.8C355.411 7.152 355.267 7.568 355.011 8.048Z" fill="#363636"/>
</svg>
